<?xml version="1.0" encoding="UTF-8"?>
<svg id="Camada_2" data-name="Camada 2" xmlns="http://www.w3.org/2000/svg" viewBox="0 0 55.23 55.26">
  <g id="Camada_1-2" data-name="Camada 1">
    <g>
      <path d="M0,38.05c1.1-2.06,3.35-3.14,5.46-1.7.63.43,1.57,1.81,1.57,2.55v9.33h9.33c.71,0,1.98.86,2.43,1.45,1.61,2.12.51,4.64-1.82,5.58H2.18c-1.01-.5-1.68-1.17-2.18-2.18v-15.03Z"/>
      <path d="M0,2.42C.84,1.47,1.44.45,2.81.26c4.25-.6,9.83.36,14.22.03,2.91.9,3.47,4.91.75,6.46-.17.1-1.33.52-1.42.52H7.03v9.33c0,.9-1.19,2.43-2.01,2.84-1.95.97-4.11-.14-5.02-1.99V2.42Z"/>
      <path d="M52.6,55.26h-14.54c-2.91-.93-3.56-4.95-.82-6.51.17-.1,1.33-.52,1.42-.52h9.33v-8.85c0-.08.36-1.33.43-1.51,1.25-3.02,5.92-2.44,6.54.59.38,1.86.32,11.94.03,13.98-.21,1.48-1.29,2.03-2.4,2.81Z"/>
      <path d="M47.99,7.27h-9.33c-.72,0-1.97-.86-2.43-1.45-1.81-2.32-.42-5.32,2.42-5.59,3.17-.31,9.93-.3,13.11,0,1.72.16,3.06,1.27,3.26,3.04.5,4.35-.28,9.74-.11,14.19-.84,2.48-4.17,3.33-5.95,1.33-.28-.32-.97-1.85-.97-2.18V7.27Z"/>
    </g>
  </g>
</svg>