<?xml version="1.0" encoding="UTF-8"?>
<svg id="Camada_2" data-name="Camada 2" xmlns="http://www.w3.org/2000/svg" viewBox="0 0 43.71 29.78">
  <g id="Camada_1-2" data-name="Camada 1">
    <g>
      <polygon points="2.71 0 2.96 15.23 43.71 15.37 43.71 29.62 40.84 29.62 40.84 22.09 2.87 22.09 2.71 29.78 0 29.78 0 0 2.71 0"/>
      <path d="M41.79,14.41H13.48c-.23-.14-.22-.32-.25-.55-.1-.85-.05-2.48,0-3.38.1-1.7.3-3.25,2.2-3.72l23.89-.04c.51.06,1.31.37,1.66.73.17.18.81,1.43.81,1.59v5.36Z"/>
      <path d="M6.82,6.6c6.22-1,6.24,8.8.16,7.92-4.45-.64-4.41-7.24-.16-7.92Z"/>
    </g>
  </g>
</svg>