<?xml version="1.0" encoding="UTF-8"?>
<svg id="Camada_2" data-name="Camada 2" xmlns="http://www.w3.org/2000/svg" viewBox="0 0 30 30">
  <defs>
    <style>
      .cls-1 {
        fill: #1d1d1b;
      }
    </style>
  </defs>
  <g id="Camada_1-2" data-name="Camada 1">
    <path class="cls-1" d="M18.64,19.37v7.91c.81,0,1.61-.03,2.42-.07,1.46-.07,2.26-.31,2.78-.52.65-.24,1.24-.62,1.73-1.12.5-.48.88-1.07,1.12-1.72.21-.53.45-1.32.52-2.78.07-1.58.09-2.06.09-6.06s-.02-4.48-.09-6.06c-.07-1.46-.31-2.26-.52-2.78-.27-.7-.6-1.2-1.12-1.72-.48-.5-1.07-.88-1.73-1.12-.53-.21-1.32-.45-2.78-.52-1.58-.07-2.06-.09-6.06-.09s-4.48.02-6.06.09c-1.46.07-2.26.31-2.78.52-.7.27-1.2.6-1.72,1.12-.5.48-.88,1.07-1.12,1.72-.21.53-.45,1.32-.52,2.79-.07,1.58-.09,2.06-.09,6.06s.02,4.48.09,6.06c.07,1.46.31,2.26.52,2.78.27.7.6,1.2,1.12,1.72.48.5,1.07.88,1.72,1.12.53.2,1.32.45,2.79.52,1.51.07,2.01.08,5.51.09v-7.92h-3.41v-3.88h3.41v-2.96c0-3.37,2.01-5.23,5.07-5.23,1.47,0,3.01.26,3.01.26v3.31h-1.69c-1.67,0-2.19,1.03-2.19,2.1v2.52h3.73l-.6,3.88h-3.13ZM21.18.09c1.59.07,2.69.33,3.64.7,1,.38,1.91.97,2.66,1.73.76.75,1.35,1.66,1.73,2.66.37.95.62,2.04.7,3.64.07,1.6.09,2.11.09,6.19s-.02,4.58-.09,6.18c-.07,1.59-.33,2.69-.7,3.64-.38,1-.97,1.91-1.73,2.66-.75.76-1.66,1.35-2.66,1.73-.95.37-2.05.62-3.64.7-1.6.07-2.11.09-6.18.09s-4.58-.02-6.18-.09c-1.6-.07-2.69-.33-3.64-.7-1-.38-1.91-.97-2.66-1.73-.76-.75-1.35-1.66-1.73-2.66-.37-.95-.62-2.05-.7-3.64-.07-1.6-.09-2.11-.09-6.18s.02-4.58.09-6.18c.07-1.6.33-2.69.7-3.64.38-1,.97-1.91,1.73-2.66.75-.76,1.66-1.35,2.66-1.73.95-.37,2.05-.62,3.64-.7,1.6-.07,2.11-.09,6.18-.09s4.58.02,6.18.09Z"/>
  </g>
</svg>