<svg width="32" height="32" viewBox="0 0 32 32" fill="none" xmlns="http://www.w3.org/2000/svg">
<path d="M19.644 20.374V28.283C20.4501 28.2741 21.2559 28.2494 22.061 28.209C23.523 28.142 24.318 27.898 24.846 27.693C25.498 27.4528 26.0875 27.069 26.571 26.57C27.0692 26.0864 27.4526 25.4973 27.693 24.846C27.899 24.318 28.143 23.523 28.209 22.061C28.281 20.478 28.297 20.005 28.297 15.999C28.297 11.994 28.281 11.52 28.209 9.938C28.143 8.476 27.899 7.682 27.693 7.153C27.422 6.453 27.096 5.953 26.571 5.428C26.0872 4.92989 25.4977 4.54679 24.846 4.307C24.318 4.101 23.523 3.857 22.061 3.79C20.479 3.718 20.005 3.703 16 3.703C11.995 3.703 11.521 3.718 9.939 3.79C8.477 3.857 7.683 4.101 7.154 4.307C6.453 4.578 5.954 4.903 5.429 5.428C4.93081 5.91195 4.54742 6.50139 4.307 7.153C4.101 7.682 3.858 8.476 3.791 9.938C3.719 11.52 3.703 11.994 3.703 15.999C3.703 20.005 3.719 20.479 3.791 22.061C3.858 23.523 4.101 24.318 4.307 24.846C4.578 25.546 4.904 26.045 5.429 26.57C5.91272 27.0687 6.50221 27.4525 7.154 27.693C7.683 27.898 8.477 28.142 9.939 28.209C11.444 28.277 11.947 28.294 15.448 28.296V20.373H12.038V16.491H15.448V13.533C15.448 10.167 17.453 8.308 20.521 8.308C21.99 8.308 23.526 8.57 23.526 8.57V11.876H21.833C20.164 11.876 19.644 12.911 19.644 13.973V16.492H23.37L22.773 20.374H19.644ZM22.185 1.091C23.78 1.163 24.872 1.417 25.825 1.788C26.8261 2.1643 27.7329 2.75473 28.482 3.518C29.2452 4.26735 29.8359 5.17406 30.213 6.175C30.583 7.128 30.837 8.22 30.909 9.815C30.983 11.416 31 11.927 31 16C31 20.073 30.983 20.584 30.909 22.185C30.837 23.78 30.583 24.872 30.213 25.825C29.8359 26.8259 29.2452 27.7327 28.482 28.482C27.7327 29.2452 26.8259 29.8359 25.825 30.213C24.872 30.583 23.78 30.837 22.185 30.909C20.584 30.983 20.073 31 16 31C11.927 31 11.416 30.983 9.815 30.909C8.22 30.837 7.128 30.583 6.175 30.213C5.17418 29.8357 4.26751 29.245 3.518 28.482C2.75473 27.7329 2.1643 26.8261 1.788 25.825C1.417 24.872 1.163 23.78 1.091 22.185C1.017 20.584 1 20.073 1 16C1 11.927 1.017 11.416 1.091 9.815C1.163 8.22 1.417 7.128 1.788 6.175C2.16453 5.17404 2.75493 4.26728 3.518 3.518C4.26712 2.75473 5.17392 2.1643 6.175 1.788C7.128 1.417 8.22 1.163 9.815 1.091C11.416 1.017 11.927 1 16 1C20.073 1 20.584 1.017 22.185 1.091Z" fill="white"/>
</svg>
