<?xml version="1.0" encoding="UTF-8"?>
<svg id="Camada_2" data-name="Camada 2" xmlns="http://www.w3.org/2000/svg" viewBox="0 0 45.3 59.22">
  <defs>
    <style>
      .cls-1 {
        fill: #fff;
      }
    </style>
  </defs>
  <g id="Camada_1-2" data-name="Camada 1">
    <path class="cls-1" d="M25.1.12c3.34.34,6.6,1.4,9.47,3.15,6.14,3.75,10.28,10.6,10.69,17.77.58,9.96-5.2,19-10.97,26.61-1.18,1.56-2.41,3.08-3.68,4.56-1.46,1.7-2.98,3.34-4.56,4.93-1.26,1.27-2.76,2.71-4.66,1.78-2.58-1.26-4.19-3.93-5.99-6.06-5.24-6.21-10.44-13.31-13.34-20.95C.3,27.27-.75,21.73.64,16.85c1.18-4.14,3.52-7.91,6.67-10.83,1.92-1.78,4.14-3.24,6.55-4.26C17.38.27,21.29-.27,25.1.12ZM21.5,10.57c-9.55.92-13.44,12.76-5.7,18.85,5.55,4.37,14.27,2.32,17.05-4.21,3.32-7.77-3.3-15.42-11.35-14.64Z"/>
  </g>
</svg>