<?xml version="1.0" encoding="UTF-8"?>
<svg id="Camada_2" data-name="Camada 2" xmlns="http://www.w3.org/2000/svg" viewBox="0 0 70.31 61.05">
  <defs>
    <style>
      .cls-1 {
        fill: #fff;
      }
    </style>
  </defs>
  <g id="Camada_1-2" data-name="Camada 1">
    <path class="cls-1" d="M21.46.2c5.64.85,10.77,4.37,13.89,9.17C39.1,2.18,48.29-1.49,56.09.72c7.8,2.21,13.62,9.8,14.17,17.89.35,5.16-1.23,10.32-3.8,14.81s-6.09,8.36-9.82,11.94c-5.82,5.59-12.23,10.56-19.09,14.81-.71.44-1.48.89-2.31.87-.77-.01-1.48-.41-2.14-.81-6.13-3.68-12.08-8.02-17.5-12.79-5.89-5.18-11.41-11.17-14.08-18.55C-.78,22.55-.65,14.85,3.18,9.09,7.11,3.18,13.44-.68,20.71.1c.25.03.5.06.75.1ZM18.28,4.56c-3.83.3-7.16,1.89-9.68,4.78-14.14,16.21,8.42,35.03,20.84,43.58.95.65,5.25,3.74,6.04,3.58,5.36-3.47,10.64-7.17,15.44-11.39,8.8-7.73,19.86-20.01,13.27-32.48-5.39-10.19-19.11-10.97-25.21-1.03-.74,1.21-1.89,4.86-2.97,5.18-2.84.85-2.81-1.87-3.71-3.54-2.88-5.33-7.69-9.18-14.03-8.68Z"/>
  </g>
</svg>