<svg width="32" height="32" viewBox="0 0 32 32" fill="none" xmlns="http://www.w3.org/2000/svg">
<path fill-rule="evenodd" clip-rule="evenodd" d="M16 3.705C20.005 3.705 20.479 3.721 22.061 3.792C23.523 3.859 24.318 4.103 24.847 4.308C25.499 4.548 26.089 4.932 26.573 5.431C27.0719 5.91534 27.4557 6.50552 27.696 7.158C27.902 7.686 28.145 8.48 28.212 9.943C28.284 11.524 28.3 11.999 28.3 16.004C28.3 20.009 28.284 20.482 28.212 22.065C28.145 23.527 27.902 24.321 27.696 24.85C27.4455 25.4963 27.0629 26.0832 26.5727 26.5733C26.0825 27.0633 25.4954 27.4457 24.849 27.696C24.32 27.902 23.526 28.145 22.064 28.213C20.482 28.284 20.008 28.3 16.002 28.3C11.997 28.3 11.523 28.284 9.941 28.213C8.478 28.145 7.684 27.902 7.156 27.696C6.5034 27.4564 5.91313 27.0729 5.429 26.574C4.9303 26.0897 4.54685 25.4995 4.307 24.847C4.101 24.318 3.857 23.524 3.79 22.062C3.718 20.48 3.703 20.006 3.703 16.001C3.703 11.996 3.718 11.523 3.79 9.94C3.857 8.478 4.101 7.683 4.307 7.155C4.54686 6.50282 4.93032 5.91293 5.429 5.429C5.91313 4.93009 6.5034 4.5466 7.156 4.307C7.684 4.1 8.478 3.857 9.941 3.79C11.523 3.718 11.997 3.703 16.002 3.703L16 3.705ZM16.002 1C11.928 1 11.418 1.017 9.818 1.091C8.218 1.164 7.128 1.419 6.175 1.789C5.175 2.166 4.267 2.757 3.517 3.52C2.75399 4.26953 2.1639 5.17667 1.788 6.178C1.417 7.13 1.163 8.222 1.091 9.818C1.018 11.415 1 11.928 1 16.001C1 20.074 1.017 20.585 1.091 22.186C1.164 23.785 1.417 24.873 1.788 25.825C2.16478 26.8256 2.75476 27.7322 3.517 28.482C4.26686 29.2451 5.17386 29.8358 6.175 30.213C7.128 30.583 8.22 30.837 9.816 30.909C11.413 30.982 11.928 31 16.001 31C20.075 31 20.586 30.983 22.186 30.909C23.786 30.836 24.872 30.583 25.824 30.213C26.8206 29.8272 27.7257 29.2377 28.4815 28.4821C29.2372 27.7265 29.827 26.8215 30.213 25.825C30.583 24.873 30.837 23.78 30.909 22.184C30.982 20.588 31 20.073 31 16C31 11.927 30.983 11.416 30.909 9.816C30.836 8.216 30.583 7.13 30.213 6.178C29.836 5.1773 29.2456 4.27065 28.483 3.521C27.7328 2.75761 26.8255 2.1666 25.824 1.789C24.872 1.419 23.779 1.166 22.184 1.093C20.587 1.021 20.073 1.003 16 1.003L16.002 1ZM16 8.299C14.8613 8.29953 13.7368 8.55245 12.7076 9.03956C11.6783 9.52668 10.7698 10.2359 10.0474 11.1161C9.32505 11.9964 8.80677 13.0258 8.52986 14.1304C8.25296 15.2349 8.22432 16.3871 8.446 17.504C8.74224 18.9983 9.47543 20.3711 10.5527 21.4483C11.6299 22.5256 13.0027 23.2588 14.497 23.555C15.991 23.8529 17.5398 23.7008 18.9474 23.118C20.3549 22.5352 21.5579 21.5479 22.404 20.281C23.1791 19.1213 23.6248 17.7729 23.6934 16.3796C23.762 14.9864 23.4509 13.6007 22.7934 12.3705C22.1359 11.1403 21.1566 10.1118 19.9601 9.39466C18.7637 8.67757 17.3949 8.29888 16 8.299ZM16 21.003C15.0108 21.0024 14.044 20.7088 13.2216 20.1592C12.3992 19.6096 11.758 18.8287 11.379 17.915C11.0011 17.001 10.9025 15.9956 11.0956 15.0256C11.2888 14.0556 11.7649 13.1646 12.464 12.465C13.1629 11.7648 14.054 11.288 15.0243 11.095C15.9946 10.902 17.0004 11.0015 17.914 11.381C18.8277 11.7597 19.6086 12.4007 20.1583 13.223C20.7079 14.0452 21.0015 15.0119 21.002 16.001C21.0021 16.658 20.8727 17.3085 20.6211 17.9154C20.3696 18.5224 20.0008 19.0737 19.536 19.538C19.0718 20.0026 18.5206 20.3711 17.9138 20.6225C17.3071 20.8738 16.6567 21.0032 16 21.003ZM25.807 7.995C25.8069 8.23151 25.7602 8.46568 25.6695 8.68414C25.5789 8.90259 25.4461 9.10106 25.2788 9.26821C25.1115 9.43535 24.9128 9.5679 24.6943 9.65829C24.4757 9.74868 24.2415 9.79513 24.005 9.795C23.7685 9.79487 23.5343 9.74815 23.3159 9.65752C23.0974 9.56689 22.8989 9.43412 22.7318 9.26679C22.5646 9.09946 22.4321 8.90085 22.3417 8.68229C22.2513 8.46373 22.2049 8.22951 22.205 7.993C22.2053 7.51535 22.3953 7.05736 22.7332 6.71979C23.0711 6.38223 23.5293 6.19273 24.007 6.193C24.4847 6.19326 24.9426 6.38327 25.2802 6.72121C25.6178 7.05915 25.8073 7.51734 25.807 7.995Z" fill="black"/>
</svg>
