<svg width="32" height="32" viewBox="0 0 32 32" fill="none" xmlns="http://www.w3.org/2000/svg">
<path d="M16.003 3.702C11.997 3.702 11.523 3.718 9.941 3.79C8.478 3.857 7.684 4.1 7.156 4.306C6.50358 4.54597 5.91339 4.92941 5.429 5.428C4.9303 5.91231 4.54685 6.50252 4.307 7.155C4.101 7.683 3.858 8.478 3.791 9.94C3.719 11.522 3.703 11.996 3.703 16.001C3.703 20.006 3.719 20.48 3.791 22.062C3.858 23.524 4.101 24.318 4.307 24.847C4.547 25.5 4.93 26.089 5.429 26.574C5.91339 27.0726 6.50358 27.456 7.156 27.696C7.684 27.902 8.478 28.145 9.941 28.212C11.523 28.284 11.997 28.3 16.003 28.3C20.008 28.3 20.483 28.284 22.064 28.212C23.526 28.145 24.321 27.902 24.85 27.696C25.4964 27.4457 26.0834 27.0631 26.5735 26.5729C27.0636 26.0826 27.4459 25.4955 27.696 24.849C27.902 24.321 28.146 23.526 28.213 22.065C28.285 20.482 28.3 20.009 28.3 16.004C28.3 11.998 28.285 11.524 28.213 9.943C28.146 8.48 27.902 7.686 27.696 7.158C27.4564 6.5054 27.0729 5.91513 26.574 5.431C26.0898 4.93199 25.4995 4.5482 24.847 4.308C24.318 4.103 23.524 3.858 22.062 3.792C20.479 3.72 20.006 3.705 16 3.705L16.003 3.702ZM16 1.002C20.074 1.002 20.587 1.02 22.184 1.093C23.78 1.165 24.873 1.419 25.825 1.789C26.8264 2.16624 27.7334 2.75731 28.483 3.521C29.2457 4.27017 29.8361 5.17652 30.213 6.177C30.584 7.129 30.837 8.216 30.91 9.815C30.983 11.416 31 11.927 31 16C31 20.073 30.982 20.588 30.91 22.184C30.837 23.78 30.584 24.873 30.213 25.825C29.8268 26.8212 29.2371 27.726 28.4815 28.4815C27.726 29.2371 26.8212 29.8268 25.825 30.213C24.873 30.583 23.786 30.836 22.187 30.909C20.586 30.982 20.075 31 16.002 31C11.928 31 11.413 30.982 9.817 30.909C8.221 30.837 7.128 30.583 6.176 30.213C5.1745 29.836 4.26737 29.2449 3.518 28.481C2.75495 27.7321 2.16454 26.8257 1.788 25.825C1.417 24.873 1.164 23.785 1.091 22.186C1.018 20.585 1 20.074 1 16.001C1 11.928 1.018 11.414 1.091 9.818C1.163 8.222 1.417 7.129 1.788 6.177C2.164 5.177 2.755 4.269 3.518 3.519C4.268 2.75633 5.17498 2.166 6.176 1.789C7.128 1.419 8.218 1.163 9.818 1.09C11.418 1.017 11.928 1 16.003 1L16 1.002ZM16.919 13.11C17.003 13.091 16.984 13.147 16.984 13.194V14.338C17.631 13.4 18.503 12.913 19.619 12.885C19.759 12.903 19.9 12.903 20.041 12.885C21.109 12.932 22.019 13.316 22.684 14.169C23.266 14.919 23.491 15.791 23.547 16.719C23.528 16.766 23.538 16.803 23.538 16.85V16.871C23.5415 16.8597 23.5477 16.8494 23.556 16.841C23.584 16.963 23.575 17.094 23.575 17.216V22.747C23.575 22.841 23.556 22.86 23.463 22.86H20.359C20.275 22.86 20.247 22.841 20.247 22.747V17.647C20.247 17.31 20.219 16.972 20.125 16.635C19.806 15.491 18.466 15.107 17.584 15.913C17.219 16.269 17.003 16.691 16.994 17.207V22.747C16.994 22.841 16.975 22.86 16.881 22.86H13.713C13.675 22.813 13.694 22.757 13.694 22.71C13.694 21.735 13.713 20.76 13.703 19.794C13.703 19.757 13.713 19.71 13.694 19.672V17.872C13.694 16.41 13.684 14.947 13.684 13.485C13.684 13.382 13.684 13.288 13.675 13.185C13.666 13.11 13.684 13.091 13.75 13.11C13.806 13.138 13.872 13.119 13.928 13.119H16.834C16.863 13.119 16.9 13.128 16.919 13.11ZM11.894 13.11H11.978C11.997 13.185 11.988 13.25 11.988 13.325V22.71C11.988 22.757 11.978 22.794 11.997 22.841C11.978 22.888 11.941 22.86 11.913 22.86H8.781C8.753 22.86 8.716 22.878 8.697 22.841C8.725 22.803 8.706 22.757 8.706 22.71V13.26C8.706 13.213 8.697 13.175 8.706 13.128C8.781 13.11 8.847 13.119 8.922 13.119H11.763C11.809 13.119 11.856 13.128 11.894 13.11ZM10.188 11.882C9.259 11.853 8.388 11.132 8.509 9.978C8.603 9.153 9.203 8.582 10.028 8.478C10.488 8.413 10.938 8.46 11.35 8.685C11.969 9.022 12.297 9.716 12.194 10.457C12.1 11.141 11.575 11.685 10.863 11.844C10.75 11.863 10.638 11.891 10.516 11.882C10.4069 11.872 10.2971 11.872 10.188 11.882Z" fill="white"/>
</svg>
