<?xml version="1.0" encoding="UTF-8"?>
<svg id="Camada_2" data-name="Camada 2" xmlns="http://www.w3.org/2000/svg" viewBox="0 0 66.54 58.27">
  <g id="Camada_1-2" data-name="Camada 1">
    <g>
      <path d="M44.76,58.23h-3.39c-3.8-1.5-7.58-2.8-11.75-2.54-3.31.2-6.33,1.55-9.43,2.54-.94-.08-2.05.12-2.97,0-5.74-.73-9.76-6.74-8.62-12.33.63-3.1,6.91-12.44,9.08-15.27,5.45-7.11,15.15-9.36,22.7-3.92,3.4,2.45,9.43,12.05,11.54,16,3.63,6.79.15,13.79-7.16,15.53Z"/>
      <path d="M.06,23.07c-.08-.63-.08-2.12,0-2.75,1.34-10.97,16.8-8.95,17.17,2.43.4,12.12-15.75,11.43-17.17.33Z"/>
      <path d="M32.61,19.61c-10.02,10.01-22.76-7.39-13.04-16.74s22.34,7.44,13.04,16.74Z"/>
      <path d="M46.41,5.33c11.87-.36,11.3,19.23-.31,20.25-12.4,1.09-11.78-19.89.31-20.25Z"/>
      <path d="M58.28,22.28c3.61-.21,6.99,2.26,7.94,5.71,2.5,9.17-9.73,17.18-15.52,9.8-4.62-5.88.43-15.08,7.58-15.51Z"/>
    </g>
  </g>
</svg>