<?xml version="1.0" encoding="UTF-8"?>
<svg id="Camada_2" data-name="Camada 2" xmlns="http://www.w3.org/2000/svg" viewBox="0 0 24 24.33">
  <defs>
    <style>
      .cls-1 {
        fill: #1d1d1b;
      }
    </style>
  </defs>
  <g id="Camada_1-2" data-name="Camada 1">
    <g>
      <path class="cls-1" d="M8.38.05c9.02-.88,14.28,9.84,7.03,15.8-4.51,3.71-11.81,2.25-14.46-2.96C-1.96,7.15,2.2.65,8.38.05ZM8.94,2.38c-9.64.6-7.69,14.86,1.8,13.01,8.36-1.62,6.65-13.54-1.8-13.01Z"/>
      <path class="cls-1" d="M17.62,16.59c.41-.13,5.5,5.27,6.33,5.84.08.09.05.15,0,.24-.12.23-1.71,1.74-1.9,1.65l-6.21-5.97c.4-.13,1.66-1.72,1.78-1.76Z"/>
    </g>
  </g>
</svg>