<?xml version="1.0" encoding="UTF-8"?>
<svg id="Camada_2" data-name="Camada 2" xmlns="http://www.w3.org/2000/svg" viewBox="0 0 55.53 59.07">
  <g id="Camada_1-2" data-name="Camada 1">
    <path d="M.04,29.81c.92-7.67,10.26-11.51,16.48-6.9.47.35,1.42,1.48,1.92,1.38l16.59-9.98c.34-.41-.33-2.29-.38-2.97-.87-10.19,12.04-15.42,18.49-7.5,7.76,9.53-4.93,22.93-15.29,14.09-.35-.3-.31-.78-1.1-.58l-16.47,9.96c-.08.07-.11.16-.12.27-.02.35.6,1.88.66,2.56.05.56.05,1.45,0,2.01-.05.5-.52,1.71-.28,2.02l15.84,8.19c.65.16,1.08-.86,1.47-1.22,7.8-7.31,20.25.47,17.07,10.78-1.05,3.4-4.63,6.71-8.22,7.14h-3.22c-1.49-.45-2.76-.76-4.09-1.61-3.37-2.15-5.11-5.87-4.76-9.86.05-.57.59-1.76.18-2.07l-15.82-8.07-.32.07c-4.08,5.4-12.1,5.55-16.36.27-1.21-1.5-1.86-3.16-2.28-5.03.08-.94-.11-2.04,0-2.95Z"/>
  </g>
</svg>