<?xml version="1.0" encoding="UTF-8"?>
<svg id="Camada_2" data-name="Camada 2" xmlns="http://www.w3.org/2000/svg" viewBox="0 0 58.29 58.31">
  <defs>
    <style>
      .cls-1 {
        fill: #fff;
      }
    </style>
  </defs>
  <g id="Camada_1-2" data-name="Camada 1">
    <g>
      <path class="cls-1" d="M58.29,32.72v.87c-.33.85-.83,1.19-1.72,1.34-.64.11-1.12-.2-1.5.5-1.73,4.51-2.76,9.47-4.52,13.94-1.42,3.61-3.93,5.55-7.85,5.94-.33.82.11,1.57-.46,2.34-.82,1.1-2.69.74-3-.61-.1-.45.07-1.53-.49-1.63l-19.42.06c-.32.23.2,1.92-1.03,2.59-1.11.6-2.34-.04-2.55-1.24-.08-.46.07-.96-.18-1.38-3.67-.68-6.28-2.29-7.71-5.83-1.85-4.58-2.95-9.78-4.64-14.45-.33-.55-1.33-.27-1.88-.37-1.61-.29-1.85-2.66-.31-3.24l55.58-.1c.93.08,1.33.41,1.68,1.25Z"/>
      <path class="cls-1" d="M13.11.04c1.08.13,2.72.91,3.55,1.63,1.8,1.53,2.4,3.69,2.49,5.99,1.22.3,2.68-.3,3.2,1.29s-.74,2.2-2.07,2.31-5.96.16-7.02-.22-1.36-1.92-.58-2.76c.83-.9,1.9-.26,2.9-.65.57-4.64-5.77-5.9-6.72-1.29l-.03,21.31c-.14.73-1.38.34-2.04.33-.51,0-.92.25-1.43,0V5.84C5.37,3.22,8.76.34,11.24.04c.44-.05,1.44-.05,1.87,0Z"/>
    </g>
  </g>
</svg>