<svg width="96" height="96" viewBox="0 0 96 96" fill="none" xmlns="http://www.w3.org/2000/svg">
<g clip-path="url(#clip0_255_269)">
<path d="M0.56 95.1898H0V94.8198L6.64 70.9098C-7.87 44.9198 3.7 12.9498 31.72 2.89984C66.48 -9.57016 101.04 20.0498 94.32 56.2098C88.54 87.3298 52.72 103.87 24.99 88.7098L0.56 95.1898ZM11.52 83.6698L26.28 79.9598C54.69 97.9898 91.57 75.0198 86.73 41.2498C84.31 24.3998 70.41 10.6398 53.57 8.26984C27.56 4.59984 5.57 26.3198 8.76 52.3398C9.52 58.4998 12.16 64.2598 15.41 69.4498L11.53 83.6698H11.52Z" fill="black"/>
<path d="M31.1701 25.1997C31.8901 25.1397 33.5701 25.2197 34.2401 25.3697C34.6601 25.4597 35.1301 25.9297 35.3801 26.2697C37.2301 28.7497 38.1701 33.8697 39.8501 36.6597C40.6401 38.8897 35.8301 42.2497 35.9101 43.7897C35.9401 44.4697 37.3901 46.5297 37.8601 47.1997C40.9901 51.6997 45.6301 55.7597 50.6501 57.9997C51.9601 58.5897 53.5601 59.5997 54.8101 58.4997C56.1201 57.3397 57.3701 55.0497 58.6101 53.7497C59.7801 52.5297 60.5901 52.9497 62.0501 53.4797C64.6501 54.4197 67.0601 55.9097 69.7601 56.8997C72.4601 57.8897 72.0901 59.5897 71.4701 62.1597C70.2401 67.2697 64.4801 69.9097 59.5401 69.7397C55.4201 69.5897 47.7501 66.2997 44.1501 64.1297C36.5701 59.5697 23.5601 45.6597 23.5701 36.3897C23.5701 32.3597 26.6301 25.5697 31.1701 25.2097V25.1997Z" fill="black"/>
</g>
<defs>
<clipPath id="clip0_255_269">
<rect width="95.17" height="95.19" fill="white"/>
</clipPath>
</defs>
</svg>
