<svg width="487" height="301" viewBox="0 0 487 301" fill="none" xmlns="http://www.w3.org/2000/svg">
<path d="M148.507 54.5902C173.786 29.5571 207.924 15.5142 243.5 15.5142V83.0142C225.712 83.0142 208.643 90.0357 196.004 102.552L148.507 54.5902Z" fill="#F9F1E6"/>
<path d="M144.835 58.3618C146.034 57.0783 147.258 55.8183 148.506 54.5825L196.002 102.544C195.378 103.162 194.766 103.792 194.167 104.434L144.835 58.3618Z" fill="#34A853"/>
<path d="M150.398 248.27C96.7792 197.205 94.2986 112.48 144.838 58.3657L194.17 104.438C168.9 131.495 170.14 173.858 196.949 199.39L150.398 248.27Z" fill="#3A8071"/>
<path d="M194.588 276.34C178.167 269.957 163.155 260.421 150.397 248.271L196.948 199.392C203.327 205.467 210.834 210.234 219.044 213.426L194.588 276.34Z" fill="#78C1B2"/>
<path d="M243.5 15.5142C297.743 15.5142 346.718 47.9799 367.843 97.9406C388.967 147.901 378.137 205.654 340.346 244.566C302.556 283.479 245.146 295.995 194.588 276.342L219.044 213.428C244.323 223.254 273.028 216.997 291.923 197.54C310.818 178.084 316.233 149.208 305.671 124.227C295.109 99.247 270.622 83.0142 243.5 83.0142V15.5142Z" fill="#193E3E"/>
<path d="M19.5268 42.0116H18.6803V36.5786C18.4697 36.7723 18.196 36.9703 17.859 37.1725C17.5305 37.3662 17.2357 37.5094 16.9746 37.602V36.7808C17.4463 36.5533 17.859 36.2838 18.2128 35.9721C18.575 35.6521 18.8319 35.3404 18.9835 35.0372H19.5268V42.0116ZM26.4633 41.1903V42.0116H21.8643C21.8643 41.8094 21.898 41.6115 21.9654 41.4177C22.0833 41.1061 22.2686 40.7986 22.5213 40.4954C22.7824 40.1922 23.1572 39.8426 23.6458 39.4467C24.4039 38.8234 24.9135 38.3306 25.1746 37.9684C25.4441 37.6062 25.5789 37.2651 25.5789 36.945C25.5789 36.6081 25.4568 36.3259 25.2125 36.0985C24.9682 35.8626 24.6523 35.7447 24.2649 35.7447C23.8521 35.7447 23.5236 35.8669 23.2794 36.1111C23.0351 36.3554 22.9087 36.6965 22.9003 37.1345L22.0285 37.0461C22.0875 36.3891 22.3107 35.8921 22.6982 35.5552C23.0941 35.2098 23.6247 35.0372 24.2902 35.0372C24.9556 35.0372 25.482 35.2225 25.8695 35.5931C26.257 35.9637 26.4507 36.4228 26.4507 36.9703C26.4507 37.2483 26.3917 37.522 26.2738 37.7916C26.1643 38.0527 25.9748 38.3348 25.7052 38.6381C25.4441 38.9329 25.0103 39.3372 24.4039 39.851C23.89 40.2806 23.5573 40.5754 23.4057 40.7355C23.2625 40.8871 23.1446 41.0387 23.0519 41.1903H26.4633ZM28.0932 42.0116V41.0387H29.0661V42.0116C29.0661 42.3653 29.0029 42.6517 28.8766 42.8707C28.7502 43.0982 28.5523 43.2708 28.2827 43.3888L28.0427 43.0223C28.2196 42.9465 28.3501 42.8286 28.4344 42.6686C28.5186 42.517 28.5691 42.298 28.586 42.0116H28.0932ZM32.7934 42.0116V40.3438H29.7863V39.5604L32.9576 35.0624H33.6525V39.5604H34.5875V40.3438H33.6525V42.0116H32.7934ZM32.7934 39.5604V36.4396L30.6202 39.5604H32.7934ZM35.8889 36.7302C35.8889 36.2333 36.011 35.8121 36.2553 35.4668C36.508 35.1214 36.8702 34.9487 37.3419 34.9487C37.7799 34.9487 38.1421 35.1046 38.4285 35.4162C38.7149 35.7279 38.8581 36.1827 38.8581 36.7808C38.8581 37.3704 38.7107 37.8252 38.4158 38.1453C38.1295 38.457 37.7757 38.6128 37.3545 38.6128C36.9334 38.6128 36.5838 38.457 36.3058 38.1453C36.0279 37.8337 35.8889 37.362 35.8889 36.7302ZM37.3672 35.5299C37.1566 35.5299 36.9797 35.6226 36.8365 35.8079C36.7017 35.9932 36.6343 36.3301 36.6343 36.8187C36.6343 37.2651 36.7017 37.581 36.8365 37.7663C36.9797 37.9432 37.1566 38.0316 37.3672 38.0316C37.5862 38.0316 37.763 37.939 37.8978 37.7536C38.041 37.5683 38.1126 37.2356 38.1126 36.7555C38.1126 36.3007 38.041 35.9848 37.8978 35.8079C37.7546 35.6226 37.5777 35.5299 37.3672 35.5299ZM37.3672 42.2643L41.1702 34.9487H41.8651L38.0747 42.2643H37.3672ZM40.3742 40.3817C40.3742 39.8847 40.4964 39.4636 40.7406 39.1182C40.9933 38.7729 41.3597 38.6002 41.8399 38.6002C42.2779 38.6002 42.6401 38.756 42.9265 39.0677C43.2128 39.3709 43.356 39.8258 43.356 40.4322C43.356 41.0218 43.2086 41.4767 42.9138 41.7968C42.6274 42.1084 42.2695 42.2643 41.8399 42.2643C41.4271 42.2643 41.0776 42.1084 40.7912 41.7968C40.5132 41.4851 40.3742 41.0134 40.3742 40.3817ZM41.8651 39.1814C41.6461 39.1814 41.465 39.274 41.3218 39.4593C41.1871 39.6447 41.1197 39.9816 41.1197 40.4701C41.1197 40.9081 41.1913 41.2198 41.3345 41.4051C41.4777 41.5904 41.6546 41.6831 41.8651 41.6831C42.0757 41.6831 42.2526 41.5904 42.3958 41.4051C42.539 41.2198 42.6106 40.8829 42.6106 40.3943C42.6106 39.9479 42.539 39.6362 42.3958 39.4593C42.2526 39.274 42.0757 39.1814 41.8651 39.1814Z" fill="#9E9E9E"/>
<path d="M15.9116 31.9082H103.648H194.709" stroke="#757575" stroke-width="0.570795" stroke-miterlimit="10"/>
<path d="M196.327 31.9048C196.327 31.0117 195.603 30.2876 194.71 30.2876C193.816 30.2876 193.092 31.0117 193.092 31.9048C193.092 32.798 193.816 33.5221 194.71 33.5221C195.603 33.5221 196.327 32.798 196.327 31.9048Z" fill="#9E9E9E"/>
<path d="M16.3149 67.841C16.3149 67.0155 16.3992 66.3543 16.5676 65.8573C16.7361 65.3519 16.9846 64.9644 17.3131 64.6949C17.65 64.4254 18.0712 64.2906 18.5766 64.2906C18.9472 64.2906 19.2715 64.3664 19.5494 64.518C19.8358 64.6696 20.0717 64.8886 20.257 65.175C20.4423 65.453 20.5855 65.7941 20.6866 66.1984C20.7877 66.6028 20.8382 67.1503 20.8382 67.841C20.8382 68.658 20.754 69.315 20.5855 69.812C20.4255 70.309 20.177 70.6964 19.84 70.9744C19.5115 71.2439 19.0904 71.3787 18.5766 71.3787C17.9111 71.3787 17.3847 71.1386 16.9972 70.6585C16.5424 70.0857 16.3149 69.1466 16.3149 67.841ZM17.1867 67.841C17.1867 68.9781 17.3215 69.7362 17.5911 70.1152C17.8606 70.4943 18.1891 70.6838 18.5766 70.6838C18.9725 70.6838 19.301 70.4943 19.5621 70.1152C19.8316 69.7362 19.9664 68.9781 19.9664 67.841C19.9664 66.6954 19.8316 65.9373 19.5621 65.5667C19.301 65.1877 18.9682 64.9981 18.5639 64.9981C18.1765 64.9981 17.8648 65.1624 17.629 65.4909C17.3341 65.9121 17.1867 66.6954 17.1867 67.841ZM22.4302 71.265V70.2921H23.4031V71.265C23.4031 71.6188 23.3399 71.9051 23.2135 72.1241C23.0872 72.3516 22.8892 72.5243 22.6197 72.6422L22.3796 72.2758C22.5565 72.2 22.6871 72.082 22.7713 71.922C22.8555 71.7704 22.9061 71.5514 22.9229 71.265H22.4302ZM28.8234 66.0216L27.9768 66.0847C27.901 65.7478 27.7958 65.5035 27.661 65.3519C27.4251 65.1076 27.1387 64.9855 26.8018 64.9855C26.5323 64.9855 26.2922 65.0613 26.0816 65.2129C25.8205 65.4151 25.6099 65.7057 25.4499 66.0847C25.2983 66.4553 25.2183 66.986 25.2098 67.6767C25.412 67.3651 25.6605 67.1334 25.9553 66.9818C26.2585 66.8302 26.5744 66.7544 26.9029 66.7544C27.4672 66.7544 27.9474 66.965 28.3433 67.3861C28.7476 67.8073 28.9497 68.3464 28.9497 69.0034C28.9497 69.4414 28.8529 69.8499 28.6591 70.2289C28.4738 70.5996 28.2169 70.8859 27.8884 71.0881C27.5599 71.2818 27.1893 71.3787 26.7765 71.3787C26.0606 71.3787 25.4794 71.1176 25.0329 70.5953C24.5865 70.0731 24.3633 69.2139 24.3633 68.0178C24.3633 66.6701 24.6118 65.6931 25.1088 65.0866C25.5383 64.5559 26.1195 64.2906 26.8524 64.2906C27.3999 64.2906 27.8463 64.4464 28.1916 64.7581C28.5454 65.0613 28.756 65.4825 28.8234 66.0216ZM25.3488 69.016C25.3488 69.3108 25.4078 69.593 25.5257 69.8625C25.652 70.1236 25.8247 70.3258 26.0437 70.469C26.2712 70.6122 26.5112 70.6838 26.7639 70.6838C27.1177 70.6838 27.4251 70.5406 27.6862 70.2542C27.9474 69.9594 28.0779 69.5635 28.0779 69.0665C28.0779 68.5864 27.9474 68.2074 27.6862 67.9294C27.4336 67.6514 27.1135 67.5125 26.726 67.5125C26.3385 67.5125 26.01 67.6514 25.7405 67.9294C25.4794 68.2074 25.3488 68.5696 25.3488 69.016ZM30.2258 65.9837C30.2258 65.4867 30.348 65.0655 30.5922 64.7202C30.8449 64.3748 31.2071 64.2021 31.6788 64.2021C32.1168 64.2021 32.479 64.358 32.7654 64.6696C33.0518 64.9813 33.195 65.4361 33.195 66.0342C33.195 66.6238 33.0476 67.0787 32.7528 67.3987C32.4664 67.7104 32.1126 67.8662 31.6915 67.8662C31.2703 67.8662 30.9208 67.7104 30.6428 67.3987C30.3648 67.0871 30.2258 66.6154 30.2258 65.9837ZM31.7041 64.7833C31.4935 64.7833 31.3166 64.876 31.1734 65.0613C31.0387 65.2466 30.9713 65.5836 30.9713 66.0721C30.9713 66.5185 31.0387 66.8344 31.1734 67.0197C31.3166 67.1966 31.4935 67.285 31.7041 67.285C31.9231 67.285 32.1 67.1924 32.2348 67.0071C32.378 66.8218 32.4496 66.489 32.4496 66.0089C32.4496 65.5541 32.378 65.2382 32.2348 65.0613C32.0916 64.876 31.9147 64.7833 31.7041 64.7833ZM31.7041 71.5177L35.5072 64.2021H36.2021L32.4117 71.5177H31.7041ZM34.7112 69.6351C34.7112 69.1381 34.8333 68.717 35.0776 68.3716C35.3303 68.0263 35.6967 67.8536 36.1768 67.8536C36.6148 67.8536 36.977 68.0094 37.2634 68.3211C37.5498 68.6243 37.693 69.0792 37.693 69.6856C37.693 70.2753 37.5456 70.7301 37.2508 71.0502C36.9644 71.3619 36.6064 71.5177 36.1768 71.5177C35.7641 71.5177 35.4145 71.3619 35.1281 71.0502C34.8502 70.7385 34.7112 70.2668 34.7112 69.6351ZM36.2021 68.4348C35.9831 68.4348 35.802 68.5275 35.6588 68.7128C35.524 68.8981 35.4566 69.235 35.4566 69.7235C35.4566 70.1615 35.5282 70.4732 35.6714 70.6585C35.8146 70.8438 35.9915 70.9365 36.2021 70.9365C36.4127 70.9365 36.5896 70.8438 36.7328 70.6585C36.8759 70.4732 36.9475 70.1363 36.9475 69.6477C36.9475 69.2013 36.8759 68.8896 36.7328 68.7128C36.5896 68.5275 36.4127 68.4348 36.2021 68.4348Z" fill="#9E9E9E"/>
<path d="M15.9116 61.1616H103.648H151.496" stroke="#757575" stroke-width="0.570795" stroke-miterlimit="10"/>
<path d="M153.113 61.1583C153.113 60.2651 152.389 59.541 151.496 59.541C150.603 59.541 149.879 60.2651 149.879 61.1583C149.879 62.0514 150.603 62.7755 151.496 62.7755C152.389 62.7755 153.113 62.0514 153.113 61.1583Z" fill="#9E9E9E"/>
<path d="M20.8012 163.55V164.371H16.2021C16.2021 164.169 16.2358 163.971 16.3032 163.778C16.4212 163.466 16.6065 163.158 16.8592 162.855C17.1203 162.552 17.4951 162.202 17.9837 161.807C18.7417 161.183 19.2513 160.69 19.5125 160.328C19.782 159.966 19.9168 159.625 19.9168 159.305C19.9168 158.968 19.7946 158.686 19.5504 158.458C19.3061 158.223 18.9902 158.105 18.6028 158.105C18.19 158.105 17.8615 158.227 17.6172 158.471C17.373 158.715 17.2466 159.056 17.2382 159.494L16.3664 159.406C16.4254 158.749 16.6486 158.252 17.036 157.915C17.4319 157.57 17.9626 157.397 18.628 157.397C19.2935 157.397 19.8199 157.582 20.2074 157.953C20.5948 158.324 20.7886 158.783 20.7886 159.33C20.7886 159.608 20.7296 159.882 20.6117 160.151C20.5022 160.413 20.3127 160.695 20.0431 160.998C19.782 161.293 19.3482 161.697 18.7417 162.211C18.2279 162.64 17.8952 162.935 17.7436 163.095C17.6004 163.247 17.4825 163.399 17.3898 163.55H20.8012ZM24.7054 164.371V162.704H21.6983V161.92L24.8696 157.422H25.5645V161.92H26.4995V162.704H25.5645V164.371H24.7054ZM24.7054 161.92V158.799L22.5322 161.92H24.7054ZM28.0915 164.371V163.399H29.0644V164.371C29.0644 164.725 29.0012 165.012 28.8748 165.231C28.7485 165.458 28.5505 165.631 28.281 165.749L28.0409 165.382C28.2178 165.306 28.3484 165.188 28.4326 165.028C28.5169 164.877 28.5674 164.658 28.5842 164.371H28.0915ZM31.3765 160.606C31.0228 160.471 30.7574 160.286 30.5805 160.05C30.4121 159.806 30.3278 159.52 30.3278 159.191C30.3278 158.686 30.5089 158.26 30.8711 157.915C31.2418 157.57 31.7261 157.397 32.3241 157.397C32.9306 157.397 33.4191 157.574 33.7898 157.928C34.1604 158.281 34.3457 158.711 34.3457 159.216C34.3457 159.537 34.2615 159.814 34.093 160.05C33.9245 160.286 33.6676 160.471 33.3223 160.606C33.7519 160.741 34.0762 160.964 34.2952 161.276C34.5142 161.588 34.6237 161.958 34.6237 162.388C34.6237 162.977 34.4131 163.474 33.9919 163.879C33.5792 164.283 33.0275 164.485 32.3368 164.485C31.6545 164.485 31.1028 164.283 30.6816 163.879C30.2605 163.474 30.0499 162.969 30.0499 162.363C30.0499 161.908 30.1636 161.529 30.391 161.225C30.6269 160.922 30.9554 160.716 31.3765 160.606ZM31.1996 159.153C31.1996 159.482 31.3049 159.751 31.5155 159.962C31.7345 160.172 32.0125 160.278 32.3494 160.278C32.6779 160.278 32.9475 160.177 33.158 159.975C33.3686 159.764 33.4739 159.507 33.4739 159.204C33.4739 158.892 33.3644 158.631 33.1454 158.42C32.9264 158.201 32.6569 158.092 32.3368 158.092C32.0083 158.092 31.7345 158.197 31.5155 158.408C31.3049 158.618 31.1996 158.867 31.1996 159.153ZM30.9343 162.363C30.9343 162.607 30.9891 162.843 31.0986 163.07C31.2165 163.297 31.3892 163.474 31.6166 163.601C31.844 163.727 32.0883 163.79 32.3494 163.79C32.7537 163.79 33.0864 163.66 33.3476 163.399C33.6171 163.137 33.7519 162.805 33.7519 162.4C33.7519 161.988 33.6171 161.647 33.3476 161.377C33.078 161.107 32.7369 160.973 32.3241 160.973C31.9198 160.973 31.5871 161.107 31.326 161.377C31.0649 161.638 30.9343 161.967 30.9343 162.363ZM35.8871 159.09C35.8871 158.593 36.0093 158.172 36.2536 157.827C36.5062 157.481 36.8684 157.309 37.3401 157.309C37.7782 157.309 38.1403 157.464 38.4267 157.776C38.7131 158.088 38.8563 158.543 38.8563 159.141C38.8563 159.73 38.7089 160.185 38.4141 160.505C38.1277 160.817 37.7739 160.973 37.3528 160.973C36.9316 160.973 36.5821 160.817 36.3041 160.505C36.0261 160.194 35.8871 159.722 35.8871 159.09ZM37.3654 157.89C37.1548 157.89 36.9779 157.982 36.8348 158.168C36.7 158.353 36.6326 158.69 36.6326 159.179C36.6326 159.625 36.7 159.941 36.8348 160.126C36.9779 160.303 37.1548 160.391 37.3654 160.391C37.5844 160.391 37.7613 160.299 37.8961 160.114C38.0393 159.928 38.1109 159.595 38.1109 159.115C38.1109 158.661 38.0393 158.345 37.8961 158.168C37.7529 157.982 37.576 157.89 37.3654 157.89ZM37.3654 164.624L41.1685 157.309H41.8634L38.073 164.624H37.3654ZM40.3725 162.742C40.3725 162.245 40.4946 161.823 40.7389 161.478C40.9916 161.133 41.358 160.96 41.8381 160.96C42.2761 160.96 42.6383 161.116 42.9247 161.428C43.2111 161.731 43.3543 162.186 43.3543 162.792C43.3543 163.382 43.2069 163.837 42.9121 164.157C42.6257 164.468 42.2677 164.624 41.8381 164.624C41.4254 164.624 41.0758 164.468 40.7894 164.157C40.5115 163.845 40.3725 163.373 40.3725 162.742ZM41.8634 161.541C41.6444 161.541 41.4633 161.634 41.3201 161.819C41.1853 162.005 41.1179 162.341 41.1179 162.83C41.1179 163.268 41.1895 163.58 41.3327 163.765C41.4759 163.95 41.6528 164.043 41.8634 164.043C42.074 164.043 42.2509 163.95 42.3941 163.765C42.5373 163.58 42.6089 163.243 42.6089 162.754C42.6089 162.308 42.5373 161.996 42.3941 161.819C42.2509 161.634 42.074 161.541 41.8634 161.541Z" fill="#9E9E9E"/>
<path d="M15.9116 154.265H103.648H115.304" stroke="#757575" stroke-width="0.570795" stroke-miterlimit="10"/>
<path d="M116.925 154.265C116.925 153.372 116.201 152.648 115.308 152.648C114.415 152.648 113.691 153.372 113.691 154.265C113.691 155.158 114.415 155.882 115.308 155.882C116.201 155.882 116.925 155.158 116.925 154.265Z" fill="#9E9E9E"/>
<path d="M20.7394 263.636L19.8928 263.699C19.817 263.363 19.7117 263.118 19.577 262.967C19.3411 262.722 19.0547 262.6 18.7178 262.6C18.4483 262.6 18.2082 262.676 17.9976 262.828C17.7365 263.03 17.5259 263.32 17.3659 263.699C17.2143 264.07 17.1343 264.601 17.1258 265.291C17.328 264.98 17.5765 264.748 17.8713 264.597C18.1745 264.445 18.4904 264.369 18.8189 264.369C19.3832 264.369 19.8634 264.58 20.2593 265.001C20.6636 265.422 20.8657 265.961 20.8657 266.618C20.8657 267.056 20.7689 267.465 20.5751 267.844C20.3898 268.214 20.1329 268.501 19.8044 268.703C19.4759 268.897 19.1053 268.993 18.6925 268.993C17.9766 268.993 17.3954 268.732 16.9489 268.21C16.5025 267.688 16.2793 266.829 16.2793 265.633C16.2793 264.285 16.5278 263.308 17.0247 262.701C17.4543 262.171 18.0355 261.905 18.7683 261.905C19.3159 261.905 19.7623 262.061 20.1076 262.373C20.4614 262.676 20.672 263.097 20.7394 263.636ZM17.2648 266.631C17.2648 266.926 17.3238 267.208 17.4417 267.477C17.568 267.738 17.7407 267.941 17.9597 268.084C18.1871 268.227 18.4272 268.299 18.6799 268.299C19.0337 268.299 19.3411 268.155 19.6022 267.869C19.8634 267.574 19.9939 267.178 19.9939 266.681C19.9939 266.201 19.8634 265.822 19.6022 265.544C19.3496 265.266 19.0295 265.127 18.642 265.127C18.2545 265.127 17.926 265.266 17.6565 265.544C17.3954 265.822 17.2648 266.184 17.2648 266.631ZM22.4324 268.88V267.907H23.4053V268.88C23.4053 269.234 23.3421 269.52 23.2158 269.739C23.0894 269.966 22.8915 270.139 22.622 270.257L22.3819 269.891C22.5588 269.815 22.6893 269.697 22.7736 269.537C22.8578 269.385 22.9083 269.166 22.9252 268.88H22.4324ZM28.8888 268.058V268.88H24.2898C24.2898 268.678 24.3234 268.48 24.3908 268.286C24.5088 267.974 24.6941 267.667 24.9468 267.364C25.2079 267.06 25.5827 266.711 26.0713 266.315C26.8293 265.692 27.3389 265.199 27.6001 264.837C27.8696 264.474 28.0044 264.133 28.0044 263.813C28.0044 263.476 27.8822 263.194 27.638 262.967C27.3937 262.731 27.0778 262.613 26.6904 262.613C26.2776 262.613 25.9491 262.735 25.7048 262.979C25.4606 263.224 25.3342 263.565 25.3258 264.003L24.454 263.914C24.513 263.257 24.7362 262.76 25.1236 262.423C25.5195 262.078 26.0502 261.905 26.7156 261.905C27.3811 261.905 27.9075 262.091 28.295 262.461C28.6824 262.832 28.8762 263.291 28.8762 263.838C28.8762 264.116 28.8172 264.39 28.6993 264.66C28.5898 264.921 28.4003 265.203 28.1307 265.506C27.8696 265.801 27.4358 266.205 26.8293 266.719C26.3155 267.149 25.9828 267.444 25.8312 267.604C25.688 267.755 25.5701 267.907 25.4774 268.058H28.8888ZM30.2281 263.598C30.2281 263.101 30.3502 262.68 30.5945 262.335C30.8472 261.99 31.2094 261.817 31.6811 261.817C32.1191 261.817 32.4813 261.973 32.7677 262.284C33.0541 262.596 33.1973 263.051 33.1973 263.649C33.1973 264.239 33.0499 264.693 32.7551 265.013C32.4687 265.325 32.1149 265.481 31.6937 265.481C31.2726 265.481 30.923 265.325 30.645 265.013C30.3671 264.702 30.2281 264.23 30.2281 263.598ZM31.7064 262.398C31.4958 262.398 31.3189 262.491 31.1757 262.676C31.0409 262.861 30.9736 263.198 30.9736 263.687C30.9736 264.133 31.0409 264.449 31.1757 264.634C31.3189 264.811 31.4958 264.9 31.7064 264.9C31.9254 264.9 32.1023 264.807 32.237 264.622C32.3802 264.437 32.4518 264.104 32.4518 263.624C32.4518 263.169 32.3802 262.853 32.237 262.676C32.0938 262.491 31.917 262.398 31.7064 262.398ZM31.7064 269.132L35.5094 261.817H36.2044L32.4139 269.132H31.7064ZM34.7135 267.25C34.7135 266.753 34.8356 266.332 35.0799 265.986C35.3326 265.641 35.699 265.468 36.1791 265.468C36.6171 265.468 36.9793 265.624 37.2657 265.936C37.5521 266.239 37.6953 266.694 37.6953 267.3C37.6953 267.89 37.5479 268.345 37.253 268.665C36.9667 268.977 36.6087 269.132 36.1791 269.132C35.7663 269.132 35.4168 268.977 35.1304 268.665C34.8524 268.353 34.7135 267.882 34.7135 267.25ZM36.2044 266.05C35.9854 266.05 35.8043 266.142 35.6611 266.328C35.5263 266.513 35.4589 266.85 35.4589 267.338C35.4589 267.776 35.5305 268.088 35.6737 268.273C35.8169 268.459 35.9938 268.551 36.2044 268.551C36.4149 268.551 36.5918 268.459 36.735 268.273C36.8782 268.088 36.9498 267.751 36.9498 267.262C36.9498 266.816 36.8782 266.504 36.735 266.328C36.5918 266.142 36.4149 266.05 36.2044 266.05Z" fill="#9E9E9E"/>
<path d="M15.9116 258.769H103.648H174.737" stroke="#757575" stroke-width="0.570795" stroke-miterlimit="10"/>
<path d="M176.357 258.77C176.357 257.876 175.633 257.152 174.74 257.152C173.847 257.152 173.123 257.876 173.123 258.77C173.123 259.663 173.847 260.387 174.74 260.387C175.633 260.387 176.357 259.663 176.357 258.77Z" fill="#9E9E9E"/>
<path d="M443.191 182.439L444.088 182.363C444.156 182.801 444.307 183.129 444.543 183.348C444.788 183.567 445.082 183.677 445.428 183.677C445.832 183.677 446.177 183.521 446.464 183.209C446.75 182.898 446.893 182.489 446.893 181.984C446.893 181.495 446.754 181.112 446.476 180.834C446.207 180.548 445.849 180.405 445.402 180.405C445.133 180.405 444.884 180.468 444.657 180.594C444.438 180.72 444.265 180.88 444.139 181.074L443.343 180.973L444.013 177.41H447.475V178.219H444.695L444.329 180.089C444.741 179.794 445.175 179.646 445.63 179.646C446.236 179.646 446.746 179.857 447.159 180.278C447.58 180.699 447.79 181.243 447.79 181.908C447.79 182.531 447.609 183.075 447.247 183.538C446.801 184.094 446.194 184.372 445.428 184.372C444.796 184.372 444.278 184.195 443.874 183.841C443.478 183.487 443.25 183.02 443.191 182.439ZM448.852 182.439L449.749 182.363C449.816 182.801 449.968 183.129 450.204 183.348C450.448 183.567 450.743 183.677 451.088 183.677C451.492 183.677 451.838 183.521 452.124 183.209C452.411 182.898 452.554 182.489 452.554 181.984C452.554 181.495 452.415 181.112 452.137 180.834C451.867 180.548 451.509 180.405 451.063 180.405C450.793 180.405 450.545 180.468 450.317 180.594C450.098 180.72 449.926 180.88 449.799 181.074L449.003 180.973L449.673 177.41H453.135V178.219H450.355L449.989 180.089C450.402 179.794 450.835 179.646 451.29 179.646C451.897 179.646 452.406 179.857 452.819 180.278C453.24 180.699 453.451 181.243 453.451 181.908C453.451 182.531 453.27 183.075 452.908 183.538C452.461 184.094 451.855 184.372 451.088 184.372C450.456 184.372 449.938 184.195 449.534 183.841C449.138 183.487 448.911 183.02 448.852 182.439ZM454.967 184.258V183.285H455.94V184.258C455.94 184.612 455.877 184.898 455.75 185.117C455.624 185.345 455.426 185.517 455.157 185.635L454.916 185.269C455.093 185.193 455.224 185.075 455.308 184.915C455.392 184.764 455.443 184.545 455.46 184.258H454.967ZM457.064 182.654L457.886 182.578C457.953 182.965 458.084 183.247 458.277 183.424C458.479 183.593 458.732 183.677 459.035 183.677C459.297 183.677 459.524 183.618 459.718 183.5C459.92 183.374 460.084 183.214 460.21 183.02C460.337 182.818 460.442 182.548 460.526 182.211C460.611 181.866 460.653 181.516 460.653 181.163C460.653 181.121 460.653 181.062 460.653 180.986C460.484 181.255 460.253 181.479 459.958 181.655C459.663 181.824 459.343 181.908 458.998 181.908C458.416 181.908 457.928 181.702 457.532 181.289C457.136 180.868 456.938 180.316 456.938 179.634C456.938 178.926 457.144 178.358 457.557 177.928C457.978 177.499 458.501 177.284 459.124 177.284C459.57 177.284 459.979 177.406 460.349 177.65C460.728 177.894 461.015 178.244 461.209 178.699C461.402 179.145 461.499 179.794 461.499 180.645C461.499 181.529 461.402 182.237 461.209 182.767C461.023 183.289 460.737 183.69 460.349 183.968C459.97 184.237 459.528 184.372 459.023 184.372C458.475 184.372 458.029 184.224 457.684 183.93C457.338 183.626 457.132 183.201 457.064 182.654ZM460.552 179.583C460.552 179.095 460.421 178.707 460.16 178.421C459.907 178.134 459.596 177.991 459.225 177.991C458.846 177.991 458.513 178.147 458.227 178.459C457.949 178.762 457.81 179.162 457.81 179.659C457.81 180.097 457.945 180.455 458.214 180.733C458.484 181.011 458.812 181.15 459.2 181.15C459.596 181.15 459.92 181.011 460.173 180.733C460.425 180.455 460.552 180.072 460.552 179.583ZM462.763 178.977C462.763 178.48 462.885 178.059 463.129 177.713C463.382 177.368 463.744 177.195 464.216 177.195C464.654 177.195 465.016 177.351 465.302 177.663C465.589 177.974 465.732 178.429 465.732 179.027C465.732 179.617 465.584 180.072 465.29 180.392C465.003 180.704 464.649 180.859 464.228 180.859C463.807 180.859 463.458 180.704 463.18 180.392C462.902 180.08 462.763 179.609 462.763 178.977ZM464.241 177.777C464.03 177.777 463.854 177.869 463.71 178.054C463.576 178.24 463.508 178.577 463.508 179.065C463.508 179.512 463.576 179.828 463.71 180.013C463.854 180.19 464.03 180.278 464.241 180.278C464.46 180.278 464.637 180.186 464.772 180C464.915 179.815 464.986 179.482 464.986 179.002C464.986 178.547 464.915 178.231 464.772 178.054C464.628 177.869 464.452 177.777 464.241 177.777ZM464.241 184.511L468.044 177.195H468.739L464.949 184.511H464.241ZM467.248 182.628C467.248 182.131 467.37 181.71 467.614 181.365C467.867 181.019 468.234 180.847 468.714 180.847C469.152 180.847 469.514 181.003 469.8 181.314C470.087 181.617 470.23 182.072 470.23 182.679C470.23 183.268 470.082 183.723 469.788 184.043C469.501 184.355 469.143 184.511 468.714 184.511C468.301 184.511 467.951 184.355 467.665 184.043C467.387 183.732 467.248 183.26 467.248 182.628ZM468.739 181.428C468.52 181.428 468.339 181.521 468.196 181.706C468.061 181.891 467.993 182.228 467.993 182.717C467.993 183.155 468.065 183.466 468.208 183.652C468.351 183.837 468.528 183.93 468.739 183.93C468.95 183.93 469.126 183.837 469.27 183.652C469.413 183.466 469.484 183.129 469.484 182.641C469.484 182.194 469.413 181.883 469.27 181.706C469.126 181.521 468.95 181.428 468.739 181.428Z" fill="#9E9E9E"/>
<path d="M471.086 174.147H383.35H369.551" stroke="#757575" stroke-width="0.570795" stroke-miterlimit="10"/>
<path d="M371.171 174.148C371.171 173.255 370.447 172.531 369.554 172.531C368.661 172.531 367.937 173.255 367.937 174.148C367.937 175.041 368.661 175.765 369.554 175.765C370.447 175.765 371.171 175.041 371.171 174.148Z" fill="#9E9E9E"/>
<path d="M469.752 164.502L471.824 161.865V159.639H464.118V162.208H468.502L466.327 164.965L467.372 166.523H467.937C469.067 166.523 469.564 167.122 469.564 167.859C469.564 168.595 469.067 169.194 467.937 169.194C466.893 169.194 466.379 168.715 466.105 167.927L463.742 169.297C464.478 171.061 466.122 171.866 467.937 171.866C470.249 171.866 472.304 170.496 472.304 167.859C472.304 166.198 471.225 165.016 469.752 164.502Z" fill="white"/>
<path d="M17.9241 20.0114H16.948L17.0679 18.3675H21.4345V15.7989H14.4993L14.0027 22.6827H17.7528C18.7974 22.6827 19.294 23.2821 19.294 24.0184C19.294 24.7547 18.7974 25.3541 17.6672 25.3541C16.5371 25.3541 16.0233 24.8746 15.7494 24.0869L13.3863 25.4568C14.1226 27.2206 15.7665 28.0254 17.6672 28.0254C19.9789 28.0254 22.0338 26.6555 22.0338 24.0184C22.0338 21.3813 20.1502 20.0114 17.9241 20.0114Z" fill="white"/>
<path d="M15.8885 46.6197L12.7549 47.7499L13.4227 50.0959L15.546 49.5137V58.6064H18.2859V46.6197H15.8885Z" fill="white"/>
<path d="M20.8308 146.628H19.6322V144.059H16.8581V146.628H14.358L18.1766 139.093H15.2313L11.4127 146.628V149.162H16.8581V151.08H19.6322V149.162H20.8308V146.628Z" fill="white"/>
<path d="M11.2794 254.959H19.4304V252.322H15.4063L17.3927 250.318C18.4886 249.222 19.2592 247.99 19.2592 246.551C19.2592 244.137 17.3413 242.733 15.2008 242.733C13.5398 242.733 11.9302 243.572 11.1596 245.353L13.4713 246.705C13.7967 245.952 14.396 245.404 15.2351 245.404C16.0399 245.404 16.5193 245.918 16.5193 246.671C16.5193 247.373 16.0056 248.075 15.3036 248.794L11.2794 252.973V254.959Z" fill="white"/>
</svg>
