<svg width="608" height="301" viewBox="0 0 608 301" fill="none" xmlns="http://www.w3.org/2000/svg">
<path d="M363.811 15.4851C410.154 15.4851 453.276 39.1269 478.108 78.1485L363.811 150.485V15.4851Z" fill="#3A8071"/>
<path d="M330.147 19.7264C341.146 16.9101 352.456 15.4851 363.812 15.4851V150.485L330.147 19.7264Z" fill="#74BDAE"/>
<path d="M313.978 24.9681C319.251 22.8858 324.651 21.136 330.145 19.7292L363.811 150.488L313.978 24.9681Z" fill="#356A90"/>
<path d="M298.595 32.1801C303.566 29.4549 308.704 27.0441 313.977 24.9617L363.81 150.481L298.595 32.1801Z" fill="#D7BA93"/>
<path d="M284.243 41.2672C288.832 37.9423 293.626 34.9083 298.597 32.1831L363.812 150.485L284.243 41.2672Z" fill="#FF6D01"/>
<path d="M271.146 52.0697C275.281 48.1974 279.656 44.5881 284.245 41.2632L363.813 150.48L271.146 52.0697Z" fill="#2675F6"/>
<path d="M230.838 125.19C236.195 97.1857 250.304 71.5916 271.143 52.0757L363.811 150.486L230.838 125.19Z" fill="#1A314A"/>
<path d="M478.108 78.1438C510.655 129.29 505.055 195.796 464.41 240.813C423.766 285.83 358.029 298.336 303.621 271.402C249.213 244.467 219.457 184.688 230.839 125.184L363.811 150.48L478.108 78.1438Z" fill="#193E3E"/>
<path d="M138.74 38.1234V36.4556H135.725V35.6722L138.905 31.1743H139.602V35.6722H140.539V36.4556H139.602V38.1234H138.74ZM138.74 35.6722V32.5514L136.561 35.6722H138.74ZM142.136 38.1234V37.1505H143.111V38.1234C143.111 38.4772 143.048 38.7635 142.921 38.9825C142.794 39.21 142.596 39.3826 142.326 39.5006L142.085 39.1342C142.262 39.0584 142.393 38.9404 142.478 38.7804C142.562 38.6288 142.613 38.4098 142.63 38.1234H142.136ZM144.112 34.6994C144.112 33.8739 144.196 33.2127 144.365 32.7157C144.534 32.2103 144.783 31.8228 145.113 31.5533C145.451 31.2838 145.873 31.149 146.38 31.149C146.751 31.149 147.077 31.2248 147.355 31.3764C147.643 31.528 147.879 31.747 148.065 32.0334C148.251 32.3114 148.394 32.6525 148.496 33.0568C148.597 33.4612 148.648 34.0087 148.648 34.6994C148.648 35.5164 148.563 36.1734 148.394 36.6704C148.234 37.1674 147.985 37.5548 147.647 37.8328C147.317 38.1023 146.895 38.2371 146.38 38.2371C145.713 38.2371 145.185 37.997 144.796 37.5169C144.34 36.9441 144.112 36.005 144.112 34.6994ZM144.986 34.6994C144.986 35.8365 145.121 36.5946 145.392 36.9736C145.662 37.3527 145.991 37.5422 146.38 37.5422C146.777 37.5422 147.106 37.3527 147.368 36.9736C147.638 36.5946 147.773 35.8365 147.773 34.6994C147.773 33.5538 147.638 32.7957 147.368 32.4251C147.106 32.0461 146.773 31.8565 146.367 31.8565C145.979 31.8565 145.666 32.0208 145.43 32.3493C145.134 32.7705 144.986 33.5538 144.986 34.6994ZM149.953 32.842C149.953 32.3451 150.075 31.9239 150.32 31.5786C150.573 31.2332 150.937 31.0605 151.41 31.0605C151.849 31.0605 152.212 31.2164 152.499 31.528C152.786 31.8397 152.93 32.2945 152.93 32.8926C152.93 33.4822 152.782 33.9371 152.486 34.2571C152.199 34.5688 151.845 34.7246 151.422 34.7246C151 34.7246 150.649 34.5688 150.371 34.2571C150.092 33.9455 149.953 33.4738 149.953 32.842ZM151.435 31.6417C151.224 31.6417 151.046 31.7344 150.903 31.9197C150.768 32.105 150.7 32.4419 150.7 32.9305C150.7 33.3769 150.768 33.6928 150.903 33.8781C151.046 34.055 151.224 34.1434 151.435 34.1434C151.655 34.1434 151.832 34.0508 151.967 33.8655C152.111 33.6802 152.182 33.3474 152.182 32.8673C152.182 32.4125 152.111 32.0966 151.967 31.9197C151.823 31.7344 151.646 31.6417 151.435 31.6417ZM151.435 38.3761L155.248 31.0605H155.945L152.144 38.3761H151.435ZM154.45 36.4935C154.45 35.9965 154.573 35.5754 154.818 35.23C155.071 34.8847 155.438 34.712 155.92 34.712C156.359 34.712 156.722 34.8678 157.009 35.1795C157.297 35.4827 157.44 35.9376 157.44 36.544C157.44 37.1337 157.292 37.5885 156.997 37.9086C156.71 38.2203 156.351 38.3761 155.92 38.3761C155.506 38.3761 155.155 38.2203 154.868 37.9086C154.59 37.5969 154.45 37.1252 154.45 36.4935ZM155.945 35.2932C155.726 35.2932 155.544 35.3859 155.4 35.5712C155.265 35.7565 155.198 36.0934 155.198 36.5819C155.198 37.0199 155.27 37.3316 155.413 37.5169C155.557 37.7022 155.734 37.7949 155.945 37.7949C156.156 37.7949 156.334 37.7022 156.477 37.5169C156.621 37.3316 156.693 36.9947 156.693 36.5061C156.693 36.0597 156.621 35.748 156.477 35.5712C156.334 35.3859 156.156 35.2932 155.945 35.2932Z" fill="#9E9E9E"/>
<path d="M135.6 28.0197H223.577L347.694 23.2473" stroke="#757575" stroke-width="0.572358" stroke-miterlimit="10"/>
<path d="M349.315 23.2466C349.315 22.3535 348.589 21.6294 347.693 21.6294C346.798 21.6294 346.072 22.3535 346.072 23.2466C346.072 24.1398 346.798 24.8639 347.693 24.8639C348.589 24.8639 349.315 24.1398 349.315 23.2466Z" fill="#9E9E9E"/>
<path d="M140.506 62.3719V63.1932H135.895C135.895 62.9911 135.928 62.7931 135.996 62.5994C136.114 62.2877 136.3 61.9803 136.553 61.677C136.815 61.3738 137.191 61.0242 137.681 60.6283C138.441 60.005 138.952 59.5123 139.214 59.1501C139.484 58.7879 139.619 58.4467 139.619 58.1267C139.619 57.7897 139.497 57.5076 139.252 57.2801C139.007 57.0443 138.69 56.9264 138.302 56.9264C137.888 56.9264 137.558 57.0485 137.314 57.2928C137.069 57.537 136.942 57.8782 136.933 58.3162L136.059 58.2277C136.118 57.5707 136.342 57.0738 136.731 56.7368C137.128 56.3915 137.66 56.2188 138.327 56.2188C138.994 56.2188 139.522 56.4041 139.911 56.7747C140.299 57.1454 140.494 57.6044 140.494 58.1519C140.494 58.4299 140.434 58.7037 140.316 58.9732C140.206 59.2343 140.016 59.5165 139.746 59.8197C139.484 60.1145 139.049 60.5188 138.441 61.0327C137.926 61.4622 137.592 61.7571 137.44 61.9171C137.297 62.0687 137.178 62.2203 137.085 62.3719H140.506ZM142.141 63.1932V62.2203H143.116V63.1932C143.116 63.547 143.053 63.8334 142.926 64.0524C142.799 64.2798 142.601 64.4525 142.331 64.5704L142.09 64.204C142.267 64.1282 142.398 64.0103 142.483 63.8502C142.567 63.6986 142.618 63.4796 142.635 63.1932H142.141ZM144.117 59.7692C144.117 58.9437 144.201 58.2825 144.37 57.7855C144.539 57.2801 144.788 56.8927 145.118 56.6231C145.456 56.3536 145.878 56.2188 146.385 56.2188C146.756 56.2188 147.082 56.2946 147.36 56.4462C147.648 56.5979 147.884 56.8169 148.07 57.1032C148.256 57.3812 148.399 57.7224 148.501 58.1267C148.602 58.531 148.653 59.0785 148.653 59.7692C148.653 60.5862 148.568 61.2432 148.399 61.7402C148.239 62.2372 147.99 62.6246 147.652 62.9026C147.322 63.1722 146.9 63.3069 146.385 63.3069C145.718 63.3069 145.19 63.0669 144.801 62.5867C144.345 62.014 144.117 61.0748 144.117 59.7692ZM144.991 59.7692C144.991 60.9063 145.126 61.6644 145.397 62.0434C145.667 62.4225 145.996 62.612 146.385 62.612C146.782 62.612 147.111 62.4225 147.373 62.0434C147.643 61.6644 147.778 60.9063 147.778 59.7692C147.778 58.6236 147.643 57.8655 147.373 57.4949C147.111 57.1159 146.778 56.9264 146.372 56.9264C145.984 56.9264 145.671 57.0906 145.435 57.4191C145.139 57.8403 144.991 58.6236 144.991 59.7692ZM149.958 57.9119C149.958 57.4149 150.08 56.9937 150.325 56.6484C150.578 56.303 150.942 56.1304 151.415 56.1304C151.854 56.1304 152.217 56.2862 152.504 56.5979C152.791 56.9095 152.935 57.3644 152.935 57.9624C152.935 58.552 152.787 59.0069 152.491 59.327C152.204 59.6386 151.85 59.7945 151.427 59.7945C151.005 59.7945 150.654 59.6386 150.376 59.327C150.097 59.0153 149.958 58.5436 149.958 57.9119ZM151.44 56.7116C151.229 56.7116 151.051 56.8042 150.908 56.9895C150.773 57.1748 150.705 57.5118 150.705 58.0003C150.705 58.4467 150.773 58.7626 150.908 58.9479C151.051 59.1248 151.229 59.2133 151.44 59.2133C151.659 59.2133 151.837 59.1206 151.972 58.9353C152.116 58.75 152.187 58.4173 152.187 57.9371C152.187 57.4823 152.116 57.1664 151.972 56.9895C151.828 56.8042 151.651 56.7116 151.44 56.7116ZM151.44 63.4459L155.253 56.1304H155.95L152.149 63.4459H151.44ZM154.455 61.5633C154.455 61.0664 154.578 60.6452 154.823 60.2998C155.076 59.9545 155.443 59.7818 155.925 59.7818C156.364 59.7818 156.727 59.9376 157.014 60.2493C157.302 60.5525 157.445 61.0074 157.445 61.6139C157.445 62.2035 157.297 62.6583 157.002 62.9784C156.715 63.2901 156.356 63.4459 155.925 63.4459C155.511 63.4459 155.16 63.2901 154.873 62.9784C154.595 62.6668 154.455 62.1951 154.455 61.5633ZM155.95 60.363C155.731 60.363 155.549 60.4557 155.405 60.641C155.27 60.8263 155.203 61.1632 155.203 61.6518C155.203 62.0898 155.274 62.4014 155.418 62.5867C155.562 62.772 155.739 62.8647 155.95 62.8647C156.161 62.8647 156.339 62.772 156.482 62.5867C156.626 62.4014 156.698 62.0645 156.698 61.576C156.698 61.1295 156.626 60.8179 156.482 60.641C156.339 60.4557 156.161 60.363 155.95 60.363Z" fill="#9E9E9E"/>
<path d="M135.6 53.0814H223.577L324.072 28.5073" stroke="#757575" stroke-width="0.572358" stroke-miterlimit="10"/>
<path d="M325.691 28.5128C325.691 27.6196 324.965 26.8955 324.07 26.8955C323.174 26.8955 322.448 27.6196 322.448 28.5128C322.448 29.4059 323.174 30.13 324.07 30.13C324.965 30.13 325.691 29.4059 325.691 28.5128Z" fill="#9E9E9E"/>
<path d="M139.225 98.8089H138.376V93.376C138.165 93.5697 137.891 93.7677 137.553 93.9698C137.223 94.1635 136.928 94.3067 136.666 94.3994V93.5781C137.139 93.3507 137.553 93.0812 137.908 92.7695C138.271 92.4494 138.528 92.1378 138.68 91.8345H139.225V98.8089ZM141.683 95.3849C141.683 94.5594 141.768 93.8982 141.936 93.4012C142.105 92.8959 142.355 92.5084 142.684 92.2388C143.022 91.9693 143.444 91.8345 143.951 91.8345C144.323 91.8345 144.648 91.9103 144.926 92.062C145.214 92.2136 145.45 92.4326 145.636 92.719C145.822 92.9969 145.965 93.3381 146.067 93.7424C146.168 94.1467 146.219 94.6942 146.219 95.3849C146.219 96.202 146.134 96.859 145.965 97.3559C145.805 97.8529 145.556 98.2404 145.218 98.5183C144.888 98.7879 144.466 98.9226 143.951 98.9226C143.284 98.9226 142.756 98.6826 142.367 98.2025C141.911 97.6297 141.683 96.6905 141.683 95.3849ZM142.557 95.3849C142.557 96.522 142.692 97.2801 142.963 97.6592C143.233 98.0382 143.562 98.2277 143.951 98.2277C144.348 98.2277 144.677 98.0382 144.939 97.6592C145.209 97.2801 145.345 96.522 145.345 95.3849C145.345 94.2394 145.209 93.4813 144.939 93.1106C144.677 92.7316 144.344 92.5421 143.938 92.5421C143.55 92.5421 143.237 92.7063 143.001 93.0348C142.705 93.456 142.557 94.2394 142.557 95.3849ZM147.815 98.8089V97.8361H148.791V98.8089C148.791 99.1627 148.727 99.4491 148.601 99.6681C148.474 99.8955 148.275 100.068 148.005 100.186L147.764 99.8197C147.942 99.7439 148.073 99.626 148.157 99.4659C148.242 99.3143 148.292 99.0953 148.309 98.8089H147.815ZM149.792 95.3849C149.792 94.5594 149.876 93.8982 150.045 93.4012C150.214 92.8959 150.463 92.5084 150.792 92.2388C151.13 91.9693 151.553 91.8345 152.059 91.8345C152.431 91.8345 152.756 91.9103 153.035 92.062C153.322 92.2136 153.559 92.4326 153.744 92.719C153.93 92.9969 154.074 93.3381 154.175 93.7424C154.276 94.1467 154.327 94.6942 154.327 95.3849C154.327 96.202 154.243 96.859 154.074 97.3559C153.913 97.8529 153.664 98.2404 153.326 98.5183C152.997 98.7879 152.575 98.9226 152.059 98.9226C151.392 98.9226 150.864 98.6826 150.476 98.2025C150.02 97.6297 149.792 96.6905 149.792 95.3849ZM150.666 95.3849C150.666 96.522 150.801 97.2801 151.071 97.6592C151.341 98.0382 151.671 98.2277 152.059 98.2277C152.456 98.2277 152.786 98.0382 153.048 97.6592C153.318 97.2801 153.453 96.522 153.453 95.3849C153.453 94.2394 153.318 93.4813 153.048 93.1106C152.786 92.7316 152.452 92.5421 152.047 92.5421C151.658 92.5421 151.346 92.7063 151.109 93.0348C150.814 93.456 150.666 94.2394 150.666 95.3849ZM155.632 93.5276C155.632 93.0306 155.755 92.6095 156 92.2641C156.253 91.9188 156.616 91.7461 157.089 91.7461C157.528 91.7461 157.891 91.9019 158.179 92.2136C158.466 92.5252 158.609 92.9801 158.609 93.5781C158.609 94.1678 158.462 94.6226 158.166 94.9427C157.879 95.2543 157.524 95.4102 157.102 95.4102C156.679 95.4102 156.329 95.2543 156.05 94.9427C155.771 94.631 155.632 94.1593 155.632 93.5276ZM157.114 92.3273C156.903 92.3273 156.726 92.4199 156.582 92.6053C156.447 92.7906 156.38 93.1275 156.38 93.616C156.38 94.0625 156.447 94.3783 156.582 94.5636C156.726 94.7405 156.903 94.829 157.114 94.829C157.334 94.829 157.511 94.7363 157.647 94.551C157.79 94.3657 157.862 94.033 157.862 93.5529C157.862 93.098 157.79 92.7821 157.647 92.6053C157.503 92.4199 157.326 92.3273 157.114 92.3273ZM157.114 99.0616L160.928 91.7461H161.625L157.824 99.0616H157.114ZM160.13 97.179C160.13 96.6821 160.252 96.2609 160.497 95.9156C160.751 95.5702 161.118 95.3975 161.599 95.3975C162.039 95.3975 162.402 95.5534 162.689 95.865C162.976 96.1683 163.12 96.6231 163.12 97.2296C163.12 97.8192 162.972 98.2741 162.676 98.5941C162.389 98.9058 162.03 99.0616 161.599 99.0616C161.186 99.0616 160.835 98.9058 160.548 98.5941C160.269 98.2825 160.13 97.8108 160.13 97.179ZM161.625 95.9787C161.405 95.9787 161.224 96.0714 161.08 96.2567C160.945 96.442 160.877 96.7789 160.877 97.2675C160.877 97.7055 160.949 98.0172 161.093 98.2025C161.236 98.3878 161.414 98.4804 161.625 98.4804C161.836 98.4804 162.013 98.3878 162.157 98.2025C162.3 98.0172 162.372 97.6802 162.372 97.1917C162.372 96.7452 162.3 96.4336 162.157 96.2567C162.013 96.0714 161.836 95.9787 161.625 95.9787Z" fill="#9E9E9E"/>
<path d="M135.6 88.6958H223.577H251.117" stroke="#757575" stroke-width="0.572358" stroke-miterlimit="10"/>
<path d="M252.739 88.701C252.739 87.8078 252.013 87.0837 251.118 87.0837C250.222 87.0837 249.496 87.8078 249.496 88.701C249.496 89.5942 250.222 90.3182 251.118 90.3182C252.013 90.3182 252.739 89.5942 252.739 88.701Z" fill="#9E9E9E"/>
<path d="M567.266 48.2037H566.417V42.7708C566.206 42.9645 565.932 43.1624 565.594 43.3646C565.264 43.5583 564.969 43.7015 564.707 43.7942V42.9729C565.18 42.7455 565.594 42.4759 565.949 42.1643C566.312 41.8442 566.569 41.5325 566.721 41.2293H567.266V48.2037ZM574.158 42.9603L573.31 43.0235C573.234 42.6865 573.128 42.4423 572.993 42.2906C572.756 42.0464 572.469 41.9242 572.131 41.9242C571.861 41.9242 571.62 42 571.409 42.1517C571.147 42.3538 570.936 42.6444 570.776 43.0235C570.624 43.3941 570.543 43.9247 570.535 44.6154C570.738 44.3038 570.987 44.0721 571.282 43.9205C571.587 43.7689 571.903 43.6931 572.233 43.6931C572.799 43.6931 573.28 43.9037 573.677 44.3248C574.082 44.746 574.285 45.2851 574.285 45.9421C574.285 46.3801 574.188 46.7886 573.994 47.1677C573.808 47.5383 573.55 47.8247 573.221 48.0268C572.891 48.2206 572.52 48.3174 572.106 48.3174C571.388 48.3174 570.805 48.0563 570.358 47.5341C569.91 47.0118 569.686 46.1527 569.686 44.9566C569.686 43.6089 569.935 42.6318 570.434 42.0253C570.864 41.4946 571.447 41.2293 572.182 41.2293C572.731 41.2293 573.179 41.3851 573.525 41.6968C573.88 42 574.091 42.4212 574.158 42.9603ZM570.674 45.9547C570.674 46.2495 570.733 46.5317 570.852 46.8012C570.978 47.0624 571.152 47.2645 571.371 47.4077C571.599 47.5509 571.84 47.6225 572.093 47.6225C572.448 47.6225 572.756 47.4793 573.018 47.1929C573.28 46.8981 573.411 46.5022 573.411 46.0053C573.411 45.5251 573.28 45.1461 573.018 44.8681C572.765 44.5902 572.444 44.4512 572.055 44.4512C571.667 44.4512 571.337 44.5902 571.067 44.8681C570.805 45.1461 570.674 45.5083 570.674 45.9547ZM575.856 48.2037V47.2308H576.832V48.2037C576.832 48.5575 576.768 48.8439 576.642 49.0629C576.515 49.2903 576.316 49.463 576.046 49.5809L575.805 49.2145C575.983 49.1387 576.114 49.0208 576.198 48.8607C576.283 48.7091 576.333 48.4901 576.35 48.2037H575.856ZM577.833 44.7797C577.833 43.9542 577.917 43.293 578.086 42.796C578.255 42.2906 578.504 41.9032 578.833 41.6336C579.171 41.3641 579.594 41.2293 580.1 41.2293C580.472 41.2293 580.797 41.3051 581.076 41.4567C581.363 41.6084 581.6 41.8274 581.785 42.1137C581.971 42.3917 582.115 42.7329 582.216 43.1372C582.317 43.5415 582.368 44.089 582.368 44.7797C582.368 45.5967 582.284 46.2537 582.115 46.7507C581.954 47.2477 581.705 47.6351 581.367 47.9131C581.038 48.1826 580.616 48.3174 580.1 48.3174C579.433 48.3174 578.905 48.0774 578.517 47.5972C578.061 47.0245 577.833 46.0853 577.833 44.7797ZM578.707 44.7797C578.707 45.9168 578.842 46.6749 579.112 47.0539C579.382 47.433 579.712 47.6225 580.1 47.6225C580.497 47.6225 580.827 47.433 581.089 47.0539C581.359 46.6749 581.494 45.9168 581.494 44.7797C581.494 43.6341 581.359 42.876 581.089 42.5054C580.827 42.1264 580.493 41.9369 580.088 41.9369C579.699 41.9369 579.387 42.1011 579.15 42.4296C578.855 42.8508 578.707 43.6341 578.707 44.7797ZM583.673 42.9224C583.673 42.4254 583.796 42.0042 584.041 41.6589C584.294 41.3135 584.657 41.1409 585.13 41.1409C585.569 41.1409 585.932 41.2967 586.22 41.6084C586.507 41.92 586.65 42.3749 586.65 42.9729C586.65 43.5625 586.503 44.0174 586.207 44.3375C585.92 44.6491 585.565 44.805 585.143 44.805C584.72 44.805 584.37 44.6491 584.091 44.3375C583.812 44.0258 583.673 43.5541 583.673 42.9224ZM585.155 41.7221C584.944 41.7221 584.767 41.8147 584.623 42C584.488 42.1853 584.421 42.5223 584.421 43.0108C584.421 43.4572 584.488 43.7731 584.623 43.9584C584.767 44.1353 584.944 44.2238 585.155 44.2238C585.375 44.2238 585.552 44.1311 585.688 43.9458C585.831 43.7605 585.903 43.4278 585.903 42.9476C585.903 42.4928 585.831 42.1769 585.688 42C585.544 41.8147 585.367 41.7221 585.155 41.7221ZM585.155 48.4564L588.969 41.1409H589.666L585.865 48.4564H585.155ZM588.171 46.5738C588.171 46.0769 588.293 45.6557 588.538 45.3103C588.792 44.965 589.159 44.7923 589.64 44.7923C590.08 44.7923 590.443 44.9481 590.73 45.2598C591.017 45.563 591.161 46.0179 591.161 46.6244C591.161 47.214 591.013 47.6688 590.717 47.9889C590.43 48.3006 590.071 48.4564 589.64 48.4564C589.227 48.4564 588.876 48.3006 588.589 47.9889C588.31 47.6773 588.171 47.2056 588.171 46.5738ZM589.666 45.3735C589.446 45.3735 589.265 45.4662 589.121 45.6515C588.986 45.8368 588.918 46.1737 588.918 46.6623C588.918 47.1003 588.99 47.4119 589.134 47.5972C589.277 47.7825 589.455 47.8752 589.666 47.8752C589.877 47.8752 590.054 47.7825 590.198 47.5972C590.341 47.4119 590.413 47.075 590.413 46.5865C590.413 46.14 590.341 45.8284 590.198 45.6515C590.054 45.4662 589.877 45.3735 589.666 45.3735Z" fill="#9E9E9E"/>
<path d="M592.023 38.1025H504.046H425.766" stroke="#757575" stroke-width="0.572358" stroke-miterlimit="10"/>
<path d="M427.387 38.1019C427.387 37.2087 426.661 36.4846 425.765 36.4846C424.87 36.4846 424.144 37.2087 424.144 38.1019C424.144 38.9951 424.87 39.7191 425.765 39.7191C426.661 39.7191 427.387 38.9951 427.387 38.1019Z" fill="#9E9E9E"/>
<path d="M568.483 277.816L567.634 277.88C567.558 277.543 567.452 277.298 567.317 277.147C567.081 276.903 566.794 276.78 566.456 276.78C566.185 276.78 565.945 276.856 565.734 277.008C565.472 277.21 565.261 277.501 565.1 277.88C564.948 278.25 564.868 278.781 564.859 279.472C565.062 279.16 565.311 278.928 565.607 278.777C565.911 278.625 566.228 278.549 566.557 278.549C567.123 278.549 567.604 278.76 568.001 279.181C568.407 279.602 568.609 280.141 568.609 280.798C568.609 281.236 568.512 281.645 568.318 282.024C568.132 282.394 567.875 282.681 567.545 282.883C567.216 283.077 566.844 283.174 566.43 283.174C565.712 283.174 565.13 282.912 564.682 282.39C564.234 281.868 564.01 281.009 564.01 279.813C564.01 278.465 564.26 277.488 564.758 276.882C565.189 276.351 565.772 276.086 566.506 276.086C567.055 276.086 567.503 276.241 567.849 276.553C568.204 276.856 568.415 277.277 568.483 277.816ZM564.999 280.811C564.999 281.106 565.058 281.388 565.176 281.657C565.303 281.919 565.476 282.121 565.696 282.264C565.924 282.407 566.164 282.479 566.418 282.479C566.772 282.479 567.081 282.336 567.343 282.049C567.604 281.754 567.735 281.358 567.735 280.861C567.735 280.381 567.604 280.002 567.343 279.724C567.089 279.446 566.768 279.307 566.38 279.307C565.991 279.307 565.662 279.446 565.391 279.724C565.13 280.002 564.999 280.364 564.999 280.811ZM574.222 282.239V283.06H569.61C569.61 282.858 569.644 282.66 569.712 282.466C569.83 282.154 570.016 281.847 570.269 281.544C570.531 281.241 570.907 280.891 571.397 280.495C572.157 279.872 572.668 279.379 572.93 279.017C573.2 278.655 573.335 278.313 573.335 277.993C573.335 277.656 573.213 277.374 572.968 277.147C572.723 276.911 572.406 276.793 572.018 276.793C571.604 276.793 571.274 276.915 571.029 277.159C570.784 277.404 570.658 277.745 570.649 278.183L569.775 278.094C569.834 277.437 570.058 276.94 570.447 276.604C570.844 276.258 571.376 276.086 572.043 276.086C572.71 276.086 573.238 276.271 573.627 276.641C574.015 277.012 574.209 277.471 574.209 278.019C574.209 278.297 574.15 278.57 574.032 278.84C573.922 279.101 573.732 279.383 573.462 279.686C573.2 279.981 572.765 280.386 572.157 280.899C571.642 281.329 571.308 281.624 571.156 281.784C571.012 281.935 570.894 282.087 570.801 282.239H574.222ZM575.856 283.06V282.087H576.832V283.06C576.832 283.414 576.769 283.7 576.642 283.919C576.515 284.147 576.317 284.319 576.046 284.437L575.806 284.071C575.983 283.995 576.114 283.877 576.198 283.717C576.283 283.565 576.334 283.346 576.35 283.06H575.856ZM577.833 279.636C577.833 278.81 577.917 278.149 578.086 277.652C578.255 277.147 578.504 276.759 578.834 276.49C579.172 276.22 579.594 276.086 580.101 276.086C580.472 276.086 580.797 276.161 581.076 276.313C581.363 276.465 581.6 276.684 581.786 276.97C581.971 277.248 582.115 277.589 582.216 277.993C582.318 278.398 582.368 278.945 582.368 279.636C582.368 280.453 582.284 281.11 582.115 281.607C581.955 282.104 581.705 282.491 581.368 282.769C581.038 283.039 580.616 283.174 580.101 283.174C579.433 283.174 578.905 282.934 578.517 282.453C578.061 281.881 577.833 280.941 577.833 279.636ZM578.707 279.636C578.707 280.773 578.842 281.531 579.112 281.91C579.383 282.289 579.712 282.479 580.101 282.479C580.498 282.479 580.827 282.289 581.089 281.91C581.359 281.531 581.494 280.773 581.494 279.636C581.494 278.49 581.359 277.732 581.089 277.362C580.827 276.983 580.493 276.793 580.088 276.793C579.699 276.793 579.387 276.957 579.15 277.286C578.855 277.707 578.707 278.49 578.707 279.636ZM583.673 277.779C583.673 277.282 583.796 276.86 584.041 276.515C584.294 276.17 584.657 275.997 585.13 275.997C585.57 275.997 585.933 276.153 586.22 276.465C586.507 276.776 586.651 277.231 586.651 277.829C586.651 278.419 586.503 278.874 586.207 279.194C585.92 279.505 585.565 279.661 585.143 279.661C584.721 279.661 584.37 279.505 584.091 279.194C583.813 278.882 583.673 278.41 583.673 277.779ZM585.156 276.578C584.945 276.578 584.767 276.671 584.624 276.856C584.488 277.042 584.421 277.378 584.421 277.867C584.421 278.313 584.488 278.629 584.624 278.815C584.767 278.992 584.945 279.08 585.156 279.08C585.375 279.08 585.553 278.987 585.688 278.802C585.831 278.617 585.903 278.284 585.903 277.804C585.903 277.349 585.831 277.033 585.688 276.856C585.544 276.671 585.367 276.578 585.156 276.578ZM585.156 283.313L588.969 275.997H589.666L585.865 283.313H585.156ZM588.171 281.43C588.171 280.933 588.293 280.512 588.538 280.167C588.792 279.821 589.159 279.649 589.641 279.649C590.08 279.649 590.443 279.804 590.73 280.116C591.017 280.419 591.161 280.874 591.161 281.481C591.161 282.07 591.013 282.525 590.718 282.845C590.43 283.157 590.071 283.313 589.641 283.313C589.227 283.313 588.876 283.157 588.589 282.845C588.31 282.533 588.171 282.062 588.171 281.43ZM589.666 280.23C589.446 280.23 589.265 280.322 589.121 280.508C588.986 280.693 588.919 281.03 588.919 281.518C588.919 281.956 588.99 282.268 589.134 282.453C589.278 282.639 589.455 282.731 589.666 282.731C589.877 282.731 590.055 282.639 590.198 282.453C590.342 282.268 590.414 281.931 590.414 281.443C590.414 280.996 590.342 280.685 590.198 280.508C590.055 280.322 589.877 280.23 589.666 280.23Z" fill="#9E9E9E"/>
<path d="M592.022 272.953H504.046L387.908 276.465" stroke="#757575" stroke-width="0.572358" stroke-miterlimit="10"/>
<path d="M389.528 276.464C389.528 275.571 388.802 274.847 387.906 274.847C387.011 274.847 386.285 275.571 386.285 276.464C386.285 277.357 387.011 278.081 387.906 278.081C388.802 278.081 389.528 277.357 389.528 276.464Z" fill="#9E9E9E"/>
<path d="M535.294 30.5334C534.195 30.5334 533.251 30.2759 532.461 29.7608C531.683 29.2342 531.139 28.513 530.83 27.5972L531.86 26.9963C532.077 27.7403 532.478 28.3241 533.062 28.7477C533.646 29.1598 534.395 29.3658 535.311 29.3658C536.204 29.3658 536.897 29.1712 537.389 28.782C537.893 28.3814 538.144 27.8548 538.144 27.2023C538.144 26.5727 537.915 26.0977 537.458 25.7771C537 25.4566 536.244 25.1247 535.191 24.7812C533.943 24.3691 533.119 24.0372 532.718 23.7853C531.803 23.2359 531.345 22.4403 531.345 21.3986C531.345 20.3798 531.7 19.5785 532.409 18.9947C533.119 18.3994 533.995 18.1018 535.037 18.1018C535.975 18.1018 536.788 18.3479 537.475 18.8402C538.162 19.3209 538.671 19.9391 539.003 20.6946L537.99 21.2612C537.44 19.9334 536.456 19.2694 535.037 19.2694C534.292 19.2694 533.691 19.4526 533.234 19.8189C532.776 20.1852 532.547 20.6946 532.547 21.3471C532.547 21.9423 532.753 22.3888 533.165 22.6864C533.577 22.984 534.258 23.2874 535.208 23.5965C535.643 23.7453 535.952 23.854 536.135 23.9227C536.33 23.9799 536.605 24.083 536.96 24.2318C537.326 24.3691 537.595 24.4951 537.767 24.6095C537.938 24.7126 538.144 24.8614 538.385 25.056C538.637 25.2391 538.814 25.428 538.917 25.6226C539.032 25.8058 539.129 26.0347 539.209 26.3094C539.301 26.5727 539.346 26.8589 539.346 27.168C539.346 28.1868 538.974 29.0052 538.23 29.6234C537.486 30.2301 536.507 30.5334 535.294 30.5334ZM548.6 29.2456C547.73 30.1042 546.666 30.5334 545.407 30.5334C544.147 30.5334 543.077 30.1042 542.196 29.2456C541.326 28.3757 540.891 27.3053 540.891 26.0347C540.891 24.7641 541.326 23.6995 542.196 22.8409C543.077 21.971 544.147 21.536 545.407 21.536C546.666 21.536 547.73 21.971 548.6 22.8409C549.482 23.6995 549.922 24.7641 549.922 26.0347C549.922 27.3053 549.482 28.3757 548.6 29.2456ZM543.003 28.4558C543.655 29.1083 544.456 29.4345 545.407 29.4345C546.357 29.4345 547.158 29.1083 547.81 28.4558C548.463 27.7918 548.789 26.9848 548.789 26.0347C548.789 25.0846 548.463 24.2833 547.81 23.6308C547.158 22.9669 546.357 22.6349 545.407 22.6349C544.456 22.6349 543.655 22.9669 543.003 23.6308C542.35 24.2833 542.024 25.0846 542.024 26.0347C542.024 26.9848 542.35 27.7918 543.003 28.4558ZM552.535 29.2285H557.481V30.3274H550.956V29.5719L555.729 22.8409H551.127V21.742H557.309V22.4975L552.535 29.2285ZM560.515 19.6815C560.355 19.8418 560.16 19.9219 559.931 19.9219C559.702 19.9219 559.508 19.8418 559.347 19.6815C559.187 19.5213 559.107 19.3267 559.107 19.0977C559.107 18.8688 559.187 18.6742 559.347 18.5139C559.508 18.3537 559.702 18.2735 559.931 18.2735C560.16 18.2735 560.355 18.3537 560.515 18.5139C560.675 18.6742 560.755 18.8688 560.755 19.0977C560.755 19.3267 560.675 19.5213 560.515 19.6815ZM559.365 30.3274V21.742H560.498V30.3274H559.365ZM566.921 21.536C567.962 21.536 568.781 21.8565 569.376 22.4975C569.983 23.1271 570.286 23.9799 570.286 25.056V30.3274H569.153V25.056C569.153 24.289 568.947 23.6938 568.535 23.2702C568.134 22.8467 567.562 22.6349 566.818 22.6349C565.994 22.6349 565.324 22.8982 564.809 23.4248C564.294 23.9399 564.036 24.7412 564.036 25.8287V30.3274H562.903V21.742H564.036V23.0813C564.677 22.0511 565.639 21.536 566.921 21.536ZM576.495 21.536C577.537 21.536 578.356 21.8565 578.951 22.4975C579.558 23.1271 579.861 23.9799 579.861 25.056V30.3274H578.728V25.056C578.728 24.289 578.522 23.6938 578.109 23.2702C577.709 22.8467 577.136 22.6349 576.392 22.6349C575.568 22.6349 574.899 22.8982 574.383 23.4248C573.868 23.9399 573.611 24.7412 573.611 25.8287V30.3274H572.477V18.3079H573.611V23.0813C574.252 22.0511 575.213 21.536 576.495 21.536ZM589.247 29.2456C588.377 30.1042 587.312 30.5334 586.053 30.5334C584.794 30.5334 583.723 30.1042 582.842 29.2456C581.972 28.3757 581.537 27.3053 581.537 26.0347C581.537 24.7641 581.972 23.6995 582.842 22.8409C583.723 21.971 584.794 21.536 586.053 21.536C587.312 21.536 588.377 21.971 589.247 22.8409C590.128 23.6995 590.569 24.7641 590.569 26.0347C590.569 27.3053 590.128 28.3757 589.247 29.2456ZM583.649 28.4558C584.302 29.1083 585.103 29.4345 586.053 29.4345C587.003 29.4345 587.804 29.1083 588.457 28.4558C589.109 27.7918 589.436 26.9848 589.436 26.0347C589.436 25.0846 589.109 24.2833 588.457 23.6308C587.804 22.9669 587.003 22.6349 586.053 22.6349C585.103 22.6349 584.302 22.9669 583.649 23.6308C582.997 24.2833 582.67 25.0846 582.67 26.0347C582.67 26.9848 582.997 27.7918 583.649 28.4558Z" fill="white"/>
<path d="M501.498 264.555C499.678 264.555 498.173 263.954 496.982 262.752C495.792 261.55 495.196 260.079 495.196 258.339C495.196 256.599 495.792 255.128 496.982 253.926C498.173 252.724 499.678 252.123 501.498 252.123C502.608 252.123 503.627 252.392 504.555 252.93C505.482 253.457 506.197 254.172 506.701 255.077L505.636 255.695C505.259 254.962 504.698 254.378 503.954 253.943C503.209 253.508 502.391 253.291 501.498 253.291C499.999 253.291 498.774 253.777 497.824 254.75C496.873 255.723 496.398 256.92 496.398 258.339C496.398 259.759 496.873 260.955 497.824 261.928C498.774 262.901 499.999 263.387 501.498 263.387C502.391 263.387 503.209 263.17 503.954 262.735C504.698 262.3 505.259 261.716 505.636 260.983L506.701 261.584C506.209 262.489 505.493 263.21 504.555 263.748C503.627 264.286 502.608 264.555 501.498 264.555ZM515.616 263.267C514.747 264.126 513.682 264.555 512.423 264.555C511.164 264.555 510.093 264.126 509.212 263.267C508.342 262.397 507.907 261.327 507.907 260.056C507.907 258.786 508.342 257.721 509.212 256.862C510.093 255.992 511.164 255.557 512.423 255.557C513.682 255.557 514.747 255.992 515.616 256.862C516.498 257.721 516.939 258.786 516.939 260.056C516.939 261.327 516.498 262.397 515.616 263.267ZM510.019 262.477C510.671 263.13 511.473 263.456 512.423 263.456C513.373 263.456 514.174 263.13 514.827 262.477C515.479 261.813 515.805 261.006 515.805 260.056C515.805 259.106 515.479 258.305 514.827 257.652C514.174 256.988 513.373 256.656 512.423 256.656C511.473 256.656 510.671 256.988 510.019 257.652C509.366 258.305 509.04 259.106 509.04 260.056C509.04 261.006 509.366 261.813 510.019 262.477ZM527.987 255.557C528.949 255.557 529.721 255.867 530.305 256.485C530.9 257.103 531.198 257.938 531.198 258.992V264.349H530.065V258.992C530.065 258.248 529.87 257.675 529.481 257.275C529.103 256.862 528.599 256.656 527.97 256.656C527.26 256.656 526.682 256.897 526.236 257.378C525.801 257.847 525.583 258.585 525.583 259.593V264.349H524.45V258.992C524.45 258.236 524.267 257.658 523.9 257.257C523.546 256.857 523.059 256.656 522.441 256.656C521.754 256.656 521.17 256.897 520.69 257.378C520.209 257.858 519.968 258.597 519.968 259.593V264.349H518.835V255.764H519.968V257.017C520.586 256.044 521.462 255.557 522.595 255.557C523.832 255.557 524.702 256.078 525.205 257.12C525.824 256.078 526.751 255.557 527.987 255.557ZM544.877 263.267C544.007 264.126 542.943 264.555 541.683 264.555C540.424 264.555 539.354 264.126 538.473 263.267C537.603 262.397 537.168 261.327 537.168 260.056C537.168 258.786 537.603 257.721 538.473 256.862C539.354 255.992 540.424 255.557 541.683 255.557C542.943 255.557 544.007 255.992 544.877 256.862C545.759 257.721 546.199 258.786 546.199 260.056C546.199 261.327 545.759 262.397 544.877 263.267ZM539.28 262.477C539.932 263.13 540.733 263.456 541.683 263.456C542.634 263.456 543.435 263.13 544.087 262.477C544.74 261.813 545.066 261.006 545.066 260.056C545.066 259.106 544.74 258.305 544.087 257.652C543.435 256.988 542.634 256.656 541.683 256.656C540.733 256.656 539.932 256.988 539.28 257.652C538.627 258.305 538.301 259.106 538.301 260.056C538.301 261.006 538.627 261.813 539.28 262.477ZM548.821 258.013C548.821 258.402 548.993 258.711 549.336 258.94C549.68 259.169 550.097 259.346 550.59 259.472C551.082 259.598 551.574 259.741 552.066 259.902C552.558 260.05 552.976 260.308 553.32 260.674C553.663 261.029 553.835 261.499 553.835 262.082C553.835 262.815 553.543 263.41 552.959 263.868C552.387 264.326 551.643 264.555 550.727 264.555C549.903 264.555 549.199 264.372 548.615 264.005C548.043 263.639 547.642 263.164 547.413 262.58L548.375 262.014C548.535 262.46 548.821 262.815 549.233 263.078C549.657 263.33 550.155 263.456 550.727 263.456C551.288 263.456 551.757 263.347 552.135 263.13C552.513 262.901 552.702 262.552 552.702 262.082C552.702 261.693 552.53 261.384 552.186 261.155C551.843 260.926 551.425 260.749 550.933 260.623C550.441 260.497 549.949 260.36 549.456 260.211C548.964 260.05 548.546 259.793 548.203 259.438C547.859 259.072 547.688 258.597 547.688 258.013C547.688 257.315 547.962 256.731 548.512 256.261C549.073 255.792 549.777 255.557 550.624 255.557C551.322 255.557 551.935 255.718 552.461 256.038C552.988 256.347 553.377 256.771 553.629 257.309L552.684 257.858C552.352 257.057 551.666 256.656 550.624 256.656C550.132 256.656 549.708 256.777 549.353 257.017C548.998 257.246 548.821 257.578 548.821 258.013ZM564.62 255.557C565.845 255.557 566.886 255.992 567.745 256.862C568.615 257.732 569.05 258.797 569.05 260.056C569.05 261.315 568.615 262.38 567.745 263.25C566.886 264.12 565.845 264.555 564.62 264.555C563.097 264.555 561.941 263.925 561.151 262.666V267.783H560.018V255.764H561.151V257.446C561.941 256.187 563.097 255.557 564.62 255.557ZM562.13 262.477C562.783 263.13 563.584 263.456 564.534 263.456C565.484 263.456 566.285 263.13 566.938 262.477C567.59 261.813 567.917 261.006 567.917 260.056C567.917 259.106 567.59 258.305 566.938 257.652C566.285 256.988 565.484 256.656 564.534 256.656C563.584 256.656 562.783 256.988 562.13 257.652C561.478 258.305 561.151 259.106 561.151 260.056C561.151 261.006 561.478 261.813 562.13 262.477ZM578.318 255.764H579.451V264.349H578.318V262.666C577.528 263.925 576.372 264.555 574.849 264.555C573.624 264.555 572.577 264.12 571.707 263.25C570.848 262.38 570.419 261.315 570.419 260.056C570.419 258.797 570.848 257.732 571.707 256.862C572.577 255.992 573.624 255.557 574.849 255.557C576.372 255.557 577.528 256.187 578.318 257.446V255.764ZM572.531 262.477C573.184 263.13 573.985 263.456 574.935 263.456C575.885 263.456 576.686 263.13 577.339 262.477C577.991 261.813 578.318 261.006 578.318 260.056C578.318 259.106 577.991 258.305 577.339 257.652C576.686 256.988 575.885 256.656 574.935 256.656C573.985 256.656 573.184 256.988 572.531 257.652C571.879 258.305 571.552 259.106 571.552 260.056C571.552 261.006 571.879 261.813 572.531 262.477ZM583.001 253.703C582.841 253.863 582.646 253.943 582.417 253.943C582.188 253.943 581.993 253.863 581.833 253.703C581.673 253.543 581.593 253.348 581.593 253.119C581.593 252.89 581.673 252.696 581.833 252.535C581.993 252.375 582.188 252.295 582.417 252.295C582.646 252.295 582.841 252.375 583.001 252.535C583.161 252.696 583.241 252.89 583.241 253.119C583.241 253.348 583.161 253.543 583.001 253.703ZM581.85 264.349V255.764H582.984V264.349H581.85ZM586.281 258.013C586.281 258.402 586.453 258.711 586.796 258.94C587.14 259.169 587.558 259.346 588.05 259.472C588.542 259.598 589.034 259.741 589.527 259.902C590.019 260.05 590.437 260.308 590.78 260.674C591.124 261.029 591.295 261.499 591.295 262.082C591.295 262.815 591.003 263.41 590.42 263.868C589.847 264.326 589.103 264.555 588.187 264.555C587.363 264.555 586.659 264.372 586.075 264.005C585.503 263.639 585.102 263.164 584.873 262.58L585.835 262.014C585.995 262.46 586.281 262.815 586.693 263.078C587.117 263.33 587.615 263.456 588.187 263.456C588.748 263.456 589.218 263.347 589.595 263.13C589.973 262.901 590.162 262.552 590.162 262.082C590.162 261.693 589.99 261.384 589.647 261.155C589.303 260.926 588.886 260.749 588.393 260.623C587.901 260.497 587.409 260.36 586.917 260.211C586.424 260.05 586.007 259.793 585.663 259.438C585.32 259.072 585.148 258.597 585.148 258.013C585.148 257.315 585.423 256.731 585.972 256.261C586.533 255.792 587.237 255.557 588.084 255.557C588.783 255.557 589.395 255.718 589.922 256.038C590.448 256.347 590.837 256.771 591.089 257.309L590.145 257.858C589.813 257.057 589.126 256.656 588.084 256.656C587.592 256.656 587.169 256.777 586.814 257.017C586.459 257.246 586.281 257.578 586.281 258.013Z" fill="white"/>
<path d="M9.04795 30.5334C7.22785 30.5334 5.72255 29.9325 4.53204 28.7305C3.34154 27.5286 2.74629 26.0576 2.74629 24.3176C2.74629 22.5777 3.34154 21.1067 4.53204 19.9047C5.72255 18.7028 7.22785 18.1018 9.04795 18.1018C10.1583 18.1018 11.1771 18.3708 12.1043 18.9088C13.0316 19.4354 13.747 20.1509 14.2507 21.0552L13.1861 21.6733C12.8083 20.9407 12.2474 20.3569 11.5034 19.9219C10.7593 19.4869 9.94083 19.2694 9.04795 19.2694C7.54837 19.2694 6.32353 19.7559 5.37341 20.7289C4.4233 21.702 3.94824 22.8982 3.94824 24.3176C3.94824 25.7371 4.4233 26.9333 5.37341 27.9063C6.32353 28.8793 7.54837 29.3658 9.04795 29.3658C9.94083 29.3658 10.7593 29.1483 11.5034 28.7133C12.2474 28.2783 12.8083 27.6945 13.1861 26.9619L14.2507 27.5629C13.7585 28.4672 13.043 29.1884 12.1043 29.7264C11.1771 30.2644 10.1583 30.5334 9.04795 30.5334ZM23.1663 29.2456C22.2963 30.1042 21.2318 30.5334 19.9726 30.5334C18.7134 30.5334 17.6431 30.1042 16.7616 29.2456C15.8917 28.3757 15.4567 27.3053 15.4567 26.0347C15.4567 24.7641 15.8917 23.6995 16.7616 22.8409C17.6431 21.971 18.7134 21.536 19.9726 21.536C21.2318 21.536 22.2963 21.971 23.1663 22.8409C24.0478 23.6995 24.4885 24.7641 24.4885 26.0347C24.4885 27.3053 24.0478 28.3757 23.1663 29.2456ZM17.5687 28.4558C18.2212 29.1083 19.0225 29.4345 19.9726 29.4345C20.9227 29.4345 21.724 29.1083 22.3765 28.4558C23.029 27.7918 23.3552 26.9848 23.3552 26.0347C23.3552 25.0846 23.029 24.2833 22.3765 23.6308C21.724 22.9669 20.9227 22.6349 19.9726 22.6349C19.0225 22.6349 18.2212 22.9669 17.5687 23.6308C16.9162 24.2833 16.5899 25.0846 16.5899 26.0347C16.5899 26.9848 16.9162 27.7918 17.5687 28.4558ZM35.5369 21.536C36.4985 21.536 37.2712 21.845 37.855 22.4632C38.4502 23.0813 38.7478 23.917 38.7478 24.9701V30.3274H37.6146V24.9701C37.6146 24.2261 37.42 23.6537 37.0308 23.253C36.653 22.8409 36.1493 22.6349 35.5197 22.6349C34.81 22.6349 34.2319 22.8753 33.7855 23.3561C33.3505 23.8254 33.133 24.5637 33.133 25.5711V30.3274H31.9997V24.9701C31.9997 24.2146 31.8166 23.6365 31.4503 23.2359C31.0954 22.8352 30.6089 22.6349 29.9908 22.6349C29.3039 22.6349 28.7201 22.8753 28.2394 23.3561C27.7586 23.8368 27.5182 24.5752 27.5182 25.5711V30.3274H26.3849V21.742H27.5182V22.9955C28.1363 22.0225 29.012 21.536 30.1453 21.536C31.3816 21.536 32.2516 22.0568 32.7553 23.0985C33.3734 22.0568 34.3006 21.536 35.5369 21.536ZM52.427 29.2456C51.557 30.1042 50.4925 30.5334 49.2333 30.5334C47.9741 30.5334 46.9038 30.1042 46.0223 29.2456C45.1524 28.3757 44.7174 27.3053 44.7174 26.0347C44.7174 24.7641 45.1524 23.6995 46.0223 22.8409C46.9038 21.971 47.9741 21.536 49.2333 21.536C50.4925 21.536 51.557 21.971 52.427 22.8409C53.3085 23.6995 53.7492 24.7641 53.7492 26.0347C53.7492 27.3053 53.3085 28.3757 52.427 29.2456ZM46.8294 28.4558C47.4819 29.1083 48.2832 29.4345 49.2333 29.4345C50.1834 29.4345 50.9847 29.1083 51.6372 28.4558C52.2897 27.7918 52.6159 26.9848 52.6159 26.0347C52.6159 25.0846 52.2897 24.2833 51.6372 23.6308C50.9847 22.9669 50.1834 22.6349 49.2333 22.6349C48.2832 22.6349 47.4819 22.9669 46.8294 23.6308C46.1769 24.2833 45.8506 25.0846 45.8506 26.0347C45.8506 26.9848 46.1769 27.7918 46.8294 28.4558ZM60.11 18.3079H61.312V30.3274H60.11V18.3079ZM65.0289 23.1672C65.5555 22.1255 66.4598 21.6047 67.7419 21.6047V22.7036C66.9635 22.7036 66.3167 22.9325 65.8016 23.3904C65.2864 23.8483 65.0289 24.5695 65.0289 25.5539V30.3274H63.8956V21.742H65.0289V23.1672ZM78.447 21.536C79.4086 21.536 80.1813 21.845 80.7651 22.4632C81.3603 23.0813 81.658 23.917 81.658 24.9701V30.3274H80.5247V24.9701C80.5247 24.2261 80.3301 23.6537 79.9409 23.253C79.5631 22.8409 79.0594 22.6349 78.4299 22.6349C77.7201 22.6349 77.142 22.8753 76.6956 23.3561C76.2606 23.8254 76.0431 24.5637 76.0431 25.5711V30.3274H74.9099V24.9701C74.9099 24.2146 74.7267 23.6365 74.3604 23.2359C74.0055 22.8352 73.519 22.6349 72.9009 22.6349C72.214 22.6349 71.6302 22.8753 71.1495 23.3561C70.6687 23.8368 70.4283 24.5752 70.4283 25.5711V30.3274H69.295V21.742H70.4283V22.9955C71.0464 22.0225 71.9221 21.536 73.0554 21.536C74.2917 21.536 75.1617 22.0568 75.6654 23.0985C76.2835 22.0568 77.2107 21.536 78.447 21.536ZM87.885 19.9734C87.6218 19.7788 87.4157 19.6415 87.2669 19.5613C87.1295 19.4698 86.9922 19.4182 86.8548 19.4068C86.7174 19.3953 86.6201 19.4698 86.5629 19.63C86.5057 19.7903 86.477 20.0364 86.477 20.3684H85.4811C85.4811 19.693 85.6013 19.1893 85.8417 18.8573C86.0821 18.5254 86.3855 18.3708 86.7518 18.3937C87.1181 18.4052 87.5016 18.5654 87.9022 18.8745C88.1083 19.0348 88.2742 19.155 88.4002 19.2351C88.5261 19.3152 88.652 19.3782 88.7779 19.424C88.9038 19.4698 89.0011 19.464 89.0698 19.4068C89.1385 19.3496 89.19 19.2465 89.2244 19.0977C89.2701 18.9489 89.293 18.7429 89.293 18.4796H90.2889C90.2889 19.155 90.1687 19.6586 89.9284 19.9906C89.688 20.3226 89.3846 20.4828 89.0183 20.4714C88.6634 20.4485 88.2857 20.2825 87.885 19.9734ZM91.2333 21.742H92.3666V30.3274H91.2333V28.6447C90.4435 29.9038 89.2873 30.5334 87.7648 30.5334C86.54 30.5334 85.4926 30.0984 84.6226 29.2285C83.7641 28.3585 83.3348 27.2939 83.3348 26.0347C83.3348 24.7755 83.7641 23.7109 84.6226 22.8409C85.4926 21.971 86.54 21.536 87.7648 21.536C89.2873 21.536 90.4435 22.1656 91.2333 23.4248V21.742ZM85.4468 28.4558C86.0993 29.1083 86.9006 29.4345 87.8507 29.4345C88.8008 29.4345 89.6021 29.1083 90.2546 28.4558C90.9071 27.7918 91.2333 26.9848 91.2333 26.0347C91.2333 25.0846 90.9071 24.2833 90.2546 23.6308C89.6021 22.9669 88.8008 22.6349 87.8507 22.6349C86.9006 22.6349 86.0993 22.9669 85.4468 23.6308C84.7943 24.2833 84.4681 25.0846 84.4681 26.0347C84.4681 26.9848 84.7943 27.7918 85.4468 28.4558ZM101.961 29.2456C101.091 30.1042 100.026 30.5334 98.7669 30.5334C97.5077 30.5334 96.4374 30.1042 95.5559 29.2456C94.6859 28.3757 94.251 27.3053 94.251 26.0347C94.251 24.7641 94.6859 23.6995 95.5559 22.8409C96.4374 21.971 97.5077 21.536 98.7669 21.536C100.026 21.536 101.091 21.971 101.961 22.8409C102.842 23.6995 103.283 24.7641 103.283 26.0347C103.283 27.3053 102.842 28.3757 101.961 29.2456ZM96.363 28.4558C97.0154 29.1083 97.8167 29.4345 98.7669 29.4345C99.717 29.4345 100.518 29.1083 101.171 28.4558C101.823 27.7918 102.149 26.9848 102.149 26.0347C102.149 25.0846 101.823 24.2833 101.171 23.6308C100.518 22.9669 99.717 22.6349 98.7669 22.6349C97.8167 22.6349 97.0154 22.9669 96.363 23.6308C95.7105 24.2833 95.3842 25.0846 95.3842 26.0347C95.3842 26.9848 95.7105 27.7918 96.363 28.4558ZM106.896 32.0445C105.637 29.5261 105.007 26.9505 105.007 24.3176C105.007 21.6848 105.637 19.1092 106.896 16.5908H108.03C106.77 19.1092 106.141 21.6848 106.141 24.3176C106.141 26.9505 106.77 29.5261 108.03 32.0445H106.896ZM113.775 19.9734C113.512 19.7788 113.306 19.6415 113.157 19.5613C113.02 19.4698 112.882 19.4182 112.745 19.4068C112.608 19.3953 112.51 19.4698 112.453 19.63C112.396 19.7903 112.367 20.0364 112.367 20.3684H111.371C111.371 19.693 111.492 19.1893 111.732 18.8573C111.972 18.5254 112.276 18.3708 112.642 18.3937C113.008 18.4052 113.392 18.5654 113.792 18.8745C113.999 19.0348 114.165 19.155 114.29 19.2351C114.416 19.3152 114.542 19.3782 114.668 19.424C114.794 19.4698 114.891 19.464 114.96 19.4068C115.029 19.3496 115.08 19.2465 115.115 19.0977C115.16 18.9489 115.183 18.7429 115.183 18.4796H116.179C116.179 19.155 116.059 19.6586 115.819 19.9906C115.578 20.3226 115.275 20.4828 114.909 20.4714C114.554 20.4485 114.176 20.2825 113.775 19.9734ZM117.124 21.742H118.257V30.3274H117.124V28.6447C116.334 29.9038 115.178 30.5334 113.655 30.5334C112.43 30.5334 111.383 30.0984 110.513 29.2285C109.654 28.3585 109.225 27.2939 109.225 26.0347C109.225 24.7755 109.654 23.7109 110.513 22.8409C111.383 21.971 112.43 21.536 113.655 21.536C115.178 21.536 116.334 22.1656 117.124 23.4248V21.742ZM111.337 28.4558C111.99 29.1083 112.791 29.4345 113.741 29.4345C114.691 29.4345 115.492 29.1083 116.145 28.4558C116.797 27.7918 117.124 26.9848 117.124 26.0347C117.124 25.0846 116.797 24.2833 116.145 23.6308C115.492 22.9669 114.691 22.6349 113.741 22.6349C112.791 22.6349 111.99 22.9669 111.337 23.6308C110.685 24.2833 110.358 25.0846 110.358 26.0347C110.358 26.9848 110.685 27.7918 111.337 28.4558ZM121.103 32.0445H119.97C121.229 29.5261 121.858 26.9505 121.858 24.3176C121.858 21.6848 121.229 19.1092 119.97 16.5908H121.103C122.362 19.1092 122.992 21.6848 122.992 24.3176C122.992 26.9505 122.362 29.5261 121.103 32.0445Z" fill="white"/>
<path d="M76.1852 45.1303H70.6047V49.5604H75.9276V50.6937H70.6047V56.0166H69.4028V43.9971H76.1852V45.1303ZM85.4514 47.4312H86.5846V56.0166H85.4514V54.3339C84.6615 55.5931 83.5054 56.2227 81.9829 56.2227C80.758 56.2227 79.7106 55.7877 78.8406 54.9177C77.9821 54.0477 77.5528 52.9831 77.5528 51.7239C77.5528 50.4647 77.9821 49.4001 78.8406 48.5302C79.7106 47.6602 80.758 47.2252 81.9829 47.2252C83.5054 47.2252 84.6615 47.8548 85.4514 49.114V47.4312ZM79.6648 54.145C80.3173 54.7975 81.1186 55.1237 82.0687 55.1237C83.0189 55.1237 83.8202 54.7975 84.4726 54.145C85.1251 53.4811 85.4514 52.674 85.4514 51.7239C85.4514 50.7738 85.1251 49.9725 84.4726 49.32C83.8202 48.6561 83.0189 48.3241 82.0687 48.3241C81.1186 48.3241 80.3173 48.6561 79.6648 49.32C79.0123 49.9725 78.6861 50.7738 78.6861 51.7239C78.6861 52.674 79.0123 53.4811 79.6648 54.145ZM98.1361 47.2252C99.0977 47.2252 99.8704 47.5343 100.454 48.1524C101.049 48.7705 101.347 49.6062 101.347 50.6593V56.0166H100.214V50.6593C100.214 49.9153 100.019 49.3429 99.63 48.9423C99.2522 48.5302 98.7486 48.3241 98.119 48.3241C97.4092 48.3241 96.8312 48.5645 96.3847 49.0453C95.9497 49.5146 95.7322 50.253 95.7322 51.2603V56.0166H94.599V50.6593C94.599 49.9038 94.4158 49.3257 94.0495 48.9251C93.6946 48.5244 93.2081 48.3241 92.59 48.3241C91.9032 48.3241 91.3193 48.5645 90.8386 49.0453C90.3578 49.5261 90.1174 50.2644 90.1174 51.2603V56.0166H88.9841V47.4312H90.1174V48.6847C90.7355 47.7117 91.6113 47.2252 92.7445 47.2252C93.9808 47.2252 94.8508 47.746 95.3545 48.7877C95.9726 47.746 96.8998 47.2252 98.1361 47.2252ZM103.591 46.2293H104.689L105.823 43.9971H104.449L103.591 46.2293ZM103.539 56.0166V47.4312H104.672V56.0166H103.539ZM107.077 56.0166V43.482H108.21V56.0166H107.077ZM111.766 45.3707C111.605 45.531 111.411 45.6111 111.182 45.6111C110.953 45.6111 110.758 45.531 110.598 45.3707C110.438 45.2105 110.358 45.0159 110.358 44.7869C110.358 44.558 110.438 44.3634 110.598 44.2031C110.758 44.0429 110.953 43.9627 111.182 43.9627C111.411 43.9627 111.605 44.0429 111.766 44.2031C111.926 44.3634 112.006 44.558 112.006 44.7869C112.006 45.0159 111.926 45.2105 111.766 45.3707ZM110.615 56.0166V47.4312H111.749V56.0166H110.615ZM121.537 47.4312H122.67V56.0166H121.537V54.3339C120.747 55.5931 119.591 56.2227 118.068 56.2227C116.843 56.2227 115.796 55.7877 114.926 54.9177C114.068 54.0477 113.638 52.9831 113.638 51.7239C113.638 50.4647 114.068 49.4001 114.926 48.5302C115.796 47.6602 116.843 47.2252 118.068 47.2252C119.591 47.2252 120.747 47.8548 121.537 49.114V47.4312ZM115.75 54.145C116.403 54.7975 117.204 55.1237 118.154 55.1237C119.104 55.1237 119.906 54.7975 120.558 54.145C121.211 53.4811 121.537 52.674 121.537 51.7239C121.537 50.7738 121.211 49.9725 120.558 49.32C119.906 48.6561 119.104 48.3241 118.154 48.3241C117.204 48.3241 116.403 48.6561 115.75 49.32C115.098 49.9725 114.772 50.7738 114.772 51.7239C114.772 52.674 115.098 53.4811 115.75 54.145Z" fill="white"/>
<path d="M28.6473 80.5264H29.8493V92.5459H28.819L22.1224 82.7586V92.5459H20.9205V80.5264H21.9507L28.6473 90.3137V80.5264ZM39.8029 83.9605H40.9362V92.5459H39.8029V90.8632C39.0131 92.1224 37.8569 92.7519 36.3344 92.7519C35.1096 92.7519 34.0622 92.317 33.1922 91.447C32.3336 90.577 31.9044 89.5124 31.9044 88.2532C31.9044 86.994 32.3336 85.9294 33.1922 85.0595C34.0622 84.1895 35.1096 83.7545 36.3344 83.7545C37.8569 83.7545 39.0131 84.3841 39.8029 85.6433V83.9605ZM34.0164 90.6743C34.6689 91.3268 35.4702 91.653 36.4203 91.653C37.3704 91.653 38.1717 91.3268 38.8242 90.6743C39.4767 90.0104 39.8029 89.2033 39.8029 88.2532C39.8029 87.3031 39.4767 86.5018 38.8242 85.8493C38.1717 85.1854 37.3704 84.8534 36.4203 84.8534C35.4702 84.8534 34.6689 85.1854 34.0164 85.8493C33.3639 86.5018 33.0376 87.3031 33.0376 88.2532C33.0376 89.2033 33.3639 90.0104 34.0164 90.6743ZM52.4877 83.7545C53.4492 83.7545 54.2219 84.0635 54.8057 84.6817C55.401 85.2998 55.6986 86.1355 55.6986 87.1886V92.5459H54.5653V87.1886C54.5653 86.4446 54.3707 85.8722 53.9815 85.4715C53.6038 85.0595 53.1001 84.8534 52.4705 84.8534C51.7608 84.8534 51.1827 85.0938 50.7363 85.5746C50.3013 86.0439 50.0838 86.7822 50.0838 87.7896V92.5459H48.9505V87.1886C48.9505 86.4331 48.7674 85.855 48.401 85.4544C48.0462 85.0537 47.5597 84.8534 46.9415 84.8534C46.2547 84.8534 45.6709 85.0938 45.1901 85.5746C44.7093 86.0554 44.4689 86.7937 44.4689 87.7896V92.5459H43.3357V83.9605H44.4689V85.214C45.0871 84.241 45.9628 83.7545 47.0961 83.7545C48.3324 83.7545 49.2023 84.2753 49.706 85.317C50.3242 84.2753 51.2514 83.7545 52.4877 83.7545ZM65.0851 91.4641C64.2151 92.3227 63.1505 92.7519 61.8914 92.7519C60.6322 92.7519 59.5619 92.3227 58.6804 91.4641C57.8104 90.5942 57.3754 89.5238 57.3754 88.2532C57.3754 86.9826 57.8104 85.918 58.6804 85.0595C59.5619 84.1895 60.6322 83.7545 61.8914 83.7545C63.1505 83.7545 64.2151 84.1895 65.0851 85.0595C65.9665 85.918 66.4073 86.9826 66.4073 88.2532C66.4073 89.5238 65.9665 90.5942 65.0851 91.4641ZM59.4874 90.6743C60.1399 91.3268 60.9412 91.653 61.8914 91.653C62.8415 91.653 63.6428 91.3268 64.2953 90.6743C64.9477 90.0104 65.274 89.2033 65.274 88.2532C65.274 87.3031 64.9477 86.5018 64.2953 85.8493C63.6428 85.1854 62.8415 84.8534 61.8914 84.8534C60.9412 84.8534 60.1399 85.1854 59.4874 85.8493C58.835 86.5018 58.5087 87.3031 58.5087 88.2532C58.5087 89.2033 58.835 90.0104 59.4874 90.6743ZM69.437 85.3857C69.9635 84.344 70.8679 83.8232 72.1499 83.8232V84.9221C71.3715 84.9221 70.7248 85.151 70.2096 85.6089C69.6945 86.0668 69.437 86.788 69.437 87.7724V92.5459H68.3037V83.9605H69.437V85.3857ZM80.5667 83.9605H81.7V92.5459H80.5667V90.8632C79.7768 92.1224 78.6207 92.7519 77.0982 92.7519C75.8733 92.7519 74.8259 92.317 73.9559 91.447C73.0974 90.577 72.6681 89.5124 72.6681 88.2532C72.6681 86.994 73.0974 85.9294 73.9559 85.0595C74.8259 84.1895 75.8733 83.7545 77.0982 83.7545C78.6207 83.7545 79.7768 84.3841 80.5667 85.6433V83.9605ZM74.7801 90.6743C75.4326 91.3268 76.2339 91.653 77.184 91.653C78.1342 91.653 78.9355 91.3268 79.588 90.6743C80.2404 90.0104 80.5667 89.2033 80.5667 88.2532C80.5667 87.3031 80.2404 86.5018 79.588 85.8493C78.9355 85.1854 78.1342 84.8534 77.184 84.8534C76.2339 84.8534 75.4326 85.1854 74.7801 85.8493C74.1277 86.5018 73.8014 87.3031 73.8014 88.2532C73.8014 89.2033 74.1277 90.0104 74.7801 90.6743ZM91.4829 80.5264H92.6161V92.5459H91.4829V90.8632C90.693 92.1224 89.5368 92.7519 88.0144 92.7519C86.7895 92.7519 85.7421 92.317 84.8721 91.447C84.0136 90.577 83.5843 89.5124 83.5843 88.2532C83.5843 86.994 84.0136 85.9294 84.8721 85.0595C85.7421 84.1895 86.7895 83.7545 88.0144 83.7545C89.5368 83.7545 90.693 84.3841 91.4829 85.6433V80.5264ZM85.6963 90.6743C86.3488 91.3268 87.1501 91.653 88.1002 91.653C89.0503 91.653 89.8516 91.3268 90.5041 90.6743C91.1566 90.0104 91.4829 89.2033 91.4829 88.2532C91.4829 87.3031 91.1566 86.5018 90.5041 85.8493C89.8516 85.1854 89.0503 84.8534 88.1002 84.8534C87.1501 84.8534 86.3488 85.1854 85.6963 85.8493C85.0438 86.5018 84.7176 87.3031 84.7176 88.2532C84.7176 89.2033 85.0438 90.0104 85.6963 90.6743ZM102.399 83.9605H103.532V92.5459H102.399V90.8632C101.609 92.1224 100.453 92.7519 98.9305 92.7519C97.7057 92.7519 96.6583 92.317 95.7883 91.447C94.9298 90.577 94.5005 89.5124 94.5005 88.2532C94.5005 86.994 94.9298 85.9294 95.7883 85.0595C96.6583 84.1895 97.7057 83.7545 98.9305 83.7545C100.453 83.7545 101.609 84.3841 102.399 85.6433V83.9605ZM96.6125 90.6743C97.265 91.3268 98.0663 91.653 99.0164 91.653C99.9665 91.653 100.768 91.3268 101.42 90.6743C102.073 90.0104 102.399 89.2033 102.399 88.2532C102.399 87.3031 102.073 86.5018 101.42 85.8493C100.768 85.1854 99.9665 84.8534 99.0164 84.8534C98.0663 84.8534 97.265 85.1854 96.6125 85.8493C95.96 86.5018 95.6338 87.3031 95.6338 88.2532C95.6338 89.2033 95.96 90.0104 96.6125 90.6743ZM107.649 94.263C106.39 91.7446 105.76 89.169 105.76 86.5361C105.76 83.9033 106.39 81.3277 107.649 78.8093H108.782C107.523 81.3277 106.893 83.9033 106.893 86.5361C106.893 89.169 107.523 91.7446 108.782 94.263H107.649ZM117.687 91.4641C116.817 92.3227 115.753 92.7519 114.494 92.7519C113.234 92.7519 112.164 92.3227 111.283 91.4641C110.413 90.5942 109.978 89.5238 109.978 88.2532C109.978 86.9826 110.413 85.918 111.283 85.0595C112.164 84.1895 113.234 83.7545 114.494 83.7545C115.753 83.7545 116.817 84.1895 117.687 85.0595C118.569 85.918 119.009 86.9826 119.009 88.2532C119.009 89.5238 118.569 90.5942 117.687 91.4641ZM112.09 90.6743C112.742 91.3268 113.543 91.653 114.494 91.653C115.444 91.653 116.245 91.3268 116.897 90.6743C117.55 90.0104 117.876 89.2033 117.876 88.2532C117.876 87.3031 117.55 86.5018 116.897 85.8493C116.245 85.1854 115.444 84.8534 114.494 84.8534C113.543 84.8534 112.742 85.1854 112.09 85.8493C111.437 86.5018 111.111 87.3031 111.111 88.2532C111.111 89.2033 111.437 90.0104 112.09 90.6743ZM121.352 94.263H120.219C121.478 91.7446 122.108 89.169 122.108 86.5361C122.108 83.9033 121.478 81.3277 120.219 78.8093H121.352C122.612 81.3277 123.241 83.9033 123.241 86.5361C123.241 89.169 122.612 91.7446 121.352 94.263Z" fill="white"/>
</svg>
