<svg width="688" height="301" viewBox="0 0 688 301" fill="none" xmlns="http://www.w3.org/2000/svg">
<path d="M385.636 15.5981C440.88 15.5981 490.523 49.382 510.86 100.819C531.197 152.256 518.104 210.913 477.832 248.783L385.636 150.468V15.5981Z" fill="#193E3E"/>
<path d="M336.06 25.0691C351.843 18.8116 368.665 15.5981 385.64 15.5981V150.468L336.06 25.0691Z" fill="#1A314A"/>
<path d="M320.757 32.2866C325.702 29.5641 330.814 27.1556 336.061 25.0752L385.64 150.474L320.757 32.2866Z" fill="#FF7A00"/>
<path d="M251.222 141.998C254.117 95.9177 280.35 54.5228 320.754 32.2795L385.638 150.467L251.222 141.998Z" fill="#F9F1E6"/>
<path d="M293.445 248.791C264.184 221.275 248.705 182.124 251.225 142.007L385.641 150.476L293.445 248.791Z" fill="#78C1B2"/>
<path d="M477.835 248.785C426.006 297.524 345.272 297.524 293.443 248.785L385.639 150.47L477.835 248.785Z" fill="#3A8071"/>
<path d="M163.4 32.9844L162.555 33.0475C162.48 32.7109 162.375 32.4669 162.24 32.3154C162.005 32.0714 161.719 31.9493 161.383 31.9493C161.114 31.9493 160.875 32.0251 160.664 32.1766C160.404 32.3785 160.194 32.6688 160.034 33.0475C159.883 33.4178 159.803 33.9479 159.795 34.6379C159.996 34.3266 160.244 34.0952 160.538 33.9437C160.841 33.7922 161.156 33.7165 161.484 33.7165C162.047 33.7165 162.526 33.9269 162.921 34.3476C163.324 34.7684 163.526 35.3069 163.526 35.9633C163.526 36.4009 163.429 36.809 163.236 37.1877C163.051 37.558 162.795 37.8441 162.467 38.046C162.139 38.2396 161.77 38.3364 161.358 38.3364C160.643 38.3364 160.064 38.0755 159.618 37.5538C159.173 37.032 158.95 36.1737 158.95 34.9788C158.95 33.6324 159.198 32.6562 159.694 32.0503C160.122 31.5202 160.702 31.2551 161.433 31.2551C161.98 31.2551 162.425 31.4108 162.77 31.7221C163.122 32.0251 163.333 32.4458 163.4 32.9844ZM159.933 35.9759C159.933 36.2705 159.992 36.5524 160.11 36.8216C160.236 37.0825 160.408 37.2845 160.627 37.4275C160.854 37.5706 161.093 37.6421 161.345 37.6421C161.698 37.6421 162.005 37.4991 162.265 37.2129C162.526 36.9184 162.656 36.5229 162.656 36.0264C162.656 35.5468 162.526 35.1681 162.265 34.8904C162.013 34.6127 161.694 34.4739 161.307 34.4739C160.921 34.4739 160.593 34.6127 160.324 34.8904C160.064 35.1681 159.933 35.5299 159.933 35.9759ZM165.089 38.2228V37.2508H166.059V38.2228C166.059 38.5762 165.996 38.8623 165.87 39.0811C165.744 39.3083 165.547 39.4808 165.278 39.5986L165.038 39.2326C165.215 39.1568 165.345 39.039 165.429 38.8791C165.513 38.7277 165.564 38.5089 165.58 38.2228H165.089ZM167.055 34.802C167.055 33.9774 167.139 33.3168 167.307 32.8203C167.475 32.3154 167.723 31.9283 168.051 31.659C168.387 31.3897 168.807 31.2551 169.312 31.2551C169.681 31.2551 170.005 31.3308 170.282 31.4823C170.568 31.6338 170.803 31.8526 170.988 32.1387C171.173 32.4164 171.316 32.7572 171.417 33.1611C171.517 33.565 171.568 34.112 171.568 34.802C171.568 35.6183 171.484 36.2747 171.316 36.7712C171.156 37.2676 170.908 37.6547 170.572 37.9324C170.244 38.2017 169.824 38.3364 169.312 38.3364C168.648 38.3364 168.122 38.0965 167.736 37.6169C167.282 37.0446 167.055 36.1064 167.055 34.802ZM167.925 34.802C167.925 35.9381 168.059 36.6954 168.328 37.0741C168.597 37.4528 168.925 37.6421 169.312 37.6421C169.706 37.6421 170.034 37.4528 170.295 37.0741C170.564 36.6954 170.698 35.9381 170.698 34.802C170.698 33.6576 170.564 32.9002 170.295 32.53C170.034 32.1513 169.702 31.962 169.299 31.962C168.912 31.962 168.601 32.1261 168.366 32.4542C168.072 32.875 167.925 33.6576 167.925 34.802ZM172.866 32.9465C172.866 32.45 172.988 32.0293 173.232 31.6843C173.484 31.3393 173.845 31.1667 174.316 31.1667C174.753 31.1667 175.114 31.3224 175.4 31.6338C175.685 31.9451 175.828 32.3995 175.828 32.997C175.828 33.5861 175.681 34.0405 175.387 34.3603C175.101 34.6716 174.748 34.8273 174.328 34.8273C173.908 34.8273 173.559 34.6716 173.282 34.3603C173.005 34.0489 172.866 33.5777 172.866 32.9465ZM174.341 31.7474C174.131 31.7474 173.954 31.84 173.811 32.0251C173.677 32.2102 173.61 32.5468 173.61 33.0349C173.61 33.4809 173.677 33.7964 173.811 33.9816C173.954 34.1583 174.131 34.2466 174.341 34.2466C174.559 34.2466 174.736 34.1541 174.87 33.969C175.013 33.7838 175.085 33.4514 175.085 32.9718C175.085 32.5174 175.013 32.2018 174.87 32.0251C174.727 31.84 174.551 31.7474 174.341 31.7474ZM174.341 38.4752L178.135 31.1667H178.828L175.047 38.4752H174.341ZM177.341 36.5944C177.341 36.098 177.463 35.6772 177.706 35.3322C177.959 34.9872 178.324 34.8147 178.803 34.8147C179.24 34.8147 179.601 34.9703 179.887 35.2817C180.173 35.5846 180.316 36.0391 180.316 36.6449C180.316 37.234 180.169 37.6884 179.874 38.0082C179.589 38.3195 179.232 38.4752 178.803 38.4752C178.391 38.4752 178.043 38.3195 177.757 38.0082C177.48 37.6968 177.341 37.2256 177.341 36.5944ZM178.828 35.3953C178.61 35.3953 178.429 35.4879 178.286 35.673C178.152 35.8581 178.085 36.1947 178.085 36.6828C178.085 37.1204 178.156 37.4317 178.299 37.6169C178.442 37.802 178.618 37.8946 178.828 37.8946C179.038 37.8946 179.215 37.802 179.358 37.6169C179.501 37.4317 179.572 37.0951 179.572 36.6071C179.572 36.1611 179.501 35.8497 179.358 35.673C179.215 35.4879 179.038 35.3953 178.828 35.3953Z" fill="#9E9E9E"/>
<path d="M158.588 28.1239H246.117L361.664 24.6152" stroke="#757575" stroke-width="0.56945" stroke-miterlimit="10"/>
<path d="M363.274 24.6147C363.274 23.7224 362.551 22.999 361.66 22.999C360.769 22.999 360.047 23.7224 360.047 24.6147C360.047 25.507 360.769 26.2304 361.66 26.2304C362.551 26.2304 363.274 25.507 363.274 24.6147Z" fill="#9E9E9E"/>
<path d="M163.466 62.444V63.2645H158.878C158.878 63.0625 158.912 62.8648 158.979 62.6712C159.096 62.3599 159.281 62.0527 159.533 61.7498C159.794 61.4469 160.168 61.0976 160.655 60.7021C161.412 60.0794 161.92 59.5871 162.18 59.2253C162.449 58.8634 162.584 58.5226 162.584 58.2029C162.584 57.8663 162.462 57.5844 162.218 57.3571C161.975 57.1215 161.659 57.0037 161.273 57.0037C160.861 57.0037 160.533 57.1257 160.29 57.3698C160.046 57.6138 159.92 57.9546 159.912 58.3922L159.042 58.3038C159.101 57.6475 159.323 57.151 159.71 56.8144C160.105 56.4694 160.634 56.2969 161.298 56.2969C161.962 56.2969 162.487 56.482 162.874 56.8522C163.26 57.2225 163.454 57.6811 163.454 58.2281C163.454 58.5058 163.395 58.7793 163.277 59.0486C163.168 59.3094 162.979 59.5913 162.71 59.8943C162.449 60.1888 162.017 60.5927 161.412 61.106C160.899 61.5352 160.567 61.8297 160.416 61.9896C160.273 62.1411 160.155 62.2926 160.063 62.444H163.466ZM165.092 63.2645V62.2926H166.063V63.2645C166.063 63.6179 166 63.904 165.874 64.1228C165.748 64.35 165.55 64.5225 165.281 64.6404L165.042 64.2743C165.218 64.1986 165.348 64.0808 165.433 63.9209C165.517 63.7694 165.567 63.5506 165.584 63.2645H165.092ZM167.059 59.8438C167.059 59.0191 167.143 58.3585 167.311 57.862C167.479 57.3571 167.727 56.9701 168.054 56.7008C168.391 56.4315 168.811 56.2969 169.315 56.2969C169.685 56.2969 170.008 56.3726 170.285 56.5241C170.571 56.6755 170.806 56.8943 170.991 57.1804C171.176 57.4581 171.319 57.7989 171.42 58.2029C171.521 58.6068 171.571 59.1538 171.571 59.8438C171.571 60.66 171.487 61.3164 171.319 61.8129C171.159 62.3094 170.912 62.6965 170.575 62.9742C170.248 63.2435 169.827 63.3781 169.315 63.3781C168.651 63.3781 168.126 63.1383 167.739 62.6586C167.285 62.0864 167.059 61.1481 167.059 59.8438ZM167.928 59.8438C167.928 60.9798 168.063 61.7372 168.332 62.1158C168.601 62.4945 168.928 62.6839 169.315 62.6839C169.71 62.6839 170.038 62.4945 170.298 62.1158C170.567 61.7372 170.701 60.9798 170.701 59.8438C170.701 58.6993 170.567 57.942 170.298 57.5717C170.038 57.1931 169.706 57.0037 169.302 57.0037C168.916 57.0037 168.605 57.1678 168.369 57.496C168.075 57.9167 167.928 58.6993 167.928 59.8438ZM172.869 57.9883C172.869 57.4918 172.991 57.071 173.235 56.726C173.487 56.381 173.848 56.2085 174.319 56.2085C174.756 56.2085 175.117 56.3642 175.403 56.6755C175.689 56.9869 175.832 57.4413 175.832 58.0388C175.832 58.6278 175.685 59.0822 175.39 59.402C175.105 59.7134 174.752 59.869 174.332 59.869C173.911 59.869 173.563 59.7134 173.285 59.402C173.008 59.0906 172.869 58.6194 172.869 57.9883ZM174.344 56.7891C174.134 56.7891 173.958 56.8817 173.815 57.0668C173.68 57.252 173.613 57.5886 173.613 58.0766C173.613 58.5226 173.68 58.8382 173.815 59.0233C173.958 59.2 174.134 59.2884 174.344 59.2884C174.563 59.2884 174.739 59.1958 174.874 59.0107C175.017 58.8256 175.088 58.4932 175.088 58.0135C175.088 57.5591 175.017 57.2435 174.874 57.0668C174.731 56.8817 174.554 56.7891 174.344 56.7891ZM174.344 63.517L178.138 56.2085H178.832L175.05 63.517H174.344ZM177.344 61.6362C177.344 61.1397 177.466 60.719 177.71 60.3739C177.962 60.0289 178.327 59.8564 178.806 59.8564C179.243 59.8564 179.605 60.0121 179.89 60.3234C180.176 60.6264 180.319 61.0808 180.319 61.6867C180.319 62.2757 180.172 62.7301 179.878 63.0499C179.592 63.3613 179.235 63.517 178.806 63.517C178.395 63.517 178.046 63.3613 177.76 63.0499C177.483 62.7386 177.344 62.2673 177.344 61.6362ZM178.832 60.437C178.613 60.437 178.432 60.5296 178.29 60.7147C178.155 60.8999 178.088 61.2365 178.088 61.7245C178.088 62.1621 178.159 62.4735 178.302 62.6586C178.445 62.8437 178.622 62.9363 178.832 62.9363C179.042 62.9363 179.218 62.8437 179.361 62.6586C179.504 62.4735 179.575 62.1369 179.575 61.6488C179.575 61.2028 179.504 60.8915 179.361 60.7147C179.218 60.5296 179.042 60.437 178.832 60.437Z" fill="#9E9E9E"/>
<path d="M158.588 53.164H246.117L331.162 34.5369" stroke="#757575" stroke-width="0.56945" stroke-miterlimit="10"/>
<path d="M332.776 34.5402C332.776 33.6479 332.053 32.9246 331.162 32.9246C330.271 32.9246 329.549 33.6479 329.549 34.5402C329.549 35.4326 330.271 36.1559 331.162 36.1559C332.053 36.1559 332.776 35.4326 332.776 34.5402Z" fill="#9E9E9E"/>
<path d="M162.192 91.9125H161.347V86.4848C161.137 86.6783 160.864 86.8761 160.528 87.078C160.2 87.2716 159.906 87.4146 159.646 87.5072V86.6867C160.116 86.4595 160.528 86.1902 160.881 85.8789C161.242 85.5591 161.498 85.2477 161.65 84.9448H162.192V91.9125ZM169.049 86.6741L168.204 86.7372C168.129 86.4006 168.024 86.1566 167.889 86.0051C167.654 85.7611 167.368 85.639 167.032 85.639C166.763 85.639 166.524 85.7148 166.314 85.8662C166.053 86.0682 165.843 86.3585 165.683 86.7372C165.532 87.1075 165.452 87.6376 165.444 88.3276C165.645 88.0163 165.893 87.7849 166.188 87.6334C166.49 87.4819 166.805 87.4062 167.133 87.4062C167.696 87.4062 168.175 87.6166 168.57 88.0373C168.973 88.4581 169.175 88.9966 169.175 89.653C169.175 90.0906 169.078 90.4987 168.885 90.8774C168.7 91.2477 168.444 91.5338 168.116 91.7357C167.788 91.9293 167.419 92.0261 167.007 92.0261C166.293 92.0261 165.713 91.7652 165.267 91.2435C164.822 90.7217 164.599 89.8634 164.599 88.6685C164.599 87.3221 164.847 86.3459 165.343 85.74C165.772 85.2099 166.351 84.9448 167.082 84.9448C167.629 84.9448 168.074 85.1005 168.419 85.4118C168.772 85.7148 168.982 86.1355 169.049 86.6741ZM165.582 89.6656C165.582 89.9602 165.641 90.2421 165.759 90.5113C165.885 90.7722 166.057 90.9742 166.276 91.1172C166.503 91.2603 166.742 91.3318 166.994 91.3318C167.347 91.3318 167.654 91.1888 167.914 90.9026C168.175 90.6081 168.305 90.2126 168.305 89.7161C168.305 89.2365 168.175 88.8578 167.914 88.5801C167.662 88.3024 167.343 88.1636 166.956 88.1636C166.57 88.1636 166.242 88.3024 165.973 88.5801C165.713 88.8578 165.582 89.2196 165.582 89.6656ZM170.738 91.9125V90.9405H171.708V91.9125C171.708 92.2659 171.645 92.552 171.519 92.7708C171.393 92.998 171.196 93.1705 170.927 93.2883L170.687 92.9223C170.864 92.8465 170.994 92.7287 171.078 92.5688C171.162 92.4174 171.213 92.1986 171.23 91.9125H170.738ZM172.704 88.4917C172.704 87.6671 172.788 87.0065 172.956 86.51C173.124 86.0051 173.372 85.618 173.7 85.3487C174.036 85.0794 174.456 84.9448 174.961 84.9448C175.33 84.9448 175.654 85.0205 175.931 85.172C176.217 85.3235 176.452 85.5423 176.637 85.8284C176.822 86.1061 176.965 86.4469 177.066 86.8508C177.166 87.2547 177.217 87.8017 177.217 88.4917C177.217 89.308 177.133 89.9644 176.965 90.4609C176.805 90.9573 176.557 91.3444 176.221 91.6221C175.893 91.8914 175.473 92.0261 174.961 92.0261C174.297 92.0261 173.772 91.7862 173.385 91.3066C172.931 90.7343 172.704 89.7961 172.704 88.4917ZM173.574 88.4917C173.574 89.6278 173.708 90.3851 173.977 90.7638C174.246 91.1425 174.574 91.3318 174.961 91.3318C175.356 91.3318 175.683 91.1425 175.944 90.7638C176.213 90.3851 176.347 89.6278 176.347 88.4917C176.347 87.3473 176.213 86.5899 175.944 86.2197C175.683 85.841 175.351 85.6517 174.948 85.6517C174.561 85.6517 174.251 85.8158 174.015 86.1439C173.721 86.5647 173.574 87.3473 173.574 88.4917ZM178.515 86.6362C178.515 86.1397 178.637 85.719 178.881 85.374C179.133 85.029 179.494 84.8564 179.965 84.8564C180.402 84.8564 180.763 85.0121 181.049 85.3235C181.335 85.6348 181.477 86.0893 181.477 86.6867C181.477 87.2758 181.33 87.7302 181.036 88.05C180.75 88.3613 180.398 88.517 179.977 88.517C179.557 88.517 179.208 88.3613 178.931 88.05C178.654 87.7386 178.515 87.2674 178.515 86.6362ZM179.99 85.4371C179.78 85.4371 179.603 85.5296 179.461 85.7148C179.326 85.8999 179.259 86.2365 179.259 86.7246C179.259 87.1706 179.326 87.4861 179.461 87.6713C179.603 87.848 179.78 87.9363 179.99 87.9363C180.208 87.9363 180.385 87.8438 180.519 87.6587C180.662 87.4735 180.734 87.1411 180.734 86.6615C180.734 86.2071 180.662 85.8915 180.519 85.7148C180.377 85.5296 180.2 85.4371 179.99 85.4371ZM179.99 92.1649L183.784 84.8564H184.477L180.696 92.1649H179.99ZM182.99 90.2841C182.99 89.7877 183.112 89.3669 183.356 89.0219C183.608 88.6769 183.973 88.5044 184.452 88.5044C184.889 88.5044 185.25 88.66 185.536 88.9714C185.822 89.2743 185.965 89.7288 185.965 90.3346C185.965 90.9237 185.818 91.3781 185.524 91.6979C185.238 92.0092 184.881 92.1649 184.452 92.1649C184.04 92.1649 183.692 92.0092 183.406 91.6979C183.129 91.3865 182.99 90.9153 182.99 90.2841ZM184.477 89.085C184.259 89.085 184.078 89.1776 183.935 89.3627C183.801 89.5478 183.734 89.8844 183.734 90.3725C183.734 90.8101 183.805 91.1214 183.948 91.3066C184.091 91.4917 184.267 91.5843 184.477 91.5843C184.687 91.5843 184.864 91.4917 185.007 91.3066C185.15 91.1214 185.221 90.7848 185.221 90.2968C185.221 89.8508 185.15 89.5394 185.007 89.3627C184.864 89.1776 184.687 89.085 184.477 89.085Z" fill="#9E9E9E"/>
<path d="M140.775 81.8091H246.116H277.608" stroke="#757575" stroke-width="0.56945" stroke-miterlimit="10"/>
<path d="M279.221 81.8125C279.221 80.9201 278.499 80.1968 277.608 80.1968C276.717 80.1968 275.994 80.9201 275.994 81.8125C275.994 82.7048 276.717 83.4281 277.608 83.4281C278.499 83.4281 279.221 82.7048 279.221 81.8125Z" fill="#9E9E9E"/>
<path d="M162.192 207.732H161.347V202.304C161.137 202.498 160.864 202.695 160.528 202.897C160.2 203.091 159.906 203.234 159.646 203.327V202.506C160.116 202.279 160.528 202.01 160.881 201.698C161.242 201.378 161.498 201.067 161.65 200.764H162.192V207.732ZM167.36 207.732V206.066H164.36V205.283L167.524 200.789H168.217V205.283H169.15V206.066H168.217V207.732H167.36ZM167.36 205.283V202.165L165.192 205.283H167.36ZM170.738 207.732V206.76H171.708V207.732C171.708 208.085 171.645 208.371 171.519 208.59C171.393 208.817 171.196 208.99 170.927 209.108L170.687 208.742C170.864 208.666 170.994 208.548 171.078 208.388C171.162 208.237 171.213 208.018 171.23 207.732H170.738ZM172.704 204.311C172.704 203.486 172.788 202.826 172.956 202.329C173.124 201.824 173.372 201.437 173.7 201.168C174.036 200.899 174.456 200.764 174.961 200.764C175.33 200.764 175.654 200.84 175.931 200.991C176.217 201.143 176.452 201.362 176.637 201.648C176.822 201.925 176.965 202.266 177.066 202.67C177.166 203.074 177.217 203.621 177.217 204.311C177.217 205.127 177.133 205.784 176.965 206.28C176.805 206.777 176.557 207.164 176.221 207.441C175.893 207.711 175.473 207.845 174.961 207.845C174.297 207.845 173.772 207.606 173.385 207.126C172.931 206.554 172.704 205.615 172.704 204.311ZM173.574 204.311C173.574 205.447 173.708 206.204 173.977 206.583C174.246 206.962 174.574 207.151 174.961 207.151C175.356 207.151 175.683 206.962 175.944 206.583C176.213 206.204 176.347 205.447 176.347 204.311C176.347 203.167 176.213 202.409 175.944 202.039C175.683 201.66 175.351 201.471 174.948 201.471C174.561 201.471 174.251 201.635 174.015 201.963C173.721 202.384 173.574 203.167 173.574 204.311ZM178.515 202.456C178.515 201.959 178.637 201.538 178.881 201.193C179.133 200.848 179.494 200.676 179.965 200.676C180.402 200.676 180.763 200.831 181.049 201.143C181.335 201.454 181.477 201.909 181.477 202.506C181.477 203.095 181.33 203.55 181.036 203.869C180.75 204.181 180.398 204.336 179.977 204.336C179.557 204.336 179.208 204.181 178.931 203.869C178.654 203.558 178.515 203.087 178.515 202.456ZM179.99 201.256C179.78 201.256 179.603 201.349 179.461 201.534C179.326 201.719 179.259 202.056 179.259 202.544C179.259 202.99 179.326 203.305 179.461 203.491C179.603 203.667 179.78 203.756 179.99 203.756C180.208 203.756 180.385 203.663 180.519 203.478C180.662 203.293 180.734 202.96 180.734 202.481C180.734 202.026 180.662 201.711 180.519 201.534C180.377 201.349 180.2 201.256 179.99 201.256ZM179.99 207.984L183.784 200.676H184.477L180.696 207.984H179.99ZM182.99 206.103C182.99 205.607 183.112 205.186 183.356 204.841C183.608 204.496 183.973 204.324 184.452 204.324C184.889 204.324 185.25 204.479 185.536 204.791C185.822 205.094 185.965 205.548 185.965 206.154C185.965 206.743 185.818 207.197 185.524 207.517C185.238 207.829 184.881 207.984 184.452 207.984C184.04 207.984 183.692 207.829 183.406 207.517C183.129 207.206 182.99 206.735 182.99 206.103ZM184.477 204.904C184.259 204.904 184.078 204.997 183.935 205.182C183.801 205.367 183.734 205.704 183.734 206.192C183.734 206.629 183.805 206.941 183.948 207.126C184.091 207.311 184.267 207.404 184.477 207.404C184.687 207.404 184.864 207.311 185.007 207.126C185.15 206.941 185.221 206.604 185.221 206.116C185.221 205.67 185.15 205.359 185.007 205.182C184.864 204.997 184.687 204.904 184.477 204.904Z" fill="#9E9E9E"/>
<path d="M158.588 197.632H246.117H266.676" stroke="#757575" stroke-width="0.56945" stroke-miterlimit="10"/>
<path d="M268.288 197.631C268.288 196.739 267.566 196.016 266.675 196.016C265.784 196.016 265.062 196.739 265.062 197.631C265.062 198.524 265.784 199.247 266.675 199.247C267.566 199.247 268.288 198.524 268.288 197.631Z" fill="#9E9E9E"/>
<path d="M584.857 111.569L585.714 111.456C585.807 111.936 585.97 112.285 586.206 112.504C586.441 112.714 586.727 112.819 587.063 112.819C587.466 112.819 587.807 112.68 588.084 112.403C588.361 112.125 588.5 111.78 588.5 111.368C588.5 110.98 588.37 110.661 588.109 110.408C587.857 110.147 587.533 110.017 587.138 110.017C586.979 110.017 586.777 110.051 586.533 110.118L586.634 109.361C586.693 109.369 586.739 109.373 586.773 109.373C587.134 109.373 587.458 109.281 587.743 109.095C588.038 108.902 588.185 108.607 588.185 108.212C588.185 107.901 588.08 107.644 587.87 107.442C587.659 107.232 587.386 107.126 587.05 107.126C586.722 107.126 586.445 107.232 586.218 107.442C586 107.652 585.861 107.964 585.802 108.376L584.945 108.225C585.046 107.661 585.281 107.223 585.651 106.912C586.021 106.592 586.479 106.432 587.025 106.432C587.403 106.432 587.752 106.516 588.071 106.685C588.391 106.844 588.634 107.063 588.802 107.341C588.97 107.619 589.054 107.917 589.054 108.237C589.054 108.532 588.975 108.805 588.815 109.058C588.655 109.302 588.42 109.495 588.109 109.638C588.512 109.731 588.828 109.929 589.054 110.231C589.281 110.526 589.395 110.9 589.395 111.355C589.395 111.961 589.172 112.474 588.727 112.895C588.29 113.316 587.735 113.526 587.063 113.526C586.458 113.526 585.954 113.345 585.55 112.983C585.147 112.613 584.916 112.142 584.857 111.569ZM591.815 109.638C591.462 109.504 591.197 109.318 591.021 109.083C590.853 108.839 590.769 108.553 590.769 108.225C590.769 107.72 590.949 107.295 591.311 106.95C591.68 106.605 592.164 106.432 592.76 106.432C593.365 106.432 593.853 106.609 594.222 106.962C594.592 107.316 594.777 107.745 594.777 108.25C594.777 108.57 594.693 108.847 594.525 109.083C594.357 109.318 594.101 109.504 593.756 109.638C594.185 109.773 594.508 109.996 594.727 110.307C594.945 110.619 595.054 110.989 595.054 111.418C595.054 112.007 594.844 112.504 594.424 112.907C594.012 113.311 593.462 113.513 592.773 113.513C592.092 113.513 591.542 113.311 591.122 112.907C590.701 112.504 590.491 111.999 590.491 111.393C590.491 110.938 590.605 110.56 590.832 110.257C591.067 109.954 591.395 109.748 591.815 109.638ZM591.638 108.187C591.638 108.515 591.743 108.784 591.954 108.994C592.172 109.205 592.449 109.31 592.785 109.31C593.113 109.31 593.382 109.209 593.592 109.007C593.802 108.797 593.907 108.54 593.907 108.237C593.907 107.926 593.798 107.665 593.58 107.455C593.361 107.236 593.092 107.126 592.773 107.126C592.445 107.126 592.172 107.232 591.954 107.442C591.743 107.652 591.638 107.901 591.638 108.187ZM591.374 111.393C591.374 111.637 591.428 111.872 591.538 112.1C591.655 112.327 591.827 112.504 592.054 112.63C592.281 112.756 592.525 112.819 592.785 112.819C593.189 112.819 593.521 112.689 593.781 112.428C594.05 112.167 594.185 111.835 594.185 111.431C594.185 111.018 594.05 110.677 593.781 110.408C593.512 110.139 593.172 110.004 592.76 110.004C592.357 110.004 592.025 110.139 591.764 110.408C591.504 110.669 591.374 110.997 591.374 111.393ZM596.605 113.4V112.428H597.575V113.4C597.575 113.753 597.512 114.039 597.386 114.258C597.26 114.485 597.063 114.658 596.794 114.776L596.554 114.41C596.731 114.334 596.861 114.216 596.945 114.056C597.029 113.905 597.08 113.686 597.096 113.4H596.605ZM598.571 109.979C598.571 109.154 598.655 108.494 598.823 107.997C598.991 107.492 599.239 107.105 599.567 106.836C599.903 106.567 600.323 106.432 600.827 106.432C601.197 106.432 601.521 106.508 601.798 106.659C602.084 106.811 602.319 107.03 602.504 107.316C602.689 107.593 602.832 107.934 602.933 108.338C603.033 108.742 603.084 109.289 603.084 109.979C603.084 110.795 603 111.452 602.832 111.948C602.672 112.445 602.424 112.832 602.088 113.109C601.76 113.379 601.34 113.513 600.827 113.513C600.164 113.513 599.638 113.274 599.252 112.794C598.798 112.222 598.571 111.283 598.571 109.979ZM599.441 109.979C599.441 111.115 599.575 111.872 599.844 112.251C600.113 112.63 600.441 112.819 600.827 112.819C601.222 112.819 601.55 112.63 601.811 112.251C602.08 111.872 602.214 111.115 602.214 109.979C602.214 108.835 602.08 108.077 601.811 107.707C601.55 107.328 601.218 107.139 600.815 107.139C600.428 107.139 600.117 107.303 599.882 107.631C599.588 108.052 599.441 108.835 599.441 109.979ZM604.382 108.124C604.382 107.627 604.504 107.206 604.748 106.861C605 106.516 605.361 106.344 605.832 106.344C606.269 106.344 606.63 106.499 606.916 106.811C607.201 107.122 607.344 107.577 607.344 108.174C607.344 108.763 607.197 109.217 606.903 109.537C606.617 109.849 606.264 110.004 605.844 110.004C605.424 110.004 605.075 109.849 604.798 109.537C604.521 109.226 604.382 108.755 604.382 108.124ZM605.857 106.924C605.647 106.924 605.47 107.017 605.327 107.202C605.193 107.387 605.126 107.724 605.126 108.212C605.126 108.658 605.193 108.973 605.327 109.159C605.47 109.335 605.647 109.424 605.857 109.424C606.075 109.424 606.252 109.331 606.386 109.146C606.529 108.961 606.601 108.628 606.601 108.149C606.601 107.694 606.529 107.379 606.386 107.202C606.243 107.017 606.067 106.924 605.857 106.924ZM605.857 113.652L609.651 106.344H610.344L606.563 113.652H605.857ZM608.857 111.771C608.857 111.275 608.979 110.854 609.222 110.509C609.475 110.164 609.84 109.992 610.319 109.992C610.756 109.992 611.117 110.147 611.403 110.459C611.689 110.762 611.832 111.216 611.832 111.822C611.832 112.411 611.685 112.865 611.39 113.185C611.105 113.497 610.748 113.652 610.319 113.652C609.907 113.652 609.559 113.497 609.273 113.185C608.995 112.874 608.857 112.403 608.857 111.771ZM610.344 110.572C610.126 110.572 609.945 110.665 609.802 110.85C609.668 111.035 609.601 111.372 609.601 111.86C609.601 112.297 609.672 112.609 609.815 112.794C609.958 112.979 610.134 113.072 610.344 113.072C610.554 113.072 610.731 112.979 610.874 112.794C611.017 112.609 611.088 112.272 611.088 111.784C611.088 111.338 611.017 111.027 610.874 110.85C610.731 110.665 610.554 110.572 610.344 110.572Z" fill="#9E9E9E"/>
<path d="M612.689 103.304H525.16H504.601" stroke="#757575" stroke-width="0.56945" stroke-miterlimit="10"/>
<path d="M506.214 103.299C506.214 102.407 505.492 101.684 504.601 101.684C503.71 101.684 502.987 102.407 502.987 103.299C502.987 104.192 503.71 104.915 504.601 104.915C505.492 104.915 506.214 104.192 506.214 103.299Z" fill="#9E9E9E"/>
<path d="M589.331 282.096V282.916H584.743C584.743 282.714 584.777 282.517 584.844 282.323C584.962 282.012 585.147 281.705 585.399 281.402C585.659 281.099 586.033 280.749 586.52 280.354C587.277 279.731 587.785 279.239 588.046 278.877C588.315 278.515 588.449 278.174 588.449 277.855C588.449 277.518 588.327 277.236 588.083 277.009C587.84 276.773 587.525 276.656 587.138 276.656C586.726 276.656 586.399 276.778 586.155 277.022C585.911 277.266 585.785 277.606 585.777 278.044L584.907 277.956C584.966 277.299 585.189 276.803 585.575 276.466C585.97 276.121 586.499 275.949 587.163 275.949C587.827 275.949 588.352 276.134 588.739 276.504C589.126 276.874 589.319 277.333 589.319 277.88C589.319 278.158 589.26 278.431 589.142 278.7C589.033 278.961 588.844 279.243 588.575 279.546C588.315 279.841 587.882 280.245 587.277 280.758C586.764 281.187 586.432 281.482 586.281 281.641C586.138 281.793 586.02 281.944 585.928 282.096H589.331ZM593.226 282.916V281.25H590.226V280.468L593.39 275.974H594.083V280.468H595.016V281.25H594.083V282.916H593.226ZM593.226 280.468V277.35L591.058 280.468H593.226ZM596.604 282.916V281.944H597.575V282.916C597.575 283.27 597.512 283.556 597.386 283.775C597.26 284.002 597.062 284.174 596.794 284.292L596.554 283.926C596.731 283.85 596.861 283.733 596.945 283.573C597.029 283.421 597.079 283.202 597.096 282.916H596.604ZM598.571 279.496C598.571 278.671 598.655 278.01 598.823 277.514C598.991 277.009 599.239 276.622 599.567 276.353C599.903 276.083 600.323 275.949 600.827 275.949C601.197 275.949 601.52 276.024 601.798 276.176C602.083 276.327 602.319 276.546 602.504 276.832C602.688 277.11 602.831 277.451 602.932 277.855C603.033 278.259 603.083 278.806 603.083 279.496C603.083 280.312 602.999 280.968 602.831 281.465C602.672 281.961 602.424 282.348 602.088 282.626C601.76 282.895 601.34 283.03 600.827 283.03C600.163 283.03 599.638 282.79 599.252 282.31C598.798 281.738 598.571 280.8 598.571 279.496ZM599.441 279.496C599.441 280.632 599.575 281.389 599.844 281.768C600.113 282.146 600.441 282.336 600.827 282.336C601.222 282.336 601.55 282.146 601.81 281.768C602.079 281.389 602.214 280.632 602.214 279.496C602.214 278.351 602.079 277.594 601.81 277.224C601.55 276.845 601.218 276.656 600.815 276.656C600.428 276.656 600.117 276.82 599.882 277.148C599.588 277.569 599.441 278.351 599.441 279.496ZM604.382 277.64C604.382 277.144 604.504 276.723 604.747 276.378C604.999 276.033 605.361 275.86 605.831 275.86C606.268 275.86 606.63 276.016 606.915 276.327C607.201 276.639 607.344 277.093 607.344 277.691C607.344 278.28 607.197 278.734 606.903 279.054C606.617 279.365 606.264 279.521 605.844 279.521C605.424 279.521 605.075 279.365 604.798 279.054C604.52 278.742 604.382 278.271 604.382 277.64ZM605.857 276.441C605.646 276.441 605.47 276.534 605.327 276.719C605.193 276.904 605.125 277.24 605.125 277.728C605.125 278.174 605.193 278.49 605.327 278.675C605.47 278.852 605.646 278.94 605.857 278.94C606.075 278.94 606.251 278.848 606.386 278.663C606.529 278.477 606.6 278.145 606.6 277.665C606.6 277.211 606.529 276.895 606.386 276.719C606.243 276.534 606.067 276.441 605.857 276.441ZM605.857 283.169L609.651 275.86H610.344L606.562 283.169H605.857ZM608.857 281.288C608.857 280.792 608.978 280.371 609.222 280.026C609.474 279.681 609.84 279.508 610.319 279.508C610.756 279.508 611.117 279.664 611.403 279.975C611.688 280.278 611.831 280.733 611.831 281.339C611.831 281.928 611.684 282.382 611.39 282.702C611.104 283.013 610.747 283.169 610.319 283.169C609.907 283.169 609.558 283.013 609.272 282.702C608.995 282.39 608.857 281.919 608.857 281.288ZM610.344 280.089C610.125 280.089 609.945 280.181 609.802 280.367C609.667 280.552 609.6 280.888 609.6 281.376C609.6 281.814 609.672 282.125 609.815 282.31C609.957 282.496 610.134 282.588 610.344 282.588C610.554 282.588 610.73 282.496 610.873 282.31C611.016 282.125 611.088 281.789 611.088 281.301C611.088 280.855 611.016 280.543 610.873 280.367C610.73 280.181 610.554 280.089 610.344 280.089Z" fill="#9E9E9E"/>
<path d="M612.687 272.817H525.158L385.636 278.595" stroke="#757575" stroke-width="0.56945" stroke-miterlimit="10"/>
<path d="M387.247 278.593C387.247 277.701 386.525 276.977 385.634 276.977C384.743 276.977 384.021 277.701 384.021 278.593C384.021 279.485 384.743 280.209 385.634 280.209C386.525 280.209 387.247 279.485 387.247 278.593Z" fill="#9E9E9E"/>
<path d="M141.102 81.7935V99.4405" stroke="#757575" stroke-width="0.563921"/>
<path d="M104.239 176.446V178.325H100.874V188.404H98.9091V178.325H95.5266V176.446H104.239ZM108.069 188.626C106.816 188.626 105.752 188.193 104.875 187.328C103.998 186.462 103.559 185.397 103.559 184.133C103.559 182.869 103.998 181.804 104.875 180.939C105.752 180.073 106.816 179.64 108.069 179.64C109.333 179.64 110.398 180.073 111.264 180.939C112.141 181.804 112.579 182.869 112.579 184.133C112.579 185.397 112.141 186.462 111.264 187.328C110.398 188.193 109.333 188.626 108.069 188.626ZM106.173 186.064C106.685 186.576 107.318 186.832 108.069 186.832C108.821 186.832 109.453 186.576 109.965 186.064C110.478 185.551 110.734 184.908 110.734 184.133C110.734 183.359 110.478 182.715 109.965 182.203C109.453 181.69 108.821 181.434 108.069 181.434C107.318 181.434 106.685 181.69 106.173 182.203C105.66 182.715 105.404 183.359 105.404 184.133C105.404 184.908 105.66 185.551 106.173 186.064ZM123.575 179.64C124.543 179.64 125.323 179.953 125.916 180.58C126.508 181.206 126.804 182.049 126.804 183.108V188.404H124.959V183.228C124.959 182.636 124.811 182.18 124.515 181.861C124.219 181.531 123.814 181.366 123.302 181.366C122.732 181.366 122.277 181.554 121.935 181.929C121.605 182.305 121.44 182.869 121.44 183.621V188.404H119.595V183.228C119.595 182.636 119.452 182.18 119.168 181.861C118.894 181.531 118.501 181.366 117.989 181.366C117.431 181.366 116.975 181.559 116.622 181.946C116.269 182.322 116.093 182.88 116.093 183.621V188.404H114.248V179.862H116.093V180.887C116.639 180.056 117.454 179.64 118.536 179.64C119.629 179.64 120.437 180.09 120.961 180.99C121.531 180.09 122.402 179.64 123.575 179.64ZM132.81 188.626C131.557 188.626 130.493 188.193 129.616 187.328C128.739 186.462 128.3 185.397 128.3 184.133C128.3 182.869 128.739 181.804 129.616 180.939C130.493 180.073 131.557 179.64 132.81 179.64C134.074 179.64 135.139 180.073 136.005 180.939C136.882 181.804 137.32 182.869 137.32 184.133C137.32 185.397 136.882 186.462 136.005 187.328C135.139 188.193 134.074 188.626 132.81 188.626ZM130.914 186.064C131.426 186.576 132.059 186.832 132.81 186.832C133.562 186.832 134.194 186.576 134.707 186.064C135.219 185.551 135.475 184.908 135.475 184.133C135.475 183.359 135.219 182.715 134.707 182.203C134.194 181.69 133.562 181.434 132.81 181.434C132.059 181.434 131.426 181.69 130.914 182.203C130.401 182.715 130.145 183.359 130.145 184.133C130.145 184.908 130.401 185.551 130.914 186.064ZM148.094 179.64C149.267 179.64 150.269 180.073 151.101 180.939C151.932 181.804 152.348 182.869 152.348 184.133C152.348 185.386 151.932 186.451 151.101 187.328C150.269 188.193 149.267 188.626 148.094 188.626C146.796 188.626 145.799 188.142 145.104 187.174V188.404H143.259V176.446H145.104V181.075C145.799 180.119 146.796 179.64 148.094 179.64ZM145.873 186.098C146.386 186.61 147.029 186.867 147.804 186.867C148.578 186.867 149.222 186.61 149.734 186.098C150.247 185.574 150.503 184.919 150.503 184.133C150.503 183.347 150.247 182.698 149.734 182.186C149.222 181.662 148.578 181.4 147.804 181.4C147.029 181.4 146.386 181.662 145.873 182.186C145.361 182.698 145.104 183.347 145.104 184.133C145.104 184.919 145.361 185.574 145.873 186.098ZM160.785 179.862H162.63V188.404H160.785V187.174C160.09 188.142 159.094 188.626 157.796 188.626C156.622 188.626 155.62 188.193 154.789 187.328C153.957 186.451 153.542 185.386 153.542 184.133C153.542 182.869 153.957 181.804 154.789 180.939C155.62 180.073 156.622 179.64 157.796 179.64C159.094 179.64 160.09 180.119 160.785 181.075V179.862ZM156.156 186.098C156.668 186.61 157.311 186.867 158.086 186.867C158.86 186.867 159.504 186.61 160.016 186.098C160.529 185.574 160.785 184.919 160.785 184.133C160.785 183.347 160.529 182.698 160.016 182.186C159.504 181.662 158.86 181.4 158.086 181.4C157.311 181.4 156.668 181.662 156.156 182.186C155.643 182.698 155.387 183.347 155.387 184.133C155.387 184.919 155.643 185.574 156.156 186.098ZM169.274 179.64C170.253 179.64 171.045 179.953 171.648 180.58C172.252 181.206 172.554 182.066 172.554 183.159V188.404H170.709V183.347C170.709 182.71 170.538 182.22 170.196 181.878C169.854 181.536 169.388 181.366 168.795 181.366C168.146 181.366 167.622 181.571 167.224 181.981C166.825 182.379 166.626 182.994 166.626 183.826V188.404H164.781V179.862H166.626V180.956C167.184 180.079 168.066 179.64 169.274 179.64ZM179.033 179.64C180.013 179.64 180.804 179.953 181.408 180.58C182.011 181.206 182.313 182.066 182.313 183.159V188.404H180.468V183.347C180.468 182.71 180.297 182.22 179.956 181.878C179.614 181.536 179.147 181.366 178.555 181.366C177.906 181.366 177.382 181.571 176.983 181.981C176.585 182.379 176.385 182.994 176.385 183.826V188.404H174.54V176.446H176.385V180.956C176.943 180.079 177.826 179.64 179.033 179.64ZM188.332 188.626C187.079 188.626 186.014 188.193 185.137 187.328C184.26 186.462 183.822 185.397 183.822 184.133C183.822 182.869 184.26 181.804 185.137 180.939C186.014 180.073 187.079 179.64 188.332 179.64C189.596 179.64 190.661 180.073 191.526 180.939C192.403 181.804 192.842 182.869 192.842 184.133C192.842 185.397 192.403 186.462 191.526 187.328C190.661 188.193 189.596 188.626 188.332 188.626ZM186.435 186.064C186.948 186.576 187.58 186.832 188.332 186.832C189.083 186.832 189.715 186.576 190.228 186.064C190.74 185.551 190.997 184.908 190.997 184.133C190.997 183.359 190.74 182.715 190.228 182.203C189.715 181.69 189.083 181.434 188.332 181.434C187.58 181.434 186.948 181.69 186.435 182.203C185.923 182.715 185.667 183.359 185.667 184.133C185.667 184.908 185.923 185.551 186.435 186.064ZM203.257 178C201.913 177.875 201.241 178.439 201.241 179.691V179.862H203.257V181.639H201.241V188.404H199.396V181.639H198.097V179.862H199.396V179.691C199.396 178.518 199.72 177.63 200.37 177.026C201.03 176.411 201.993 176.144 203.257 176.224V178ZM206.181 181.297C206.648 180.238 207.525 179.709 208.812 179.709V181.707C208.106 181.662 207.491 181.833 206.967 182.22C206.443 182.596 206.181 183.222 206.181 184.099V188.404H204.336V179.862H206.181V181.297ZM211.918 178.239C211.69 178.467 211.417 178.581 211.098 178.581C210.779 178.581 210.5 178.467 210.261 178.239C210.033 178 209.919 177.721 209.919 177.402C209.919 177.083 210.033 176.81 210.261 176.582C210.489 176.343 210.768 176.224 211.098 176.224C211.428 176.224 211.707 176.343 211.935 176.582C212.163 176.81 212.277 177.083 212.277 177.402C212.277 177.721 212.157 178 211.918 178.239ZM210.175 188.404V179.862H212.02V188.404H210.175ZM218.194 188.626C216.942 188.626 215.877 188.193 215 187.328C214.123 186.462 213.684 185.397 213.684 184.133C213.684 182.869 214.123 181.804 215 180.939C215.877 180.073 216.942 179.64 218.194 179.64C219.459 179.64 220.523 180.073 221.389 180.939C222.266 181.804 222.704 182.869 222.704 184.133C222.704 185.397 222.266 186.462 221.389 187.328C220.523 188.193 219.459 188.626 218.194 188.626ZM216.298 186.064C216.811 186.576 217.443 186.832 218.194 186.832C218.946 186.832 219.578 186.576 220.091 186.064C220.603 185.551 220.859 184.908 220.859 184.133C220.859 183.359 220.603 182.715 220.091 182.203C219.578 181.69 218.946 181.434 218.194 181.434C217.443 181.434 216.811 181.69 216.298 182.203C215.786 182.715 215.529 183.359 215.529 184.133C215.529 184.908 215.786 185.551 216.298 186.064Z" fill="black"/>
<path d="M87.1158 118.261L86.2787 115.852H81.1878L80.3507 118.261H78.2153L82.5545 106.302H84.912L89.2342 118.261H87.1158ZM81.837 114.007H85.6295L83.7333 108.609L81.837 114.007ZM95.2351 109.497C96.4082 109.497 97.4104 109.93 98.2418 110.795C99.0732 111.661 99.4889 112.726 99.4889 113.99C99.4889 115.243 99.0732 116.308 98.2418 117.184C97.4104 118.05 96.4082 118.483 95.2351 118.483C93.9368 118.483 92.9402 117.999 92.2455 117.031V118.261H90.4005V106.302H92.2455V110.932C92.9402 109.975 93.9368 109.497 95.2351 109.497ZM93.0143 115.954C93.5268 116.467 94.1703 116.723 94.9447 116.723C95.7192 116.723 96.3626 116.467 96.8751 115.954C97.3876 115.431 97.6439 114.776 97.6439 113.99C97.6439 113.204 97.3876 112.555 96.8751 112.042C96.3626 111.518 95.7192 111.257 94.9447 111.257C94.1703 111.257 93.5268 111.518 93.0143 112.042C92.5018 112.555 92.2455 113.204 92.2455 113.99C92.2455 114.776 92.5018 115.431 93.0143 115.954ZM103.006 111.154C103.473 110.095 104.35 109.565 105.637 109.565V111.564C104.931 111.518 104.316 111.689 103.792 112.077C103.268 112.452 103.006 113.079 103.006 113.956V118.261H101.161V109.719H103.006V111.154ZM110.631 118.483C109.379 118.483 108.314 118.05 107.437 117.184C106.56 116.319 106.121 115.254 106.121 113.99C106.121 112.726 106.56 111.661 107.437 110.795C108.314 109.93 109.379 109.497 110.631 109.497C111.896 109.497 112.961 109.93 113.826 110.795C114.703 111.661 115.142 112.726 115.142 113.99C115.142 115.254 114.703 116.319 113.826 117.184C112.961 118.05 111.896 118.483 110.631 118.483ZM108.735 115.92C109.248 116.433 109.88 116.689 110.631 116.689C111.383 116.689 112.015 116.433 112.528 115.92C113.04 115.408 113.297 114.764 113.297 113.99C113.297 113.215 113.04 112.572 112.528 112.059C112.015 111.547 111.383 111.291 110.631 111.291C109.88 111.291 109.248 111.547 108.735 112.059C108.223 112.572 107.966 113.215 107.966 113.99C107.966 114.764 108.223 115.408 108.735 115.92ZM126.838 109.719H128.683V118.261H126.838V117.167C126.28 118.044 125.397 118.483 124.19 118.483C123.21 118.483 122.419 118.17 121.815 117.543C121.212 116.917 120.91 116.057 120.91 114.964V109.719H122.755V114.776C122.755 115.413 122.926 115.903 123.267 116.245C123.609 116.587 124.076 116.757 124.668 116.757C125.317 116.757 125.841 116.558 126.24 116.159C126.639 115.749 126.838 115.129 126.838 114.297V109.719ZM140.168 109.497C141.136 109.497 141.916 109.81 142.508 110.437C143.101 111.063 143.397 111.906 143.397 112.965V118.261H141.552V113.084C141.552 112.492 141.404 112.037 141.108 111.718C140.811 111.387 140.407 111.222 139.895 111.222C139.325 111.222 138.87 111.41 138.528 111.786C138.198 112.162 138.032 112.726 138.032 113.477V118.261H136.187V113.084C136.187 112.492 136.045 112.037 135.76 111.718C135.487 111.387 135.094 111.222 134.582 111.222C134.024 111.222 133.568 111.416 133.215 111.803C132.862 112.179 132.685 112.737 132.685 113.477V118.261H130.84V109.719H132.685V110.744C133.232 109.913 134.046 109.497 135.128 109.497C136.222 109.497 137.03 109.947 137.554 110.847C138.124 109.947 138.995 109.497 140.168 109.497ZM154.408 111.496H152.29V115.596C152.29 115.949 152.37 116.205 152.529 116.364C152.689 116.513 152.922 116.598 153.23 116.621C153.549 116.632 153.942 116.626 154.408 116.604V118.261C152.996 118.432 151.983 118.312 151.368 117.902C150.753 117.481 150.445 116.712 150.445 115.596V111.496H148.873V109.719H150.445V107.874L152.29 107.327V109.719H154.408V111.496ZM161.922 109.719H163.767V118.261H161.922V117.167C161.364 118.044 160.482 118.483 159.274 118.483C158.295 118.483 157.503 118.17 156.9 117.543C156.296 116.917 155.994 116.057 155.994 114.964V109.719H157.839V114.776C157.839 115.413 158.01 115.903 158.352 116.245C158.694 116.587 159.161 116.757 159.753 116.757C160.402 116.757 160.926 116.558 161.324 116.159C161.723 115.749 161.922 115.129 161.922 114.297V109.719ZM170.691 111.496H168.573V115.596C168.573 115.949 168.653 116.205 168.812 116.364C168.971 116.513 169.205 116.598 169.512 116.621C169.831 116.632 170.224 116.626 170.691 116.604V118.261C169.279 118.432 168.265 118.312 167.65 117.902C167.035 117.481 166.728 116.712 166.728 115.596V111.496H165.156V109.719H166.728V107.874L168.573 107.327V109.719H170.691V111.496ZM176.046 118.483C174.793 118.483 173.728 118.05 172.851 117.184C171.974 116.319 171.536 115.254 171.536 113.99C171.536 112.726 171.974 111.661 172.851 110.795C173.728 109.93 174.793 109.497 176.046 109.497C177.31 109.497 178.375 109.93 179.241 110.795C180.117 111.661 180.556 112.726 180.556 113.99C180.556 115.254 180.117 116.319 179.241 117.184C178.375 118.05 177.31 118.483 176.046 118.483ZM174.15 115.92C174.662 116.433 175.294 116.689 176.046 116.689C176.798 116.689 177.43 116.433 177.942 115.92C178.455 115.408 178.711 114.764 178.711 113.99C178.711 113.215 178.455 112.572 177.942 112.059C177.43 111.547 176.798 111.291 176.046 111.291C175.294 111.291 174.662 111.547 174.15 112.059C173.637 112.572 173.381 113.215 173.381 113.99C173.381 114.764 173.637 115.408 174.15 115.92ZM184.069 111.154C184.536 110.095 185.413 109.565 186.7 109.565V111.564C185.994 111.518 185.379 111.689 184.855 112.077C184.331 112.452 184.069 113.079 184.069 113.956V118.261H182.224V109.719H184.069V111.154ZM189.806 108.096C189.578 108.324 189.305 108.438 188.986 108.438C188.667 108.438 188.388 108.324 188.149 108.096C187.921 107.857 187.807 107.578 187.807 107.259C187.807 106.94 187.921 106.667 188.149 106.439C188.377 106.2 188.656 106.08 188.986 106.08C189.316 106.08 189.595 106.2 189.823 106.439C190.051 106.667 190.165 106.94 190.165 107.259C190.165 107.578 190.045 107.857 189.806 108.096ZM188.063 118.261V109.719H189.908V118.261H188.063ZM198.816 109.719H200.661V118.261H198.816V117.031C198.121 117.999 197.124 118.483 195.826 118.483C194.653 118.483 193.651 118.05 192.819 117.184C191.988 116.308 191.572 115.243 191.572 113.99C191.572 112.726 191.988 111.661 192.819 110.795C193.651 109.93 194.653 109.497 195.826 109.497C197.124 109.497 198.121 109.975 198.816 110.932V109.719ZM194.186 115.954C194.699 116.467 195.342 116.723 196.116 116.723C196.891 116.723 197.534 116.467 198.047 115.954C198.559 115.431 198.816 114.776 198.816 113.99C198.816 113.204 198.559 112.555 198.047 112.042C197.534 111.518 196.891 111.257 196.116 111.257C195.342 111.257 194.699 111.518 194.186 112.042C193.674 112.555 193.417 113.204 193.417 113.99C193.417 114.776 193.674 115.431 194.186 115.954ZM202.811 118.261V105.79H204.656V118.261H202.811ZM83.6991 130.497C84.6786 130.497 85.4701 130.81 86.0737 131.437C86.6773 132.063 86.9791 132.923 86.9791 134.016V139.261H85.1341V134.204C85.1341 133.566 84.9633 133.077 84.6216 132.735C84.2799 132.393 83.813 132.222 83.2208 132.222C82.5716 132.222 82.0477 132.427 81.6491 132.837C81.2505 133.236 81.0512 133.851 81.0512 134.682V139.261H79.2061V130.719H81.0512V131.812C81.6092 130.935 82.4919 130.497 83.6991 130.497ZM92.9975 139.483C91.7447 139.483 90.6798 139.05 89.8028 138.184C88.9259 137.319 88.4874 136.254 88.4874 134.99C88.4874 133.726 88.9259 132.661 89.8028 131.795C90.6798 130.93 91.7447 130.497 92.9975 130.497C94.2616 130.497 95.3265 130.93 96.1921 131.795C97.069 132.661 97.5075 133.726 97.5075 134.99C97.5075 136.254 97.069 137.319 96.1921 138.184C95.3265 139.05 94.2616 139.483 92.9975 139.483ZM91.1012 136.92C91.6137 137.433 92.2458 137.689 92.9975 137.689C93.7491 137.689 94.3812 137.433 94.8937 136.92C95.4062 136.408 95.6625 135.764 95.6625 134.99C95.6625 134.215 95.4062 133.572 94.8937 133.059C94.3812 132.547 93.7491 132.291 92.9975 132.291C92.2458 132.291 91.6137 132.547 91.1012 133.059C90.5887 133.572 90.3324 134.215 90.3324 134.99C90.3324 135.764 90.5887 136.408 91.1012 136.92ZM112.757 127.302L108.589 134.512V139.261H106.624V134.512L102.456 127.302H104.694L107.615 132.598L110.519 127.302H112.757ZM116.254 139.483C115.001 139.483 113.936 139.05 113.059 138.184C112.182 137.319 111.744 136.254 111.744 134.99C111.744 133.726 112.182 132.661 113.059 131.795C113.936 130.93 115.001 130.497 116.254 130.497C117.518 130.497 118.583 130.93 119.448 131.795C120.325 132.661 120.764 133.726 120.764 134.99C120.764 136.254 120.325 137.319 119.448 138.184C118.583 139.05 117.518 139.483 116.254 139.483ZM114.357 136.92C114.87 137.433 115.502 137.689 116.254 137.689C117.005 137.689 117.637 137.433 118.15 136.92C118.662 136.408 118.919 135.764 118.919 134.99C118.919 134.215 118.662 133.572 118.15 133.059C117.637 132.547 117.005 132.291 116.254 132.291C115.502 132.291 114.87 132.547 114.357 133.059C113.845 133.572 113.589 134.215 113.589 134.99C113.589 135.764 113.845 136.408 114.357 136.92ZM128.189 130.719H130.034V139.261H128.189V138.167C127.631 139.044 126.748 139.483 125.541 139.483C124.562 139.483 123.77 139.17 123.167 138.543C122.563 137.917 122.261 137.057 122.261 135.964V130.719H124.106V135.776C124.106 136.413 124.277 136.903 124.619 137.245C124.96 137.587 125.427 137.757 126.02 137.757C126.669 137.757 127.193 137.558 127.591 137.159C127.99 136.749 128.189 136.129 128.189 135.297V130.719ZM136.958 132.496H134.84V136.596C134.84 136.949 134.919 137.205 135.079 137.364C135.238 137.513 135.472 137.598 135.779 137.621C136.098 137.632 136.491 137.626 136.958 137.604V139.261C135.546 139.432 134.532 139.312 133.917 138.902C133.302 138.481 132.995 137.712 132.995 136.596V132.496H131.423V130.719H132.995V128.874L134.84 128.327V130.719H136.958V132.496ZM144.472 130.719H146.317V139.261H144.472V138.167C143.914 139.044 143.031 139.483 141.824 139.483C140.844 139.483 140.053 139.17 139.449 138.543C138.846 137.917 138.544 137.057 138.544 135.964V130.719H140.389V135.776C140.389 136.413 140.56 136.903 140.901 137.245C141.243 137.587 141.71 137.757 142.302 137.757C142.951 137.757 143.475 137.558 143.874 137.159C144.273 136.749 144.472 136.129 144.472 135.297V130.719ZM153.309 130.497C154.482 130.497 155.484 130.93 156.316 131.795C157.147 132.661 157.563 133.726 157.563 134.99C157.563 136.243 157.147 137.308 156.316 138.184C155.484 139.05 154.482 139.483 153.309 139.483C152.011 139.483 151.014 138.999 150.319 138.031V139.261H148.474V127.302H150.319V131.932C151.014 130.975 152.011 130.497 153.309 130.497ZM151.088 136.954C151.601 137.467 152.244 137.723 153.019 137.723C153.793 137.723 154.436 137.467 154.949 136.954C155.462 136.431 155.718 135.776 155.718 134.99C155.718 134.204 155.462 133.555 154.949 133.042C154.436 132.518 153.793 132.257 153.019 132.257C152.244 132.257 151.601 132.518 151.088 133.042C150.576 133.555 150.319 134.204 150.319 134.99C150.319 135.776 150.576 136.431 151.088 136.954ZM160.687 135.776C160.824 136.425 161.137 136.926 161.627 137.279C162.116 137.621 162.714 137.792 163.42 137.792C164.4 137.792 165.134 137.439 165.624 136.732L167.145 137.621C166.302 138.862 165.055 139.483 163.403 139.483C162.014 139.483 160.892 139.061 160.038 138.219C159.184 137.364 158.757 136.288 158.757 134.99C158.757 133.714 159.178 132.649 160.021 131.795C160.864 130.93 161.946 130.497 163.267 130.497C164.519 130.497 165.544 130.935 166.342 131.812C167.15 132.689 167.555 133.754 167.555 135.007C167.555 135.201 167.532 135.457 167.486 135.776H160.687ZM160.67 134.272H165.693C165.567 133.578 165.277 133.054 164.821 132.701C164.377 132.348 163.853 132.171 163.25 132.171C162.566 132.171 161.997 132.359 161.541 132.735C161.086 133.111 160.795 133.623 160.67 134.272Z" fill="black"/>
<path d="M76.2142 5.42657C77.3417 5.42657 78.2813 5.8024 79.033 6.55408C79.7961 7.30575 80.1776 8.23965 80.1776 9.35577C80.1776 10.4605 79.7961 11.3944 79.033 12.1575C78.2813 12.9091 77.3417 13.285 76.2142 13.285H73.7713V17.385H71.8067V5.42657H76.2142ZM76.2142 11.44C76.7951 11.44 77.2734 11.2463 77.6492 10.8591C78.0251 10.4605 78.213 9.95939 78.213 9.35577C78.213 8.75215 78.0251 8.25673 77.6492 7.8695C77.2734 7.47089 76.7951 7.27158 76.2142 7.27158H73.7713V11.44H76.2142ZM82.6152 13.9C82.7519 14.5492 83.0651 15.0503 83.5548 15.4033C84.0445 15.745 84.6424 15.9158 85.3486 15.9158C86.328 15.9158 87.0626 15.5628 87.5523 14.8567L89.0728 15.745C88.23 16.9864 86.9829 17.6071 85.3315 17.6071C83.942 17.6071 82.8202 17.1857 81.966 16.3429C81.1118 15.4887 80.6848 14.4125 80.6848 13.1141C80.6848 11.8386 81.1062 10.7737 81.9489 9.91952C82.7917 9.05396 83.8737 8.62118 85.1948 8.62118C86.4476 8.62118 87.4726 9.05966 88.2698 9.93661C89.0784 10.8136 89.4828 11.8784 89.4828 13.1312C89.4828 13.3248 89.46 13.5811 89.4144 13.9H82.6152ZM82.5981 12.3966H87.6207C87.4954 11.7019 87.205 11.178 86.7494 10.8249C86.3052 10.4719 85.7813 10.2954 85.1777 10.2954C84.4944 10.2954 83.9249 10.4833 83.4694 10.8591C83.0138 11.235 82.7234 11.7475 82.5981 12.3966ZM98.9317 15.3862C98.6356 15.9557 98.2142 16.4283 97.6675 16.8042C97.1322 17.18 96.5343 17.4249 95.8737 17.5388V18.1709C96.2609 18.2392 96.5798 18.3872 96.8304 18.615C97.081 18.8542 97.2062 19.156 97.2062 19.5204C97.2062 20.7049 95.9819 21.2231 93.5333 21.075V19.7254C94.9114 19.8393 95.6004 19.697 95.6004 19.2984C95.6004 18.9909 95.1847 18.82 94.3533 18.7859V17.5558C93.2486 17.385 92.3431 16.8896 91.637 16.0696C90.9309 15.2382 90.5778 14.253 90.5778 13.1141C90.5778 11.8386 91.0049 10.7737 91.8591 9.91952C92.7247 9.05396 93.8009 8.62118 95.0879 8.62118C95.9193 8.62118 96.6766 8.82049 97.36 9.2191C98.0433 9.61772 98.5558 10.153 98.8975 10.8249L97.3087 11.7475C97.1151 11.3375 96.819 11.0186 96.4204 10.7908C96.0332 10.5516 95.5833 10.432 95.0708 10.432C94.3191 10.432 93.687 10.6883 93.1745 11.2008C92.6734 11.7133 92.4229 12.3511 92.4229 13.1141C92.4229 13.8772 92.6734 14.515 93.1745 15.0275C93.687 15.54 94.3191 15.7962 95.0708 15.7962C95.5719 15.7962 96.0218 15.6767 96.4204 15.4375C96.8304 15.1983 97.1379 14.8794 97.3429 14.4808L98.9317 15.3862ZM104.163 17.6071C102.911 17.6071 101.846 17.1743 100.969 16.3087C100.092 15.4432 99.6534 14.3783 99.6534 13.1141C99.6534 11.85 100.092 10.7851 100.969 9.91952C101.846 9.05396 102.911 8.62118 104.163 8.62118C105.428 8.62118 106.493 9.05396 107.358 9.91952C108.235 10.7851 108.674 11.85 108.674 13.1141C108.674 14.3783 108.235 15.4432 107.358 16.3087C106.493 17.1743 105.428 17.6071 104.163 17.6071ZM102.267 15.0446C102.78 15.5571 103.412 15.8133 104.163 15.8133C104.915 15.8133 105.547 15.5571 106.06 15.0446C106.572 14.5321 106.829 13.8886 106.829 13.1141C106.829 12.3397 106.572 11.6962 106.06 11.1837C105.547 10.6712 104.915 10.4149 104.163 10.4149C103.412 10.4149 102.78 10.6712 102.267 11.1837C101.755 11.6962 101.498 12.3397 101.498 13.1141C101.498 13.8886 101.755 14.5321 102.267 15.0446ZM119.447 8.62118C120.62 8.62118 121.623 9.05966 122.454 9.93661C123.285 10.8022 123.701 11.8613 123.701 13.1141C123.701 14.3783 123.285 15.4432 122.454 16.3087C121.623 17.1743 120.62 17.6071 119.447 17.6071C118.149 17.6071 117.152 17.1288 116.458 16.1721V20.8017H114.613V8.84326H116.458V10.0733C117.152 9.10521 118.149 8.62118 119.447 8.62118ZM117.226 15.0787C117.739 15.5912 118.382 15.8475 119.157 15.8475C119.931 15.8475 120.575 15.5912 121.087 15.0787C121.6 14.5548 121.856 13.9 121.856 13.1141C121.856 12.3283 121.6 11.6791 121.087 11.1666C120.575 10.6427 119.931 10.3808 119.157 10.3808C118.382 10.3808 117.739 10.6427 117.226 11.1666C116.714 11.6791 116.458 12.3283 116.458 13.1141C116.458 13.9 116.714 14.5548 117.226 15.0787ZM127.218 10.2783C127.685 9.2191 128.562 8.68951 129.849 8.68951V10.6883C129.143 10.6427 128.528 10.8136 128.004 11.2008C127.48 11.5766 127.218 12.203 127.218 13.08V17.385H125.373V8.84326H127.218V10.2783ZM134.844 17.6071C133.591 17.6071 132.526 17.1743 131.649 16.3087C130.772 15.4432 130.334 14.3783 130.334 13.1141C130.334 11.85 130.772 10.7851 131.649 9.91952C132.526 9.05396 133.591 8.62118 134.844 8.62118C136.108 8.62118 137.173 9.05396 138.038 9.91952C138.915 10.7851 139.354 11.85 139.354 13.1141C139.354 14.3783 138.915 15.4432 138.038 16.3087C137.173 17.1743 136.108 17.6071 134.844 17.6071ZM132.947 15.0446C133.46 15.5571 134.092 15.8133 134.844 15.8133C135.595 15.8133 136.227 15.5571 136.74 15.0446C137.252 14.5321 137.509 13.8886 137.509 13.1141C137.509 12.3397 137.252 11.6962 136.74 11.1837C136.227 10.6712 135.595 10.4149 134.844 10.4149C134.092 10.4149 133.46 10.6712 132.947 11.1837C132.435 11.6962 132.179 12.3397 132.179 13.1141C132.179 13.8886 132.435 14.5321 132.947 15.0446ZM154.621 8.62118C155.589 8.62118 156.369 8.93438 156.961 9.56077C157.553 10.1872 157.849 11.03 157.849 12.0891V17.385H156.004V12.2087C156.004 11.6165 155.856 11.1609 155.56 10.842C155.264 10.5118 154.86 10.3466 154.347 10.3466C153.778 10.3466 153.322 10.5345 152.98 10.9104C152.65 11.2862 152.485 11.85 152.485 12.6016V17.385H150.64V12.2087C150.64 11.6165 150.498 11.1609 150.213 10.842C149.94 10.5118 149.547 10.3466 149.034 10.3466C148.476 10.3466 148.021 10.5402 147.668 10.9275C147.314 11.3033 147.138 11.8613 147.138 12.6016V17.385H145.293V8.84326H147.138V9.86827C147.685 9.03688 148.499 8.62118 149.581 8.62118C150.674 8.62118 151.483 9.07104 152.007 9.97077C152.576 9.07104 153.447 8.62118 154.621 8.62118ZM161.276 13.9C161.413 14.5492 161.726 15.0503 162.216 15.4033C162.705 15.745 163.303 15.9158 164.009 15.9158C164.989 15.9158 165.723 15.5628 166.213 14.8567L167.734 15.745C166.891 16.9864 165.644 17.6071 163.992 17.6071C162.603 17.6071 161.481 17.1857 160.627 16.3429C159.773 15.4887 159.346 14.4125 159.346 13.1141C159.346 11.8386 159.767 10.7737 160.61 9.91952C161.453 9.05396 162.534 8.62118 163.856 8.62118C165.108 8.62118 166.133 9.05966 166.931 9.93661C167.739 10.8136 168.144 11.8784 168.144 13.1312C168.144 13.3248 168.121 13.5811 168.075 13.9H161.276ZM161.259 12.3966H166.281C166.156 11.7019 165.866 11.178 165.41 10.8249C164.966 10.4719 164.442 10.2954 163.839 10.2954C163.155 10.2954 162.586 10.4833 162.13 10.8591C161.675 11.235 161.384 11.7475 161.259 12.3966ZM175.524 8.84326H177.369V17.385H175.524V16.2917C174.966 17.1686 174.083 17.6071 172.876 17.6071C171.897 17.6071 171.105 17.2939 170.502 16.6675C169.898 16.0411 169.596 15.1812 169.596 14.0879V8.84326H171.441V13.9C171.441 14.5378 171.612 15.0275 171.954 15.3692C172.295 15.7108 172.762 15.8817 173.355 15.8817C174.004 15.8817 174.528 15.6824 174.926 15.2837C175.325 14.8737 175.524 14.253 175.524 13.4216V8.84326ZM188.632 8.62118C189.805 8.62118 190.807 9.05966 191.639 9.93661C192.47 10.8022 192.886 11.8613 192.886 13.1141C192.886 14.3783 192.47 15.4432 191.639 16.3087C190.807 17.1743 189.805 17.6071 188.632 17.6071C187.334 17.6071 186.337 17.1288 185.643 16.1721V20.8017H183.798V8.84326H185.643V10.0733C186.337 9.10521 187.334 8.62118 188.632 8.62118ZM186.411 15.0787C186.924 15.5912 187.567 15.8475 188.342 15.8475C189.116 15.8475 189.76 15.5912 190.272 15.0787C190.785 14.5548 191.041 13.9 191.041 13.1141C191.041 12.3283 190.785 11.6791 190.272 11.1666C189.76 10.6427 189.116 10.3808 188.342 10.3808C187.567 10.3808 186.924 10.6427 186.411 11.1666C185.899 11.6791 185.643 12.3283 185.643 13.1141C185.643 13.9 185.899 14.5548 186.411 15.0787ZM201.323 8.84326H203.168V17.385H201.323V16.155C200.628 17.1231 199.632 17.6071 198.334 17.6071C197.16 17.6071 196.158 17.1743 195.327 16.3087C194.495 15.4318 194.08 14.3669 194.08 13.1141C194.08 11.85 194.495 10.7851 195.327 9.91952C196.158 9.05396 197.16 8.62118 198.334 8.62118C199.632 8.62118 200.628 9.09952 201.323 10.0562V8.84326ZM196.694 15.0787C197.206 15.5912 197.85 15.8475 198.624 15.8475C199.398 15.8475 200.042 15.5912 200.554 15.0787C201.067 14.5548 201.323 13.9 201.323 13.1141C201.323 12.3283 201.067 11.6791 200.554 11.1666C200.042 10.6427 199.398 10.3808 198.624 10.3808C197.85 10.3808 197.206 10.6427 196.694 11.1666C196.181 11.6791 195.925 12.3283 195.925 13.1141C195.925 13.9 196.181 14.5548 196.694 15.0787ZM207.061 7.22033C206.833 7.44811 206.56 7.562 206.241 7.562C205.922 7.562 205.643 7.44811 205.404 7.22033C205.176 6.98116 205.062 6.70213 205.062 6.38324C205.062 6.06435 205.176 5.79101 205.404 5.56323C205.632 5.32406 205.911 5.20448 206.241 5.20448C206.571 5.20448 206.851 5.32406 207.078 5.56323C207.306 5.79101 207.42 6.06435 207.42 6.38324C207.42 6.70213 207.3 6.98116 207.061 7.22033ZM205.319 17.385V8.84326H207.164V17.385H205.319Z" fill="black"/>
<path d="M528.976 54.4071C527.177 54.4071 525.685 53.8149 524.5 52.6305C523.316 51.4346 522.723 49.9597 522.723 48.2058C522.723 46.4519 523.316 44.9828 524.5 43.7983C525.685 42.6025 527.177 42.0045 528.976 42.0045C530.058 42.0045 531.054 42.2608 531.966 42.7733C532.888 43.2858 533.606 43.9805 534.118 44.8575L532.41 45.8483C532.091 45.2561 531.624 44.7891 531.009 44.4475C530.405 44.0944 529.728 43.9179 528.976 43.9179C527.7 43.9179 526.664 44.3222 525.867 45.1308C525.081 45.9394 524.688 46.9644 524.688 48.2058C524.688 49.4472 525.081 50.4722 525.867 51.2809C526.664 52.0895 527.7 52.4938 528.976 52.4938C529.728 52.4938 530.411 52.323 531.026 51.9813C531.641 51.6282 532.102 51.1556 532.41 50.5634L534.118 51.5371C533.617 52.4141 532.905 53.1145 531.983 53.6384C531.072 54.1509 530.069 54.4071 528.976 54.4071ZM540.207 45.4212C541.187 45.4212 541.978 45.7344 542.582 46.3608C543.185 46.9872 543.487 47.8471 543.487 48.9404V54.1851H541.642V49.1283C541.642 48.4906 541.471 48.0008 541.13 47.6592C540.788 47.3175 540.321 47.1467 539.729 47.1467C539.08 47.1467 538.556 47.3517 538.157 47.7617C537.758 48.1603 537.559 48.7753 537.559 49.6067V54.1851H535.714V42.2266H537.559V46.7367C538.117 45.8597 539 45.4212 540.207 45.4212ZM552.239 45.6433H554.084V54.1851H552.239V52.955C551.544 53.9231 550.548 54.4071 549.249 54.4071C548.076 54.4071 547.074 53.9744 546.242 53.1088C545.411 52.2318 544.995 51.167 544.995 49.9142C544.995 48.65 545.411 47.5851 546.242 46.7196C547.074 45.854 548.076 45.4212 549.249 45.4212C550.548 45.4212 551.544 45.8996 552.239 46.8562V45.6433ZM547.609 51.8788C548.122 52.3913 548.765 52.6475 549.54 52.6475C550.314 52.6475 550.958 52.3913 551.47 51.8788C551.983 51.3549 552.239 50.7 552.239 49.9142C552.239 49.1283 551.983 48.4792 551.47 47.9667C550.958 47.4428 550.314 47.1808 549.54 47.1808C548.765 47.1808 548.122 47.4428 547.609 47.9667C547.097 48.4792 546.84 49.1283 546.84 49.9142C546.84 50.7 547.097 51.3549 547.609 51.8788ZM565.562 45.4212C566.53 45.4212 567.31 45.7344 567.902 46.3608C568.495 46.9872 568.791 47.83 568.791 48.8892V54.1851H566.946V49.0088C566.946 48.4165 566.798 47.961 566.501 47.6421C566.205 47.3118 565.801 47.1467 565.289 47.1467C564.719 47.1467 564.264 47.3346 563.922 47.7104C563.592 48.0863 563.426 48.65 563.426 49.4017V54.1851H561.581V49.0088C561.581 48.4165 561.439 47.961 561.154 47.6421C560.881 47.3118 560.488 47.1467 559.976 47.1467C559.418 47.1467 558.962 47.3403 558.609 47.7275C558.256 48.1033 558.079 48.6614 558.079 49.4017V54.1851H556.234V45.6433H558.079V46.6683C558.626 45.8369 559.44 45.4212 560.522 45.4212C561.616 45.4212 562.424 45.8711 562.948 46.7708C563.518 45.8711 564.389 45.4212 565.562 45.4212ZM574.797 54.4071C573.544 54.4071 572.479 53.9744 571.602 53.1088C570.725 52.2432 570.287 51.1784 570.287 49.9142C570.287 48.65 570.725 47.5851 571.602 46.7196C572.479 45.854 573.544 45.4212 574.797 45.4212C576.061 45.4212 577.126 45.854 577.992 46.7196C578.869 47.5851 579.307 48.65 579.307 49.9142C579.307 51.1784 578.869 52.2432 577.992 53.1088C577.126 53.9744 576.061 54.4071 574.797 54.4071ZM572.901 51.8446C573.413 52.3571 574.045 52.6134 574.797 52.6134C575.549 52.6134 576.181 52.3571 576.693 51.8446C577.206 51.3321 577.462 50.6886 577.462 49.9142C577.462 49.1397 577.206 48.4963 576.693 47.9838C576.181 47.4712 575.549 47.215 574.797 47.215C574.045 47.215 573.413 47.4712 572.901 47.9838C572.388 48.4963 572.132 49.1397 572.132 49.9142C572.132 50.6886 572.388 51.3321 572.901 51.8446ZM589.278 54.4071C588.025 54.4071 586.96 53.9744 586.083 53.1088C585.206 52.2432 584.768 51.1784 584.768 49.9142C584.768 48.65 585.206 47.5851 586.083 46.7196C586.96 45.854 588.025 45.4212 589.278 45.4212C590.542 45.4212 591.607 45.854 592.473 46.7196C593.349 47.5851 593.788 48.65 593.788 49.9142C593.788 51.1784 593.349 52.2432 592.473 53.1088C591.607 53.9744 590.542 54.4071 589.278 54.4071ZM587.382 51.8446C587.894 52.3571 588.526 52.6134 589.278 52.6134C590.03 52.6134 590.662 52.3571 591.174 51.8446C591.687 51.3321 591.943 50.6886 591.943 49.9142C591.943 49.1397 591.687 48.4963 591.174 47.9838C590.662 47.4712 590.03 47.215 589.278 47.215C588.526 47.215 587.894 47.4712 587.382 47.9838C586.869 48.4963 586.613 49.1397 586.613 49.9142C586.613 50.6886 586.869 51.3321 587.382 51.8446ZM604.562 45.4212C605.735 45.4212 606.737 45.8597 607.568 46.7367C608.4 47.6022 608.816 48.6614 608.816 49.9142C608.816 51.1784 608.4 52.2432 607.568 53.1088C606.737 53.9744 605.735 54.4071 604.562 54.4071C603.263 54.4071 602.267 53.9288 601.572 52.9721V57.6018H599.727V45.6433H601.572V46.8733C602.267 45.9053 603.263 45.4212 604.562 45.4212ZM602.341 51.8788C602.853 52.3913 603.497 52.6475 604.271 52.6475C605.046 52.6475 605.689 52.3913 606.202 51.8788C606.714 51.3549 606.971 50.7 606.971 49.9142C606.971 49.1283 606.714 48.4792 606.202 47.9667C605.689 47.4428 605.046 47.1808 604.271 47.1808C603.497 47.1808 602.853 47.4428 602.341 47.9667C601.828 48.4792 601.572 49.1283 601.572 49.9142C601.572 50.7 601.828 51.3549 602.341 51.8788ZM612.333 47.0783C612.8 46.0192 613.677 45.4896 614.964 45.4896V47.4883C614.257 47.4428 613.642 47.6136 613.119 48.0008C612.595 48.3767 612.333 49.0031 612.333 49.88V54.1851H610.488V45.6433H612.333V47.0783ZM619.958 54.4071C618.705 54.4071 617.64 53.9744 616.764 53.1088C615.887 52.2432 615.448 51.1784 615.448 49.9142C615.448 48.65 615.887 47.5851 616.764 46.7196C617.64 45.854 618.705 45.4212 619.958 45.4212C621.222 45.4212 622.287 45.854 623.153 46.7196C624.03 47.5851 624.468 48.65 624.468 49.9142C624.468 51.1784 624.03 52.2432 623.153 53.1088C622.287 53.9744 621.222 54.4071 619.958 54.4071ZM618.062 51.8446C618.574 52.3571 619.206 52.6134 619.958 52.6134C620.71 52.6134 621.342 52.3571 621.854 51.8446C622.367 51.3321 622.623 50.6886 622.623 49.9142C622.623 49.1397 622.367 48.4963 621.854 47.9838C621.342 47.4712 620.71 47.215 619.958 47.215C619.206 47.215 618.574 47.4712 618.062 47.9838C617.549 48.4963 617.293 49.1397 617.293 49.9142C617.293 50.6886 617.549 51.3321 618.062 51.8446ZM632.977 45.6433V54.1851H631.132V47.42H628.296V54.1851H626.451V47.42H625.153V45.6433H626.451V45.4725C626.451 43.1605 627.738 42.0045 630.312 42.0045C630.916 42.0045 631.548 42.0786 632.208 42.2266V43.9179C631.605 43.8268 630.973 43.7812 630.312 43.7812C629.629 43.7812 629.122 43.9065 628.792 44.157C628.461 44.4076 628.296 44.8461 628.296 45.4725V45.6433H632.977ZM636.719 48.0008C636.719 48.2856 636.873 48.5133 637.18 48.6842C637.499 48.8436 637.881 48.986 638.325 49.1113C638.78 49.2252 639.236 49.3618 639.692 49.5213C640.147 49.6807 640.529 49.954 640.836 50.3413C641.155 50.7171 641.314 51.1954 641.314 51.7763C641.314 52.5963 640.996 53.2398 640.358 53.7067C639.731 54.1737 638.94 54.4071 637.983 54.4071C637.14 54.4071 636.417 54.2306 635.814 53.8776C635.21 53.5245 634.772 53.0348 634.498 52.4084L636.087 51.4859C636.383 52.3059 637.015 52.7159 637.983 52.7159C638.951 52.7159 639.435 52.397 639.435 51.7592C639.435 51.4859 639.276 51.2638 638.957 51.0929C638.649 50.9221 638.268 50.7797 637.812 50.6659C637.368 50.5406 636.918 50.3982 636.463 50.2388C636.007 50.0793 635.62 49.8174 635.301 49.4529C634.994 49.0771 634.84 48.6045 634.84 48.035C634.84 47.2492 635.136 46.6171 635.728 46.1387C636.332 45.6604 637.078 45.4212 637.966 45.4212C638.672 45.4212 639.299 45.5807 639.845 45.8996C640.403 46.2071 640.83 46.6398 641.127 47.1979L639.572 48.0692C639.276 47.42 638.741 47.0954 637.966 47.0954C637.613 47.0954 637.317 47.1751 637.078 47.3346C636.839 47.4826 636.719 47.7047 636.719 48.0008ZM644.076 48.0008C644.076 48.2856 644.23 48.5133 644.538 48.6842C644.856 48.8436 645.238 48.986 645.682 49.1113C646.138 49.2252 646.593 49.3618 647.049 49.5213C647.504 49.6807 647.886 49.954 648.193 50.3413C648.512 50.7171 648.672 51.1954 648.672 51.7763C648.672 52.5963 648.353 53.2398 647.715 53.7067C647.089 54.1737 646.297 54.4071 645.34 54.4071C644.498 54.4071 643.774 54.2306 643.171 53.8776C642.567 53.5245 642.129 53.0348 641.855 52.4084L643.444 51.4859C643.74 52.3059 644.372 52.7159 645.34 52.7159C646.309 52.7159 646.793 52.397 646.793 51.7592C646.793 51.4859 646.633 51.2638 646.314 51.0929C646.007 50.9221 645.625 50.7797 645.17 50.6659C644.725 50.5406 644.276 50.3982 643.82 50.2388C643.364 50.0793 642.977 49.8174 642.658 49.4529C642.351 49.0771 642.197 48.6045 642.197 48.035C642.197 47.2492 642.493 46.6171 643.085 46.1387C643.689 45.6604 644.435 45.4212 645.323 45.4212C646.029 45.4212 646.656 45.5807 647.203 45.8996C647.761 46.2071 648.188 46.6398 648.484 47.1979L646.929 48.0692C646.633 47.42 646.098 47.0954 645.323 47.0954C644.97 47.0954 644.674 47.1751 644.435 47.3346C644.196 47.4826 644.076 47.7047 644.076 48.0008ZM651.936 44.0204C651.708 44.2482 651.435 44.3621 651.116 44.3621C650.797 44.3621 650.518 44.2482 650.279 44.0204C650.051 43.7812 649.937 43.5022 649.937 43.1833C649.937 42.8644 650.051 42.5911 650.279 42.3633C650.507 42.1241 650.786 42.0045 651.116 42.0045C651.446 42.0045 651.725 42.1241 651.953 42.3633C652.181 42.5911 652.295 42.8644 652.295 43.1833C652.295 43.5022 652.175 43.7812 651.936 44.0204ZM650.194 54.1851V45.6433H652.039V54.1851H650.194ZM658.212 54.4071C656.96 54.4071 655.895 53.9744 655.018 53.1088C654.141 52.2432 653.702 51.1784 653.702 49.9142C653.702 48.65 654.141 47.5851 655.018 46.7196C655.895 45.854 656.96 45.4212 658.212 45.4212C659.477 45.4212 660.542 45.854 661.407 46.7196C662.284 47.5851 662.723 48.65 662.723 49.9142C662.723 51.1784 662.284 52.2432 661.407 53.1088C660.542 53.9744 659.477 54.4071 658.212 54.4071ZM656.316 51.8446C656.829 52.3571 657.461 52.6134 658.212 52.6134C658.964 52.6134 659.596 52.3571 660.109 51.8446C660.621 51.3321 660.877 50.6886 660.877 49.9142C660.877 49.1397 660.621 48.4963 660.109 47.9838C659.596 47.4712 658.964 47.215 658.212 47.215C657.461 47.215 656.829 47.4712 656.316 47.9838C655.804 48.4963 655.547 49.1397 655.547 49.9142C655.547 50.6886 655.804 51.3321 656.316 51.8446ZM668.884 45.4212C669.863 45.4212 670.655 45.7344 671.258 46.3608C671.862 46.9872 672.164 47.8471 672.164 48.9404V54.1851H670.319V49.1283C670.319 48.4906 670.148 48.0008 669.806 47.6592C669.465 47.3175 668.998 47.1467 668.405 47.1467C667.756 47.1467 667.232 47.3517 666.834 47.7617C666.435 48.1603 666.236 48.7753 666.236 49.6067V54.1851H664.391V45.6433H666.236V46.7367C666.794 45.8597 667.677 45.4212 668.884 45.4212ZM680.915 45.6433H682.761V54.1851H680.915V52.955C680.221 53.9231 679.224 54.4071 677.926 54.4071C676.753 54.4071 675.751 53.9744 674.919 53.1088C674.088 52.2318 673.672 51.167 673.672 49.9142C673.672 48.65 674.088 47.5851 674.919 46.7196C675.751 45.854 676.753 45.4212 677.926 45.4212C679.224 45.4212 680.221 45.8996 680.915 46.8562V45.6433ZM676.286 51.8788C676.798 52.3913 677.442 52.6475 678.216 52.6475C678.991 52.6475 679.634 52.3913 680.147 51.8788C680.659 51.3549 680.915 50.7 680.915 49.9142C680.915 49.1283 680.659 48.4792 680.147 47.9667C679.634 47.4428 678.991 47.1808 678.216 47.1808C677.442 47.1808 676.798 47.4428 676.286 47.9667C675.773 48.4792 675.517 49.1283 675.517 49.9142C675.517 50.7 675.773 51.3549 676.286 51.8788ZM684.911 54.1851V41.7141H686.756V54.1851H684.911ZM591.746 68.0783C592.213 67.0192 593.09 66.4896 594.377 66.4896V68.4883C593.671 68.4428 593.056 68.6136 592.532 69.0008C592.008 69.3767 591.746 70.0031 591.746 70.88V75.1851H589.901V66.6433H591.746V68.0783ZM596.792 71.7C596.928 72.3492 597.241 72.8503 597.731 73.2034C598.221 73.545 598.819 73.7159 599.525 73.7159C600.504 73.7159 601.239 73.3628 601.729 72.6567L603.249 73.545C602.406 74.7864 601.159 75.4071 599.508 75.4071C598.118 75.4071 596.997 74.9858 596.142 74.143C595.288 73.2888 594.861 72.2125 594.861 70.9142C594.861 69.6386 595.283 68.5737 596.125 67.7196C596.968 66.854 598.05 66.4212 599.371 66.4212C600.624 66.4212 601.649 66.8597 602.446 67.7367C603.255 68.6136 603.659 69.6785 603.659 70.9313C603.659 71.1249 603.636 71.3811 603.591 71.7H596.792ZM596.774 70.1967H601.797C601.672 69.502 601.381 68.9781 600.926 68.625C600.482 68.2719 599.958 68.0954 599.354 68.0954C598.671 68.0954 598.101 68.2833 597.646 68.6592C597.19 69.035 596.9 69.5475 596.774 70.1967ZM606.606 69.0008C606.606 69.2856 606.76 69.5133 607.067 69.6842C607.386 69.8436 607.768 69.986 608.212 70.1113C608.667 70.2252 609.123 70.3618 609.579 70.5213C610.034 70.6807 610.416 70.954 610.723 71.3413C611.042 71.7171 611.201 72.1954 611.201 72.7763C611.201 73.5963 610.883 74.2398 610.245 74.7067C609.618 75.1737 608.827 75.4071 607.87 75.4071C607.027 75.4071 606.304 75.2306 605.701 74.8776C605.097 74.5245 604.659 74.0348 604.385 73.4084L605.974 72.4859C606.27 73.3059 606.902 73.7159 607.87 73.7159C608.838 73.7159 609.322 73.397 609.322 72.7592C609.322 72.4859 609.163 72.2638 608.844 72.0929C608.536 71.9221 608.155 71.7797 607.699 71.6659C607.255 71.5406 606.805 71.3982 606.35 71.2388C605.894 71.0793 605.507 70.8174 605.188 70.4529C604.881 70.0771 604.727 69.6045 604.727 69.035C604.727 68.2492 605.023 67.6171 605.615 67.1387C606.219 66.6604 606.965 66.4212 607.853 66.4212C608.559 66.4212 609.186 66.5807 609.732 66.8996C610.29 67.2071 610.717 67.6398 611.014 68.1979L609.459 69.0692C609.163 68.42 608.628 68.0954 607.853 68.0954C607.5 68.0954 607.204 68.1751 606.965 68.3346C606.726 68.4826 606.606 68.7047 606.606 69.0008ZM617.658 66.4212C618.831 66.4212 619.833 66.8597 620.665 67.7367C621.496 68.6022 621.912 69.6614 621.912 70.9142C621.912 72.1784 621.496 73.2432 620.665 74.1088C619.833 74.9744 618.831 75.4071 617.658 75.4071C616.36 75.4071 615.363 74.9288 614.668 73.9721V78.6018H612.823V66.6433H614.668V67.8733C615.363 66.9053 616.36 66.4212 617.658 66.4212ZM615.437 72.8788C615.95 73.3913 616.593 73.6475 617.368 73.6475C618.142 73.6475 618.785 73.3913 619.298 72.8788C619.811 72.3549 620.067 71.7 620.067 70.9142C620.067 70.1283 619.811 69.4792 619.298 68.9667C618.785 68.4428 618.142 68.1808 617.368 68.1808C616.593 68.1808 615.95 68.4428 615.437 68.9667C614.925 69.4792 614.668 70.1283 614.668 70.9142C614.668 71.7 614.925 72.3549 615.437 72.8788ZM627.616 75.4071C626.363 75.4071 625.298 74.9744 624.421 74.1088C623.544 73.2432 623.106 72.1784 623.106 70.9142C623.106 69.65 623.544 68.5851 624.421 67.7196C625.298 66.854 626.363 66.4212 627.616 66.4212C628.88 66.4212 629.945 66.854 630.81 67.7196C631.687 68.5851 632.126 69.65 632.126 70.9142C632.126 72.1784 631.687 73.2432 630.81 74.1088C629.945 74.9744 628.88 75.4071 627.616 75.4071ZM625.719 72.8446C626.232 73.3571 626.864 73.6134 627.616 73.6134C628.367 73.6134 628.999 73.3571 629.512 72.8446C630.024 72.3321 630.281 71.6886 630.281 70.9142C630.281 70.1397 630.024 69.4963 629.512 68.9838C628.999 68.4712 628.367 68.215 627.616 68.215C626.864 68.215 626.232 68.4712 625.719 68.9838C625.207 69.4963 624.951 70.1397 624.951 70.9142C624.951 71.6886 625.207 72.3321 625.719 72.8446ZM638.287 66.4212C639.266 66.4212 640.058 66.7344 640.662 67.3608C641.265 67.9872 641.567 68.8471 641.567 69.9404V75.1851H639.722V70.1283C639.722 69.4906 639.551 69.0008 639.209 68.6592C638.868 68.3175 638.401 68.1467 637.809 68.1467C637.159 68.1467 636.636 68.3517 636.237 68.7617C635.838 69.1603 635.639 69.7753 635.639 70.6067V75.1851H633.794V66.6433H635.639V67.7367C636.197 66.8597 637.08 66.4212 638.287 66.4212ZM645.211 69.0008C645.211 69.2856 645.364 69.5133 645.672 69.6842C645.991 69.8436 646.372 69.986 646.817 70.1113C647.272 70.2252 647.728 70.3618 648.183 70.5213C648.639 70.6807 649.02 70.954 649.328 71.3413C649.647 71.7171 649.806 72.1954 649.806 72.7763C649.806 73.5963 649.487 74.2398 648.85 74.7067C648.223 75.1737 647.432 75.4071 646.475 75.4071C645.632 75.4071 644.909 75.2306 644.305 74.8776C643.702 74.5245 643.263 74.0348 642.99 73.4084L644.579 72.4859C644.875 73.3059 645.507 73.7159 646.475 73.7159C647.443 73.7159 647.927 73.397 647.927 72.7592C647.927 72.4859 647.768 72.2638 647.449 72.0929C647.141 71.9221 646.76 71.7797 646.304 71.6659C645.86 71.5406 645.41 71.3982 644.954 71.2388C644.499 71.0793 644.112 70.8174 643.793 70.4529C643.485 70.0771 643.332 69.6045 643.332 69.035C643.332 68.2492 643.628 67.6171 644.22 67.1387C644.824 66.6604 645.569 66.4212 646.458 66.4212C647.164 66.4212 647.79 66.5807 648.337 66.8996C648.895 67.2071 649.322 67.6398 649.618 68.1979L648.064 69.0692C647.768 68.42 647.232 68.0954 646.458 68.0954C646.105 68.0954 645.809 68.1751 645.569 68.3346C645.33 68.4826 645.211 68.7047 645.211 69.0008ZM657.788 63.2266L655.977 65.5329H654.201L655.567 63.2266H657.788ZM657.976 66.6433H659.821V75.1851H657.976V73.955C657.282 74.9231 656.285 75.4071 654.987 75.4071C653.814 75.4071 652.811 74.9744 651.98 74.1088C651.149 73.2318 650.733 72.167 650.733 70.9142C650.733 69.65 651.149 68.5851 651.98 67.7196C652.811 66.854 653.814 66.4212 654.987 66.4212C656.285 66.4212 657.282 66.8996 657.976 67.8562V66.6433ZM653.347 72.8788C653.859 73.3913 654.503 73.6475 655.277 73.6475C656.052 73.6475 656.695 73.3913 657.207 72.8788C657.72 72.3549 657.976 71.7 657.976 70.9142C657.976 70.1283 657.72 69.4792 657.207 68.9667C656.695 68.4428 656.052 68.1808 655.277 68.1808C654.503 68.1808 653.859 68.4428 653.347 68.9667C652.834 69.4792 652.578 70.1283 652.578 70.9142C652.578 71.7 652.834 72.3549 653.347 72.8788ZM667.763 66.6433H669.779L666.448 75.1851H664.312L660.981 66.6433H662.997L665.388 73.135L667.763 66.6433ZM672.066 71.7C672.202 72.3492 672.516 72.8503 673.005 73.2034C673.495 73.545 674.093 73.7159 674.799 73.7159C675.779 73.7159 676.513 73.3628 677.003 72.6567L678.523 73.545C677.68 74.7864 676.433 75.4071 674.782 75.4071C673.393 75.4071 672.271 74.9858 671.417 74.143C670.562 73.2888 670.135 72.2125 670.135 70.9142C670.135 69.6386 670.557 68.5737 671.399 67.7196C672.242 66.854 673.324 66.4212 674.645 66.4212C675.898 66.4212 676.923 66.8597 677.72 67.7367C678.529 68.6136 678.933 69.6785 678.933 70.9313C678.933 71.1249 678.91 71.3811 678.865 71.7H672.066ZM672.049 70.1967H677.071C676.946 69.502 676.655 68.9781 676.2 68.625C675.756 68.2719 675.232 68.0954 674.628 68.0954C673.945 68.0954 673.375 68.2833 672.92 68.6592C672.464 69.035 672.174 69.5475 672.049 70.1967ZM680.557 75.1851V62.7141H682.402V75.1851H680.557ZM686.56 75.0142C686.309 75.2648 686.007 75.3901 685.654 75.3901C685.301 75.3901 685 75.2648 684.749 75.0142C684.498 74.7637 684.373 74.4619 684.373 74.1088C684.373 73.7557 684.493 73.4539 684.732 73.2034C684.982 72.9528 685.29 72.8275 685.654 72.8275C686.007 72.8275 686.309 72.9528 686.56 73.2034C686.81 73.4539 686.936 73.7557 686.936 74.1088C686.936 74.4619 686.81 74.7637 686.56 75.0142Z" fill="black"/>
<path d="M563.285 266.186C561.485 266.186 559.993 265.594 558.809 264.41C557.624 263.214 557.032 261.739 557.032 259.985C557.032 258.231 557.624 256.762 558.809 255.577C559.993 254.382 561.485 253.784 563.285 253.784C564.366 253.784 565.363 254.04 566.274 254.552C567.197 255.065 567.914 255.76 568.427 256.637L566.718 257.627C566.399 257.035 565.932 256.568 565.317 256.227C564.714 255.873 564.036 255.697 563.285 255.697C562.009 255.697 560.973 256.101 560.175 256.91C559.389 257.718 558.997 258.743 558.997 259.985C558.997 261.226 559.389 262.251 560.175 263.06C560.973 263.869 562.009 264.273 563.285 264.273C564.036 264.273 564.72 264.102 565.335 263.76C565.95 263.407 566.411 262.935 566.718 262.342L568.427 263.316C567.926 264.193 567.214 264.894 566.291 265.417C565.38 265.93 564.378 266.186 563.285 266.186ZM573.954 266.186C572.701 266.186 571.637 265.753 570.76 264.888C569.883 264.022 569.444 262.957 569.444 261.693C569.444 260.429 569.883 259.364 570.76 258.499C571.637 257.633 572.701 257.2 573.954 257.2C575.218 257.2 576.283 257.633 577.149 258.499C578.026 259.364 578.464 260.429 578.464 261.693C578.464 262.957 578.026 264.022 577.149 264.888C576.283 265.753 575.218 266.186 573.954 266.186ZM572.058 263.624C572.57 264.136 573.203 264.392 573.954 264.392C574.706 264.392 575.338 264.136 575.85 263.624C576.363 263.111 576.619 262.468 576.619 261.693C576.619 260.919 576.363 260.275 575.85 259.763C575.338 259.25 574.706 258.994 573.954 258.994C573.203 258.994 572.57 259.25 572.058 259.763C571.545 260.275 571.289 260.919 571.289 261.693C571.289 262.468 571.545 263.111 572.058 263.624ZM584.626 257.2C585.605 257.2 586.397 257.513 587 258.14C587.604 258.766 587.906 259.626 587.906 260.719V265.964H586.061V260.907C586.061 260.27 585.89 259.78 585.548 259.438C585.206 259.097 584.739 258.926 584.147 258.926C583.498 258.926 582.974 259.131 582.575 259.541C582.177 259.939 581.978 260.554 581.978 261.386V265.964H580.133V257.422H581.978V258.516C582.536 257.639 583.418 257.2 584.626 257.2ZM591.549 259.78C591.549 260.065 591.703 260.292 592.011 260.463C592.329 260.623 592.711 260.765 593.155 260.89C593.611 261.004 594.066 261.141 594.522 261.3C594.977 261.46 595.359 261.733 595.666 262.12C595.985 262.496 596.145 262.975 596.145 263.555C596.145 264.375 595.826 265.019 595.188 265.486C594.562 265.953 593.77 266.186 592.813 266.186C591.971 266.186 591.247 266.01 590.644 265.657C590.04 265.304 589.602 264.814 589.328 264.187L590.917 263.265C591.213 264.085 591.845 264.495 592.813 264.495C593.782 264.495 594.266 264.176 594.266 263.538C594.266 263.265 594.106 263.043 593.787 262.872C593.48 262.701 593.098 262.559 592.643 262.445C592.198 262.32 591.749 262.177 591.293 262.018C590.837 261.858 590.45 261.596 590.131 261.232C589.824 260.856 589.67 260.384 589.67 259.814C589.67 259.028 589.966 258.396 590.558 257.918C591.162 257.439 591.908 257.2 592.796 257.2C593.502 257.2 594.129 257.36 594.676 257.679C595.234 257.986 595.661 258.419 595.957 258.977L594.402 259.848C594.106 259.199 593.571 258.874 592.796 258.874C592.443 258.874 592.147 258.954 591.908 259.114C591.669 259.262 591.549 259.484 591.549 259.78ZM599.002 262.479C599.138 263.128 599.452 263.629 599.941 263.982C600.431 264.324 601.029 264.495 601.735 264.495C602.715 264.495 603.449 264.142 603.939 263.436L605.459 264.324C604.617 265.565 603.369 266.186 601.718 266.186C600.329 266.186 599.207 265.765 598.353 264.922C597.498 264.068 597.071 262.992 597.071 261.693C597.071 260.418 597.493 259.353 598.336 258.499C599.178 257.633 600.26 257.2 601.581 257.2C602.834 257.2 603.859 257.639 604.656 258.516C605.465 259.393 605.869 260.458 605.869 261.71C605.869 261.904 605.847 262.16 605.801 262.479H599.002ZM598.985 260.976H604.007C603.882 260.281 603.592 259.757 603.136 259.404C602.692 259.051 602.168 258.874 601.564 258.874C600.881 258.874 600.312 259.062 599.856 259.438C599.4 259.814 599.11 260.327 598.985 260.976ZM609.338 258.857C609.805 257.798 610.682 257.269 611.969 257.269V259.267C611.263 259.222 610.648 259.393 610.124 259.78C609.6 260.156 609.338 260.782 609.338 261.659V265.964H607.493V257.422H609.338V258.857ZM618.315 259.199H616.197V263.299C616.197 263.652 616.276 263.908 616.436 264.068C616.595 264.216 616.829 264.301 617.136 264.324C617.455 264.335 617.848 264.33 618.315 264.307V265.964C616.903 266.135 615.889 266.015 615.274 265.605C614.659 265.184 614.352 264.415 614.352 263.299V259.199H612.78V257.422H614.352V255.577L616.197 255.031V257.422H618.315V259.199ZM623.67 266.186C622.417 266.186 621.352 265.753 620.475 264.888C619.598 264.022 619.16 262.957 619.16 261.693C619.16 260.429 619.598 259.364 620.475 258.499C621.352 257.633 622.417 257.2 623.67 257.2C624.934 257.2 625.999 257.633 626.864 258.499C627.741 259.364 628.18 260.429 628.18 261.693C628.18 262.957 627.741 264.022 626.864 264.888C625.999 265.753 624.934 266.186 623.67 266.186ZM621.774 263.624C622.286 264.136 622.918 264.392 623.67 264.392C624.422 264.392 625.054 264.136 625.566 263.624C626.079 263.111 626.335 262.468 626.335 261.693C626.335 260.919 626.079 260.275 625.566 259.763C625.054 259.25 624.422 258.994 623.67 258.994C622.918 258.994 622.286 259.25 621.774 259.763C621.261 260.275 621.005 260.919 621.005 261.693C621.005 262.468 621.261 263.111 621.774 263.624ZM635.571 262.479C635.708 263.128 636.021 263.629 636.511 263.982C637 264.324 637.598 264.495 638.305 264.495C639.284 264.495 640.019 264.142 640.508 263.436L642.029 264.324C641.186 265.565 639.939 266.186 638.287 266.186C636.898 266.186 635.776 265.765 634.922 264.922C634.068 264.068 633.641 262.992 633.641 261.693C633.641 260.418 634.062 259.353 634.905 258.499C635.748 257.633 636.83 257.2 638.151 257.2C639.404 257.2 640.429 257.639 641.226 258.516C642.034 259.393 642.439 260.458 642.439 261.71C642.439 261.904 642.416 262.16 642.37 262.479H635.571ZM635.554 260.976H640.577C640.451 260.281 640.161 259.757 639.705 259.404C639.261 259.051 638.737 258.874 638.134 258.874C637.45 258.874 636.881 259.062 636.425 259.438C635.97 259.814 635.679 260.327 635.554 260.976ZM649.819 257.422H651.664V265.964H649.819V264.871C649.261 265.748 648.379 266.186 647.171 266.186C646.192 266.186 645.4 265.873 644.797 265.247C644.193 264.62 643.891 263.76 643.891 262.667V257.422H645.736V262.479C645.736 263.117 645.907 263.607 646.249 263.948C646.591 264.29 647.057 264.461 647.65 264.461C648.299 264.461 648.823 264.261 649.221 263.863C649.62 263.453 649.819 262.832 649.819 262.001V257.422Z" fill="black"/>
<path d="M9.08895 37.3069V39.1861H5.7235V49.2654H3.7589V39.1861H0.37637V37.3069H9.08895ZM10.3394 45.7803C10.476 46.4295 10.7892 46.9306 11.279 47.2837C11.7687 47.6254 12.3666 47.7962 13.0727 47.7962C14.0522 47.7962 14.7868 47.4431 15.2765 46.737L16.7969 47.6254C15.9542 48.8668 14.7071 49.4875 13.0557 49.4875C11.6662 49.4875 10.5444 49.0661 9.69021 48.2233C8.83603 47.3691 8.40895 46.2929 8.40895 44.9945C8.40895 43.7189 8.83034 42.6541 9.67313 41.7999C10.5159 40.9343 11.5979 40.5016 12.919 40.5016C14.1718 40.5016 15.1968 40.94 15.994 41.817C16.8026 42.6939 17.2069 43.7588 17.2069 45.0116C17.2069 45.2052 17.1842 45.4615 17.1386 45.7803H10.3394ZM10.3223 44.277H15.3448C15.2196 43.5823 14.9291 43.0584 14.4736 42.7053C14.0294 42.3523 13.5055 42.1757 12.9019 42.1757C12.2186 42.1757 11.6491 42.3637 11.1936 42.7395C10.738 43.1153 10.4476 43.6278 10.3223 44.277ZM23.3234 40.5016C24.3028 40.5016 25.0944 40.8147 25.698 41.4411C26.3016 42.0675 26.6034 42.9274 26.6034 44.0207V49.2654H24.7584V44.2087C24.7584 43.5709 24.5875 43.0812 24.2459 42.7395C23.9042 42.3978 23.4373 42.227 22.845 42.227C22.1959 42.227 21.672 42.432 21.2733 42.842C20.8747 43.2406 20.6754 43.8556 20.6754 44.687V49.2654H18.8304V40.7236H20.6754V41.817C21.2335 40.94 22.1161 40.5016 23.3234 40.5016ZM33.083 40.5016C34.0624 40.5016 34.854 40.8147 35.4576 41.4411C36.0612 42.0675 36.363 42.9274 36.363 44.0207V49.2654H34.518V44.2087C34.518 43.5709 34.3472 43.0812 34.0055 42.7395C33.6638 42.3978 33.1969 42.227 32.6046 42.227C31.9555 42.227 31.4316 42.432 31.033 42.842C30.6343 43.2406 30.435 43.8556 30.435 44.687V49.2654H28.59V37.3069H30.435V41.817C30.9931 40.94 31.8757 40.5016 33.083 40.5016ZM42.3813 49.4875C41.1285 49.4875 40.0637 49.0547 39.1867 48.1891C38.3098 47.3236 37.8713 46.2587 37.8713 44.9945C37.8713 43.7303 38.3098 42.6655 39.1867 41.7999C40.0637 40.9343 41.1285 40.5016 42.3813 40.5016C43.6455 40.5016 44.7104 40.9343 45.5759 41.7999C46.4529 42.6655 46.8914 43.7303 46.8914 44.9945C46.8914 46.2587 46.4529 47.3236 45.5759 48.1891C44.7104 49.0547 43.6455 49.4875 42.3813 49.4875ZM40.4851 46.9249C40.9976 47.4374 41.6297 47.6937 42.3813 47.6937C43.133 47.6937 43.7651 47.4374 44.2776 46.9249C44.7901 46.4124 45.0464 45.769 45.0464 44.9945C45.0464 44.2201 44.7901 43.5766 44.2776 43.0641C43.7651 42.5516 43.133 42.2953 42.3813 42.2953C41.6297 42.2953 40.9976 42.5516 40.4851 43.0641C39.9726 43.5766 39.7163 44.2201 39.7163 44.9945C39.7163 45.769 39.9726 46.4124 40.4851 46.9249ZM59.5956 40.7236H61.4406V49.2654H59.5956V48.0354C58.9009 49.0034 57.9044 49.4875 56.606 49.4875C55.4329 49.4875 54.4307 49.0547 53.5993 48.1891C52.7679 47.3122 52.3522 46.2473 52.3522 44.9945C52.3522 43.7303 52.7679 42.6655 53.5993 41.7999C54.4307 40.9343 55.4329 40.5016 56.606 40.5016C57.9044 40.5016 58.9009 40.9799 59.5956 41.9366V40.7236ZM54.966 46.9591C55.4785 47.4716 56.122 47.7279 56.8964 47.7279C57.6709 47.7279 58.3144 47.4716 58.8269 46.9591C59.3394 46.4352 59.5956 45.7803 59.5956 44.9945C59.5956 44.2087 59.3394 43.5595 58.8269 43.047C58.3144 42.5231 57.6709 42.2611 56.8964 42.2611C56.122 42.2611 55.4785 42.5231 54.966 43.047C54.4535 43.5595 54.1972 44.2087 54.1972 44.9945C54.1972 45.7803 54.4535 46.4352 54.966 46.9591ZM72.9187 40.5016C73.8868 40.5016 74.667 40.8147 75.2592 41.4411C75.8514 42.0675 76.1475 42.9103 76.1475 43.9695V49.2654H74.3025V44.0891C74.3025 43.4969 74.1544 43.0413 73.8583 42.7224C73.5622 42.3921 73.1579 42.227 72.6454 42.227C72.076 42.227 71.6204 42.4149 71.2787 42.7907C70.9484 43.1666 70.7833 43.7303 70.7833 44.482V49.2654H68.9383V44.0891C68.9383 43.4969 68.7959 43.0413 68.5112 42.7224C68.2379 42.3921 67.8449 42.227 67.3324 42.227C66.7744 42.227 66.3188 42.4206 65.9658 42.8078C65.6127 43.1837 65.4362 43.7417 65.4362 44.482V49.2654H63.5912V40.7236H65.4362V41.7486C65.9828 40.9172 66.7972 40.5016 67.8791 40.5016C68.9725 40.5016 69.7811 40.9514 70.305 41.8511C70.8744 40.9514 71.7457 40.5016 72.9187 40.5016ZM79.8647 39.1007C79.6369 39.3285 79.3635 39.4424 79.0446 39.4424C78.7258 39.4424 78.4467 39.3285 78.2076 39.1007C77.9798 38.8615 77.8659 38.5825 77.8659 38.2636C77.8659 37.9447 77.9798 37.6714 78.2076 37.4436C78.4353 37.2044 78.7144 37.0849 79.0446 37.0849C79.3749 37.0849 79.654 37.2044 79.8817 37.4436C80.1095 37.6714 80.2234 37.9447 80.2234 38.2636C80.2234 38.5825 80.1038 38.8615 79.8647 39.1007ZM78.1221 49.2654V40.7236H79.9672V49.2654H78.1221ZM88.9086 40.7236H90.7195V48.8725C90.7195 50.1708 90.2924 51.1673 89.4382 51.8621C88.584 52.5568 87.5476 52.9042 86.329 52.9042C84.3587 52.9042 83.0091 52.2151 82.2802 50.8371L83.869 49.9146C84.3132 50.7915 85.1446 51.23 86.3632 51.23C87.1604 51.23 87.7811 51.0193 88.2253 50.5979C88.6808 50.1879 88.9086 49.6127 88.9086 48.8725V47.8304C88.2139 48.8212 87.2231 49.3166 85.9361 49.3166C84.7289 49.3166 83.7095 48.8895 82.8782 48.0354C82.0468 47.1698 81.6311 46.1277 81.6311 44.9091C81.6311 43.6905 82.0468 42.6541 82.8782 41.7999C83.7095 40.9343 84.7289 40.5016 85.9361 40.5016C87.2231 40.5016 88.2139 40.997 88.9086 41.9878V40.7236ZM84.2448 46.8224C84.7687 47.3349 85.4179 47.5912 86.1923 47.5912C86.9668 47.5912 87.6103 47.3349 88.1228 46.8224C88.6467 46.3099 88.9086 45.6722 88.9086 44.9091C88.9086 44.146 88.6467 43.5082 88.1228 42.9957C87.6103 42.4832 86.9668 42.227 86.1923 42.227C85.4179 42.227 84.7687 42.4832 84.2448 42.9957C83.7323 43.5082 83.4761 44.146 83.4761 44.9091C83.4761 45.6722 83.7323 46.3099 84.2448 46.8224ZM96.9017 49.4875C95.6489 49.4875 94.584 49.0547 93.7071 48.1891C92.8301 47.3236 92.3917 46.2587 92.3917 44.9945C92.3917 43.7303 92.8301 42.6655 93.7071 41.7999C94.584 40.9343 95.6489 40.5016 96.9017 40.5016C98.1659 40.5016 99.2307 40.9343 100.096 41.7999C100.973 42.6655 101.412 43.7303 101.412 44.9945C101.412 46.2587 100.973 47.3236 100.096 48.1891C99.2307 49.0547 98.1659 49.4875 96.9017 49.4875ZM95.0054 46.9249C95.5179 47.4374 96.15 47.6937 96.9017 47.6937C97.6534 47.6937 98.2855 47.4374 98.798 46.9249C99.3105 46.4124 99.5667 45.769 99.5667 44.9945C99.5667 44.2201 99.3105 43.5766 98.798 43.0641C98.2855 42.5516 97.6534 42.2953 96.9017 42.2953C96.15 42.2953 95.5179 42.5516 95.0054 43.0641C94.4929 43.5766 94.2367 44.2201 94.2367 44.9945C94.2367 45.769 94.4929 46.4124 95.0054 46.9249ZM104.57 43.0812C104.57 43.3659 104.724 43.5937 105.032 43.7645C105.35 43.9239 105.732 44.0663 106.176 44.1916C106.632 44.3055 107.087 44.4421 107.543 44.6016C107.998 44.761 108.38 45.0344 108.687 45.4216C109.006 45.7974 109.166 46.2758 109.166 46.8566C109.166 47.6766 108.847 48.3201 108.209 48.787C107.583 49.254 106.791 49.4875 105.834 49.4875C104.992 49.4875 104.269 49.3109 103.665 48.9579C103.061 48.6048 102.623 48.1151 102.349 47.4887L103.938 46.5662C104.234 47.3862 104.866 47.7962 105.834 47.7962C106.803 47.7962 107.287 47.4773 107.287 46.8395C107.287 46.5662 107.127 46.3441 106.808 46.1733C106.501 46.0024 106.119 45.8601 105.664 45.7462C105.219 45.6209 104.77 45.4785 104.314 45.3191C103.858 45.1596 103.471 44.8977 103.152 44.5333C102.845 44.1574 102.691 43.6848 102.691 43.1153C102.691 42.3295 102.987 41.6974 103.579 41.2191C104.183 40.7407 104.929 40.5016 105.817 40.5016C106.524 40.5016 107.15 40.661 107.697 40.9799C108.255 41.2874 108.682 41.7202 108.978 42.2782L107.423 43.1495C107.127 42.5003 106.592 42.1757 105.817 42.1757C105.464 42.1757 105.168 42.2555 104.929 42.4149C104.69 42.563 104.57 42.785 104.57 43.0812ZM121.824 40.7236H123.669V52.6821H121.824V48.0525C121.129 49.0091 120.132 49.4875 118.834 49.4875C117.661 49.4875 116.659 49.0547 115.827 48.1891C114.996 47.3236 114.58 46.2587 114.58 44.9945C114.58 43.7417 114.996 42.6825 115.827 41.817C116.659 40.94 117.661 40.5016 118.834 40.5016C120.132 40.5016 121.129 40.9856 121.824 41.9536V40.7236ZM117.194 46.9591C117.706 47.4716 118.35 47.7279 119.124 47.7279C119.899 47.7279 120.542 47.4716 121.055 46.9591C121.567 46.4352 121.824 45.7803 121.824 44.9945C121.824 44.2087 121.567 43.5595 121.055 43.047C120.542 42.5231 119.899 42.2611 119.124 42.2611C118.35 42.2611 117.706 42.5231 117.194 43.047C116.681 43.5595 116.425 44.2087 116.425 44.9945C116.425 45.7803 116.681 46.4352 117.194 46.9591ZM131.576 40.7236H133.421V49.2654H131.576V48.172C131.018 49.049 130.136 49.4875 128.928 49.4875C127.949 49.4875 127.157 49.1743 126.554 48.5479C125.95 47.9215 125.648 47.0616 125.648 45.9683V40.7236H127.493V45.7803C127.493 46.4181 127.664 46.9079 128.006 47.2495C128.347 47.5912 128.814 47.762 129.407 47.762C130.056 47.762 130.58 47.5627 130.978 47.1641C131.377 46.7541 131.576 46.1334 131.576 45.302V40.7236ZM137.031 45.7803C137.167 46.4295 137.481 46.9306 137.97 47.2837C138.46 47.6254 139.058 47.7962 139.764 47.7962C140.744 47.7962 141.478 47.4431 141.968 46.737L143.488 47.6254C142.646 48.8668 141.398 49.4875 139.747 49.4875C138.358 49.4875 137.236 49.0661 136.382 48.2233C135.527 47.3691 135.1 46.2929 135.1 44.9945C135.1 43.7189 135.522 42.6541 136.365 41.7999C137.207 40.9343 138.289 40.5016 139.61 40.5016C140.863 40.5016 141.888 40.94 142.685 41.817C143.494 42.6939 143.898 43.7588 143.898 45.0116C143.898 45.2052 143.876 45.4615 143.83 45.7803H137.031ZM137.014 44.277H142.036C141.911 43.5823 141.621 43.0584 141.165 42.7053C140.721 42.3523 140.197 42.1757 139.593 42.1757C138.91 42.1757 138.341 42.3637 137.885 42.7395C137.429 43.1153 137.139 43.6278 137.014 44.277ZM7.96144 61.7236H9.80646V70.2654H7.96144V69.0354C7.26671 70.0034 6.27017 70.4875 4.97183 70.4875C3.79876 70.4875 2.79653 70.0547 1.96513 69.1891C1.13374 68.3122 0.718039 67.2473 0.718039 65.9945C0.718039 64.7303 1.13374 63.6655 1.96513 62.7999C2.79653 61.9343 3.79876 61.5016 4.97183 61.5016C6.27017 61.5016 7.26671 61.9799 7.96144 62.9366V61.7236ZM3.33181 67.9591C3.84432 68.4716 4.4878 68.7279 5.26225 68.7279C6.0367 68.7279 6.68018 68.4716 7.19268 67.9591C7.70519 67.4352 7.96144 66.7803 7.96144 65.9945C7.96144 65.2087 7.70519 64.5595 7.19268 64.047C6.68018 63.5231 6.0367 63.2611 5.26225 63.2611C4.4878 63.2611 3.84432 63.5231 3.33181 64.047C2.81931 64.5595 2.56306 65.2087 2.56306 65.9945C2.56306 66.7803 2.81931 67.4352 3.33181 67.9591ZM13.802 63.1586C14.2689 62.0995 15.1459 61.5699 16.4328 61.5699V63.5687C15.7267 63.5231 15.1117 63.6939 14.5878 64.0812C14.0639 64.457 13.802 65.0834 13.802 65.9603V70.2654H11.957V61.7236H13.802V63.1586ZM19.6411 63.1586C20.108 62.0995 20.985 61.5699 22.2719 61.5699V63.5687C21.5658 63.5231 20.9508 63.6939 20.4269 64.0812C19.903 64.457 19.6411 65.0834 19.6411 65.9603V70.2654H17.7961V61.7236H19.6411V63.1586ZM29.3923 61.7236H31.2373V70.2654H29.3923V69.172C28.8342 70.049 27.9516 70.4875 26.7443 70.4875C25.7649 70.4875 24.9733 70.1743 24.3697 69.5479C23.7661 68.9215 23.4643 68.0616 23.4643 66.9683V61.7236H25.3093V66.7803C25.3093 67.4181 25.4802 67.9079 25.8218 68.2495C26.1635 68.5912 26.6304 68.762 27.2227 68.762C27.8718 68.762 28.3957 68.5627 28.7944 68.1641C29.193 67.7541 29.3923 67.1334 29.3923 66.302V61.7236ZM42.7223 61.5016C43.6904 61.5016 44.4705 61.8147 45.0628 62.4411C45.655 63.0675 45.9511 63.9103 45.9511 64.9695V70.2654H44.1061V65.0891C44.1061 64.4969 43.958 64.0413 43.6619 63.7224C43.3658 63.3921 42.9615 63.227 42.449 63.227C41.8796 63.227 41.424 63.4149 41.0823 63.7907C40.752 64.1666 40.5869 64.7303 40.5869 65.482V70.2654H38.7419V65.0891C38.7419 64.4969 38.5995 64.0413 38.3148 63.7224C38.0415 63.3921 37.6485 63.227 37.136 63.227C36.578 63.227 36.1224 63.4206 35.7694 63.8078C35.4163 64.1837 35.2398 64.7417 35.2398 65.482V70.2654H33.3948V61.7236H35.2398V62.7486C35.7864 61.9172 36.6008 61.5016 37.6827 61.5016C38.7761 61.5016 39.5847 61.9514 40.1086 62.8511C40.678 61.9514 41.5493 61.5016 42.7223 61.5016ZM54.6908 61.7236H56.5358V70.2654H54.6908V69.0354C53.9961 70.0034 52.9995 70.4875 51.7012 70.4875C50.5281 70.4875 49.5259 70.0547 48.6945 69.1891C47.8631 68.3122 47.4474 67.2473 47.4474 65.9945C47.4474 64.7303 47.8631 63.6655 48.6945 62.7999C49.5259 61.9343 50.5281 61.5016 51.7012 61.5016C52.9995 61.5016 53.9961 61.9799 54.6908 62.9366V61.7236ZM50.0612 67.9591C50.5737 68.4716 51.2171 68.7279 51.9916 68.7279C52.7661 68.7279 53.4095 68.4716 53.922 67.9591C54.4345 67.4352 54.6908 66.7803 54.6908 65.9945C54.6908 65.2087 54.4345 64.5595 53.922 64.047C53.4095 63.5231 52.7661 63.2611 51.9916 63.2611C51.2171 63.2611 50.5737 63.5231 50.0612 64.047C49.5487 64.5595 49.2924 65.2087 49.2924 65.9945C49.2924 66.7803 49.5487 67.4352 50.0612 67.9591ZM68.0139 61.5016C68.982 61.5016 69.7621 61.8147 70.3544 62.4411C70.9466 63.0675 71.2427 63.9103 71.2427 64.9695V70.2654H69.3977V65.0891C69.3977 64.4969 69.2496 64.0413 68.9535 63.7224C68.6574 63.3921 68.2531 63.227 67.7406 63.227C67.1711 63.227 66.7156 63.4149 66.3739 63.7907C66.0436 64.1666 65.8785 64.7303 65.8785 65.482V70.2654H64.0335V65.0891C64.0335 64.4969 63.8911 64.0413 63.6064 63.7224C63.333 63.3921 62.9401 63.227 62.4276 63.227C61.8695 63.227 61.414 63.4206 61.0609 63.8078C60.7079 64.1837 60.5313 64.7417 60.5313 65.482V70.2654H58.6863V61.7236H60.5313V62.7486C61.078 61.9172 61.8923 61.5016 62.9743 61.5016C64.0676 61.5016 64.8762 61.9514 65.4001 62.8511C65.9696 61.9514 66.8408 61.5016 68.0139 61.5016ZM82.3228 61.5016C83.4959 61.5016 84.4981 61.94 85.3295 62.817C86.1609 63.6825 86.5766 64.7417 86.5766 65.9945C86.5766 67.2587 86.1609 68.3236 85.3295 69.1891C84.4981 70.0547 83.4959 70.4875 82.3228 70.4875C81.0245 70.4875 80.0279 70.0091 79.3332 69.0525V73.6821H77.4882V61.7236H79.3332V62.9536C80.0279 61.9856 81.0245 61.5016 82.3228 61.5016ZM80.102 67.9591C80.6145 68.4716 81.2579 68.7279 82.0324 68.7279C82.8068 68.7279 83.4503 68.4716 83.9628 67.9591C84.4753 67.4352 84.7316 66.7803 84.7316 65.9945C84.7316 65.2087 84.4753 64.5595 83.9628 64.047C83.4503 63.5231 82.8068 63.2611 82.0324 63.2611C81.2579 63.2611 80.6145 63.5231 80.102 64.047C79.5894 64.5595 79.3332 65.2087 79.3332 65.9945C79.3332 66.7803 79.5894 67.4352 80.102 67.9591ZM90.0938 63.1586C90.5607 62.0995 91.4377 61.5699 92.7247 61.5699V63.5687C92.0185 63.5231 91.4035 63.6939 90.8796 64.0812C90.3557 64.457 90.0938 65.0834 90.0938 65.9603V70.2654H88.2488V61.7236H90.0938V63.1586ZM100.453 61.7236H102.298V70.2654H100.453V69.0354C99.7578 70.0034 98.7613 70.4875 97.4629 70.4875C96.2898 70.4875 95.2876 70.0547 94.4562 69.1891C93.6248 68.3122 93.2091 67.2473 93.2091 65.9945C93.2091 64.7303 93.6248 63.6655 94.4562 62.7999C95.2876 61.9343 96.2898 61.5016 97.4629 61.5016C98.7613 61.5016 99.7578 61.9799 100.453 62.9366V61.7236ZM95.8229 67.9591C96.3354 68.4716 96.9789 68.7279 97.7533 68.7279C98.5278 68.7279 99.1713 68.4716 99.6838 67.9591C100.196 67.4352 100.453 66.7803 100.453 65.9945C100.453 65.2087 100.196 64.5595 99.6838 64.047C99.1713 63.5231 98.5278 63.2611 97.7533 63.2611C96.9789 63.2611 96.3354 63.5231 95.8229 64.047C95.3104 64.5595 95.0541 65.2087 95.0541 65.9945C95.0541 66.7803 95.3104 67.4352 95.8229 67.9591ZM118.047 61.5016C119.015 61.5016 119.795 61.8147 120.387 62.4411C120.979 63.0675 121.275 63.9103 121.275 64.9695V70.2654H119.43V65.0891C119.43 64.4969 119.282 64.0413 118.986 63.7224C118.69 63.3921 118.286 63.227 117.773 63.227C117.204 63.227 116.748 63.4149 116.407 63.7907C116.076 64.1666 115.911 64.7303 115.911 65.482V70.2654H114.066V65.0891C114.066 64.4969 113.924 64.0413 113.639 63.7224C113.366 63.3921 112.973 63.227 112.46 63.227C111.902 63.227 111.447 63.4206 111.094 63.8078C110.74 64.1837 110.564 64.7417 110.564 65.482V70.2654H108.719V61.7236H110.564V62.7486C111.111 61.9172 111.925 61.5016 113.007 61.5016C114.1 61.5016 114.909 61.9514 115.433 62.8511C116.002 61.9514 116.873 61.5016 118.047 61.5016ZM124.992 60.1007C124.765 60.3285 124.491 60.4424 124.172 60.4424C123.854 60.4424 123.574 60.3285 123.335 60.1007C123.108 59.8615 122.994 59.5825 122.994 59.2636C122.994 58.9447 123.108 58.6714 123.335 58.4436C123.563 58.2044 123.842 58.0849 124.172 58.0849C124.503 58.0849 124.782 58.2044 125.01 58.4436C125.237 58.6714 125.351 58.9447 125.351 59.2636C125.351 59.5825 125.232 59.8615 124.992 60.1007ZM123.25 70.2654V61.7236H125.095V70.2654H123.25ZM136.565 61.5016C137.533 61.5016 138.313 61.8147 138.905 62.4411C139.497 63.0675 139.794 63.9103 139.794 64.9695V70.2654H137.949V65.0891C137.949 64.4969 137.8 64.0413 137.504 63.7224C137.208 63.3921 136.804 63.227 136.291 63.227C135.722 63.227 135.266 63.4149 134.925 63.7907C134.594 64.1666 134.429 64.7303 134.429 65.482V70.2654H132.584V65.0891C132.584 64.4969 132.442 64.0413 132.157 63.7224C131.884 63.3921 131.491 63.227 130.978 63.227C130.42 63.227 129.965 63.4206 129.612 63.8078C129.259 64.1837 129.082 64.7417 129.082 65.482V70.2654H127.237V61.7236H129.082V62.7486C129.629 61.9172 130.443 61.5016 131.525 61.5016C132.618 61.5016 133.427 61.9514 133.951 62.8511C134.52 61.9514 135.392 61.5016 136.565 61.5016Z" fill="black"/>
</svg>
