<svg width="487" height="301" viewBox="0 0 487 301" fill="none" xmlns="http://www.w3.org/2000/svg">
<path d="M243.5 15.7095C280.776 15.7095 316.393 31.1224 341.911 58.2956C367.428 85.4688 380.574 121.984 378.234 159.186L243.5 150.709V15.7095Z" fill="#193E3E"/>
<path d="M108.765 159.186C106.425 121.984 119.571 85.4688 145.088 58.2956C170.605 31.1224 206.223 15.7095 243.499 15.7095V150.709L108.765 159.186Z" fill="#F9F1E6"/>
<path d="M209.927 281.462C153.278 266.917 112.438 217.55 108.766 159.18L243.5 150.703L209.927 281.462Z" fill="#3A8071"/>
<path d="M378.236 159.18C375.71 199.335 355.404 236.271 322.854 259.92C290.303 283.57 248.9 291.468 209.93 281.462L243.503 150.703L378.236 159.18Z" fill="#78C1B2"/>
<path d="M20.8012 72.1996V73.0208H16.2021C16.2021 72.8187 16.2358 72.6207 16.3032 72.427C16.4212 72.1154 16.6065 71.8079 16.8592 71.5047C17.1203 71.2014 17.4951 70.8519 17.9837 70.456C18.7417 69.8327 19.2513 69.3399 19.5125 68.9777C19.782 68.6155 19.9168 68.2744 19.9168 67.9543C19.9168 67.6174 19.7946 67.3352 19.5504 67.1078C19.3061 66.8719 18.9902 66.754 18.6028 66.754C18.19 66.754 17.8615 66.8761 17.6172 67.1204C17.373 67.3647 17.2466 67.7058 17.2382 68.1438L16.3664 68.0554C16.4254 67.3984 16.6486 66.9014 17.036 66.5645C17.4319 66.2191 17.9626 66.0465 18.628 66.0465C19.2935 66.0465 19.8199 66.2318 20.2074 66.6024C20.5948 66.973 20.7886 67.4321 20.7886 67.9796C20.7886 68.2575 20.7296 68.5313 20.6117 68.8008C20.5022 69.0619 20.3127 69.3441 20.0431 69.6474C19.782 69.9422 19.3482 70.3465 18.7417 70.8603C18.2279 71.2899 17.8952 71.5847 17.7436 71.7447C17.6004 71.8964 17.4825 72.048 17.3898 72.1996H20.8012ZM26.3984 67.7774L25.5519 67.8406C25.4761 67.5037 25.3708 67.2594 25.236 67.1078C25.0002 66.8635 24.7138 66.7414 24.3768 66.7414C24.1073 66.7414 23.8672 66.8172 23.6567 66.9688C23.3955 67.1709 23.185 67.4615 23.0249 67.8406C22.8733 68.2112 22.7933 68.7419 22.7849 69.4326C22.987 69.1209 23.2355 68.8893 23.5303 68.7377C23.8336 68.586 24.1494 68.5102 24.4779 68.5102C25.0423 68.5102 25.5224 68.7208 25.9183 69.142C26.3226 69.5631 26.5248 70.1022 26.5248 70.7592C26.5248 71.1972 26.4279 71.6058 26.2342 71.9848C26.0488 72.3554 25.7919 72.6418 25.4634 72.844C25.1349 73.0377 24.7643 73.1346 24.3516 73.1346C23.6356 73.1346 23.0544 72.8734 22.608 72.3512C22.1615 71.829 21.9383 70.9698 21.9383 69.7737C21.9383 68.426 22.1868 67.4489 22.6838 66.8424C23.1134 66.3118 23.6946 66.0465 24.4274 66.0465C24.9749 66.0465 25.4213 66.2023 25.7667 66.5139C26.1204 66.8172 26.331 67.2383 26.3984 67.7774ZM22.9238 70.7719C22.9238 71.0667 22.9828 71.3488 23.1007 71.6184C23.2271 71.8795 23.3998 72.0817 23.6188 72.2249C23.8462 72.368 24.0862 72.4396 24.3389 72.4396C24.6927 72.4396 25.0002 72.2965 25.2613 72.0101C25.5224 71.7153 25.653 71.3194 25.653 70.8224C25.653 70.3423 25.5224 69.9632 25.2613 69.6853C25.0086 69.4073 24.6885 69.2683 24.301 69.2683C23.9136 69.2683 23.5851 69.4073 23.3155 69.6853C23.0544 69.9632 22.9238 70.3254 22.9238 70.7719ZM28.0915 73.0208V72.048H29.0643V73.0208C29.0643 73.3746 29.0012 73.661 28.8748 73.88C28.7485 74.1074 28.5505 74.2801 28.281 74.398L28.0409 74.0316C28.2178 73.9558 28.3484 73.8379 28.4326 73.6779C28.5168 73.5262 28.5674 73.3072 28.5842 73.0208H28.0915ZM30.0625 69.5968C30.0625 68.7714 30.1467 68.1101 30.3152 67.6132C30.4837 67.1078 30.7321 66.7203 31.0606 66.4508C31.3976 66.1812 31.8187 66.0465 32.3241 66.0465C32.6947 66.0465 33.019 66.1223 33.297 66.2739C33.5834 66.4255 33.8192 66.6445 34.0045 66.9309C34.1899 67.2089 34.333 67.55 34.4341 67.9543C34.5352 68.3586 34.5857 68.9061 34.5857 69.5968C34.5857 70.4139 34.5015 71.0709 34.333 71.5678C34.173 72.0648 33.9245 72.4523 33.5876 72.7302C33.2591 72.9998 32.8379 73.1346 32.3241 73.1346C31.6587 73.1346 31.1322 72.8945 30.7448 72.4144C30.2899 71.8416 30.0625 70.9024 30.0625 69.5968ZM30.9343 69.5968C30.9343 70.734 31.0691 71.492 31.3386 71.8711C31.6081 72.2501 31.9367 72.4396 32.3241 72.4396C32.72 72.4396 33.0485 72.2501 33.3096 71.8711C33.5792 71.492 33.7139 70.734 33.7139 69.5968C33.7139 68.4513 33.5792 67.6932 33.3096 67.3226C33.0485 66.9435 32.7158 66.754 32.3115 66.754C31.924 66.754 31.6124 66.9183 31.3765 67.2468C31.0817 67.6679 30.9343 68.4513 30.9343 69.5968ZM35.8871 67.7395C35.8871 67.2425 36.0093 66.8214 36.2535 66.476C36.5062 66.1307 36.8684 65.958 37.3401 65.958C37.7781 65.958 38.1403 66.1138 38.4267 66.4255C38.7131 66.7372 38.8563 67.192 38.8563 67.79C38.8563 68.3797 38.7089 68.8345 38.4141 69.1546C38.1277 69.4663 37.7739 69.6221 37.3528 69.6221C36.9316 69.6221 36.582 69.4663 36.3041 69.1546C36.0261 68.8429 35.8871 68.3712 35.8871 67.7395ZM37.3654 66.5392C37.1548 66.5392 36.9779 66.6319 36.8347 66.8172C36.7 67.0025 36.6326 67.3394 36.6326 67.828C36.6326 68.2744 36.7 68.5903 36.8347 68.7756C36.9779 68.9524 37.1548 69.0409 37.3654 69.0409C37.5844 69.0409 37.7613 68.9482 37.8961 68.7629C38.0392 68.5776 38.1108 68.2449 38.1108 67.7648C38.1108 67.3099 38.0392 66.9941 37.8961 66.8172C37.7529 66.6319 37.576 66.5392 37.3654 66.5392ZM37.3654 73.2735L41.1685 65.958H41.8634L38.0729 73.2735H37.3654ZM40.3725 71.391C40.3725 70.894 40.4946 70.4728 40.7389 70.1275C40.9916 69.7821 41.358 69.6095 41.8381 69.6095C42.2761 69.6095 42.6383 69.7653 42.9247 70.0769C43.2111 70.3802 43.3543 70.835 43.3543 71.4415C43.3543 72.0311 43.2069 72.486 42.9121 72.8061C42.6257 73.1177 42.2677 73.2735 41.8381 73.2735C41.4254 73.2735 41.0758 73.1177 40.7894 72.8061C40.5115 72.4944 40.3725 72.0227 40.3725 71.391ZM41.8634 70.1907C41.6444 70.1907 41.4633 70.2833 41.3201 70.4686C41.1853 70.6539 41.1179 70.9909 41.1179 71.4794C41.1179 71.9174 41.1895 72.2291 41.3327 72.4144C41.4759 72.5997 41.6528 72.6923 41.8634 72.6923C42.074 72.6923 42.2508 72.5997 42.394 72.4144C42.5372 72.2291 42.6088 71.8921 42.6088 71.4036C42.6088 70.9572 42.5372 70.6455 42.394 70.4686C42.2508 70.2833 42.074 70.1907 41.8634 70.1907Z" fill="#9E9E9E"/>
<path d="M15.9126 62.9165H103.648H150.01" stroke="#757575" stroke-width="0.570794" stroke-miterlimit="10"/>
<path d="M151.629 62.9141C151.629 62.0209 150.905 61.2969 150.012 61.2969C149.119 61.2969 148.395 62.0209 148.395 62.9141C148.395 63.8073 149.119 64.5314 150.012 64.5314C150.905 64.5314 151.629 63.8073 151.629 62.9141Z" fill="#9E9E9E"/>
<path d="M20.8012 241.741V242.562H16.2021C16.2021 242.36 16.2358 242.162 16.3032 241.968C16.4212 241.656 16.6065 241.349 16.8592 241.046C17.1203 240.742 17.4951 240.393 17.9837 239.997C18.7417 239.374 19.2513 238.881 19.5125 238.519C19.782 238.157 19.9168 237.815 19.9168 237.495C19.9168 237.158 19.7946 236.876 19.5504 236.649C19.3061 236.413 18.9902 236.295 18.6028 236.295C18.19 236.295 17.8615 236.417 17.6172 236.661C17.373 236.906 17.2466 237.247 17.2382 237.685L16.3664 237.596C16.4254 236.939 16.6486 236.442 17.036 236.105C17.4319 235.76 17.9626 235.587 18.628 235.587C19.2935 235.587 19.8199 235.773 20.2074 236.143C20.5948 236.514 20.7886 236.973 20.7886 237.521C20.7886 237.799 20.7296 238.072 20.6117 238.342C20.5022 238.603 20.3127 238.885 20.0431 239.188C19.782 239.483 19.3482 239.888 18.7417 240.401C18.2279 240.831 17.8952 241.126 17.7436 241.286C17.6004 241.437 17.4825 241.589 17.3898 241.741H20.8012ZM21.9762 239.138C21.9762 238.312 22.0605 237.651 22.2289 237.154C22.3974 236.649 22.6459 236.261 22.9744 235.992C23.3113 235.722 23.7325 235.587 24.2379 235.587C24.6085 235.587 24.9328 235.663 25.2107 235.815C25.4971 235.967 25.733 236.186 25.9183 236.472C26.1036 236.75 26.2468 237.091 26.3479 237.495C26.4489 237.9 26.4995 238.447 26.4995 239.138C26.4995 239.955 26.4153 240.612 26.2468 241.109C26.0868 241.606 25.8383 241.993 25.5013 242.271C25.1728 242.541 24.7517 242.676 24.2379 242.676C23.5724 242.676 23.046 242.436 22.6585 241.955C22.2037 241.383 21.9762 240.443 21.9762 239.138ZM22.848 239.138C22.848 240.275 22.9828 241.033 23.2524 241.412C23.5219 241.791 23.8504 241.981 24.2379 241.981C24.6338 241.981 24.9623 241.791 25.2234 241.412C25.4929 241.033 25.6277 240.275 25.6277 239.138C25.6277 237.992 25.4929 237.234 25.2234 236.864C24.9623 236.485 24.6295 236.295 24.2252 236.295C23.8378 236.295 23.5261 236.459 23.2903 236.788C22.9954 237.209 22.848 237.992 22.848 239.138ZM28.0915 242.562V241.589H29.0643V242.562C29.0643 242.916 29.0012 243.202 28.8748 243.421C28.7485 243.648 28.5505 243.821 28.281 243.939L28.0409 243.573C28.2178 243.497 28.3484 243.379 28.4326 243.219C28.5168 243.067 28.5674 242.848 28.5842 242.562H28.0915ZM30.0625 239.138C30.0625 238.312 30.1467 237.651 30.3152 237.154C30.4837 236.649 30.7321 236.261 31.0606 235.992C31.3976 235.722 31.8187 235.587 32.3241 235.587C32.6947 235.587 33.019 235.663 33.297 235.815C33.5834 235.967 33.8192 236.186 34.0045 236.472C34.1899 236.75 34.333 237.091 34.4341 237.495C34.5352 237.9 34.5857 238.447 34.5857 239.138C34.5857 239.955 34.5015 240.612 34.333 241.109C34.173 241.606 33.9245 241.993 33.5876 242.271C33.2591 242.541 32.8379 242.676 32.3241 242.676C31.6587 242.676 31.1322 242.436 30.7448 241.955C30.2899 241.383 30.0625 240.443 30.0625 239.138ZM30.9343 239.138C30.9343 240.275 31.0691 241.033 31.3386 241.412C31.6081 241.791 31.9367 241.981 32.3241 241.981C32.72 241.981 33.0485 241.791 33.3096 241.412C33.5792 241.033 33.7139 240.275 33.7139 239.138C33.7139 237.992 33.5792 237.234 33.3096 236.864C33.0485 236.485 32.7158 236.295 32.3115 236.295C31.924 236.295 31.6124 236.459 31.3765 236.788C31.0817 237.209 30.9343 237.992 30.9343 239.138ZM35.8871 237.281C35.8871 236.784 36.0093 236.362 36.2535 236.017C36.5062 235.672 36.8684 235.499 37.3401 235.499C37.7781 235.499 38.1403 235.655 38.4267 235.967C38.7131 236.278 38.8563 236.733 38.8563 237.331C38.8563 237.921 38.7089 238.376 38.4141 238.696C38.1277 239.007 37.7739 239.163 37.3528 239.163C36.9316 239.163 36.582 239.007 36.3041 238.696C36.0261 238.384 35.8871 237.912 35.8871 237.281ZM37.3654 236.08C37.1548 236.08 36.9779 236.173 36.8347 236.358C36.7 236.543 36.6326 236.88 36.6326 237.369C36.6326 237.815 36.7 238.131 36.8347 238.317C36.9779 238.493 37.1548 238.582 37.3654 238.582C37.5844 238.582 37.7613 238.489 37.8961 238.304C38.0392 238.119 38.1108 237.786 38.1108 237.306C38.1108 236.851 38.0392 236.535 37.8961 236.358C37.7529 236.173 37.576 236.08 37.3654 236.08ZM37.3654 242.815L41.1685 235.499H41.8634L38.0729 242.815H37.3654ZM40.3725 240.932C40.3725 240.435 40.4946 240.014 40.7389 239.668C40.9916 239.323 41.358 239.15 41.8381 239.15C42.2761 239.15 42.6383 239.306 42.9247 239.618C43.2111 239.921 43.3543 240.376 43.3543 240.983C43.3543 241.572 43.2069 242.027 42.9121 242.347C42.6257 242.659 42.2677 242.815 41.8381 242.815C41.4254 242.815 41.0758 242.659 40.7894 242.347C40.5115 242.035 40.3725 241.564 40.3725 240.932ZM41.8634 239.732C41.6444 239.732 41.4633 239.824 41.3201 240.01C41.1853 240.195 41.1179 240.532 41.1179 241.02C41.1179 241.458 41.1895 241.77 41.3327 241.955C41.4759 242.141 41.6528 242.233 41.8634 242.233C42.074 242.233 42.2508 242.141 42.394 241.955C42.5372 241.77 42.6088 241.433 42.6088 240.945C42.6088 240.498 42.5372 240.187 42.394 240.01C42.2508 239.824 42.074 239.732 41.8634 239.732Z" fill="#9E9E9E"/>
<path d="M15.9126 232.458H103.648H144.682" stroke="#757575" stroke-width="0.570794" stroke-miterlimit="10"/>
<path d="M146.3 232.455C146.3 231.562 145.576 230.838 144.683 230.838C143.789 230.838 143.065 231.562 143.065 232.455C143.065 233.348 143.789 234.072 144.683 234.072C145.576 234.072 146.3 233.348 146.3 232.455Z" fill="#9E9E9E"/>
<path d="M447.674 72.1996V73.0208H443.075C443.075 72.8187 443.108 72.6207 443.176 72.427C443.294 72.1154 443.479 71.8079 443.732 71.5047C443.993 71.2014 444.368 70.8519 444.856 70.456C445.614 69.8327 446.124 69.3399 446.385 68.9777C446.655 68.6155 446.789 68.2744 446.789 67.9543C446.789 67.6174 446.667 67.3352 446.423 67.1078C446.179 66.8719 445.863 66.754 445.475 66.754C445.063 66.754 444.734 66.8761 444.49 67.1204C444.246 67.3647 444.119 67.7058 444.111 68.1438L443.239 68.0554C443.298 67.3984 443.521 66.9014 443.909 66.5645C444.304 66.2191 444.835 66.0465 445.501 66.0465C446.166 66.0465 446.692 66.2318 447.08 66.6024C447.467 66.973 447.661 67.4321 447.661 67.9796C447.661 68.2575 447.602 68.5313 447.484 68.8008C447.375 69.0619 447.185 69.3441 446.916 69.6474C446.655 69.9422 446.221 70.3465 445.614 70.8603C445.1 71.2899 444.768 71.5847 444.616 71.7447C444.473 71.8964 444.355 72.048 444.262 72.1996H447.674ZM453.271 67.7774L452.424 67.8406C452.349 67.5037 452.243 67.2594 452.109 67.1078C451.873 66.8635 451.586 66.7414 451.249 66.7414C450.98 66.7414 450.74 66.8172 450.529 66.9688C450.268 67.1709 450.058 67.4615 449.897 67.8406C449.746 68.2112 449.666 68.7419 449.657 69.4326C449.86 69.1209 450.108 68.8893 450.403 68.7377C450.706 68.586 451.022 68.5102 451.35 68.5102C451.915 68.5102 452.395 68.7208 452.791 69.142C453.195 69.5631 453.397 70.1022 453.397 70.7592C453.397 71.1972 453.3 71.6058 453.107 71.9848C452.921 72.3554 452.665 72.6418 452.336 72.844C452.008 73.0377 451.637 73.1346 451.224 73.1346C450.508 73.1346 449.927 72.8734 449.481 72.3512C449.034 71.829 448.811 70.9698 448.811 69.7737C448.811 68.426 449.059 67.4489 449.556 66.8424C449.986 66.3118 450.567 66.0465 451.3 66.0465C451.847 66.0465 452.294 66.2023 452.639 66.5139C452.993 66.8172 453.204 67.2383 453.271 67.7774ZM449.796 70.7719C449.796 71.0667 449.855 71.3488 449.973 71.6184C450.1 71.8795 450.272 72.0817 450.491 72.2249C450.719 72.368 450.959 72.4396 451.212 72.4396C451.565 72.4396 451.873 72.2965 452.134 72.0101C452.395 71.7153 452.526 71.3194 452.526 70.8224C452.526 70.3423 452.395 69.9632 452.134 69.6853C451.881 69.4073 451.561 69.2683 451.174 69.2683C450.786 69.2683 450.458 69.4073 450.188 69.6853C449.927 69.9632 449.796 70.3254 449.796 70.7719ZM454.964 73.0208V72.048H455.937V73.0208C455.937 73.3746 455.874 73.661 455.747 73.88C455.621 74.1074 455.423 74.2801 455.154 74.398L454.913 74.0316C455.09 73.9558 455.221 73.8379 455.305 73.6779C455.389 73.5262 455.44 73.3072 455.457 73.0208H454.964ZM456.935 69.5968C456.935 68.7714 457.019 68.1101 457.188 67.6132C457.356 67.1078 457.605 66.7203 457.933 66.4508C458.27 66.1812 458.691 66.0465 459.197 66.0465C459.567 66.0465 459.892 66.1223 460.17 66.2739C460.456 66.4255 460.692 66.6445 460.877 66.9309C461.062 67.2089 461.206 67.55 461.307 67.9543C461.408 68.3586 461.458 68.9061 461.458 69.5968C461.458 70.4139 461.374 71.0709 461.206 71.5678C461.046 72.0648 460.797 72.4523 460.46 72.7302C460.132 72.9998 459.71 73.1346 459.197 73.1346C458.531 73.1346 458.005 72.8945 457.617 72.4144C457.162 71.8416 456.935 70.9024 456.935 69.5968ZM457.807 69.5968C457.807 70.734 457.942 71.492 458.211 71.8711C458.481 72.2501 458.809 72.4396 459.197 72.4396C459.593 72.4396 459.921 72.2501 460.182 71.8711C460.452 71.492 460.587 70.734 460.587 69.5968C460.587 68.4513 460.452 67.6932 460.182 67.3226C459.921 66.9435 459.588 66.754 459.184 66.754C458.797 66.754 458.485 66.9183 458.249 67.2468C457.954 67.6679 457.807 68.4513 457.807 69.5968ZM462.76 67.7395C462.76 67.2425 462.882 66.8214 463.126 66.476C463.379 66.1307 463.741 65.958 464.213 65.958C464.651 65.958 465.013 66.1138 465.299 66.4255C465.586 66.7372 465.729 67.192 465.729 67.79C465.729 68.3797 465.581 68.8345 465.287 69.1546C465 69.4663 464.646 69.6221 464.225 69.6221C463.804 69.6221 463.455 69.4663 463.177 69.1546C462.899 68.8429 462.76 68.3712 462.76 67.7395ZM464.238 66.5392C464.027 66.5392 463.85 66.6319 463.707 66.8172C463.573 67.0025 463.505 67.3394 463.505 67.828C463.505 68.2744 463.573 68.5903 463.707 68.7756C463.85 68.9524 464.027 69.0409 464.238 69.0409C464.457 69.0409 464.634 68.9482 464.769 68.7629C464.912 68.5776 464.983 68.2449 464.983 67.7648C464.983 67.3099 464.912 66.9941 464.769 66.8172C464.625 66.6319 464.449 66.5392 464.238 66.5392ZM464.238 73.2735L468.041 65.958H468.736L464.946 73.2735H464.238ZM467.245 71.391C467.245 70.894 467.367 70.4728 467.611 70.1275C467.864 69.7821 468.231 69.6095 468.711 69.6095C469.149 69.6095 469.511 69.7653 469.797 70.0769C470.084 70.3802 470.227 70.835 470.227 71.4415C470.227 72.0311 470.079 72.486 469.785 72.8061C469.498 73.1177 469.14 73.2735 468.711 73.2735C468.298 73.2735 467.948 73.1177 467.662 72.8061C467.384 72.4944 467.245 72.0227 467.245 71.391ZM468.736 70.1907C468.517 70.1907 468.336 70.2833 468.193 70.4686C468.058 70.6539 467.99 70.9909 467.99 71.4794C467.99 71.9174 468.062 72.2291 468.205 72.4144C468.348 72.5997 468.525 72.6923 468.736 72.6923C468.947 72.6923 469.123 72.5997 469.267 72.4144C469.41 72.2291 469.481 71.8921 469.481 71.4036C469.481 70.9572 469.41 70.6455 469.267 70.4686C469.123 70.2833 468.947 70.1907 468.736 70.1907Z" fill="#9E9E9E"/>
<path d="M471.086 62.9165H383.35H336.988" stroke="#757575" stroke-width="0.570794" stroke-miterlimit="10"/>
<path d="M338.609 62.9141C338.609 62.0209 337.885 61.2969 336.992 61.2969C336.099 61.2969 335.375 62.0209 335.375 62.9141C335.375 63.8073 336.099 64.5314 336.992 64.5314C337.885 64.5314 338.609 63.8073 338.609 62.9141Z" fill="#9E9E9E"/>
<path d="M447.674 263.754V264.576H443.075C443.075 264.373 443.108 264.175 443.176 263.982C443.294 263.67 443.479 263.363 443.732 263.059C443.993 262.756 444.368 262.407 444.856 262.011C445.614 261.387 446.124 260.895 446.385 260.532C446.655 260.17 446.789 259.829 446.789 259.509C446.789 259.172 446.667 258.89 446.423 258.662C446.179 258.427 445.863 258.309 445.475 258.309C445.063 258.309 444.734 258.431 444.49 258.675C444.246 258.919 444.119 259.261 444.111 259.699L443.239 259.61C443.298 258.953 443.521 258.456 443.909 258.119C444.304 257.774 444.835 257.601 445.501 257.601C446.166 257.601 446.692 257.786 447.08 258.157C447.467 258.528 447.661 258.987 447.661 259.534C447.661 259.812 447.602 260.086 447.484 260.356C447.375 260.617 447.185 260.899 446.916 261.202C446.655 261.497 446.221 261.901 445.614 262.415C445.1 262.845 444.768 263.139 444.616 263.299C444.473 263.451 444.355 263.603 444.262 263.754H447.674ZM450.163 260.81C449.809 260.676 449.544 260.49 449.367 260.254C449.198 260.01 449.114 259.724 449.114 259.395C449.114 258.89 449.295 258.465 449.657 258.119C450.028 257.774 450.512 257.601 451.11 257.601C451.717 257.601 452.205 257.778 452.576 258.132C452.947 258.486 453.132 258.915 453.132 259.421C453.132 259.741 453.048 260.019 452.879 260.254C452.711 260.49 452.454 260.676 452.109 260.81C452.538 260.945 452.862 261.168 453.081 261.48C453.3 261.792 453.41 262.162 453.41 262.592C453.41 263.181 453.199 263.678 452.778 264.083C452.365 264.487 451.814 264.689 451.123 264.689C450.441 264.689 449.889 264.487 449.468 264.083C449.047 263.678 448.836 263.173 448.836 262.567C448.836 262.112 448.95 261.733 449.177 261.429C449.413 261.126 449.742 260.92 450.163 260.81ZM449.986 259.357C449.986 259.686 450.091 259.955 450.302 260.166C450.521 260.377 450.799 260.482 451.136 260.482C451.464 260.482 451.734 260.381 451.944 260.179C452.155 259.968 452.26 259.711 452.26 259.408C452.26 259.096 452.151 258.835 451.932 258.625C451.713 258.406 451.443 258.296 451.123 258.296C450.795 258.296 450.521 258.401 450.302 258.612C450.091 258.823 449.986 259.071 449.986 259.357ZM449.721 262.567C449.721 262.811 449.775 263.047 449.885 263.274C450.003 263.502 450.175 263.678 450.403 263.805C450.63 263.931 450.875 263.994 451.136 263.994C451.54 263.994 451.873 263.864 452.134 263.603C452.403 263.342 452.538 263.009 452.538 262.605C452.538 262.192 452.403 261.851 452.134 261.581C451.864 261.312 451.523 261.177 451.11 261.177C450.706 261.177 450.373 261.312 450.112 261.581C449.851 261.842 449.721 262.171 449.721 262.567ZM454.964 264.576V263.603H455.937V264.576C455.937 264.929 455.874 265.216 455.747 265.435C455.621 265.662 455.423 265.835 455.154 265.953L454.913 265.586C455.09 265.511 455.221 265.393 455.305 265.233C455.389 265.081 455.44 264.862 455.457 264.576H454.964ZM456.935 261.152C456.935 260.326 457.019 259.665 457.188 259.168C457.356 258.662 457.605 258.275 457.933 258.005C458.27 257.736 458.691 257.601 459.197 257.601C459.567 257.601 459.892 257.677 460.17 257.829C460.456 257.98 460.692 258.199 460.877 258.486C461.062 258.764 461.206 259.105 461.307 259.509C461.408 259.913 461.458 260.461 461.458 261.152C461.458 261.969 461.374 262.626 461.206 263.123C461.046 263.619 460.797 264.007 460.46 264.285C460.132 264.554 459.71 264.689 459.197 264.689C458.531 264.689 458.005 264.449 457.617 263.969C457.162 263.396 456.935 262.457 456.935 261.152ZM457.807 261.152C457.807 262.289 457.942 263.047 458.211 263.426C458.481 263.805 458.809 263.994 459.197 263.994C459.593 263.994 459.921 263.805 460.182 263.426C460.452 263.047 460.587 262.289 460.587 261.152C460.587 260.006 460.452 259.248 460.182 258.877C459.921 258.498 459.588 258.309 459.184 258.309C458.797 258.309 458.485 258.473 458.249 258.801C457.954 259.223 457.807 260.006 457.807 261.152ZM462.76 259.294C462.76 258.797 462.882 258.376 463.126 258.031C463.379 257.685 463.741 257.513 464.213 257.513C464.651 257.513 465.013 257.669 465.299 257.98C465.586 258.292 465.729 258.747 465.729 259.345C465.729 259.934 465.581 260.389 465.287 260.709C465 261.021 464.646 261.177 464.225 261.177C463.804 261.177 463.455 261.021 463.177 260.709C462.899 260.398 462.76 259.926 462.76 259.294ZM464.238 258.094C464.027 258.094 463.85 258.187 463.707 258.372C463.573 258.557 463.505 258.894 463.505 259.383C463.505 259.829 463.573 260.145 463.707 260.33C463.85 260.507 464.027 260.596 464.238 260.596C464.457 260.596 464.634 260.503 464.769 260.318C464.912 260.132 464.983 259.8 464.983 259.319C464.983 258.865 464.912 258.549 464.769 258.372C464.625 258.187 464.449 258.094 464.238 258.094ZM464.238 264.828L468.041 257.513H468.736L464.946 264.828H464.238ZM467.245 262.946C467.245 262.449 467.367 262.028 467.611 261.682C467.864 261.337 468.231 261.164 468.711 261.164C469.149 261.164 469.511 261.32 469.797 261.632C470.084 261.935 470.227 262.39 470.227 262.996C470.227 263.586 470.079 264.041 469.785 264.361C469.498 264.672 469.14 264.828 468.711 264.828C468.298 264.828 467.948 264.672 467.662 264.361C467.384 264.049 467.245 263.577 467.245 262.946ZM468.736 261.745C468.517 261.745 468.336 261.838 468.193 262.023C468.058 262.209 467.99 262.546 467.99 263.034C467.99 263.472 468.062 263.784 468.205 263.969C468.348 264.154 468.525 264.247 468.736 264.247C468.947 264.247 469.123 264.154 469.267 263.969C469.41 263.784 469.481 263.447 469.481 262.958C469.481 262.512 469.41 262.2 469.267 262.023C469.123 261.838 468.947 261.745 468.736 261.745Z" fill="#9E9E9E"/>
<path d="M471.089 254.463H383.354H318.885" stroke="#757575" stroke-width="0.570794" stroke-miterlimit="10"/>
<path d="M320.502 254.465C320.502 253.572 319.778 252.848 318.885 252.848C317.992 252.848 317.268 253.572 317.268 254.465C317.268 255.358 317.992 256.082 318.885 256.082C319.778 256.082 320.502 255.358 320.502 254.465Z" fill="#9E9E9E"/>
</svg>
