<svg width="590" height="301" viewBox="0 0 590 301" fill="none" xmlns="http://www.w3.org/2000/svg">
<path d="M320.096 15.1938C386.501 15.1938 443.046 63.4872 453.434 129.075C463.822 194.663 424.968 258.066 361.813 278.586L320.096 150.194V15.1938Z" fill="#193E3E"/>
<path d="M303.175 16.2584C308.787 15.5494 314.438 15.1938 320.095 15.1938V150.194L303.175 16.2584Z" fill="#FF6D01"/>
<path d="M240.742 40.9736C259.139 27.6077 280.613 19.1054 303.173 16.2554L320.093 150.191L240.742 40.9736Z" fill="#F9F1E6"/>
<path d="M186.158 133.271C190.83 96.2887 210.585 62.884 240.742 40.9736L320.093 150.191L186.158 133.271Z" fill="#78C1B2"/>
<path d="M361.813 278.581C317.859 292.863 269.654 283.667 234.044 254.208C198.434 224.749 180.368 179.12 186.161 133.269L320.096 150.189L361.813 278.581Z" fill="#3A8071"/>
<path d="M97.3964 37.014V37.8353H92.7974C92.7974 37.6331 92.8311 37.4352 92.8984 37.2415C93.0164 36.9298 93.2017 36.6224 93.4544 36.3191C93.7155 36.0159 94.0903 35.6663 94.5789 35.2704C95.337 34.6471 95.8466 34.1544 96.1077 33.7922C96.3772 33.43 96.512 33.0888 96.512 32.7688C96.512 32.4318 96.3899 32.1497 96.1456 31.9222C95.9013 31.6864 95.5854 31.5685 95.198 31.5685C94.7852 31.5685 94.4567 31.6906 94.2125 31.9349C93.9682 32.1791 93.8418 32.5203 93.8334 32.9583L92.9616 32.8698C93.0206 32.2128 93.2438 31.7159 93.6313 31.3789C94.0271 31.0336 94.5578 30.8609 95.2232 30.8609C95.8887 30.8609 96.4151 31.0462 96.8026 31.4168C97.1901 31.7875 97.3838 32.2465 97.3838 32.794C97.3838 33.072 97.3248 33.3457 97.2069 33.6153C97.0974 33.8764 96.9079 34.1586 96.6383 34.4618C96.3772 34.7566 95.9434 35.1609 95.337 35.6748C94.8231 36.1043 94.4904 36.3991 94.3388 36.5592C94.1956 36.7108 94.0777 36.8624 93.985 37.014H97.3964ZM99.0263 37.8353V36.8624H99.9992V37.8353C99.9992 38.1891 99.936 38.4755 99.8097 38.6945C99.6833 38.9219 99.4854 39.0946 99.2158 39.2125L98.9758 38.8461C99.1527 38.7703 99.2832 38.6523 99.3674 38.4923C99.4517 38.3407 99.5022 38.1217 99.5191 37.8353H99.0263ZM100.997 34.4113C100.997 33.5858 101.082 32.9246 101.25 32.4276C101.418 31.9222 101.667 31.5348 101.995 31.2652C102.332 30.9957 102.754 30.8609 103.259 30.8609C103.63 30.8609 103.954 30.9367 104.232 31.0883C104.518 31.2399 104.754 31.459 104.939 31.7453C105.125 32.0233 105.268 32.3644 105.369 32.7688C105.47 33.1731 105.521 33.7206 105.521 34.4113C105.521 35.2283 105.436 35.8853 105.268 36.3823C105.108 36.8793 104.859 37.2667 104.522 37.5447C104.194 37.8142 103.773 37.949 103.259 37.949C102.594 37.949 102.067 37.7089 101.68 37.2288C101.225 36.6561 100.997 35.7169 100.997 34.4113ZM101.869 34.4113C101.869 35.5484 102.004 36.3065 102.273 36.6855C102.543 37.0646 102.871 37.2541 103.259 37.2541C103.655 37.2541 103.983 37.0646 104.244 36.6855C104.514 36.3065 104.649 35.5484 104.649 34.4113C104.649 33.2657 104.514 32.5076 104.244 32.137C103.983 31.758 103.651 31.5685 103.246 31.5685C102.859 31.5685 102.547 31.7327 102.311 32.0612C102.017 32.4824 101.869 33.2657 101.869 34.4113ZM106.822 32.554C106.822 32.057 106.944 31.6358 107.188 31.2905C107.441 30.9451 107.803 30.7725 108.275 30.7725C108.713 30.7725 109.075 30.9283 109.362 31.2399C109.648 31.5516 109.791 32.0065 109.791 32.6045C109.791 33.1941 109.644 33.649 109.349 33.9691C109.063 34.2807 108.709 34.4365 108.288 34.4365C107.866 34.4365 107.517 34.2807 107.239 33.9691C106.961 33.6574 106.822 33.1857 106.822 32.554ZM108.3 31.3537C108.09 31.3537 107.913 31.4463 107.77 31.6316C107.635 31.8169 107.567 32.1539 107.567 32.6424C107.567 33.0888 107.635 33.4047 107.77 33.59C107.913 33.7669 108.09 33.8553 108.3 33.8553C108.519 33.8553 108.696 33.7627 108.831 33.5774C108.974 33.3921 109.046 33.0594 109.046 32.5792C109.046 32.1244 108.974 31.8085 108.831 31.6316C108.688 31.4463 108.511 31.3537 108.3 31.3537ZM108.3 38.088L112.103 30.7725H112.798L109.008 38.088H108.3ZM111.307 36.2054C111.307 35.7084 111.429 35.2873 111.674 34.9419C111.926 34.5966 112.293 34.4239 112.773 34.4239C113.211 34.4239 113.573 34.5797 113.86 34.8914C114.146 35.1946 114.289 35.6495 114.289 36.256C114.289 36.8456 114.142 37.3004 113.847 37.6205C113.561 37.9322 113.203 38.088 112.773 38.088C112.36 38.088 112.011 37.9322 111.724 37.6205C111.446 37.3088 111.307 36.8372 111.307 36.2054ZM112.798 35.0051C112.579 35.0051 112.398 35.0978 112.255 35.2831C112.12 35.4684 112.053 35.8053 112.053 36.2939C112.053 36.7319 112.124 37.0435 112.268 37.2288C112.411 37.4141 112.588 37.5068 112.798 37.5068C113.009 37.5068 113.186 37.4141 113.329 37.2288C113.472 37.0435 113.544 36.7066 113.544 36.218C113.544 35.7716 113.472 35.46 113.329 35.2831C113.186 35.0978 113.009 35.0051 112.798 35.0051Z" fill="#9E9E9E"/>
<path d="M92.5068 27.723H180.243L312.042 22.1924" stroke="#757575" stroke-width="0.570795" stroke-miterlimit="10"/>
<path d="M313.659 22.1924C313.659 21.2993 312.935 20.5752 312.042 20.5752C311.148 20.5752 310.424 21.2993 310.424 22.1924C310.424 23.0856 311.148 23.8097 312.042 23.8097C312.935 23.8097 313.659 23.0856 313.659 22.1924Z" fill="#9E9E9E"/>
<path d="M94.2246 59.1321C93.8708 58.9974 93.6055 58.8121 93.4286 58.5762C93.2601 58.3319 93.1759 58.0456 93.1759 57.7171C93.1759 57.2117 93.357 56.7863 93.7192 56.4409C94.0898 56.0956 94.5742 55.9229 95.1722 55.9229C95.7787 55.9229 96.2672 56.0998 96.6378 56.4536C97.0085 56.8073 97.1938 57.2369 97.1938 57.7423C97.1938 58.0624 97.1095 58.3404 96.9411 58.5762C96.7726 58.8121 96.5157 58.9974 96.1704 59.1321C96.5999 59.2669 96.9242 59.4901 97.1432 59.8018C97.3622 60.1134 97.4717 60.4841 97.4717 60.9137C97.4717 61.5033 97.2612 62.0002 96.84 62.4046C96.4273 62.8089 95.8755 63.011 95.1848 63.011C94.5026 63.011 93.9508 62.8089 93.5297 62.4046C93.1085 62.0002 92.8979 61.4948 92.8979 60.8884C92.8979 60.4335 93.0117 60.0545 93.2391 59.7513C93.4749 59.448 93.8034 59.2417 94.2246 59.1321ZM94.0477 57.6791C94.0477 58.0077 94.153 58.2772 94.3636 58.4878C94.5826 58.6984 94.8606 58.8036 95.1975 58.8036C95.526 58.8036 95.7955 58.7026 96.0061 58.5004C96.2167 58.2898 96.322 58.0329 96.322 57.7297C96.322 57.418 96.2125 57.1569 95.9935 56.9463C95.7745 56.7273 95.5049 56.6178 95.1848 56.6178C94.8563 56.6178 94.5826 56.7231 94.3636 56.9337C94.153 57.1443 94.0477 57.3928 94.0477 57.6791ZM93.7824 60.8884C93.7824 61.1327 93.8371 61.3685 93.9466 61.5959C94.0646 61.8234 94.2372 62.0002 94.4647 62.1266C94.6921 62.2529 94.9364 62.3161 95.1975 62.3161C95.6018 62.3161 95.9345 62.1855 96.1956 61.9244C96.4652 61.6633 96.5999 61.3306 96.5999 60.9263C96.5999 60.5136 96.4652 60.1724 96.1956 59.9029C95.9261 59.6333 95.5849 59.4986 95.1722 59.4986C94.7679 59.4986 94.4352 59.6333 94.1741 59.9029C93.9129 60.164 93.7824 60.4925 93.7824 60.8884ZM99.0258 62.8973V61.9244H99.9987V62.8973C99.9987 63.2511 99.9355 63.5375 99.8092 63.7565C99.6828 63.9839 99.4849 64.1566 99.2153 64.2745L98.9753 63.9081C99.1522 63.8323 99.2827 63.7144 99.367 63.5543C99.4512 63.4027 99.5017 63.1837 99.5186 62.8973H99.0258ZM100.997 59.4733C100.997 58.6478 101.081 57.9866 101.25 57.4896C101.418 56.9842 101.666 56.5968 101.995 56.3272C102.332 56.0577 102.753 55.9229 103.258 55.9229C103.629 55.9229 103.953 55.9987 104.231 56.1503C104.518 56.302 104.754 56.521 104.939 56.8073C105.124 57.0853 105.267 57.4265 105.368 57.8308C105.47 58.2351 105.52 58.7826 105.52 59.4733C105.52 60.2903 105.436 60.9473 105.267 61.4443C105.107 61.9413 104.859 62.3287 104.522 62.6067C104.193 62.8763 103.772 63.011 103.258 63.011C102.593 63.011 102.067 62.771 101.679 62.2908C101.224 61.7181 100.997 60.7789 100.997 59.4733ZM101.869 59.4733C101.869 60.6104 102.003 61.3685 102.273 61.7475C102.542 62.1266 102.871 62.3161 103.258 62.3161C103.654 62.3161 103.983 62.1266 104.244 61.7475C104.514 61.3685 104.648 60.6104 104.648 59.4733C104.648 58.3277 104.514 57.5696 104.244 57.199C103.983 56.82 103.65 56.6305 103.246 56.6305C102.858 56.6305 102.547 56.7947 102.311 57.1232C102.016 57.5444 101.869 58.3277 101.869 59.4733ZM106.821 57.616C106.821 57.119 106.944 56.6979 107.188 56.3525C107.441 56.0072 107.803 55.8345 108.274 55.8345C108.712 55.8345 109.075 55.9903 109.361 56.302C109.647 56.6136 109.791 57.0685 109.791 57.6665C109.791 58.2561 109.643 58.711 109.348 59.0311C109.062 59.3427 108.708 59.4986 108.287 59.4986C107.866 59.4986 107.516 59.3427 107.238 59.0311C106.96 58.7194 106.821 58.2477 106.821 57.616ZM108.3 56.4157C108.089 56.4157 107.912 56.5083 107.769 56.6936C107.634 56.8789 107.567 57.2159 107.567 57.7044C107.567 58.1508 107.634 58.4667 107.769 58.652C107.912 58.8289 108.089 58.9174 108.3 58.9174C108.519 58.9174 108.696 58.8247 108.83 58.6394C108.974 58.4541 109.045 58.1214 109.045 57.6412C109.045 57.1864 108.974 56.8705 108.83 56.6936C108.687 56.5083 108.51 56.4157 108.3 56.4157ZM108.3 63.15L112.103 55.8345H112.798L109.007 63.15H108.3ZM111.307 61.2674C111.307 60.7705 111.429 60.3493 111.673 60.0039C111.926 59.6586 112.292 59.4859 112.772 59.4859C113.21 59.4859 113.573 59.6417 113.859 59.9534C114.145 60.2566 114.289 60.7115 114.289 61.318C114.289 61.9076 114.141 62.3624 113.846 62.6825C113.56 62.9942 113.202 63.15 112.772 63.15C112.36 63.15 112.01 62.9942 111.724 62.6825C111.446 62.3709 111.307 61.8992 111.307 61.2674ZM112.798 60.0671C112.579 60.0671 112.398 60.1598 112.254 60.3451C112.12 60.5304 112.052 60.8673 112.052 61.3559C112.052 61.7939 112.124 62.1055 112.267 62.2908C112.41 62.4762 112.587 62.5688 112.798 62.5688C113.008 62.5688 113.185 62.4762 113.328 62.2908C113.472 62.1055 113.543 61.7686 113.543 61.2801C113.543 60.8336 113.472 60.522 113.328 60.3451C113.185 60.1598 113.008 60.0671 112.798 60.0671Z" fill="#9E9E9E"/>
<path d="M92.5068 52.7912H180.243L272.883 30.9463" stroke="#757575" stroke-width="0.570795" stroke-miterlimit="10"/>
<path d="M274.501 30.9485C274.501 30.0554 273.777 29.3313 272.884 29.3313C271.991 29.3313 271.267 30.0554 271.267 30.9485C271.267 31.8417 271.991 32.5658 272.884 32.5658C273.777 32.5658 274.501 31.8417 274.501 30.9485Z" fill="#9E9E9E"/>
<path d="M96.1206 95.0133H95.2741V89.5803C95.0635 89.7741 94.7897 89.972 94.4528 90.1742C94.1243 90.3679 93.8295 90.5111 93.5684 90.6037V89.7825C94.0401 89.5551 94.4528 89.2855 94.8066 88.9739C95.1688 88.6538 95.4257 88.3421 95.5773 88.0389H96.1206V95.0133ZM98.5717 93.1812L99.4309 93.0675C99.5235 93.5476 99.6878 93.8972 99.9237 94.1162C100.159 94.3268 100.446 94.4321 100.783 94.4321C101.187 94.4321 101.528 94.2931 101.806 94.0151C102.084 93.7372 102.223 93.3918 102.223 92.9791C102.223 92.5916 102.093 92.2715 101.832 92.0188C101.579 91.7577 101.255 91.6272 100.859 91.6272C100.699 91.6272 100.496 91.6609 100.252 91.7282L100.353 90.9701C100.412 90.9786 100.459 90.9828 100.492 90.9828C100.854 90.9828 101.179 90.8901 101.465 90.7048C101.76 90.5111 101.907 90.2163 101.907 89.8204C101.907 89.5087 101.802 89.2518 101.591 89.0497C101.381 88.8391 101.107 88.7338 100.77 88.7338C100.442 88.7338 100.164 88.8391 99.9363 89.0497C99.7173 89.2602 99.5783 89.5719 99.5193 89.9846L98.6602 89.833C98.7613 89.2687 98.9971 88.8307 99.3677 88.519C99.7383 88.1989 100.197 88.0389 100.745 88.0389C101.124 88.0389 101.474 88.1231 101.794 88.2916C102.114 88.4516 102.358 88.6706 102.526 88.9486C102.695 89.2266 102.779 89.5256 102.779 89.8457C102.779 90.1405 102.699 90.4142 102.539 90.6669C102.379 90.9112 102.143 91.1049 101.832 91.2481C102.236 91.3408 102.552 91.5387 102.779 91.8419C103.007 92.1368 103.12 92.5116 103.12 92.9664C103.12 93.5729 102.897 94.0867 102.451 94.5079C102.013 94.929 101.457 95.1396 100.783 95.1396C100.176 95.1396 99.671 94.9585 99.2666 94.5963C98.8623 94.2257 98.6307 93.754 98.5717 93.1812ZM104.687 95.0133V94.0404H105.66V95.0133C105.66 95.367 105.597 95.6534 105.47 95.8724C105.344 96.0999 105.146 96.2725 104.876 96.3905L104.636 96.0241C104.813 95.9482 104.944 95.8303 105.028 95.6703C105.112 95.5187 105.163 95.2997 105.18 95.0133H104.687ZM106.658 91.5893C106.658 90.7638 106.742 90.1026 106.911 89.6056C107.079 89.1002 107.328 88.7127 107.656 88.4432C107.993 88.1737 108.414 88.0389 108.92 88.0389C109.29 88.0389 109.615 88.1147 109.892 88.2663C110.179 88.4179 110.415 88.6369 110.6 88.9233C110.785 89.2013 110.929 89.5424 111.03 89.9467C111.131 90.351 111.181 90.8986 111.181 91.5893C111.181 92.4063 111.097 93.0633 110.929 93.5603C110.768 94.0572 110.52 94.4447 110.183 94.7227C109.855 94.9922 109.433 95.127 108.92 95.127C108.254 95.127 107.728 94.8869 107.34 94.4068C106.885 93.834 106.658 92.8948 106.658 91.5893ZM107.53 91.5893C107.53 92.7264 107.665 93.4845 107.934 93.8635C108.204 94.2426 108.532 94.4321 108.92 94.4321C109.315 94.4321 109.644 94.2426 109.905 93.8635C110.175 93.4845 110.309 92.7264 110.309 91.5893C110.309 90.4437 110.175 89.6856 109.905 89.315C109.644 88.936 109.311 88.7464 108.907 88.7464C108.52 88.7464 108.208 88.9107 107.972 89.2392C107.677 89.6603 107.53 90.4437 107.53 91.5893ZM112.483 89.7319C112.483 89.235 112.605 88.8138 112.849 88.4685C113.102 88.1231 113.464 87.9504 113.936 87.9504C114.374 87.9504 114.736 88.1063 115.022 88.4179C115.309 88.7296 115.452 89.1844 115.452 89.7825C115.452 90.3721 115.304 90.827 115.01 91.147C114.723 91.4587 114.369 91.6145 113.948 91.6145C113.527 91.6145 113.178 91.4587 112.9 91.147C112.622 90.8354 112.483 90.3637 112.483 89.7319ZM113.961 88.5316C113.75 88.5316 113.573 88.6243 113.43 88.8096C113.295 88.9949 113.228 89.3318 113.228 89.8204C113.228 90.2668 113.295 90.5827 113.43 90.768C113.573 90.9449 113.75 91.0333 113.961 91.0333C114.18 91.0333 114.357 90.9407 114.492 90.7554C114.635 90.57 114.706 90.2373 114.706 89.7572C114.706 89.3024 114.635 88.9865 114.492 88.8096C114.348 88.6243 114.171 88.5316 113.961 88.5316ZM113.961 95.266L117.764 87.9504H118.459L114.668 95.266H113.961ZM116.968 93.3834C116.968 92.8864 117.09 92.4653 117.334 92.1199C117.587 91.7746 117.953 91.6019 118.434 91.6019C118.872 91.6019 119.234 91.7577 119.52 92.0694C119.807 92.3726 119.95 92.8275 119.95 93.4339C119.95 94.0236 119.802 94.4784 119.508 94.7985C119.221 95.1101 118.863 95.266 118.434 95.266C118.021 95.266 117.671 95.1101 117.385 94.7985C117.107 94.4868 116.968 94.0151 116.968 93.3834ZM118.459 92.1831C118.24 92.1831 118.059 92.2757 117.916 92.4611C117.781 92.6464 117.713 92.9833 117.713 93.4718C117.713 93.9098 117.785 94.2215 117.928 94.4068C118.071 94.5921 118.248 94.6848 118.459 94.6848C118.669 94.6848 118.846 94.5921 118.99 94.4068C119.133 94.2215 119.204 93.8846 119.204 93.396C119.204 92.9496 119.133 92.6379 118.99 92.4611C118.846 92.2757 118.669 92.1831 118.459 92.1831Z" fill="#9E9E9E"/>
<path d="M92.5068 84.9058H180.243H209.704" stroke="#757575" stroke-width="0.570795" stroke-miterlimit="10"/>
<path d="M211.321 84.908C211.321 84.0148 210.597 83.2908 209.704 83.2908C208.811 83.2908 208.086 84.0148 208.086 84.908C208.086 85.8012 208.811 86.5253 209.704 86.5253C210.597 86.5253 211.321 85.8012 211.321 84.908Z" fill="#9E9E9E"/>
<path d="M92.9102 257.288L93.7693 257.174C93.862 257.654 94.0262 258.004 94.2621 258.223C94.4979 258.433 94.7843 258.539 95.1212 258.539C95.5256 258.539 95.8667 258.4 96.1447 258.122C96.4226 257.844 96.5616 257.498 96.5616 257.086C96.5616 256.698 96.431 256.378 96.1699 256.125C95.9172 255.864 95.5929 255.734 95.1971 255.734C95.037 255.734 94.8349 255.767 94.5906 255.835L94.6917 255.077C94.7506 255.085 94.7969 255.089 94.8306 255.089C95.1928 255.089 95.5171 254.997 95.8035 254.811C96.0983 254.618 96.2457 254.323 96.2457 253.927C96.2457 253.615 96.1404 253.358 95.9299 253.156C95.7193 252.946 95.4455 252.84 95.1086 252.84C94.7801 252.84 94.5021 252.946 94.2747 253.156C94.0557 253.367 93.9167 253.678 93.8578 254.091L92.9986 253.939C93.0997 253.375 93.3355 252.937 93.7061 252.625C94.0768 252.305 94.5358 252.145 95.0833 252.145C95.4624 252.145 95.8119 252.23 96.132 252.398C96.4521 252.558 96.6964 252.777 96.8648 253.055C97.0333 253.333 97.1175 253.632 97.1175 253.952C97.1175 254.247 97.0375 254.521 96.8775 254.773C96.7174 255.018 96.4816 255.211 96.1699 255.355C96.5742 255.447 96.8901 255.645 97.1175 255.948C97.345 256.243 97.4587 256.618 97.4587 257.073C97.4587 257.679 97.2355 258.193 96.789 258.614C96.351 259.035 95.7951 259.246 95.1212 259.246C94.5148 259.246 94.0094 259.065 93.6051 258.703C93.2008 258.332 92.9691 257.86 92.9102 257.288ZM103.056 258.298V259.12H98.4568C98.4568 258.918 98.4905 258.72 98.5579 258.526C98.6758 258.214 98.8611 257.907 99.1138 257.604C99.3749 257.3 99.7498 256.951 100.238 256.555C100.996 255.932 101.506 255.439 101.767 255.077C102.037 254.714 102.171 254.373 102.171 254.053C102.171 253.716 102.049 253.434 101.805 253.207C101.561 252.971 101.245 252.853 100.857 252.853C100.445 252.853 100.116 252.975 99.8719 253.219C99.6276 253.464 99.5013 253.805 99.4929 254.243L98.6211 254.154C98.68 253.497 98.9033 253 99.2907 252.663C99.6866 252.318 100.217 252.145 100.883 252.145C101.548 252.145 102.075 252.331 102.462 252.701C102.85 253.072 103.043 253.531 103.043 254.078C103.043 254.356 102.984 254.63 102.866 254.9C102.757 255.161 102.567 255.443 102.298 255.746C102.037 256.041 101.603 256.445 100.996 256.959C100.483 257.389 100.15 257.684 99.9983 257.844C99.8551 257.995 99.7371 258.147 99.6445 258.298H103.056ZM104.686 259.12V258.147H105.659V259.12C105.659 259.473 105.595 259.76 105.469 259.979C105.343 260.206 105.145 260.379 104.875 260.497L104.635 260.131C104.812 260.055 104.943 259.937 105.027 259.777C105.111 259.625 105.162 259.406 105.179 259.12H104.686ZM106.657 255.696C106.657 254.87 106.741 254.209 106.909 253.712C107.078 253.207 107.326 252.819 107.655 252.55C107.992 252.28 108.413 252.145 108.918 252.145C109.289 252.145 109.613 252.221 109.891 252.373C110.178 252.524 110.414 252.743 110.599 253.03C110.784 253.308 110.927 253.649 111.028 254.053C111.129 254.457 111.18 255.005 111.18 255.696C111.18 256.513 111.096 257.17 110.927 257.667C110.767 258.164 110.519 258.551 110.182 258.829C109.853 259.099 109.432 259.233 108.918 259.233C108.253 259.233 107.727 258.993 107.339 258.513C106.884 257.94 106.657 257.001 106.657 255.696ZM107.529 255.696C107.529 256.833 107.663 257.591 107.933 257.97C108.202 258.349 108.531 258.539 108.918 258.539C109.314 258.539 109.643 258.349 109.904 257.97C110.173 257.591 110.308 256.833 110.308 255.696C110.308 254.55 110.173 253.792 109.904 253.421C109.643 253.042 109.31 252.853 108.906 252.853C108.518 252.853 108.207 253.017 107.971 253.346C107.676 253.767 107.529 254.55 107.529 255.696ZM112.481 253.838C112.481 253.341 112.604 252.92 112.848 252.575C113.101 252.23 113.463 252.057 113.934 252.057C114.372 252.057 114.735 252.213 115.021 252.524C115.307 252.836 115.451 253.291 115.451 253.889C115.451 254.479 115.303 254.933 115.008 255.253C114.722 255.565 114.368 255.721 113.947 255.721C113.526 255.721 113.176 255.565 112.898 255.253C112.62 254.942 112.481 254.47 112.481 253.838ZM113.96 252.638C113.749 252.638 113.572 252.731 113.429 252.916C113.294 253.101 113.227 253.438 113.227 253.927C113.227 254.373 113.294 254.689 113.429 254.874C113.572 255.051 113.749 255.14 113.96 255.14C114.179 255.14 114.356 255.047 114.49 254.862C114.634 254.676 114.705 254.344 114.705 253.864C114.705 253.409 114.634 253.093 114.49 252.916C114.347 252.731 114.17 252.638 113.96 252.638ZM113.96 259.372L117.763 252.057H118.458L114.667 259.372H113.96ZM116.967 257.49C116.967 256.993 117.089 256.572 117.333 256.226C117.586 255.881 117.952 255.708 118.432 255.708C118.87 255.708 119.233 255.864 119.519 256.176C119.805 256.479 119.949 256.934 119.949 257.54C119.949 258.13 119.801 258.585 119.506 258.905C119.22 259.217 118.862 259.372 118.432 259.372C118.02 259.372 117.67 259.217 117.384 258.905C117.106 258.593 116.967 258.122 116.967 257.49ZM118.458 256.29C118.239 256.29 118.058 256.382 117.914 256.567C117.78 256.753 117.712 257.09 117.712 257.578C117.712 258.016 117.784 258.328 117.927 258.513C118.07 258.699 118.247 258.791 118.458 258.791C118.668 258.791 118.845 258.699 118.988 258.513C119.132 258.328 119.203 257.991 119.203 257.502C119.203 257.056 119.132 256.744 118.988 256.567C118.845 256.382 118.668 256.29 118.458 256.29Z" fill="#9E9E9E"/>
<path d="M92.5068 249.012H180.243H238.345" stroke="#757575" stroke-width="0.570795" stroke-miterlimit="10"/>
<path d="M239.962 249.008C239.962 248.115 239.238 247.391 238.344 247.391C237.451 247.391 236.727 248.115 236.727 249.008C236.727 249.902 237.451 250.626 238.344 250.626C239.238 250.626 239.962 249.902 239.962 249.008Z" fill="#9E9E9E"/>
<path d="M522.514 140.236V138.569H519.507V137.785L522.678 133.287H523.373V137.785H524.308V138.569H523.373V140.236H522.514ZM522.514 137.785V134.664L520.341 137.785H522.514ZM525.445 138.417L526.342 138.341C526.41 138.779 526.561 139.108 526.797 139.327C527.041 139.546 527.336 139.655 527.682 139.655C528.086 139.655 528.431 139.499 528.718 139.188C529.004 138.876 529.147 138.468 529.147 137.962C529.147 137.474 529.008 137.09 528.73 136.812C528.461 136.526 528.103 136.383 527.656 136.383C527.387 136.383 527.138 136.446 526.911 136.572C526.692 136.699 526.519 136.859 526.393 137.052L525.597 136.951L526.266 133.388H529.728V134.197H526.949L526.582 136.067C526.995 135.772 527.429 135.625 527.884 135.625C528.49 135.625 529 135.835 529.412 136.256C529.834 136.678 530.044 137.221 530.044 137.886C530.044 138.51 529.863 139.053 529.501 139.516C529.055 140.072 528.448 140.35 527.682 140.35C527.05 140.35 526.532 140.173 526.127 139.819C525.732 139.466 525.504 138.998 525.445 138.417ZM531.56 140.236V139.264H532.533V140.236C532.533 140.59 532.47 140.877 532.344 141.096C532.217 141.323 532.019 141.496 531.75 141.614L531.51 141.247C531.687 141.171 531.817 141.053 531.902 140.893C531.986 140.742 532.036 140.523 532.053 140.236H531.56ZM533.531 136.812C533.531 135.987 533.616 135.326 533.784 134.829C533.953 134.323 534.201 133.936 534.53 133.666C534.867 133.397 535.288 133.262 535.793 133.262C536.164 133.262 536.488 133.338 536.766 133.489C537.052 133.641 537.288 133.86 537.473 134.146C537.659 134.424 537.802 134.766 537.903 135.17C538.004 135.574 538.055 136.122 538.055 136.812C538.055 137.629 537.97 138.286 537.802 138.783C537.642 139.28 537.393 139.668 537.057 139.946C536.728 140.215 536.307 140.35 535.793 140.35C535.128 140.35 534.601 140.11 534.214 139.63C533.759 139.057 533.531 138.118 533.531 136.812ZM534.403 136.812C534.403 137.95 534.538 138.708 534.808 139.087C535.077 139.466 535.406 139.655 535.793 139.655C536.189 139.655 536.517 139.466 536.779 139.087C537.048 138.708 537.183 137.95 537.183 136.812C537.183 135.667 537.048 134.909 536.779 134.538C536.517 134.159 536.185 133.97 535.78 133.97C535.393 133.97 535.081 134.134 534.845 134.462C534.551 134.883 534.403 135.667 534.403 136.812ZM539.356 134.955C539.356 134.458 539.478 134.037 539.722 133.692C539.975 133.346 540.337 133.174 540.809 133.174C541.247 133.174 541.609 133.329 541.896 133.641C542.182 133.953 542.325 134.408 542.325 135.006C542.325 135.595 542.178 136.05 541.883 136.37C541.597 136.682 541.243 136.838 540.822 136.838C540.401 136.838 540.051 136.682 539.773 136.37C539.495 136.059 539.356 135.587 539.356 134.955ZM540.834 133.755C540.624 133.755 540.447 133.847 540.304 134.033C540.169 134.218 540.102 134.555 540.102 135.044C540.102 135.49 540.169 135.806 540.304 135.991C540.447 136.168 540.624 136.256 540.834 136.256C541.053 136.256 541.23 136.164 541.365 135.979C541.508 135.793 541.58 135.46 541.58 134.98C541.58 134.526 541.508 134.21 541.365 134.033C541.222 133.847 541.045 133.755 540.834 133.755ZM540.834 140.489L544.637 133.174H545.332L541.542 140.489H540.834ZM543.841 138.607C543.841 138.11 543.964 137.688 544.208 137.343C544.461 136.998 544.827 136.825 545.307 136.825C545.745 136.825 546.107 136.981 546.394 137.293C546.68 137.596 546.823 138.051 546.823 138.657C546.823 139.247 546.676 139.702 546.381 140.022C546.095 140.333 545.737 140.489 545.307 140.489C544.894 140.489 544.545 140.333 544.258 140.022C543.98 139.71 543.841 139.238 543.841 138.607ZM545.332 137.406C545.113 137.406 544.932 137.499 544.789 137.684C544.654 137.87 544.587 138.206 544.587 138.695C544.587 139.133 544.658 139.445 544.802 139.63C544.945 139.815 545.122 139.908 545.332 139.908C545.543 139.908 545.72 139.815 545.863 139.63C546.006 139.445 546.078 139.108 546.078 138.619C546.078 138.173 546.006 137.861 545.863 137.684C545.72 137.499 545.543 137.406 545.332 137.406Z" fill="#9E9E9E"/>
<path d="M547.679 130.129H459.943H446.762" stroke="#757575" stroke-width="0.570795" stroke-miterlimit="10"/>
<path d="M448.381 130.129C448.381 129.236 447.657 128.512 446.764 128.512C445.871 128.512 445.147 129.236 445.147 130.129C445.147 131.022 445.871 131.746 446.764 131.746C447.657 131.746 448.381 131.022 448.381 130.129Z" fill="#9E9E9E"/>
<path d="M22.6711 11.5265V12.143C22.6711 13.627 22.1402 14.8828 21.0786 15.9102C20.0169 16.9262 18.5956 17.4342 16.8147 17.4342C14.9996 17.4342 13.4984 16.8349 12.3112 15.6362C11.1239 14.4376 10.5303 12.9706 10.5303 11.2354C10.5303 9.5002 11.1239 8.03326 12.3112 6.83459C13.4984 5.63592 14.9996 5.03659 16.8147 5.03659C17.9221 5.03659 18.9381 5.30486 19.8628 5.84141C20.7875 6.37795 21.501 7.09145 22.0033 7.98189L20.9416 8.59835C20.5649 7.86773 20.0055 7.28552 19.2634 6.85171C18.5214 6.41791 17.7052 6.20101 16.8147 6.20101C15.3192 6.20101 14.0977 6.68618 13.1502 7.65653C12.2027 8.62689 11.729 9.81985 11.729 11.2354C11.729 12.651 12.2027 13.8439 13.1502 14.8143C14.0977 15.7846 15.3192 16.2698 16.8147 16.2698C18.1618 16.2698 19.2406 15.9331 20.0511 15.2595C20.8617 14.5746 21.324 13.707 21.4382 12.6567H16.6777V11.5265H22.6711ZM25.6859 10.0881C26.2111 9.04927 27.1129 8.52985 28.3915 8.52985V9.62578C27.6152 9.62578 26.9702 9.85409 26.4565 10.3107C25.9428 10.7674 25.6859 11.4866 25.6859 12.4683V17.2288H24.5558V8.66684H25.6859V10.0881ZM35.968 8.66684H37.0982V17.2288H35.968V15.8931C35.3287 16.9205 34.3698 17.4342 33.0912 17.4342C32.0524 17.4342 31.2304 17.1203 30.6254 16.4924C30.0317 15.8531 29.7349 14.997 29.7349 13.9239V8.66684H30.8651V13.9239C30.8651 14.6887 31.0649 15.2824 31.4644 15.7047C31.8754 16.1271 32.4519 16.3383 33.1939 16.3383C34.0159 16.3383 34.6837 16.0815 35.1974 15.5677C35.7112 15.0426 35.968 14.2378 35.968 13.1533V8.66684ZM44.0782 8.46136C45.2997 8.46136 46.3385 8.89516 47.1947 9.76277C48.0623 10.6304 48.4961 11.6921 48.4961 12.9478C48.4961 14.2035 48.0623 15.2652 47.1947 16.1328C46.3385 17.0004 45.2997 17.4342 44.0782 17.4342C42.5598 17.4342 41.4068 16.8064 40.6191 15.5506V20.6535H39.489V8.66684H40.6191V10.345C41.4068 9.08923 42.5598 8.46136 44.0782 8.46136ZM41.5952 15.3623C42.2459 16.013 43.045 16.3383 43.9925 16.3383C44.9401 16.3383 45.7392 16.013 46.3899 15.3623C47.0406 14.7001 47.3659 13.8953 47.3659 12.9478C47.3659 12.0003 47.0406 11.2012 46.3899 10.5505C45.7392 9.88834 44.9401 9.55728 43.9925 9.55728C43.045 9.55728 42.2459 9.88834 41.5952 10.5505C40.9445 11.2012 40.6191 12.0003 40.6191 12.9478C40.6191 13.8953 40.9445 14.7001 41.5952 15.3623ZM57.5502 16.15C56.6826 17.0061 55.6209 17.4342 54.3652 17.4342C53.1094 17.4342 52.042 17.0061 51.163 16.15C50.2954 15.2824 49.8616 14.215 49.8616 12.9478C49.8616 11.6806 50.2954 10.619 51.163 9.76277C52.042 8.89516 53.1094 8.46136 54.3652 8.46136C55.6209 8.46136 56.6826 8.89516 57.5502 9.76277C58.4292 10.619 58.8687 11.6806 58.8687 12.9478C58.8687 14.215 58.4292 15.2824 57.5502 16.15ZM51.9678 15.3623C52.6185 16.013 53.4176 16.3383 54.3652 16.3383C55.3127 16.3383 56.1118 16.013 56.7625 15.3623C57.4132 14.7001 57.7386 13.8953 57.7386 12.9478C57.7386 12.0003 57.4132 11.2012 56.7625 10.5505C56.1118 9.88834 55.3127 9.55728 54.3652 9.55728C53.4176 9.55728 52.6185 9.88834 51.9678 10.5505C51.3171 11.2012 50.9918 12.0003 50.9918 12.9478C50.9918 13.8953 51.3171 14.7001 51.9678 15.3623ZM61.4832 10.9101C61.4832 11.2982 61.6544 11.6064 61.9969 11.8348C62.3394 12.0631 62.7561 12.24 63.2469 12.3656C63.7378 12.4912 64.2287 12.6339 64.7196 12.7937C65.2105 12.9421 65.6272 13.199 65.9696 13.5643C66.3121 13.9182 66.4834 14.3862 66.4834 14.9684C66.4834 15.699 66.1922 16.2927 65.61 16.7493C65.0392 17.2059 64.2972 17.4342 63.3839 17.4342C62.562 17.4342 61.8599 17.2516 61.2777 16.8863C60.7069 16.521 60.3074 16.0472 60.079 15.465L61.038 14.8999C61.1978 15.3451 61.4832 15.699 61.8942 15.9616C62.3166 16.2127 62.8131 16.3383 63.3839 16.3383C63.9433 16.3383 64.4114 16.2299 64.7881 16.013C65.1648 15.7846 65.3532 15.4365 65.3532 14.9684C65.3532 14.5803 65.1819 14.272 64.8395 14.0437C64.497 13.8154 64.0803 13.6385 63.5894 13.5129C63.0985 13.3873 62.6077 13.2503 62.1168 13.1019C61.6259 12.9421 61.2092 12.6852 60.8667 12.3313C60.5243 11.966 60.353 11.4923 60.353 10.9101C60.353 10.2137 60.627 9.63148 61.175 9.16343C61.7343 8.69538 62.4364 8.46136 63.2812 8.46136C63.9776 8.46136 64.5883 8.62118 65.1134 8.94082C65.6386 9.24905 66.0267 9.67144 66.2779 10.208L65.3361 10.7559C65.005 9.95684 64.32 9.55728 63.2812 9.55728C62.7903 9.55728 62.3679 9.67715 62.014 9.91688C61.6601 10.1452 61.4832 10.4763 61.4832 10.9101ZM76.6567 8.46136C77.6955 8.46136 78.5117 8.781 79.1054 9.42029C79.7104 10.0482 80.0129 10.8986 80.0129 11.9717V17.2288H78.8828V11.9717C78.8828 11.2069 78.6773 10.6133 78.2663 10.1909C77.8667 9.76847 77.2959 9.55728 76.5539 9.55728C75.732 9.55728 75.0641 9.81985 74.5504 10.345C74.0367 10.8587 73.7798 11.6578 73.7798 12.7423V17.2288H72.6497V8.66684H73.7798V10.0025C74.4191 8.97507 75.3781 8.46136 76.6567 8.46136ZM89.3731 16.15C88.5055 17.0061 87.4438 17.4342 86.1881 17.4342C84.9323 17.4342 83.8649 17.0061 82.9859 16.15C82.1183 15.2824 81.6845 14.215 81.6845 12.9478C81.6845 11.6806 82.1183 10.619 82.9859 9.76277C83.8649 8.89516 84.9323 8.46136 86.1881 8.46136C87.4438 8.46136 88.5055 8.89516 89.3731 9.76277C90.2521 10.619 90.6916 11.6806 90.6916 12.9478C90.6916 14.215 90.2521 15.2824 89.3731 16.15ZM83.7907 15.3623C84.4414 16.013 85.2406 16.3383 86.1881 16.3383C87.1356 16.3383 87.9347 16.013 88.5854 15.3623C89.2361 14.7001 89.5615 13.8953 89.5615 12.9478C89.5615 12.0003 89.2361 11.2012 88.5854 10.5505C87.9347 9.88834 87.1356 9.55728 86.1881 9.55728C85.2406 9.55728 84.4414 9.88834 83.7907 10.5505C83.14 11.2012 82.8147 12.0003 82.8147 12.9478C82.8147 13.8953 83.14 14.7001 83.7907 15.3623ZM103.799 6.37225H98.2338V10.7902H103.542V11.9204H98.2338V17.2288H97.0351V5.24207H103.799V6.37225ZM113.04 8.66684H114.17V17.2288H113.04V15.5506C112.252 16.8064 111.099 17.4342 109.581 17.4342C108.359 17.4342 107.315 17.0004 106.447 16.1328C105.591 15.2652 105.163 14.2035 105.163 12.9478C105.163 11.6921 105.591 10.6304 106.447 9.76277C107.315 8.89516 108.359 8.46136 109.581 8.46136C111.099 8.46136 112.252 9.08923 113.04 10.345V8.66684ZM107.269 15.3623C107.92 16.013 108.719 16.3383 109.666 16.3383C110.614 16.3383 111.413 16.013 112.064 15.3623C112.715 14.7001 113.04 13.8953 113.04 12.9478C113.04 12.0003 112.715 11.2012 112.064 10.5505C111.413 9.88834 110.614 9.55728 109.666 9.55728C108.719 9.55728 107.92 9.88834 107.269 10.5505C106.618 11.2012 106.293 12.0003 106.293 12.9478C106.293 13.8953 106.618 14.7001 107.269 15.3623ZM120.553 17.4342C119.263 17.4342 118.19 17.0061 117.334 16.15C116.477 15.2824 116.049 14.215 116.049 12.9478C116.049 11.6806 116.477 10.619 117.334 9.76277C118.19 8.89516 119.263 8.46136 120.553 8.46136C121.398 8.46136 122.157 8.66684 122.83 9.07781C123.504 9.47737 123.995 10.0196 124.303 10.7046L123.378 11.2354C123.15 10.7217 122.779 10.3164 122.265 10.0196C121.763 9.7114 121.192 9.55728 120.553 9.55728C119.605 9.55728 118.806 9.88834 118.155 10.5505C117.505 11.2012 117.179 12.0003 117.179 12.9478C117.179 13.8953 117.505 14.7001 118.155 15.3623C118.806 16.013 119.605 16.3383 120.553 16.3383C121.192 16.3383 121.763 16.1899 122.265 15.8931C122.767 15.5849 123.161 15.1739 123.447 14.6602L124.389 15.2081C124.035 15.8931 123.515 16.4354 122.83 16.8349C122.145 17.2345 121.386 17.4342 120.553 17.4342ZM129.883 8.46136C131.15 8.46136 132.172 8.91228 132.948 9.81414C133.736 10.7046 134.13 11.7605 134.13 12.982C134.13 13.1076 134.118 13.2846 134.096 13.5129H126.578C126.692 14.3805 127.058 15.0712 127.674 15.5849C128.302 16.0872 129.073 16.3383 129.986 16.3383C130.637 16.3383 131.196 16.207 131.664 15.9445C132.144 15.6705 132.503 15.3166 132.743 14.8828L133.736 15.465C133.359 16.07 132.846 16.5495 132.195 16.9034C131.544 17.2573 130.802 17.4342 129.969 17.4342C128.622 17.4342 127.526 17.0119 126.681 16.1671C125.836 15.3223 125.414 14.2492 125.414 12.9478C125.414 11.6692 125.831 10.6018 126.664 9.74564C127.497 8.88945 128.57 8.46136 129.883 8.46136ZM129.883 9.55728C128.993 9.55728 128.245 9.82555 127.64 10.3621C127.046 10.8872 126.692 11.5722 126.578 12.417H132.965C132.851 11.5151 132.503 10.813 131.921 10.3107C131.339 9.80843 130.659 9.55728 129.883 9.55728ZM140.517 8.46136C141.738 8.46136 142.777 8.89516 143.633 9.76277C144.501 10.6304 144.935 11.6921 144.935 12.9478C144.935 14.2035 144.501 15.2652 143.633 16.1328C142.777 17.0004 141.738 17.4342 140.517 17.4342C138.998 17.4342 137.845 16.8064 137.058 15.5506V17.2288H135.928V5.24207H137.058V10.345C137.845 9.08923 138.998 8.46136 140.517 8.46136ZM138.034 15.3623C138.685 16.013 139.484 16.3383 140.431 16.3383C141.379 16.3383 142.178 16.013 142.829 15.3623C143.479 14.7001 143.805 13.8953 143.805 12.9478C143.805 12.0003 143.479 11.2012 142.829 10.5505C142.178 9.88834 141.379 9.55728 140.431 9.55728C139.484 9.55728 138.685 9.88834 138.034 10.5505C137.383 11.2012 137.058 12.0003 137.058 12.9478C137.058 13.8953 137.383 14.7001 138.034 15.3623ZM153.989 16.15C153.121 17.0061 152.06 17.4342 150.804 17.4342C149.548 17.4342 148.481 17.0061 147.602 16.15C146.734 15.2824 146.3 14.215 146.3 12.9478C146.3 11.6806 146.734 10.619 147.602 9.76277C148.481 8.89516 149.548 8.46136 150.804 8.46136C152.06 8.46136 153.121 8.89516 153.989 9.76277C154.868 10.619 155.307 11.6806 155.307 12.9478C155.307 14.215 154.868 15.2824 153.989 16.15ZM148.406 15.3623C149.057 16.013 149.856 16.3383 150.804 16.3383C151.751 16.3383 152.55 16.013 153.201 15.3623C153.852 14.7001 154.177 13.8953 154.177 12.9478C154.177 12.0003 153.852 11.2012 153.201 10.5505C152.55 9.88834 151.751 9.55728 150.804 9.55728C149.856 9.55728 149.057 9.88834 148.406 10.5505C147.756 11.2012 147.43 12.0003 147.43 12.9478C147.43 13.8953 147.756 14.7001 148.406 15.3623ZM164.373 16.15C163.506 17.0061 162.444 17.4342 161.188 17.4342C159.933 17.4342 158.865 17.0061 157.986 16.15C157.119 15.2824 156.685 14.215 156.685 12.9478C156.685 11.6806 157.119 10.619 157.986 9.76277C158.865 8.89516 159.933 8.46136 161.188 8.46136C162.444 8.46136 163.506 8.89516 164.373 9.76277C165.253 10.619 165.692 11.6806 165.692 12.9478C165.692 14.215 165.253 15.2824 164.373 16.15ZM158.791 15.3623C159.442 16.013 160.241 16.3383 161.188 16.3383C162.136 16.3383 162.935 16.013 163.586 15.3623C164.237 14.7001 164.562 13.8953 164.562 12.9478C164.562 12.0003 164.237 11.2012 163.586 10.5505C162.935 9.88834 162.136 9.55728 161.188 9.55728C160.241 9.55728 159.442 9.88834 158.791 10.5505C158.14 11.2012 157.815 12.0003 157.815 12.9478C157.815 13.8953 158.14 14.7001 158.791 15.3623ZM174.501 17.2288H172.994L168.713 13.1019V17.2288H167.583V5.24207H168.713V12.4512L172.789 8.66684H174.33L169.912 12.7766L174.501 17.2288Z" fill="white"/>
<path d="M6.22559 42.6801H7.42426V54.6667H6.22559V42.6801ZM14.0078 45.8993C15.0467 45.8993 15.8629 46.219 16.4566 46.8583C17.0616 47.4862 17.3641 48.3366 17.3641 49.4097V54.6667H16.2339V49.4097C16.2339 48.6449 16.0285 48.0512 15.6175 47.6289C15.2179 47.2065 14.6471 46.9953 13.9051 46.9953C13.0832 46.9953 12.4153 47.2578 11.9016 47.783C11.3879 48.2967 11.131 49.0958 11.131 50.1803V54.6667H10.0009V46.1048H11.131V47.4405C11.7703 46.4131 12.7293 45.8993 14.0078 45.8993ZM20.4398 48.3481C20.4398 48.7362 20.6111 49.0444 20.9536 49.2727C21.296 49.5011 21.7127 49.678 22.2036 49.8036C22.6945 49.9292 23.1854 50.0719 23.6763 50.2317C24.1671 50.3801 24.5838 50.6369 24.9263 51.0022C25.2688 51.3561 25.44 51.8242 25.44 52.4064C25.44 53.137 25.1489 53.7306 24.5667 54.1873C23.9959 54.6439 23.2539 54.8722 22.3406 54.8722C21.5187 54.8722 20.8166 54.6896 20.2344 54.3243C19.6636 53.959 19.264 53.4852 19.0357 52.903L19.9946 52.3379C20.1545 52.7831 20.4398 53.137 20.8508 53.3996C21.2732 53.6507 21.7698 53.7763 22.3406 53.7763C22.9 53.7763 23.368 53.6679 23.7448 53.451C24.1215 53.2226 24.3098 52.8745 24.3098 52.4064C24.3098 52.0183 24.1386 51.71 23.7961 51.4817C23.4536 51.2534 23.037 51.0765 22.5461 50.9509C22.0552 50.8253 21.5643 50.6883 21.0734 50.5399C20.5825 50.3801 20.1659 50.1232 19.8234 49.7693C19.4809 49.404 19.3097 48.9303 19.3097 48.3481C19.3097 47.6517 19.5837 47.0695 20.1316 46.6014C20.691 46.1334 21.3931 45.8993 22.2379 45.8993C22.9342 45.8993 23.545 46.0592 24.0701 46.3788C24.5952 46.687 24.9834 47.1094 25.2345 47.646L24.2927 48.1939C23.9617 47.3948 23.2767 46.9953 22.2379 46.9953C21.747 46.9953 21.3246 47.1151 20.9707 47.3549C20.6168 47.5832 20.4398 47.9142 20.4398 48.3481ZM31.5287 47.2008H29.0629V52.3893C29.0629 52.8573 29.1542 53.1941 29.3369 53.3996C29.5195 53.5937 29.7935 53.6964 30.1588 53.7078C30.5241 53.7078 30.9808 53.6964 31.5287 53.6736V54.6667C30.3301 54.8494 29.4282 54.7638 28.8232 54.4099C28.2295 54.056 27.9327 53.3825 27.9327 52.3893V47.2008H26.1347V46.1048H27.9327V44.05L29.0629 43.7075V46.1048H31.5287V47.2008ZM40.2572 46.1048H41.3874V54.6667H40.2572V52.9886C39.4695 54.2444 38.3165 54.8722 36.7982 54.8722C35.5767 54.8722 34.5321 54.4384 33.6645 53.5708C32.8083 52.7032 32.3802 51.6415 32.3802 50.3858C32.3802 49.13 32.8083 48.0684 33.6645 47.2008C34.5321 46.3331 35.5767 45.8993 36.7982 45.8993C38.3165 45.8993 39.4695 46.5272 40.2572 47.783V46.1048ZM34.4865 52.8002C35.1372 53.451 35.9363 53.7763 36.8838 53.7763C37.8313 53.7763 38.6304 53.451 39.2812 52.8002C39.9319 52.1381 40.2572 51.3333 40.2572 50.3858C40.2572 49.4383 39.9319 48.6392 39.2812 47.9885C38.6304 47.3263 37.8313 46.9953 36.8838 46.9953C35.9363 46.9953 35.1372 47.3263 34.4865 47.9885C33.8358 48.6392 33.5104 49.4383 33.5104 50.3858C33.5104 51.3333 33.8358 52.1381 34.4865 52.8002ZM51.1436 46.1048H52.2737V54.3243C52.2737 55.5572 51.8513 56.5275 51.0066 57.2353C50.1618 57.9431 49.1515 58.297 47.9756 58.297C45.9665 58.297 44.6137 57.6006 43.9173 56.2079L44.9105 55.6428C45.4242 56.6817 46.4459 57.2011 47.9756 57.2011C48.9574 57.2011 49.728 56.9385 50.2874 56.4134C50.8582 55.8997 51.1436 55.2033 51.1436 54.3243V52.9886C50.3559 54.2444 49.2029 54.8722 47.6845 54.8722C46.463 54.8722 45.4185 54.4384 44.5509 53.5708C43.6947 52.7032 43.2666 51.6415 43.2666 50.3858C43.2666 49.13 43.6947 48.0684 44.5509 47.2008C45.4185 46.3331 46.463 45.8993 47.6845 45.8993C49.2029 45.8993 50.3559 46.5272 51.1436 47.783V46.1048ZM45.3728 52.8002C46.0235 53.451 46.8226 53.7763 47.7702 53.7763C48.7177 53.7763 49.5168 53.451 50.1675 52.8002C50.8182 52.1381 51.1436 51.3333 51.1436 50.3858C51.1436 49.4383 50.8182 48.6392 50.1675 47.9885C49.5168 47.3263 48.7177 46.9953 47.7702 46.9953C46.8226 46.9953 46.0235 47.3263 45.3728 47.9885C44.7221 48.6392 44.3968 49.4383 44.3968 50.3858C44.3968 51.3333 44.7221 52.1381 45.3728 52.8002ZM55.7968 47.5261C56.322 46.4873 57.2238 45.9678 58.5024 45.9678V47.0638C57.7261 47.0638 57.0811 47.2921 56.5674 47.7487C56.0537 48.2054 55.7968 48.9246 55.7968 49.9063V54.6667H54.6667V46.1048H55.7968V47.5261ZM66.8961 46.1048H68.0263V54.6667H66.8961V52.9886C66.1085 54.2444 64.9554 54.8722 63.4371 54.8722C62.2156 54.8722 61.1711 54.4384 60.3035 53.5708C59.4473 52.7032 59.0192 51.6415 59.0192 50.3858C59.0192 49.13 59.4473 48.0684 60.3035 47.2008C61.1711 46.3331 62.2156 45.8993 63.4371 45.8993C64.9554 45.8993 66.1085 46.5272 66.8961 47.783V46.1048ZM61.1254 52.8002C61.7761 53.451 62.5752 53.7763 63.5228 53.7763C64.4703 53.7763 65.2694 53.451 65.9201 52.8002C66.5708 52.1381 66.8961 51.3333 66.8961 50.3858C66.8961 49.4383 66.5708 48.6392 65.9201 47.9885C65.2694 47.3263 64.4703 46.9953 63.5228 46.9953C62.5752 46.9953 61.7761 47.3263 61.1254 47.9885C60.4747 48.6392 60.1494 49.4383 60.1494 50.3858C60.1494 51.3333 60.4747 52.1381 61.1254 52.8002ZM79.5463 45.8993C80.5052 45.8993 81.2758 46.2076 81.858 46.824C82.4516 47.4405 82.7484 48.2738 82.7484 49.3241V54.6667H81.6182V49.3241C81.6182 48.5821 81.4242 48.0113 81.036 47.6117C80.6593 47.2008 80.157 46.9953 79.5291 46.9953C78.8213 46.9953 78.2448 47.235 77.7996 47.7145C77.3658 48.1825 77.1489 48.9188 77.1489 49.9234V54.6667H76.0187V49.3241C76.0187 48.5707 75.8361 47.9942 75.4708 47.5946C75.1169 47.195 74.6317 46.9953 74.0153 46.9953C73.3303 46.9953 72.7481 47.235 72.2686 47.7145C71.7892 48.1939 71.5494 48.9303 71.5494 49.9234V54.6667H70.4192V46.1048H71.5494V47.3549C72.1659 46.3845 73.0392 45.8993 74.1694 45.8993C75.4023 45.8993 76.2699 46.4188 76.7722 47.4576C77.3887 46.4188 78.3133 45.8993 79.5463 45.8993Z" fill="white"/>
<path d="M9.11288 88.2753C7.29775 88.2753 5.79656 87.676 4.60931 86.4773C3.42205 85.2786 2.82843 83.8117 2.82843 82.0765C2.82843 80.3413 3.42205 78.8743 4.60931 77.6757C5.79656 76.477 7.29775 75.8777 9.11288 75.8777C10.2202 75.8777 11.2362 76.1459 12.1609 76.6825C13.0856 77.2076 13.7991 77.9211 14.3014 78.823L13.2397 79.4394C12.863 78.7088 12.3036 78.1266 11.5616 77.6928C10.8196 77.259 10.0033 77.0421 9.11288 77.0421C7.61739 77.0421 6.39589 77.5272 5.44838 78.4976C4.50086 79.4679 4.0271 80.6609 4.0271 82.0765C4.0271 83.4921 4.50086 84.685 5.44838 85.6554C6.39589 86.6257 7.61739 87.1109 9.11288 87.1109C10.0033 87.1109 10.8196 86.894 11.5616 86.4602C12.3036 86.0264 12.863 85.4442 13.2397 84.7136L14.3014 85.3129C13.8105 86.2147 13.097 86.9339 12.1609 87.4705C11.2362 88.007 10.2202 88.2753 9.11288 88.2753ZM23.1927 86.991C22.3251 87.8472 21.2634 88.2753 20.0076 88.2753C18.7519 88.2753 17.6845 87.8472 16.8055 86.991C15.9379 86.1234 15.5041 85.056 15.5041 83.7889C15.5041 82.5217 15.9379 81.46 16.8055 80.6038C17.6845 79.7362 18.7519 79.3024 20.0076 79.3024C21.2634 79.3024 22.3251 79.7362 23.1927 80.6038C24.0717 81.46 24.5112 82.5217 24.5112 83.7889C24.5112 85.056 24.0717 86.1234 23.1927 86.991ZM17.6103 86.2033C18.261 86.854 19.0601 87.1794 20.0076 87.1794C20.9552 87.1794 21.7543 86.854 22.405 86.2033C23.0557 85.5412 23.381 84.7364 23.381 83.7889C23.381 82.8413 23.0557 82.0422 22.405 81.3915C21.7543 80.7294 20.9552 80.3983 20.0076 80.3983C19.0601 80.3983 18.261 80.7294 17.6103 81.3915C16.9596 82.0422 16.6343 82.8413 16.6343 83.7889C16.6343 84.7364 16.9596 85.5412 17.6103 86.2033ZM27.5326 80.9292C28.0578 79.8903 28.9596 79.3709 30.2382 79.3709V80.4668C29.4619 80.4668 28.8169 80.6952 28.3032 81.1518C27.7895 81.6084 27.5326 82.3276 27.5326 83.3094V88.0698H26.4025V79.5079H27.5326V80.9292ZM32.9173 80.9292C33.4424 79.8903 34.3443 79.3709 35.6228 79.3709V80.4668C34.8466 80.4668 34.2016 80.6952 33.6879 81.1518C33.1741 81.6084 32.9173 82.3276 32.9173 83.3094V88.0698H31.7871V79.5079H32.9173V80.9292ZM40.609 79.3024C41.8761 79.3024 42.8979 79.7533 43.6741 80.6552C44.4618 81.5456 44.8557 82.6016 44.8557 83.8231C44.8557 83.9487 44.8443 84.1256 44.8214 84.354H37.3041C37.4182 85.2216 37.7835 85.9122 38.4 86.4259C39.0279 86.9282 39.7984 87.1794 40.7117 87.1794C41.3624 87.1794 41.9218 87.0481 42.3898 86.7855C42.8693 86.5116 43.2289 86.1577 43.4686 85.7239L44.4618 86.3061C44.0851 86.9111 43.5714 87.3906 42.9207 87.7445C42.27 88.0984 41.5279 88.2753 40.6946 88.2753C39.3475 88.2753 38.2516 87.8529 37.4068 87.0081C36.562 86.1634 36.1396 85.0903 36.1396 83.7889C36.1396 82.5103 36.5563 81.4429 37.3897 80.5867C38.223 79.7305 39.2961 79.3024 40.609 79.3024ZM40.609 80.3983C39.7185 80.3983 38.9708 80.6666 38.3657 81.2032C37.7721 81.7283 37.4182 82.4132 37.3041 83.258H43.6913C43.5771 82.3562 43.2289 81.6541 42.6467 81.1518C42.0645 80.6495 41.3852 80.3983 40.609 80.3983ZM50.9404 80.6038H48.4746V85.7924C48.4746 86.2604 48.5659 86.5972 48.7485 86.8027C48.9312 86.9967 49.2052 87.0995 49.5705 87.1109C49.9358 87.1109 50.3924 87.0995 50.9404 87.0766V88.0698C49.7417 88.2525 48.8399 88.1669 48.2348 87.813C47.6412 87.4591 47.3444 86.7855 47.3444 85.7924V80.6038H45.5464V79.5079H47.3444V77.453L48.4746 77.1106V79.5079H50.9404V80.6038ZM59.4805 86.991C58.6129 87.8472 57.5512 88.2753 56.2955 88.2753C55.0397 88.2753 53.9723 87.8472 53.0933 86.991C52.2257 86.1234 51.7919 85.056 51.7919 83.7889C51.7919 82.5217 52.2257 81.46 53.0933 80.6038C53.9723 79.7362 55.0397 79.3024 56.2955 79.3024C57.5512 79.3024 58.6129 79.7362 59.4805 80.6038C60.3595 81.46 60.799 82.5217 60.799 83.7889C60.799 85.056 60.3595 86.1234 59.4805 86.991ZM53.8981 86.2033C54.5488 86.854 55.3479 87.1794 56.2955 87.1794C57.243 87.1794 58.0421 86.854 58.6928 86.2033C59.3435 85.5412 59.6689 84.7364 59.6689 83.7889C59.6689 82.8413 59.3435 82.0422 58.6928 81.3915C58.0421 80.7294 57.243 80.3983 56.2955 80.3983C55.3479 80.3983 54.5488 80.7294 53.8981 81.3915C53.2474 82.0422 52.9221 82.8413 52.9221 83.7889C52.9221 84.7364 53.2474 85.5412 53.8981 86.2033ZM63.8205 80.9292C64.3456 79.8903 65.2474 79.3709 66.526 79.3709V80.4668C65.7497 80.4668 65.1047 80.6952 64.591 81.1518C64.0773 81.6084 63.8205 82.3276 63.8205 83.3094V88.0698H62.6903V79.5079H63.8205V80.9292ZM71.5121 79.3024C72.7793 79.3024 73.801 79.7533 74.5773 80.6552C75.365 81.5456 75.7589 82.6016 75.7589 83.8231C75.7589 83.9487 75.7474 84.1256 75.7246 84.354H68.2072C68.3214 85.2216 68.6867 85.9122 69.3032 86.4259C69.931 86.9282 70.7016 87.1794 71.6149 87.1794C72.2656 87.1794 72.825 87.0481 73.293 86.7855C73.7725 86.5116 74.1321 86.1577 74.3718 85.7239L75.365 86.3061C74.9883 86.9111 74.4746 87.3906 73.8239 87.7445C73.1732 88.0984 72.4311 88.2753 71.5978 88.2753C70.2507 88.2753 69.1548 87.8529 68.31 87.0081C67.4652 86.1634 67.0428 85.0903 67.0428 83.7889C67.0428 82.5103 67.4595 81.4429 68.2929 80.5867C69.1262 79.7305 70.1993 79.3024 71.5121 79.3024ZM71.5121 80.3983C70.6217 80.3983 69.874 80.6666 69.2689 81.2032C68.6753 81.7283 68.3214 82.4132 68.2072 83.258H74.5944C74.4803 82.3562 74.1321 81.6541 73.5499 81.1518C72.9677 80.6495 72.2884 80.3983 71.5121 80.3983ZM78.1126 81.7511C78.1126 82.1393 78.2838 82.4475 78.6263 82.6758C78.9688 82.9041 79.3854 83.0811 79.8763 83.2067C80.3672 83.3322 80.8581 83.4749 81.349 83.6348C81.8399 83.7832 82.2565 84.04 82.599 84.4053C82.9415 84.7592 83.1127 85.2273 83.1127 85.8095C83.1127 86.5401 82.8216 87.1337 82.2394 87.5904C81.6686 88.047 80.9266 88.2753 80.0133 88.2753C79.1914 88.2753 78.4893 88.0927 77.9071 87.7273C77.3363 87.362 76.9367 86.8883 76.7084 86.3061L77.6674 85.741C77.8272 86.1862 78.1126 86.5401 78.5235 86.8027C78.9459 87.0538 79.4425 87.1794 80.0133 87.1794C80.5727 87.1794 81.0408 87.0709 81.4175 86.854C81.7942 86.6257 81.9826 86.2775 81.9826 85.8095C81.9826 85.4213 81.8113 85.1131 81.4688 84.8848C81.1264 84.6565 80.7097 84.4795 80.2188 84.354C79.7279 84.2284 79.237 84.0914 78.7462 83.943C78.2553 83.7832 77.8386 83.5263 77.4961 83.1724C77.1536 82.8071 76.9824 82.3333 76.9824 81.7511C76.9824 81.0548 77.2564 80.4725 77.8043 80.0045C78.3637 79.5364 79.0658 79.3024 79.9106 79.3024C80.6069 79.3024 81.2177 79.4622 81.7428 79.7819C82.268 80.0901 82.6561 80.5125 82.9073 81.0491L81.9654 81.597C81.6344 80.7979 80.9494 80.3983 79.9106 80.3983C79.4197 80.3983 78.9973 80.5182 78.6434 80.7579C78.2895 80.9863 78.1126 81.3173 78.1126 81.7511Z" fill="white"/>
<path d="M59.2335 236.865L58.1204 233.919H52.4353L51.3223 236.865H50.0551L54.6614 224.878H55.8943L60.5007 236.865H59.2335ZM52.8634 232.789H57.6923L55.2779 226.368L52.8634 232.789ZM66.4577 228.097C67.6792 228.097 68.7181 228.531 69.5743 229.399C70.4419 230.266 70.8757 231.328 70.8757 232.584C70.8757 233.839 70.4419 234.901 69.5743 235.769C68.7181 236.636 67.6792 237.07 66.4577 237.07C64.9394 237.07 63.7864 236.442 62.9987 235.186V240.289H61.8686V228.303H62.9987V229.981C63.7864 228.725 64.9394 228.097 66.4577 228.097ZM63.9748 234.998C64.6255 235.649 65.4246 235.974 66.3721 235.974C67.3196 235.974 68.1188 235.649 68.7695 234.998C69.4202 234.336 69.7455 233.531 69.7455 232.584C69.7455 231.636 69.4202 230.837 68.7695 230.186C68.1188 229.524 67.3196 229.193 66.3721 229.193C65.4246 229.193 64.6255 229.524 63.9748 230.186C63.3241 230.837 62.9987 231.636 62.9987 232.584C62.9987 233.531 63.3241 234.336 63.9748 234.998ZM72.7549 236.865V224.364H73.8851V236.865H72.7549ZM77.4306 226.248C77.2708 226.408 77.0768 226.487 76.8484 226.487C76.6201 226.487 76.426 226.408 76.2662 226.248C76.1064 226.088 76.0265 225.894 76.0265 225.666C76.0265 225.437 76.1064 225.243 76.2662 225.083C76.426 224.923 76.6201 224.844 76.8484 224.844C77.0768 224.844 77.2708 224.923 77.4306 225.083C77.5905 225.243 77.6704 225.437 77.6704 225.666C77.6704 225.894 77.5905 226.088 77.4306 226.248ZM76.2833 236.865V228.303H77.4135V236.865H76.2833ZM83.8016 237.07C82.5117 237.07 81.4386 236.642 80.5824 235.786C79.7262 234.918 79.2981 233.851 79.2981 232.584C79.2981 231.316 79.7262 230.255 80.5824 229.399C81.4386 228.531 82.5117 228.097 83.8016 228.097C84.6464 228.097 85.4056 228.303 86.0791 228.714C86.7527 229.113 87.2435 229.655 87.5518 230.34L86.6271 230.871C86.3988 230.357 86.0277 229.952 85.514 229.655C85.0117 229.347 84.4409 229.193 83.8016 229.193C82.8541 229.193 82.055 229.524 81.4043 230.186C80.7536 230.837 80.4283 231.636 80.4283 232.584C80.4283 233.531 80.7536 234.336 81.4043 234.998C82.055 235.649 82.8541 235.974 83.8016 235.974C84.4409 235.974 85.0117 235.826 85.514 235.529C86.0163 235.221 86.4102 234.81 86.6956 234.296L87.6374 234.844C87.2835 235.529 86.7641 236.071 86.0791 236.471C85.3942 236.87 84.635 237.07 83.8016 237.07ZM96.5396 228.303H97.6698V236.865H96.5396V235.186C95.7519 236.442 94.5989 237.07 93.0806 237.07C91.8591 237.07 90.8146 236.636 89.947 235.769C89.0908 234.901 88.6627 233.839 88.6627 232.584C88.6627 231.328 89.0908 230.266 89.947 229.399C90.8146 228.531 91.8591 228.097 93.0806 228.097C94.5989 228.097 95.7519 228.725 96.5396 229.981V228.303ZM90.7689 234.998C91.4196 235.649 92.2187 235.974 93.1662 235.974C94.1138 235.974 94.9129 235.649 95.5636 234.998C96.2143 234.336 96.5396 233.531 96.5396 232.584C96.5396 231.636 96.2143 230.837 95.5636 230.186C94.9129 229.524 94.1138 229.193 93.1662 229.193C92.2187 229.193 91.4196 229.524 90.7689 230.186C90.1182 230.837 89.7929 231.636 89.7929 232.584C89.7929 233.531 90.1182 234.336 90.7689 234.998ZM104.601 229.399H102.135V234.587C102.135 235.055 102.226 235.392 102.409 235.597C102.591 235.791 102.865 235.894 103.231 235.906C103.596 235.906 104.053 235.894 104.601 235.871V236.865C103.402 237.047 102.5 236.962 101.895 236.608C101.301 236.254 101.005 235.58 101.005 234.587V229.399H99.2065V228.303H101.005V226.248L102.135 225.905V228.303H104.601V229.399ZM107.631 226.248C107.472 226.408 107.278 226.487 107.049 226.487C106.821 226.487 106.627 226.408 106.467 226.248C106.307 226.088 106.227 225.894 106.227 225.666C106.227 225.437 106.307 225.243 106.467 225.083C106.627 224.923 106.821 224.844 107.049 224.844C107.278 224.844 107.472 224.923 107.631 225.083C107.791 225.243 107.871 225.437 107.871 225.666C107.871 225.894 107.791 226.088 107.631 226.248ZM106.484 236.865V228.303H107.614V236.865H106.484ZM116.177 228.303H117.376L113.865 236.865H112.496L108.985 228.303H110.184L113.181 235.683L116.177 228.303ZM125.582 235.786C124.715 236.642 123.653 237.07 122.397 237.07C121.141 237.07 120.074 236.642 119.195 235.786C118.327 234.918 117.894 233.851 117.894 232.584C117.894 231.316 118.327 230.255 119.195 229.399C120.074 228.531 121.141 228.097 122.397 228.097C123.653 228.097 124.715 228.531 125.582 229.399C126.461 230.255 126.901 231.316 126.901 232.584C126.901 233.851 126.461 234.918 125.582 235.786ZM120 234.998C120.651 235.649 121.45 235.974 122.397 235.974C123.345 235.974 124.144 235.649 124.795 234.998C125.445 234.336 125.771 233.531 125.771 232.584C125.771 231.636 125.445 230.837 124.795 230.186C124.144 229.524 123.345 229.193 122.397 229.193C121.45 229.193 120.651 229.524 120 230.186C119.349 230.837 119.024 231.636 119.024 232.584C119.024 233.531 119.349 234.336 120 234.998ZM129.515 230.546C129.515 230.934 129.686 231.242 130.029 231.47C130.371 231.699 130.788 231.876 131.279 232.001C131.77 232.127 132.261 232.27 132.752 232.429C133.242 232.578 133.659 232.835 134.002 233.2C134.344 233.554 134.515 234.022 134.515 234.604C134.515 235.335 134.224 235.928 133.642 236.385C133.071 236.842 132.329 237.07 131.416 237.07C130.594 237.07 129.892 236.887 129.31 236.522C128.739 236.157 128.339 235.683 128.111 235.101L129.07 234.536C129.23 234.981 129.515 235.335 129.926 235.597C130.349 235.848 130.845 235.974 131.416 235.974C131.975 235.974 132.443 235.866 132.82 235.649C133.197 235.42 133.385 235.072 133.385 234.604C133.385 234.216 133.214 233.908 132.871 233.679C132.529 233.451 132.112 233.274 131.621 233.149C131.131 233.023 130.64 232.886 130.149 232.738C129.658 232.578 129.241 232.321 128.899 231.967C128.556 231.602 128.385 231.128 128.385 230.546C128.385 229.849 128.659 229.267 129.207 228.799C129.766 228.331 130.468 228.097 131.313 228.097C132.01 228.097 132.62 228.257 133.145 228.577C133.671 228.885 134.059 229.307 134.31 229.844L133.368 230.392C133.037 229.593 132.352 229.193 131.313 229.193C130.822 229.193 130.4 229.313 130.046 229.553C129.692 229.781 129.515 230.112 129.515 230.546Z" fill="white"/>
<path d="M475.977 157.105C474.882 157.105 473.94 156.849 473.152 156.335C472.376 155.81 471.834 155.09 471.525 154.177L472.553 153.578C472.77 154.32 473.169 154.902 473.751 155.325C474.334 155.735 475.081 155.941 475.995 155.941C476.885 155.941 477.576 155.747 478.067 155.359C478.569 154.959 478.82 154.434 478.82 153.783C478.82 153.155 478.592 152.682 478.135 152.362C477.678 152.042 476.925 151.711 475.875 151.369C474.63 150.958 473.808 150.627 473.409 150.376C472.496 149.828 472.039 149.034 472.039 147.996C472.039 146.979 472.393 146.18 473.101 145.598C473.808 145.005 474.682 144.708 475.721 144.708C476.657 144.708 477.467 144.953 478.152 145.444C478.837 145.924 479.345 146.54 479.676 147.293L478.666 147.859C478.118 146.534 477.136 145.872 475.721 145.872C474.979 145.872 474.379 146.055 473.923 146.42C473.466 146.785 473.238 147.293 473.238 147.944C473.238 148.538 473.443 148.983 473.854 149.28C474.265 149.577 474.944 149.879 475.892 150.187C476.326 150.336 476.634 150.444 476.817 150.513C477.011 150.57 477.285 150.673 477.639 150.821C478.004 150.958 478.272 151.084 478.443 151.198C478.615 151.3 478.82 151.449 479.06 151.643C479.311 151.826 479.488 152.014 479.591 152.208C479.705 152.391 479.802 152.619 479.882 152.893C479.973 153.155 480.019 153.441 480.019 153.749C480.019 154.765 479.648 155.581 478.906 156.198C478.164 156.803 477.188 157.105 475.977 157.105ZM483.053 146.283C482.893 146.443 482.699 146.523 482.47 146.523C482.242 146.523 482.048 146.443 481.888 146.283C481.728 146.123 481.648 145.929 481.648 145.701C481.648 145.473 481.728 145.279 481.888 145.119C482.048 144.959 482.242 144.879 482.47 144.879C482.699 144.879 482.893 144.959 483.053 145.119C483.212 145.279 483.292 145.473 483.292 145.701C483.292 145.929 483.212 146.123 483.053 146.283ZM481.905 156.9V148.338H483.035V156.9H481.905ZM489.972 149.434H487.506V154.622C487.506 155.09 487.597 155.427 487.78 155.633C487.962 155.827 488.236 155.93 488.602 155.941C488.967 155.941 489.424 155.93 489.972 155.907V156.9C488.773 157.083 487.871 156.997 487.266 156.643C486.672 156.289 486.376 155.616 486.376 154.622V149.434H484.578V148.338H486.376V146.283L487.506 145.941V148.338H489.972V149.434ZM495.292 148.132C496.56 148.132 497.581 148.583 498.358 149.485C499.145 150.376 499.539 151.432 499.539 152.653C499.539 152.779 499.528 152.956 499.505 153.184H491.987C492.102 154.052 492.467 154.742 493.083 155.256C493.711 155.758 494.482 156.009 495.395 156.009C496.046 156.009 496.605 155.878 497.073 155.616C497.553 155.342 497.912 154.988 498.152 154.554L499.145 155.136C498.769 155.741 498.255 156.221 497.604 156.575C496.953 156.928 496.211 157.105 495.378 157.105C494.031 157.105 492.935 156.683 492.09 155.838C491.245 154.993 490.823 153.92 490.823 152.619C490.823 151.34 491.24 150.273 492.073 149.417C492.906 148.561 493.98 148.132 495.292 148.132ZM495.292 149.228C494.402 149.228 493.654 149.497 493.049 150.033C492.456 150.558 492.102 151.243 491.987 152.088H498.375C498.261 151.186 497.912 150.484 497.33 149.982C496.748 149.48 496.069 149.228 495.292 149.228ZM512.981 144.913H514.111V156.9H512.981V155.222C512.193 156.478 511.04 157.105 509.522 157.105C508.301 157.105 507.256 156.672 506.388 155.804C505.532 154.936 505.104 153.875 505.104 152.619C505.104 151.363 505.532 150.302 506.388 149.434C507.256 148.566 508.301 148.132 509.522 148.132C511.04 148.132 512.193 148.76 512.981 150.016V144.913ZM507.21 155.033C507.861 155.684 508.66 156.009 509.608 156.009C510.555 156.009 511.354 155.684 512.005 155.033C512.656 154.371 512.981 153.566 512.981 152.619C512.981 151.671 512.656 150.872 512.005 150.222C511.354 149.559 510.555 149.228 509.608 149.228C508.66 149.228 507.861 149.559 507.21 150.222C506.56 150.872 506.234 151.671 506.234 152.619C506.234 153.566 506.56 154.371 507.21 155.033ZM520.46 148.132C521.727 148.132 522.749 148.583 523.525 149.485C524.313 150.376 524.706 151.432 524.706 152.653C524.706 152.779 524.695 152.956 524.672 153.184H517.155C517.269 154.052 517.634 154.742 518.251 155.256C518.879 155.758 519.649 156.009 520.562 156.009C521.213 156.009 521.773 155.878 522.241 155.616C522.72 155.342 523.08 154.988 523.319 154.554L524.313 155.136C523.936 155.741 523.422 156.221 522.771 156.575C522.121 156.928 521.379 157.105 520.545 157.105C519.198 157.105 518.102 156.683 517.258 155.838C516.413 154.993 515.99 153.92 515.99 152.619C515.99 151.34 516.407 150.273 517.24 149.417C518.074 148.561 519.147 148.132 520.46 148.132ZM520.46 149.228C519.569 149.228 518.822 149.497 518.217 150.033C517.623 150.558 517.269 151.243 517.155 152.088H523.542C523.428 151.186 523.08 150.484 522.497 149.982C521.915 149.48 521.236 149.228 520.46 149.228ZM530.956 144.913H532.155V156.9H530.956V144.913ZM543.859 148.132C544.818 148.132 545.588 148.441 546.17 149.057C546.764 149.674 547.061 150.507 547.061 151.557V156.9H545.931V151.557C545.931 150.815 545.737 150.244 545.348 149.845C544.972 149.434 544.469 149.228 543.842 149.228C543.134 149.228 542.557 149.468 542.112 149.948C541.678 150.416 541.461 151.152 541.461 152.157V156.9H540.331V151.557C540.331 150.804 540.148 150.227 539.783 149.828C539.429 149.428 538.944 149.228 538.328 149.228C537.643 149.228 537.06 149.468 536.581 149.948C536.102 150.427 535.862 151.163 535.862 152.157V156.9H534.732V148.338H535.862V149.588C536.478 148.618 537.352 148.132 538.482 148.132C539.715 148.132 540.582 148.652 541.085 149.691C541.701 148.652 542.626 148.132 543.859 148.132ZM552.38 147.139H553.476L555.12 144.913H553.75L552.38 147.139ZM556.422 155.821C555.554 156.677 554.492 157.105 553.237 157.105C551.981 157.105 550.913 156.677 550.034 155.821C549.167 154.953 548.733 153.886 548.733 152.619C548.733 151.352 549.167 150.29 550.034 149.434C550.913 148.566 551.981 148.132 553.237 148.132C554.492 148.132 555.554 148.566 556.422 149.434C557.301 150.29 557.74 151.352 557.74 152.619C557.74 153.886 557.301 154.953 556.422 155.821ZM550.839 155.033C551.49 155.684 552.289 156.009 553.237 156.009C554.184 156.009 554.983 155.684 555.634 155.033C556.285 154.371 556.61 153.566 556.61 152.619C556.61 151.671 556.285 150.872 555.634 150.222C554.983 149.559 554.184 149.228 553.237 149.228C552.289 149.228 551.49 149.559 550.839 150.222C550.189 150.872 549.863 151.671 549.863 152.619C549.863 153.566 550.189 154.371 550.839 155.033ZM565.462 148.338H566.66L563.15 156.9H561.78L558.27 148.338H559.468L562.465 155.718L565.462 148.338ZM571.647 148.132C572.914 148.132 573.936 148.583 574.712 149.485C575.5 150.376 575.894 151.432 575.894 152.653C575.894 152.779 575.883 152.956 575.86 153.184H568.342C568.457 154.052 568.822 154.742 569.438 155.256C570.066 155.758 570.837 156.009 571.75 156.009C572.401 156.009 572.96 155.878 573.428 155.616C573.908 155.342 574.267 154.988 574.507 154.554L575.5 155.136C575.123 155.741 574.61 156.221 573.959 156.575C573.308 156.928 572.566 157.105 571.733 157.105C570.386 157.105 569.29 156.683 568.445 155.838C567.6 154.993 567.178 153.92 567.178 152.619C567.178 151.34 567.595 150.273 568.428 149.417C569.261 148.561 570.334 148.132 571.647 148.132ZM571.647 149.228C570.757 149.228 570.009 149.497 569.404 150.033C568.81 150.558 568.457 151.243 568.342 152.088H574.73C574.615 151.186 574.267 150.484 573.685 149.982C573.103 149.48 572.424 149.228 571.647 149.228ZM578.839 146.283C578.679 146.443 578.485 146.523 578.257 146.523C578.029 146.523 577.834 146.443 577.675 146.283C577.515 146.123 577.435 145.929 577.435 145.701C577.435 145.473 577.515 145.279 577.675 145.119C577.834 144.959 578.029 144.879 578.257 144.879C578.485 144.879 578.679 144.959 578.839 145.119C578.999 145.279 579.079 145.473 579.079 145.701C579.079 145.929 578.999 146.123 578.839 146.283ZM577.692 156.9V148.338H578.822V156.9H577.692ZM582.111 150.581C582.111 150.969 582.282 151.278 582.624 151.506C582.967 151.734 583.384 151.911 583.874 152.037C584.365 152.162 584.856 152.305 585.347 152.465C585.838 152.613 586.255 152.87 586.597 153.235C586.94 153.589 587.111 154.057 587.111 154.64C587.111 155.37 586.82 155.964 586.237 156.42C585.667 156.877 584.925 157.105 584.011 157.105C583.189 157.105 582.487 156.923 581.905 156.557C581.334 156.192 580.935 155.718 580.706 155.136L581.665 154.571C581.825 155.016 582.111 155.37 582.522 155.633C582.944 155.884 583.441 156.009 584.011 156.009C584.571 156.009 585.039 155.901 585.416 155.684C585.792 155.456 585.981 155.108 585.981 154.64C585.981 154.251 585.809 153.943 585.467 153.715C585.124 153.487 584.708 153.31 584.217 153.184C583.726 153.058 583.235 152.921 582.744 152.773C582.253 152.613 581.837 152.356 581.494 152.002C581.152 151.637 580.98 151.163 580.98 150.581C580.98 149.885 581.254 149.303 581.802 148.835C582.362 148.367 583.064 148.132 583.909 148.132C584.605 148.132 585.216 148.292 585.741 148.612C586.266 148.92 586.654 149.343 586.905 149.879L585.963 150.427C585.632 149.628 584.947 149.228 583.909 149.228C583.418 149.228 582.995 149.348 582.641 149.588C582.288 149.816 582.111 150.147 582.111 150.581Z" fill="white"/>
</svg>
