<svg width="600" height="297" viewBox="0 0 600 297" fill="none" xmlns="http://www.w3.org/2000/svg">
<path d="M359.207 14.8496C405.081 14.8496 447.768 38.2524 472.348 76.8796L359.207 148.485V14.8496Z" fill="#3A8071"/>
<path d="M325.883 19.048C336.771 16.2602 347.967 14.8496 359.208 14.8496V148.485L325.883 19.048Z" fill="#74BDAE"/>
<path d="M309.877 24.2367C315.098 22.1754 320.443 20.4433 325.881 19.0508L359.206 148.488L309.877 24.2367Z" fill="#356A90"/>
<path d="M294.65 31.3759C299.571 28.6783 304.656 26.2918 309.877 24.2305L359.206 148.482L294.65 31.3759Z" fill="#D7BA93"/>
<path d="M280.443 40.3712C284.986 37.0799 289.731 34.0765 294.652 31.3789L359.208 148.485L280.443 40.3712Z" fill="#FF6D01"/>
<path d="M267.479 51.0645C271.572 47.2313 275.902 43.6585 280.445 40.3672L359.209 148.481L267.479 51.0645Z" fill="#2675F6"/>
<path d="M227.578 123.446C232.881 95.7244 246.847 70.3889 267.476 51.0703L359.206 148.486L227.578 123.446Z" fill="#1A314A"/>
<path d="M472.348 76.875C504.567 127.505 499.023 193.338 458.789 237.9C418.555 282.462 353.483 294.842 299.625 268.179C245.767 241.517 216.311 182.342 227.578 123.44L359.207 148.48L472.348 76.875Z" fill="#193E3E"/>
<path d="M136.411 37.259V35.6081H133.426V34.8327L136.574 30.3801H137.263V34.8327H138.191V35.6081H137.263V37.259H136.411ZM136.411 34.8327V31.7434L134.254 34.8327H136.411ZM139.772 37.259V36.296H140.737V37.259C140.737 37.6092 140.675 37.8927 140.549 38.1095C140.424 38.3346 140.227 38.5056 139.96 38.6223L139.722 38.2596C139.897 38.1846 140.027 38.0678 140.11 37.9094C140.194 37.7593 140.244 37.5425 140.261 37.259H139.772ZM141.728 33.8696C141.728 33.0525 141.812 32.3979 141.979 31.906C142.146 31.4057 142.393 31.0222 142.719 30.7554C143.053 30.4885 143.471 30.3551 143.973 30.3551C144.341 30.3551 144.663 30.4302 144.939 30.5803C145.223 30.7303 145.457 30.9471 145.641 31.2306C145.825 31.5058 145.967 31.8435 146.067 32.2437C146.168 32.6439 146.218 33.1859 146.218 33.8696C146.218 34.6784 146.134 35.3288 145.967 35.8207C145.808 36.3127 145.562 36.6962 145.227 36.9714C144.901 37.2382 144.483 37.3716 143.973 37.3716C143.313 37.3716 142.79 37.134 142.405 36.6587C141.954 36.0917 141.728 35.162 141.728 33.8696ZM142.594 33.8696C142.594 34.9953 142.727 35.7457 142.995 36.1209C143.262 36.4961 143.588 36.6837 143.973 36.6837C144.366 36.6837 144.692 36.4961 144.951 36.1209C145.219 35.7457 145.353 34.9953 145.353 33.8696C145.353 32.7356 145.219 31.9852 144.951 31.6183C144.692 31.2431 144.362 31.0555 143.961 31.0555C143.576 31.0555 143.267 31.2181 143.032 31.5433C142.74 31.9602 142.594 32.7356 142.594 33.8696ZM147.51 32.0311C147.51 31.5391 147.631 31.1222 147.873 30.7804C148.124 30.4385 148.484 30.2676 148.952 30.2676C149.387 30.2676 149.746 30.4218 150.031 30.7303C150.315 31.0388 150.457 31.4891 150.457 32.0811C150.457 32.6648 150.311 33.115 150.018 33.4319C149.734 33.7404 149.383 33.8946 148.965 33.8946C148.546 33.8946 148.199 33.7404 147.924 33.4319C147.648 33.1234 147.51 32.6564 147.51 32.0311ZM148.977 30.8429C148.768 30.8429 148.592 30.9346 148.45 31.1181C148.317 31.3015 148.25 31.635 148.25 32.1186C148.25 32.5605 148.317 32.8732 148.45 33.0567C148.592 33.2318 148.768 33.3193 148.977 33.3193C149.194 33.3193 149.37 33.2276 149.504 33.0441C149.646 32.8607 149.717 32.5314 149.717 32.0561C149.717 31.6058 149.646 31.2932 149.504 31.1181C149.362 30.9346 149.186 30.8429 148.977 30.8429ZM148.977 37.5092L152.752 30.2676H153.442L149.679 37.5092H148.977ZM151.962 35.6456C151.962 35.1537 152.083 34.7368 152.326 34.3949C152.576 34.0531 152.94 33.8821 153.417 33.8821C153.851 33.8821 154.211 34.0364 154.495 34.3449C154.78 34.6451 154.922 35.0953 154.922 35.6956C154.922 36.2793 154.775 36.7296 154.483 37.0464C154.198 37.3549 153.843 37.5092 153.417 37.5092C153.007 37.5092 152.66 37.3549 152.376 37.0464C152.1 36.7379 151.962 36.271 151.962 35.6456ZM153.442 34.4574C153.224 34.4574 153.045 34.5492 152.902 34.7326C152.769 34.916 152.702 35.2496 152.702 35.7332C152.702 36.1667 152.773 36.4753 152.915 36.6587C153.057 36.8421 153.233 36.9338 153.442 36.9338C153.651 36.9338 153.826 36.8421 153.968 36.6587C154.111 36.4753 154.182 36.1417 154.182 35.6581C154.182 35.2162 154.111 34.9077 153.968 34.7326C153.826 34.5492 153.651 34.4574 153.442 34.4574Z" fill="#9E9E9E"/>
<path d="M133.303 27.2574H220.39L343.252 22.5332" stroke="#757575" stroke-width="0.566573" stroke-miterlimit="10"/>
<path d="M344.857 22.5325C344.857 21.6484 344.138 20.9316 343.252 20.9316C342.365 20.9316 341.646 21.6484 341.646 22.5325C341.646 23.4167 342.365 24.1335 343.252 24.1335C344.138 24.1335 344.857 23.4167 344.857 22.5325Z" fill="#9E9E9E"/>
<path d="M138.159 61.2625V62.0754H133.594C133.594 61.8753 133.627 61.6794 133.694 61.4876C133.811 61.1791 133.995 60.8748 134.246 60.5746C134.505 60.2744 134.877 59.9284 135.362 59.5365C136.115 58.9195 136.62 58.4317 136.88 58.0732C137.147 57.7146 137.281 57.3769 137.281 57.0601C137.281 56.7266 137.16 56.4473 136.917 56.2221C136.675 55.9887 136.361 55.8719 135.977 55.8719C135.567 55.8719 135.241 55.9928 134.998 56.2346C134.756 56.4764 134.631 56.8141 134.622 57.2477L133.757 57.1602C133.815 56.5098 134.037 56.0178 134.421 55.6843C134.814 55.3425 135.341 55.1715 136.002 55.1715C136.662 55.1715 137.185 55.355 137.569 55.7218C137.954 56.0887 138.146 56.5431 138.146 57.0851C138.146 57.3603 138.088 57.6313 137.971 57.8981C137.862 58.1566 137.674 58.4359 137.406 58.736C137.147 59.0279 136.717 59.4281 136.115 59.9367C135.605 60.362 135.274 60.6538 135.124 60.8122C134.982 60.9623 134.865 61.1124 134.773 61.2625H138.159ZM139.777 62.0754V61.1124H140.742V62.0754C140.742 62.4256 140.68 62.7091 140.554 62.9259C140.429 63.151 140.232 63.322 139.965 63.4387L139.726 63.076C139.902 63.001 140.032 62.8842 140.115 62.7258C140.199 62.5757 140.249 62.3589 140.266 62.0754H139.777ZM141.733 58.686C141.733 57.8689 141.817 57.2144 141.984 56.7224C142.151 56.2221 142.398 55.8386 142.724 55.5718C143.058 55.3049 143.476 55.1715 143.978 55.1715C144.346 55.1715 144.668 55.2466 144.944 55.3967C145.228 55.5467 145.462 55.7635 145.646 56.047C145.83 56.3222 145.972 56.6599 146.072 57.0601C146.173 57.4603 146.223 58.0023 146.223 58.686C146.223 59.4948 146.139 60.1452 145.972 60.6371C145.813 61.1291 145.567 61.5126 145.232 61.7878C144.906 62.0546 144.488 62.188 143.978 62.188C143.317 62.188 142.795 61.9504 142.41 61.4751C141.959 60.9081 141.733 59.9784 141.733 58.686ZM142.598 58.686C142.598 59.8117 142.732 60.5621 143 60.9373C143.267 61.3125 143.593 61.5001 143.978 61.5001C144.371 61.5001 144.697 61.3125 144.956 60.9373C145.224 60.5621 145.358 59.8117 145.358 58.686C145.358 57.552 145.224 56.8016 144.956 56.4347C144.697 56.0595 144.367 55.8719 143.965 55.8719C143.581 55.8719 143.271 56.0345 143.037 56.3597C142.745 56.7766 142.598 57.552 142.598 58.686ZM147.515 56.8475C147.515 56.3555 147.636 55.9386 147.878 55.5968C148.129 55.2549 148.489 55.084 148.957 55.084C149.392 55.084 149.751 55.2382 150.035 55.5467C150.32 55.8553 150.462 56.3055 150.462 56.8975C150.462 57.4812 150.316 57.9314 150.023 58.2483C149.739 58.5568 149.387 58.711 148.969 58.711C148.551 58.711 148.204 58.5568 147.929 58.2483C147.653 57.9398 147.515 57.4728 147.515 56.8475ZM148.982 55.6593C148.773 55.6593 148.597 55.751 148.455 55.9345C148.321 56.1179 148.255 56.4514 148.255 56.935C148.255 57.3769 148.321 57.6896 148.455 57.8731C148.597 58.0482 148.773 58.1357 148.982 58.1357C149.199 58.1357 149.375 58.044 149.509 57.8606C149.651 57.6771 149.722 57.3478 149.722 56.8725C149.722 56.4222 149.651 56.1096 149.509 55.9345C149.367 55.751 149.191 55.6593 148.982 55.6593ZM148.982 62.3256L152.757 55.084H153.447L149.684 62.3256H148.982ZM151.967 60.462C151.967 59.9701 152.088 59.5532 152.331 59.2113C152.581 58.8695 152.945 58.6985 153.422 58.6985C153.856 58.6985 154.216 58.8528 154.5 59.1613C154.784 59.4615 154.927 59.9117 154.927 60.5121C154.927 61.0957 154.78 61.546 154.488 61.8628C154.203 62.1713 153.848 62.3256 153.422 62.3256C153.012 62.3256 152.665 62.1713 152.381 61.8628C152.105 61.5543 151.967 61.0874 151.967 60.462ZM153.447 59.2739C153.229 59.2739 153.05 59.3656 152.907 59.549C152.774 59.7324 152.707 60.066 152.707 60.5496C152.707 60.9832 152.778 61.2917 152.92 61.4751C153.062 61.6585 153.238 61.7503 153.447 61.7503C153.656 61.7503 153.831 61.6585 153.973 61.4751C154.116 61.2917 154.187 60.9581 154.187 60.4745C154.187 60.0326 154.116 59.7241 153.973 59.549C153.831 59.3656 153.656 59.2739 153.447 59.2739Z" fill="#9E9E9E"/>
<path d="M133.303 52.0659H220.39L319.869 27.7402" stroke="#757575" stroke-width="0.566573" stroke-miterlimit="10"/>
<path d="M321.472 27.7454C321.472 26.8613 320.754 26.1445 319.867 26.1445C318.98 26.1445 318.262 26.8613 318.262 27.7454C318.262 28.6296 318.98 29.3463 319.867 29.3463C320.754 29.3463 321.472 28.6296 321.472 27.7454Z" fill="#9E9E9E"/>
<path d="M136.891 97.3313H136.051V91.9533C135.841 92.145 135.57 92.341 135.235 92.5411C134.909 92.7329 134.617 92.8746 134.357 92.9663V92.1534C134.826 91.9282 135.235 91.6614 135.586 91.3529C135.946 91.0361 136.201 90.7276 136.351 90.4274H136.891V97.3313ZM139.324 93.9419C139.324 93.1248 139.407 92.4702 139.575 91.9783C139.742 91.478 139.988 91.0944 140.315 90.8276C140.649 90.5608 141.067 90.4274 141.569 90.4274C141.937 90.4274 142.258 90.5024 142.534 90.6525C142.819 90.8026 143.053 91.0194 143.237 91.3029C143.421 91.578 143.563 91.9157 143.663 92.316C143.763 92.7162 143.814 93.2582 143.814 93.9419C143.814 94.7507 143.73 95.401 143.563 95.893C143.404 96.3849 143.157 96.7685 142.823 97.0436C142.497 97.3105 142.079 97.4439 141.569 97.4439C140.908 97.4439 140.386 97.2062 140.001 96.731C139.55 96.164 139.324 95.2343 139.324 93.9419ZM140.189 93.9419C140.189 95.0675 140.323 95.8179 140.59 96.1932C140.858 96.5684 141.184 96.756 141.569 96.756C141.962 96.756 142.288 96.5684 142.547 96.1932C142.814 95.8179 142.948 95.0675 142.948 93.9419C142.948 92.8079 142.814 92.0575 142.547 91.6906C142.288 91.3154 141.957 91.1278 141.556 91.1278C141.172 91.1278 140.862 91.2904 140.628 91.6156C140.335 92.0325 140.189 92.8079 140.189 93.9419ZM145.394 97.3313V96.3683H146.359V97.3313C146.359 97.6815 146.297 97.965 146.171 98.1818C146.046 98.4069 145.849 98.5778 145.582 98.6946L145.344 98.3319C145.519 98.2568 145.649 98.1401 145.732 97.9817C145.816 97.8316 145.866 97.6148 145.883 97.3313H145.394ZM147.35 93.9419C147.35 93.1248 147.434 92.4702 147.601 91.9783C147.768 91.478 148.015 91.0944 148.341 90.8276C148.675 90.5608 149.093 90.4274 149.595 90.4274C149.963 90.4274 150.285 90.5024 150.561 90.6525C150.845 90.8026 151.079 91.0194 151.263 91.3029C151.447 91.578 151.589 91.9157 151.69 92.316C151.79 92.7162 151.84 93.2582 151.84 93.9419C151.84 94.7507 151.756 95.401 151.589 95.893C151.43 96.3849 151.184 96.7685 150.849 97.0436C150.523 97.3105 150.105 97.4439 149.595 97.4439C148.935 97.4439 148.412 97.2062 148.027 96.731C147.576 96.164 147.35 95.2343 147.35 93.9419ZM148.216 93.9419C148.216 95.0675 148.349 95.8179 148.617 96.1932C148.884 96.5684 149.211 96.756 149.595 96.756C149.988 96.756 150.314 96.5684 150.573 96.1932C150.841 95.8179 150.975 95.0675 150.975 93.9419C150.975 92.8079 150.841 92.0575 150.573 91.6906C150.314 91.3154 149.984 91.1278 149.583 91.1278C149.198 91.1278 148.889 91.2904 148.655 91.6156C148.362 92.0325 148.216 92.8079 148.216 93.9419ZM153.132 92.1033C153.132 91.6114 153.253 91.1945 153.496 90.8526C153.746 90.5108 154.106 90.3398 154.574 90.3398C155.009 90.3398 155.368 90.4941 155.653 90.8026C155.937 91.1111 156.079 91.5614 156.079 92.1534C156.079 92.737 155.933 93.1873 155.64 93.5041C155.356 93.8126 155.005 93.9669 154.587 93.9669C154.169 93.9669 153.822 93.8126 153.546 93.5041C153.27 93.1956 153.132 92.7287 153.132 92.1033ZM154.599 90.9152C154.39 90.9152 154.215 91.0069 154.072 91.1903C153.939 91.3738 153.872 91.7073 153.872 92.1909C153.872 92.6328 153.939 92.9455 154.072 93.1289C154.215 93.304 154.39 93.3916 154.599 93.3916C154.817 93.3916 154.992 93.2998 155.126 93.1164C155.268 92.933 155.339 92.6036 155.339 92.1284C155.339 91.6781 155.268 91.3654 155.126 91.1903C154.984 91.0069 154.808 90.9152 154.599 90.9152ZM154.599 97.5814L158.374 90.3398H159.064L155.301 97.5814H154.599ZM157.584 95.7179C157.584 95.2259 157.705 94.809 157.948 94.4672C158.199 94.1253 158.562 93.9544 159.039 93.9544C159.474 93.9544 159.833 94.1086 160.117 94.4171C160.402 94.7173 160.544 95.1676 160.544 95.7679C160.544 96.3516 160.397 96.8018 160.105 97.1187C159.821 97.4272 159.465 97.5814 159.039 97.5814C158.629 97.5814 158.282 97.4272 157.998 97.1187C157.722 96.8102 157.584 96.3432 157.584 95.7179ZM159.064 94.5297C158.846 94.5297 158.667 94.6214 158.525 94.8049C158.391 94.9883 158.324 95.3218 158.324 95.8054C158.324 96.239 158.395 96.5475 158.537 96.731C158.679 96.9144 158.855 97.0061 159.064 97.0061C159.273 97.0061 159.448 96.9144 159.591 96.731C159.733 96.5475 159.804 96.214 159.804 95.7304C159.804 95.2885 159.733 94.98 159.591 94.8049C159.448 94.6214 159.273 94.5297 159.064 94.5297Z" fill="#9E9E9E"/>
<path d="M133.303 87.3203H220.39H247.652" stroke="#757575" stroke-width="0.566573" stroke-miterlimit="10"/>
<path d="M249.257 87.3255C249.257 86.4414 248.539 85.7246 247.652 85.7246C246.766 85.7246 246.047 86.4414 246.047 87.3255C246.047 88.2097 246.766 88.9264 247.652 88.9264C248.539 88.9264 249.257 88.2097 249.257 87.3255Z" fill="#9E9E9E"/>
<path d="M560.606 47.2375H559.765V41.8595C559.556 42.0513 559.285 42.2472 558.95 42.4473C558.624 42.6391 558.331 42.7809 558.072 42.8726V42.0596C558.54 41.8345 558.95 41.5677 559.301 41.2592C559.661 40.9423 559.916 40.6338 560.066 40.3336H560.606V47.2375ZM567.428 42.0471L566.588 42.1096C566.513 41.7761 566.408 41.5343 566.274 41.3842C566.04 41.1424 565.756 41.0215 565.421 41.0215C565.154 41.0215 564.916 41.0966 564.707 41.2467C564.447 41.4468 564.238 41.7344 564.08 42.1096C563.929 42.4765 563.85 43.0018 563.841 43.6855C564.042 43.377 564.289 43.1477 564.581 42.9976C564.882 42.8476 565.196 42.7725 565.522 42.7725C566.082 42.7725 566.559 42.981 566.952 43.3979C567.353 43.8148 567.554 44.3484 567.554 44.9988C567.554 45.4324 567.457 45.8368 567.265 46.212C567.081 46.5788 566.826 46.8623 566.5 47.0624C566.174 47.2542 565.806 47.3501 565.396 47.3501C564.686 47.3501 564.109 47.0916 563.666 46.5747C563.223 46.0577 563.001 45.2072 563.001 44.0232C563.001 42.6891 563.248 41.7219 563.741 41.1216C564.167 40.5963 564.744 40.3336 565.472 40.3336C566.015 40.3336 566.458 40.4879 566.801 40.7964C567.152 41.0966 567.361 41.5135 567.428 42.0471ZM563.979 45.0113C563.979 45.3031 564.038 45.5824 564.155 45.8493C564.28 46.1077 564.452 46.3079 564.669 46.4496C564.895 46.5913 565.133 46.6622 565.384 46.6622C565.735 46.6622 566.04 46.5205 566.299 46.237C566.559 45.9451 566.688 45.5533 566.688 45.0613C566.688 44.586 566.559 44.2108 566.299 43.9357C566.049 43.6605 565.731 43.5229 565.346 43.5229C564.962 43.5229 564.636 43.6605 564.368 43.9357C564.109 44.2108 563.979 44.5694 563.979 45.0113ZM569.109 47.2375V46.2745H570.074V47.2375C570.074 47.5877 570.012 47.8712 569.886 48.088C569.761 48.3132 569.564 48.4841 569.297 48.6008L569.058 48.2381C569.234 48.1631 569.364 48.0463 569.447 47.8879C569.531 47.7378 569.581 47.521 569.598 47.2375H569.109ZM571.065 43.8481C571.065 43.031 571.149 42.3765 571.316 41.8845C571.483 41.3842 571.73 41.0007 572.056 40.7339C572.39 40.4671 572.808 40.3336 573.31 40.3336C573.678 40.3336 574 40.4087 574.276 40.5588C574.56 40.7089 574.794 40.9256 574.978 41.2091C575.162 41.4843 575.304 41.822 575.404 42.2222C575.505 42.6224 575.555 43.1644 575.555 43.8481C575.555 44.6569 575.471 45.3073 575.304 45.7992C575.145 46.2912 574.899 46.6747 574.564 46.9499C574.238 47.2167 573.82 47.3501 573.31 47.3501C572.649 47.3501 572.127 47.1125 571.742 46.6372C571.291 46.0702 571.065 45.1405 571.065 43.8481ZM571.93 43.8481C571.93 44.9738 572.064 45.7242 572.332 46.0994C572.599 46.4746 572.925 46.6622 573.31 46.6622C573.703 46.6622 574.029 46.4746 574.288 46.0994C574.556 45.7242 574.69 44.9738 574.69 43.8481C574.69 42.7142 574.556 41.9637 574.288 41.5969C574.029 41.2216 573.699 41.034 573.297 41.034C572.913 41.034 572.604 41.1966 572.369 41.5218C572.077 41.9387 571.93 42.7142 571.93 43.8481ZM576.847 42.0096C576.847 41.5176 576.968 41.1007 577.21 40.7589C577.461 40.417 577.821 40.2461 578.289 40.2461C578.724 40.2461 579.083 40.4003 579.367 40.7089C579.652 41.0174 579.794 41.4676 579.794 42.0596C579.794 42.6433 579.648 43.0935 579.355 43.4104C579.071 43.7189 578.719 43.8731 578.301 43.8731C577.883 43.8731 577.536 43.7189 577.261 43.4104C576.985 43.1019 576.847 42.6349 576.847 42.0096ZM578.314 40.8214C578.105 40.8214 577.929 40.9131 577.787 41.0966C577.653 41.28 577.587 41.6135 577.587 42.0971C577.587 42.5391 577.653 42.8517 577.787 43.0352C577.929 43.2103 578.105 43.2978 578.314 43.2978C578.531 43.2978 578.707 43.2061 578.841 43.0227C578.983 42.8392 579.054 42.5099 579.054 42.0346C579.054 41.5844 578.983 41.2717 578.841 41.0966C578.699 40.9131 578.523 40.8214 578.314 40.8214ZM578.314 47.4877L582.089 40.2461H582.779L579.016 47.4877H578.314ZM581.299 45.6241C581.299 45.1322 581.42 44.7153 581.663 44.3734C581.913 44.0316 582.277 43.8606 582.754 43.8606C583.188 43.8606 583.548 44.0149 583.832 44.3234C584.116 44.6236 584.259 45.0738 584.259 45.6742C584.259 46.2578 584.112 46.7081 583.82 47.0249C583.535 47.3334 583.18 47.4877 582.754 47.4877C582.344 47.4877 581.997 47.3334 581.713 47.0249C581.437 46.7164 581.299 46.2495 581.299 45.6241ZM582.779 44.436C582.561 44.436 582.382 44.5277 582.239 44.7111C582.106 44.8946 582.039 45.2281 582.039 45.7117C582.039 46.1453 582.11 46.4538 582.252 46.6372C582.394 46.8206 582.57 46.9124 582.779 46.9124C582.988 46.9124 583.163 46.8206 583.305 46.6372C583.448 46.4538 583.519 46.1202 583.519 45.6366C583.519 45.1947 583.448 44.8862 583.305 44.7111C583.163 44.5277 582.988 44.436 582.779 44.436Z" fill="#9E9E9E"/>
<path d="M585.112 37.2383H498.025H420.535" stroke="#757575" stroke-width="0.566573" stroke-miterlimit="10"/>
<path d="M422.14 37.2376C422.14 36.3535 421.422 35.6367 420.535 35.6367C419.648 35.6367 418.93 36.3535 418.93 37.2376C418.93 38.1218 419.648 38.8385 420.535 38.8385C421.422 38.8385 422.14 38.1218 422.14 37.2376Z" fill="#9E9E9E"/>
<path d="M561.81 274.53L560.97 274.592C560.894 274.259 560.79 274.017 560.656 273.867C560.422 273.625 560.138 273.504 559.803 273.504C559.536 273.504 559.297 273.579 559.088 273.729C558.829 273.929 558.62 274.217 558.461 274.592C558.311 274.959 558.231 275.484 558.223 276.168C558.424 275.859 558.67 275.63 558.963 275.48C559.264 275.33 559.578 275.255 559.904 275.255C560.464 275.255 560.94 275.463 561.333 275.88C561.735 276.297 561.935 276.831 561.935 277.481C561.935 277.915 561.839 278.319 561.647 278.694C561.463 279.061 561.208 279.345 560.882 279.545C560.556 279.737 560.188 279.833 559.778 279.833C559.068 279.833 558.491 279.574 558.048 279.057C557.604 278.54 557.383 277.69 557.383 276.506C557.383 275.172 557.629 274.204 558.123 273.604C558.549 273.079 559.126 272.816 559.853 272.816C560.397 272.816 560.84 272.97 561.183 273.279C561.534 273.579 561.743 273.996 561.81 274.53ZM558.361 277.494C558.361 277.786 558.42 278.065 558.537 278.332C558.662 278.59 558.833 278.79 559.051 278.932C559.277 279.074 559.515 279.145 559.766 279.145C560.117 279.145 560.422 279.003 560.681 278.719C560.94 278.428 561.07 278.036 561.07 277.544C561.07 277.068 560.94 276.693 560.681 276.418C560.43 276.143 560.113 276.005 559.728 276.005C559.343 276.005 559.017 276.143 558.75 276.418C558.491 276.693 558.361 277.052 558.361 277.494ZM567.491 278.907V279.72H562.926C562.926 279.52 562.96 279.324 563.026 279.132C563.143 278.824 563.327 278.519 563.578 278.219C563.837 277.919 564.209 277.573 564.694 277.181C565.447 276.564 565.953 276.076 566.212 275.718C566.479 275.359 566.613 275.021 566.613 274.705C566.613 274.371 566.492 274.092 566.25 273.867C566.007 273.633 565.694 273.516 565.309 273.516C564.899 273.516 564.573 273.637 564.331 273.879C564.088 274.121 563.963 274.459 563.954 274.892L563.089 274.805C563.148 274.154 563.369 273.662 563.754 273.329C564.147 272.987 564.673 272.816 565.334 272.816C565.995 272.816 566.517 273 566.902 273.366C567.286 273.733 567.479 274.188 567.479 274.73C567.479 275.005 567.42 275.276 567.303 275.543C567.194 275.801 567.006 276.08 566.739 276.381C566.479 276.672 566.049 277.073 565.447 277.581C564.937 278.006 564.607 278.298 564.456 278.457C564.314 278.607 564.197 278.757 564.105 278.907H567.491ZM569.109 279.72V278.757H570.075V279.72C570.075 280.07 570.012 280.354 569.887 280.57C569.761 280.796 569.565 280.967 569.297 281.083L569.059 280.721C569.234 280.646 569.364 280.529 569.448 280.37C569.531 280.22 569.581 280.003 569.598 279.72H569.109ZM571.065 276.331C571.065 275.513 571.149 274.859 571.316 274.367C571.483 273.867 571.73 273.483 572.056 273.216C572.391 272.949 572.809 272.816 573.31 272.816C573.678 272.816 574 272.891 574.276 273.041C574.56 273.191 574.794 273.408 574.978 273.692C575.162 273.967 575.304 274.304 575.405 274.705C575.505 275.105 575.555 275.647 575.555 276.331C575.555 277.139 575.472 277.79 575.304 278.282C575.146 278.774 574.899 279.157 574.564 279.432C574.238 279.699 573.82 279.833 573.31 279.833C572.65 279.833 572.127 279.595 571.743 279.12C571.291 278.553 571.065 277.623 571.065 276.331ZM571.931 276.331C571.931 277.456 572.065 278.207 572.332 278.582C572.6 278.957 572.926 279.145 573.31 279.145C573.703 279.145 574.029 278.957 574.289 278.582C574.556 278.207 574.69 277.456 574.69 276.331C574.69 275.197 574.556 274.446 574.289 274.079C574.029 273.704 573.699 273.516 573.298 273.516C572.913 273.516 572.604 273.679 572.37 274.004C572.077 274.421 571.931 275.197 571.931 276.331ZM576.847 274.492C576.847 274 576.968 273.583 577.211 273.241C577.461 272.899 577.821 272.729 578.289 272.729C578.724 272.729 579.084 272.883 579.368 273.191C579.652 273.5 579.794 273.95 579.794 274.542C579.794 275.126 579.648 275.576 579.355 275.893C579.071 276.201 578.72 276.356 578.302 276.356C577.884 276.356 577.537 276.201 577.261 275.893C576.985 275.584 576.847 275.117 576.847 274.492ZM578.314 273.304C578.105 273.304 577.93 273.396 577.788 273.579C577.654 273.762 577.587 274.096 577.587 274.58C577.587 275.021 577.654 275.334 577.788 275.518C577.93 275.693 578.105 275.78 578.314 275.78C578.532 275.78 578.707 275.689 578.841 275.505C578.983 275.322 579.054 274.992 579.054 274.517C579.054 274.067 578.983 273.754 578.841 273.579C578.699 273.396 578.523 273.304 578.314 273.304ZM578.314 279.97L582.089 272.729H582.779L579.017 279.97H578.314ZM581.299 278.107C581.299 277.615 581.42 277.198 581.663 276.856C581.914 276.514 582.277 276.343 582.754 276.343C583.189 276.343 583.548 276.497 583.833 276.806C584.117 277.106 584.259 277.556 584.259 278.157C584.259 278.74 584.113 279.19 583.82 279.507C583.536 279.816 583.18 279.97 582.754 279.97C582.344 279.97 581.997 279.816 581.713 279.507C581.437 279.199 581.299 278.732 581.299 278.107ZM582.779 276.918C582.562 276.918 582.382 277.01 582.24 277.194C582.106 277.377 582.039 277.71 582.039 278.194C582.039 278.628 582.11 278.936 582.252 279.12C582.394 279.303 582.57 279.395 582.779 279.395C582.988 279.395 583.164 279.303 583.306 279.12C583.448 278.936 583.519 278.603 583.519 278.119C583.519 277.677 583.448 277.369 583.306 277.194C583.164 277.01 582.988 276.918 582.779 276.918Z" fill="#9E9E9E"/>
<path d="M585.111 269.715H498.024L383.061 273.191" stroke="#757575" stroke-width="0.566573" stroke-miterlimit="10"/>
<path d="M384.664 273.191C384.664 272.307 383.945 271.59 383.058 271.59C382.172 271.59 381.453 272.307 381.453 273.191C381.453 274.075 382.172 274.792 383.058 274.792C383.945 274.792 384.664 274.075 384.664 273.191Z" fill="#9E9E9E"/>
<path d="M528.957 29.8973C527.869 29.8973 526.934 29.6424 526.152 29.1325C525.382 28.6112 524.843 27.8973 524.537 26.9908L525.557 26.3959C525.772 27.1324 526.169 27.7104 526.747 28.1296C527.325 28.5375 528.067 28.7415 528.974 28.7415C529.857 28.7415 530.543 28.5489 531.03 28.1636C531.529 27.767 531.778 27.2458 531.778 26.5999C531.778 25.9766 531.552 25.5064 531.098 25.1891C530.645 24.8718 529.897 24.5432 528.855 24.2033C527.619 23.7953 526.804 23.4667 526.407 23.2174C525.501 22.6735 525.047 21.886 525.047 20.8548C525.047 19.8463 525.399 19.0531 526.101 18.4752C526.804 17.886 527.67 17.5914 528.702 17.5914C529.631 17.5914 530.435 17.835 531.115 18.3222C531.795 18.7982 532.299 19.4101 532.628 20.1579L531.625 20.7188C531.081 19.4044 530.107 18.7472 528.702 18.7472C527.965 18.7472 527.37 18.9285 526.917 19.2911C526.464 19.6537 526.237 20.1579 526.237 20.8038C526.237 21.3931 526.441 21.835 526.849 22.1296C527.257 22.4242 527.931 22.7245 528.872 23.0305C529.302 23.1778 529.608 23.2854 529.789 23.3534C529.982 23.4101 530.254 23.512 530.605 23.6594C530.968 23.7953 531.234 23.92 531.404 24.0333C531.574 24.1353 531.778 24.2826 532.016 24.4752C532.265 24.6565 532.441 24.8435 532.543 25.0361C532.656 25.2174 532.753 25.4441 532.832 25.716C532.923 25.9766 532.968 26.2599 532.968 26.5659C532.968 27.5744 532.6 28.3846 531.863 28.9965C531.127 29.597 530.158 29.8973 528.957 29.8973ZM542.128 28.6225C541.267 29.4724 540.213 29.8973 538.967 29.8973C537.72 29.8973 536.661 29.4724 535.788 28.6225C534.927 27.7613 534.497 26.7019 534.497 25.4441C534.497 24.1863 534.927 23.1324 535.788 22.2826C536.661 21.4214 537.72 20.9908 538.967 20.9908C540.213 20.9908 541.267 21.4214 542.128 22.2826C543.001 23.1324 543.437 24.1863 543.437 25.4441C543.437 26.7019 543.001 27.7613 542.128 28.6225ZM536.587 27.8407C537.233 28.4866 538.026 28.8095 538.967 28.8095C539.907 28.8095 540.701 28.4866 541.346 27.8407C541.992 27.1834 542.315 26.3846 542.315 25.4441C542.315 24.5035 541.992 23.7103 541.346 23.0645C540.701 22.4072 539.907 22.0786 538.967 22.0786C538.026 22.0786 537.233 22.4072 536.587 23.0645C535.941 23.7103 535.618 24.5035 535.618 25.4441C535.618 26.3846 535.941 27.1834 536.587 27.8407ZM546.024 28.6055H550.919V29.6934H544.46V28.9455L549.185 22.2826H544.63V21.1948H550.749V21.9426L546.024 28.6055ZM553.923 19.1551C553.764 19.3137 553.571 19.3931 553.345 19.3931C553.118 19.3931 552.926 19.3137 552.767 19.1551C552.608 18.9965 552.529 18.8038 552.529 18.5772C552.529 18.3506 552.608 18.1579 552.767 17.9993C552.926 17.8406 553.118 17.7613 553.345 17.7613C553.571 17.7613 553.764 17.8406 553.923 17.9993C554.081 18.1579 554.161 18.3506 554.161 18.5772C554.161 18.8038 554.081 18.9965 553.923 19.1551ZM552.784 29.6934V21.1948H553.906V29.6934H552.784ZM560.264 20.9908C561.295 20.9908 562.105 21.3081 562.694 21.9426C563.295 22.5659 563.595 23.4101 563.595 24.4752V29.6934H562.473V24.4752C562.473 23.716 562.269 23.1268 561.861 22.7075C561.465 22.2882 560.898 22.0786 560.162 22.0786C559.346 22.0786 558.683 22.3392 558.173 22.8605C557.663 23.3704 557.408 24.1636 557.408 25.2401V29.6934H556.286V21.1948H557.408V22.5205C558.043 21.5007 558.994 20.9908 560.264 20.9908ZM569.742 20.9908C570.773 20.9908 571.583 21.3081 572.172 21.9426C572.773 22.5659 573.073 23.4101 573.073 24.4752V29.6934H571.951V24.4752C571.951 23.716 571.747 23.1268 571.339 22.7075C570.943 22.2882 570.376 22.0786 569.64 22.0786C568.824 22.0786 568.161 22.3392 567.651 22.8605C567.141 23.3704 566.886 24.1636 566.886 25.2401V29.6934H565.764V17.7953H566.886V22.5205C567.521 21.5007 568.472 20.9908 569.742 20.9908ZM582.364 28.6225C581.503 29.4724 580.449 29.8973 579.202 29.8973C577.956 29.8973 576.897 29.4724 576.024 28.6225C575.163 27.7613 574.732 26.7019 574.732 25.4441C574.732 24.1863 575.163 23.1324 576.024 22.2826C576.897 21.4214 577.956 20.9908 579.202 20.9908C580.449 20.9908 581.503 21.4214 582.364 22.2826C583.236 23.1324 583.673 24.1863 583.673 25.4441C583.673 26.7019 583.236 27.7613 582.364 28.6225ZM576.823 27.8407C577.469 28.4866 578.262 28.8095 579.202 28.8095C580.143 28.8095 580.936 28.4866 581.582 27.8407C582.228 27.1834 582.551 26.3846 582.551 25.4441C582.551 24.5035 582.228 23.7103 581.582 23.0645C580.936 22.4072 580.143 22.0786 579.202 22.0786C578.262 22.0786 577.469 22.4072 576.823 23.0645C576.177 23.7103 575.854 24.5035 575.854 25.4441C575.854 26.3846 576.177 27.1834 576.823 27.8407Z" fill="black"/>
<path d="M495.502 261.554C493.7 261.554 492.21 260.959 491.032 259.769C489.853 258.579 489.264 257.123 489.264 255.401C489.264 253.678 489.853 252.222 491.032 251.032C492.21 249.843 493.7 249.248 495.502 249.248C496.601 249.248 497.61 249.514 498.528 250.046C499.445 250.568 500.154 251.276 500.652 252.171L499.598 252.783C499.225 252.058 498.669 251.48 497.933 251.049C497.196 250.619 496.386 250.403 495.502 250.403C494.018 250.403 492.805 250.885 491.865 251.848C490.924 252.811 490.454 253.995 490.454 255.401C490.454 256.806 490.924 257.99 491.865 258.953C492.805 259.916 494.018 260.398 495.502 260.398C496.386 260.398 497.196 260.182 497.933 259.752C498.669 259.321 499.225 258.743 499.598 258.018L500.652 258.613C500.165 259.508 499.457 260.222 498.528 260.755C497.61 261.287 496.601 261.554 495.502 261.554ZM509.478 260.279C508.617 261.129 507.563 261.554 506.316 261.554C505.07 261.554 504.01 261.129 503.138 260.279C502.277 259.418 501.846 258.358 501.846 257.1C501.846 255.843 502.277 254.789 503.138 253.939C504.01 253.078 505.07 252.647 506.316 252.647C507.563 252.647 508.617 253.078 509.478 253.939C510.35 254.789 510.787 255.843 510.787 257.1C510.787 258.358 510.35 259.418 509.478 260.279ZM503.937 259.497C504.583 260.143 505.376 260.466 506.316 260.466C507.257 260.466 508.05 260.143 508.696 259.497C509.342 258.84 509.665 258.041 509.665 257.1C509.665 256.16 509.342 255.367 508.696 254.721C508.05 254.063 507.257 253.735 506.316 253.735C505.376 253.735 504.583 254.063 503.937 254.721C503.291 255.367 502.968 256.16 502.968 257.1C502.968 258.041 503.291 258.84 503.937 259.497ZM521.723 252.647C522.675 252.647 523.44 252.953 524.018 253.565C524.607 254.177 524.902 255.004 524.902 256.046V261.35H523.78V256.046C523.78 255.31 523.587 254.743 523.202 254.347C522.828 253.939 522.33 253.735 521.706 253.735C521.004 253.735 520.432 253.973 519.99 254.449C519.559 254.913 519.344 255.644 519.344 256.641V261.35H518.222V256.046C518.222 255.299 518.041 254.726 517.678 254.33C517.327 253.933 516.845 253.735 516.233 253.735C515.553 253.735 514.975 253.973 514.5 254.449C514.024 254.925 513.786 255.656 513.786 256.641V261.35H512.664V252.851H513.786V254.092C514.398 253.129 515.264 252.647 516.386 252.647C517.61 252.647 518.471 253.163 518.97 254.194C519.582 253.163 520.5 252.647 521.723 252.647ZM538.443 260.279C537.582 261.129 536.528 261.554 535.281 261.554C534.035 261.554 532.975 261.129 532.103 260.279C531.242 259.418 530.811 258.358 530.811 257.1C530.811 255.843 531.242 254.789 532.103 253.939C532.975 253.078 534.035 252.647 535.281 252.647C536.528 252.647 537.582 253.078 538.443 253.939C539.315 254.789 539.752 255.843 539.752 257.1C539.752 258.358 539.315 259.418 538.443 260.279ZM532.902 259.497C533.548 260.143 534.341 260.466 535.281 260.466C536.222 260.466 537.015 260.143 537.661 259.497C538.307 258.84 538.63 258.041 538.63 257.1C538.63 256.16 538.307 255.367 537.661 254.721C537.015 254.063 536.222 253.735 535.281 253.735C534.341 253.735 533.548 254.063 532.902 254.721C532.256 255.367 531.933 256.16 531.933 257.1C531.933 258.041 532.256 258.84 532.902 259.497ZM542.347 255.078C542.347 255.463 542.517 255.769 542.857 255.995C543.197 256.222 543.61 256.398 544.097 256.522C544.585 256.647 545.072 256.789 545.559 256.947C546.046 257.095 546.46 257.35 546.8 257.712C547.14 258.063 547.31 258.528 547.31 259.106C547.31 259.831 547.021 260.42 546.443 260.874C545.876 261.327 545.14 261.554 544.233 261.554C543.417 261.554 542.721 261.372 542.143 261.01C541.576 260.647 541.18 260.177 540.953 259.599L541.905 259.038C542.063 259.48 542.347 259.831 542.755 260.092C543.174 260.341 543.667 260.466 544.233 260.466C544.789 260.466 545.253 260.358 545.627 260.143C546.001 259.916 546.188 259.571 546.188 259.106C546.188 258.721 546.018 258.415 545.678 258.188C545.338 257.962 544.925 257.786 544.437 257.661C543.95 257.537 543.463 257.401 542.976 257.253C542.488 257.095 542.075 256.84 541.735 256.488C541.395 256.126 541.225 255.656 541.225 255.078C541.225 254.386 541.497 253.809 542.041 253.344C542.596 252.879 543.293 252.647 544.131 252.647C544.823 252.647 545.429 252.806 545.95 253.123C546.471 253.429 546.857 253.848 547.106 254.381L546.171 254.925C545.842 254.131 545.163 253.735 544.131 253.735C543.644 253.735 543.225 253.854 542.874 254.092C542.522 254.318 542.347 254.647 542.347 255.078ZM557.986 252.647C559.198 252.647 560.229 253.078 561.079 253.939C561.941 254.8 562.371 255.854 562.371 257.1C562.371 258.347 561.941 259.401 561.079 260.262C560.229 261.123 559.198 261.554 557.986 261.554C556.479 261.554 555.334 260.93 554.552 259.684V264.749H553.431V252.851H554.552V254.517C555.334 253.27 556.479 252.647 557.986 252.647ZM555.521 259.497C556.167 260.143 556.96 260.466 557.901 260.466C558.841 260.466 559.635 260.143 560.28 259.497C560.926 258.84 561.249 258.041 561.249 257.1C561.249 256.16 560.926 255.367 560.28 254.721C559.635 254.063 558.841 253.735 557.901 253.735C556.96 253.735 556.167 254.063 555.521 254.721C554.875 255.367 554.552 256.16 554.552 257.1C554.552 258.041 554.875 258.84 555.521 259.497ZM571.545 252.851H572.667V261.35H571.545V259.684C570.763 260.93 569.619 261.554 568.112 261.554C566.899 261.554 565.862 261.123 565.001 260.262C564.151 259.401 563.726 258.347 563.726 257.1C563.726 255.854 564.151 254.8 565.001 253.939C565.862 253.078 566.899 252.647 568.112 252.647C569.619 252.647 570.763 253.27 571.545 254.517V252.851ZM565.817 259.497C566.463 260.143 567.256 260.466 568.197 260.466C569.137 260.466 569.93 260.143 570.576 259.497C571.222 258.84 571.545 258.041 571.545 257.1C571.545 256.16 571.222 255.367 570.576 254.721C569.93 254.063 569.137 253.735 568.197 253.735C567.256 253.735 566.463 254.063 565.817 254.721C565.171 255.367 564.848 256.16 564.848 257.1C564.848 258.041 565.171 258.84 565.817 259.497ZM576.181 250.811C576.022 250.97 575.83 251.049 575.603 251.049C575.377 251.049 575.184 250.97 575.025 250.811C574.867 250.653 574.787 250.46 574.787 250.233C574.787 250.007 574.867 249.814 575.025 249.656C575.184 249.497 575.377 249.418 575.603 249.418C575.83 249.418 576.022 249.497 576.181 249.656C576.34 249.814 576.419 250.007 576.419 250.233C576.419 250.46 576.34 250.653 576.181 250.811ZM575.042 261.35V252.851H576.164V261.35H575.042ZM579.428 255.078C579.428 255.463 579.598 255.769 579.938 255.995C580.278 256.222 580.692 256.398 581.179 256.522C581.666 256.647 582.154 256.789 582.641 256.947C583.128 257.095 583.542 257.35 583.882 257.712C584.222 258.063 584.392 258.528 584.392 259.106C584.392 259.831 584.103 260.42 583.525 260.874C582.958 261.327 582.222 261.554 581.315 261.554C580.499 261.554 579.802 261.372 579.224 261.01C578.658 260.647 578.261 260.177 578.035 259.599L578.987 259.038C579.145 259.48 579.428 259.831 579.836 260.092C580.256 260.341 580.749 260.466 581.315 260.466C581.87 260.466 582.335 260.358 582.709 260.143C583.083 259.916 583.27 259.571 583.27 259.106C583.27 258.721 583.1 258.415 582.76 258.188C582.42 257.962 582.006 257.786 581.519 257.661C581.032 257.537 580.545 257.401 580.057 257.253C579.57 257.095 579.157 256.84 578.817 256.488C578.477 256.126 578.307 255.656 578.307 255.078C578.307 254.386 578.579 253.809 579.123 253.344C579.678 252.879 580.375 252.647 581.213 252.647C581.904 252.647 582.511 252.806 583.032 253.123C583.553 253.429 583.938 253.848 584.188 254.381L583.253 254.925C582.924 254.131 582.244 253.735 581.213 253.735C580.726 253.735 580.307 253.854 579.955 254.092C579.604 254.318 579.428 254.647 579.428 255.078Z" fill="black"/>
<path d="M8.02944 29.8973C6.22774 29.8973 4.73765 29.3024 3.55918 28.1126C2.3807 26.9228 1.79147 25.4667 1.79147 23.7443C1.79147 22.022 2.3807 20.5659 3.55918 19.3761C4.73765 18.1863 6.22774 17.5914 8.02944 17.5914C9.12859 17.5914 10.1371 17.8576 11.0549 18.3902C11.9728 18.9115 12.681 19.6197 13.1796 20.5149L12.1258 21.1268C11.7518 20.4016 11.1966 19.8237 10.46 19.3931C9.7235 18.9625 8.9133 18.7472 8.02944 18.7472C6.54502 18.7472 5.33255 19.2287 4.39204 20.1919C3.45153 21.1551 2.98127 22.3392 2.98127 23.7443C2.98127 25.1494 3.45153 26.3336 4.39204 27.2968C5.33255 28.2599 6.54502 28.7415 8.02944 28.7415C8.9133 28.7415 9.7235 28.5262 10.46 28.0956C11.1966 27.665 11.7518 27.0871 12.1258 26.3619L13.1796 26.9568C12.6923 27.852 11.9841 28.5659 11.0549 29.0985C10.1371 29.631 9.12859 29.8973 8.02944 29.8973ZM22.0051 28.6225C21.1439 29.4724 20.0901 29.8973 18.8436 29.8973C17.5972 29.8973 16.5377 29.4724 15.6652 28.6225C14.804 27.7613 14.3734 26.7019 14.3734 25.4441C14.3734 24.1863 14.804 23.1324 15.6652 22.2826C16.5377 21.4214 17.5972 20.9908 18.8436 20.9908C20.0901 20.9908 21.1439 21.4214 22.0051 22.2826C22.8776 23.1324 23.3139 24.1863 23.3139 25.4441C23.3139 26.7019 22.8776 27.7613 22.0051 28.6225ZM16.464 27.8407C17.1099 28.4866 17.9031 28.8095 18.8436 28.8095C19.7842 28.8095 20.5774 28.4866 21.2233 27.8407C21.8691 27.1834 22.1921 26.3846 22.1921 25.4441C22.1921 24.5035 21.8691 23.7103 21.2233 23.0645C20.5774 22.4072 19.7842 22.0786 18.8436 22.0786C17.9031 22.0786 17.1099 22.4072 16.464 23.0645C15.8181 23.7103 15.4952 24.5035 15.4952 25.4441C15.4952 26.3846 15.8181 27.1834 16.464 27.8407ZM34.2507 20.9908C35.2025 20.9908 35.9674 21.2967 36.5453 21.9086C37.1345 22.5205 37.4292 23.3477 37.4292 24.3902V29.6934H36.3073V24.3902C36.3073 23.6537 36.1147 23.0871 35.7294 22.6905C35.3555 22.2826 34.8569 22.0786 34.2337 22.0786C33.5311 22.0786 32.9589 22.3166 32.517 22.7925C32.0864 23.2571 31.8711 23.988 31.8711 24.9851V29.6934H30.7493V24.3902C30.7493 23.6424 30.568 23.0701 30.2053 22.6735C29.8541 22.2769 29.3725 22.0786 28.7606 22.0786C28.0807 22.0786 27.5028 22.3166 27.0269 22.7925C26.5509 23.2684 26.313 23.9993 26.313 24.9851V29.6934H25.1912V21.1948H26.313V22.4356C26.9249 21.4724 27.7917 20.9908 28.9136 20.9908C30.1374 20.9908 30.9985 21.5064 31.4971 22.5375C32.109 21.5064 33.0269 20.9908 34.2507 20.9908ZM50.9701 28.6225C50.1089 29.4724 49.0551 29.8973 47.8086 29.8973C46.5621 29.8973 45.5026 29.4724 44.6301 28.6225C43.7689 27.7613 43.3383 26.7019 43.3383 25.4441C43.3383 24.1863 43.7689 23.1324 44.6301 22.2826C45.5026 21.4214 46.5621 20.9908 47.8086 20.9908C49.0551 20.9908 50.1089 21.4214 50.9701 22.2826C51.8426 23.1324 52.2789 24.1863 52.2789 25.4441C52.2789 26.7019 51.8426 27.7613 50.9701 28.6225ZM45.429 27.8407C46.0749 28.4866 46.8681 28.8095 47.8086 28.8095C48.7491 28.8095 49.5423 28.4866 50.1882 27.8407C50.8341 27.1834 51.1571 26.3846 51.1571 25.4441C51.1571 24.5035 50.8341 23.7103 50.1882 23.0645C49.5423 22.4072 48.7491 22.0786 47.8086 22.0786C46.8681 22.0786 46.0749 22.4072 45.429 23.0645C44.7831 23.7103 44.4602 24.5035 44.4602 25.4441C44.4602 26.3846 44.7831 27.1834 45.429 27.8407ZM58.5754 17.7953H59.7652V29.6934H58.5754V17.7953ZM63.4446 22.6055C63.9658 21.5744 64.861 21.0588 66.1301 21.0588V22.1466C65.3596 22.1466 64.7194 22.3732 64.2094 22.8265C63.6995 23.2797 63.4446 23.9936 63.4446 24.9681V29.6934H62.3228V21.1948H63.4446V22.6055ZM76.7271 20.9908C77.6789 20.9908 78.4438 21.2967 79.0217 21.9086C79.6109 22.5205 79.9056 23.3477 79.9056 24.3902V29.6934H78.7838V24.3902C78.7838 23.6537 78.5911 23.0871 78.2058 22.6905C77.8319 22.2826 77.3333 22.0786 76.7101 22.0786C76.0075 22.0786 75.4353 22.3166 74.9934 22.7925C74.5628 23.2571 74.3475 23.988 74.3475 24.9851V29.6934H73.2257V24.3902C73.2257 23.6424 73.0444 23.0701 72.6818 22.6735C72.3305 22.2769 71.8489 22.0786 71.237 22.0786C70.5571 22.0786 69.9792 22.3166 69.5033 22.7925C69.0274 23.2684 68.7894 23.9993 68.7894 24.9851V29.6934H67.6676V21.1948H68.7894V22.4356C69.4013 21.4724 70.2682 20.9908 71.39 20.9908C72.6138 20.9908 73.475 21.5064 73.9735 22.5375C74.5854 21.5064 75.5033 20.9908 76.7271 20.9908ZM86.0697 19.444C85.8091 19.2514 85.6051 19.1154 85.4578 19.0361C85.3218 18.9455 85.1859 18.8945 85.0499 18.8831C84.9139 18.8718 84.8176 18.9455 84.7609 19.1041C84.7043 19.2627 84.6759 19.5064 84.6759 19.835H83.6901C83.6901 19.1664 83.8091 18.6678 84.047 18.3392C84.285 18.0106 84.5853 17.8576 84.9479 17.8803C85.3105 17.8916 85.6901 18.0503 86.0867 18.3562C86.2907 18.5149 86.455 18.6338 86.5796 18.7132C86.7043 18.7925 86.8289 18.8548 86.9536 18.9001C87.0782 18.9455 87.1745 18.9398 87.2425 18.8831C87.3105 18.8265 87.3615 18.7245 87.3955 18.5772C87.4408 18.4299 87.4635 18.2259 87.4635 17.9653H88.4493C88.4493 18.6338 88.3303 19.1324 88.0924 19.461C87.8544 19.7897 87.5541 19.9483 87.1915 19.937C86.8402 19.9143 86.4663 19.75 86.0697 19.444ZM89.3842 21.1948H90.506V29.6934H89.3842V28.0276C88.6023 29.2741 87.4578 29.8973 85.9507 29.8973C84.7383 29.8973 83.7014 29.4667 82.8402 28.6055C81.9904 27.7443 81.5654 26.6905 81.5654 25.4441C81.5654 24.1976 81.9904 23.1438 82.8402 22.2826C83.7014 21.4214 84.7383 20.9908 85.9507 20.9908C87.4578 20.9908 88.6023 21.614 89.3842 22.8605V21.1948ZM83.6561 27.8407C84.302 28.4866 85.0952 28.8095 86.0357 28.8095C86.9762 28.8095 87.7694 28.4866 88.4153 27.8407C89.0612 27.1834 89.3842 26.3846 89.3842 25.4441C89.3842 24.5035 89.0612 23.7103 88.4153 23.0645C87.7694 22.4072 86.9762 22.0786 86.0357 22.0786C85.0952 22.0786 84.302 22.4072 83.6561 23.0645C83.0102 23.7103 82.6873 24.5035 82.6873 25.4441C82.6873 26.3846 83.0102 27.1834 83.6561 27.8407ZM100.003 28.6225C99.1418 29.4724 98.088 29.8973 96.8416 29.8973C95.5951 29.8973 94.5356 29.4724 93.6631 28.6225C92.8019 27.7613 92.3713 26.7019 92.3713 25.4441C92.3713 24.1863 92.8019 23.1324 93.6631 22.2826C94.5356 21.4214 95.5951 20.9908 96.8416 20.9908C98.088 20.9908 99.1418 21.4214 100.003 22.2826C100.876 23.1324 101.312 24.1863 101.312 25.4441C101.312 26.7019 100.876 27.7613 100.003 28.6225ZM94.4619 27.8407C95.1078 28.4866 95.901 28.8095 96.8416 28.8095C97.7821 28.8095 98.5753 28.4866 99.2212 27.8407C99.8671 27.1834 100.19 26.3846 100.19 25.4441C100.19 24.5035 99.8671 23.7103 99.2212 23.0645C98.5753 22.4072 97.7821 22.0786 96.8416 22.0786C95.901 22.0786 95.1078 22.4072 94.4619 23.0645C93.816 23.7103 93.4931 24.5035 93.4931 25.4441C93.4931 26.3846 93.816 27.1834 94.4619 27.8407ZM104.889 31.3931C103.642 28.9002 103.019 26.3506 103.019 23.7443C103.019 21.1381 103.642 18.5885 104.889 16.0956H106.011C104.764 18.5885 104.141 21.1381 104.141 23.7443C104.141 26.3506 104.764 28.9002 106.011 31.3931H104.889ZM111.698 19.444C111.438 19.2514 111.234 19.1154 111.086 19.0361C110.95 18.9455 110.814 18.8945 110.678 18.8831C110.542 18.8718 110.446 18.9455 110.39 19.1041C110.333 19.2627 110.305 19.5064 110.305 19.835H109.319C109.319 19.1664 109.438 18.6678 109.676 18.3392C109.914 18.0106 110.214 17.8576 110.576 17.8803C110.939 17.8916 111.319 18.0503 111.715 18.3562C111.919 18.5149 112.084 18.6338 112.208 18.7132C112.333 18.7925 112.458 18.8548 112.582 18.9001C112.707 18.9455 112.803 18.9398 112.871 18.8831C112.939 18.8265 112.99 18.7245 113.024 18.5772C113.069 18.4299 113.092 18.2259 113.092 17.9653H114.078C114.078 18.6338 113.959 19.1324 113.721 19.461C113.483 19.7897 113.183 19.9483 112.82 19.937C112.469 19.9143 112.095 19.75 111.698 19.444ZM115.013 21.1948H116.135V29.6934H115.013V28.0276C114.231 29.2741 113.086 29.8973 111.579 29.8973C110.367 29.8973 109.33 29.4667 108.469 28.6055C107.619 27.7443 107.194 26.6905 107.194 25.4441C107.194 24.1976 107.619 23.1438 108.469 22.2826C109.33 21.4214 110.367 20.9908 111.579 20.9908C113.086 20.9908 114.231 21.614 115.013 22.8605V21.1948ZM109.285 27.8407C109.931 28.4866 110.724 28.8095 111.664 28.8095C112.605 28.8095 113.398 28.4866 114.044 27.8407C114.69 27.1834 115.013 26.3846 115.013 25.4441C115.013 24.5035 114.69 23.7103 114.044 23.0645C113.398 22.4072 112.605 22.0786 111.664 22.0786C110.724 22.0786 109.931 22.4072 109.285 23.0645C108.639 23.7103 108.316 24.5035 108.316 25.4441C108.316 26.3846 108.639 27.1834 109.285 27.8407ZM118.952 31.3931H117.83C119.076 28.9002 119.7 26.3506 119.7 23.7443C119.7 21.1381 119.076 18.5885 117.83 16.0956H118.952C120.198 18.5885 120.821 21.1381 120.821 23.7443C120.821 26.3506 120.198 28.9002 118.952 31.3931Z" fill="black"/>
<path d="M74.4881 44.3468H68.964V48.7321H74.2332V49.8539H68.964V55.123H67.7742V43.225H74.4881V44.3468ZM83.6606 46.6244H84.7824V55.123H83.6606V53.4573C82.8788 54.7038 81.7343 55.327 80.2272 55.327C79.0147 55.327 77.9779 54.8964 77.1167 54.0352C76.2668 53.174 75.8419 52.1202 75.8419 50.8737C75.8419 49.6273 76.2668 48.5735 77.1167 47.7123C77.9779 46.8511 79.0147 46.4205 80.2272 46.4205C81.7343 46.4205 82.8788 47.0437 83.6606 48.2902V46.6244ZM77.9326 53.2704C78.5785 53.9162 79.3717 54.2392 80.3122 54.2392C81.2527 54.2392 82.0459 53.9162 82.6918 53.2704C83.3377 52.6131 83.6606 51.8143 83.6606 50.8737C83.6606 49.9332 83.3377 49.14 82.6918 48.4941C82.0459 47.8369 81.2527 47.5083 80.3122 47.5083C79.3717 47.5083 78.5785 47.8369 77.9326 48.4941C77.2867 49.14 76.9637 49.9332 76.9637 50.8737C76.9637 51.8143 77.2867 52.6131 77.9326 53.2704ZM96.2172 46.4205C97.169 46.4205 97.9339 46.7264 98.5118 47.3383C99.101 47.9502 99.3957 48.7774 99.3957 49.8199V55.123H98.2738V49.8199C98.2738 49.0834 98.0812 48.5168 97.6959 48.1202C97.322 47.7123 96.8234 47.5083 96.2002 47.5083C95.4976 47.5083 94.9254 47.7463 94.4835 48.2222C94.0529 48.6868 93.8376 49.4177 93.8376 50.4148V55.123H92.7158V49.8199C92.7158 49.072 92.5345 48.4998 92.1718 48.1032C91.8206 47.7066 91.339 47.5083 90.7271 47.5083C90.0472 47.5083 89.4693 47.7463 88.9934 48.2222C88.5174 48.6981 88.2795 49.429 88.2795 50.4148V55.123H87.1577V46.6244H88.2795V47.8652C88.8914 46.9021 89.7582 46.4205 90.8801 46.4205C92.1039 46.4205 92.9651 46.9361 93.4636 47.9672C94.0755 46.9361 94.9934 46.4205 96.2172 46.4205ZM101.616 45.4346H102.704L103.826 43.225H102.466L101.616 45.4346ZM101.565 55.123V46.6244H102.687V55.123H101.565ZM105.068 55.123V42.7151H106.19V55.123H105.068ZM109.709 44.5848C109.55 44.7434 109.358 44.8227 109.131 44.8227C108.904 44.8227 108.712 44.7434 108.553 44.5848C108.395 44.4261 108.315 44.2335 108.315 44.0069C108.315 43.7802 108.395 43.5876 108.553 43.429C108.712 43.2703 108.904 43.191 109.131 43.191C109.358 43.191 109.55 43.2703 109.709 43.429C109.868 43.5876 109.947 43.7802 109.947 44.0069C109.947 44.2335 109.868 44.4261 109.709 44.5848ZM108.57 55.123V46.6244H109.692V55.123H108.57ZM119.381 46.6244H120.503V55.123H119.381V53.4573C118.599 54.7038 117.455 55.327 115.948 55.327C114.735 55.327 113.699 54.8964 112.837 54.0352C111.988 53.174 111.563 52.1202 111.563 50.8737C111.563 49.6273 111.988 48.5735 112.837 47.7123C113.699 46.8511 114.735 46.4205 115.948 46.4205C117.455 46.4205 118.599 47.0437 119.381 48.2902V46.6244ZM113.653 53.2704C114.299 53.9162 115.092 54.2392 116.033 54.2392C116.973 54.2392 117.767 53.9162 118.412 53.2704C119.058 52.6131 119.381 51.8143 119.381 50.8737C119.381 49.9332 119.058 49.14 118.412 48.4941C117.767 47.8369 116.973 47.5083 116.033 47.5083C115.092 47.5083 114.299 47.8369 113.653 48.4941C113.007 49.14 112.684 49.9332 112.684 50.8737C112.684 51.8143 113.007 52.6131 113.653 53.2704Z" fill="black"/>
<path d="M27.4306 79.3852H28.6204V91.2832H27.6005L20.9716 81.5948V91.2832H19.7818V79.3852H20.8016L27.4306 89.0736V79.3852ZM38.4734 82.7846H39.5952V91.2832H38.4734V89.6175C37.6916 90.8639 36.5471 91.4872 35.04 91.4872C33.8275 91.4872 32.7907 91.0566 31.9295 90.1954C31.0796 89.3342 30.6547 88.2804 30.6547 87.0339C30.6547 85.7874 31.0796 84.7336 31.9295 83.8724C32.7907 83.0112 33.8275 82.5806 35.04 82.5806C36.5471 82.5806 37.6916 83.2039 38.4734 84.4503V82.7846ZM32.7454 89.4305C33.3913 90.0764 34.1845 90.3993 35.125 90.3993C36.0655 90.3993 36.8587 90.0764 37.5046 89.4305C38.1505 88.7733 38.4734 87.9744 38.4734 87.0339C38.4734 86.0934 38.1505 85.3002 37.5046 84.6543C36.8587 83.9971 36.0655 83.6685 35.125 83.6685C34.1845 83.6685 33.3913 83.9971 32.7454 84.6543C32.0995 85.3002 31.7765 86.0934 31.7765 87.0339C31.7765 87.9744 32.0995 88.7733 32.7454 89.4305ZM51.03 82.5806C51.9818 82.5806 52.7467 82.8866 53.3246 83.4985C53.9138 84.1104 54.2084 84.9376 54.2084 85.9801V91.2832H53.0866V85.9801C53.0866 85.2435 52.894 84.677 52.5087 84.2804C52.1348 83.8724 51.6362 83.6685 51.013 83.6685C50.3104 83.6685 49.7382 83.9064 49.2963 84.3823C48.8657 84.8469 48.6504 85.5778 48.6504 86.575V91.2832H47.5285V85.9801C47.5285 85.2322 47.3472 84.66 46.9846 84.2634C46.6334 83.8668 46.1518 83.6685 45.5399 83.6685C44.86 83.6685 44.2821 83.9064 43.8062 84.3823C43.3302 84.8583 43.0923 85.5891 43.0923 86.575V91.2832H41.9705V82.7846H43.0923V84.0254C43.7042 83.0622 44.571 82.5806 45.6929 82.5806C46.9166 82.5806 47.7778 83.0962 48.2764 84.1274C48.8883 83.0962 49.8062 82.5806 51.03 82.5806ZM63.5001 90.2124C62.6389 91.0622 61.5851 91.4872 60.3386 91.4872C59.0921 91.4872 58.0326 91.0622 57.1601 90.2124C56.2989 89.3512 55.8683 88.2917 55.8683 87.0339C55.8683 85.7761 56.2989 84.7223 57.1601 83.8724C58.0326 83.0112 59.0921 82.5806 60.3386 82.5806C61.5851 82.5806 62.6389 83.0112 63.5001 83.8724C64.3726 84.7223 64.8089 85.7761 64.8089 87.0339C64.8089 88.2917 64.3726 89.3512 63.5001 90.2124ZM57.959 89.4305C58.6049 90.0764 59.3981 90.3993 60.3386 90.3993C61.2791 90.3993 62.0723 90.0764 62.7182 89.4305C63.3641 88.7733 63.687 87.9744 63.687 87.0339C63.687 86.0934 63.3641 85.3002 62.7182 84.6543C62.0723 83.9971 61.2791 83.6685 60.3386 83.6685C59.3981 83.6685 58.6049 83.9971 57.959 84.6543C57.3131 85.3002 56.9901 86.0934 56.9901 87.0339C56.9901 87.9744 57.3131 88.7733 57.959 89.4305ZM67.8079 84.1954C68.3292 83.1642 69.2244 82.6486 70.4935 82.6486V83.7364C69.723 83.7364 69.0827 83.9631 68.5728 84.4163C68.0629 84.8696 67.8079 85.5835 67.8079 86.558V91.2832H66.6861V82.7846H67.8079V84.1954ZM78.8252 82.7846H79.947V91.2832H78.8252V89.6175C78.0433 90.8639 76.8988 91.4872 75.3917 91.4872C74.1793 91.4872 73.1424 91.0566 72.2813 90.1954C71.4314 89.3342 71.0065 88.2804 71.0065 87.0339C71.0065 85.7874 71.4314 84.7336 72.2813 83.8724C73.1424 83.0112 74.1793 82.5806 75.3917 82.5806C76.8988 82.5806 78.0433 83.2039 78.8252 84.4503V82.7846ZM73.0971 89.4305C73.743 90.0764 74.5362 90.3993 75.4767 90.3993C76.4172 90.3993 77.2104 90.0764 77.8563 89.4305C78.5022 88.7733 78.8252 87.9744 78.8252 87.0339C78.8252 86.0934 78.5022 85.3002 77.8563 84.6543C77.2104 83.9971 76.4172 83.6685 75.4767 83.6685C74.5362 83.6685 73.743 83.9971 73.0971 84.6543C72.4512 85.3002 72.1283 86.0934 72.1283 87.0339C72.1283 87.9744 72.4512 88.7733 73.0971 89.4305ZM89.631 79.3852H90.7528V91.2832H89.631V89.6175C88.8491 90.8639 87.7047 91.4872 86.1976 91.4872C84.9851 91.4872 83.9483 91.0566 83.0871 90.1954C82.2372 89.3342 81.8123 88.2804 81.8123 87.0339C81.8123 85.7874 82.2372 84.7336 83.0871 83.8724C83.9483 83.0112 84.9851 82.5806 86.1976 82.5806C87.7047 82.5806 88.8491 83.2039 89.631 84.4503V79.3852ZM83.903 89.4305C84.5489 90.0764 85.3421 90.3993 86.2826 90.3993C87.2231 90.3993 88.0163 90.0764 88.6622 89.4305C89.3081 88.7733 89.631 87.9744 89.631 87.0339C89.631 86.0934 89.3081 85.3002 88.6622 84.6543C88.0163 83.9971 87.2231 83.6685 86.2826 83.6685C85.3421 83.6685 84.5489 83.9971 83.903 84.6543C83.2571 85.3002 82.9341 86.0934 82.9341 87.0339C82.9341 87.9744 83.2571 88.7733 83.903 89.4305ZM100.437 82.7846H101.559V91.2832H100.437V89.6175C99.655 90.8639 98.5105 91.4872 97.0034 91.4872C95.791 91.4872 94.7541 91.0566 93.8929 90.1954C93.0431 89.3342 92.6181 88.2804 92.6181 87.0339C92.6181 85.7874 93.0431 84.7336 93.8929 83.8724C94.7541 83.0112 95.791 82.5806 97.0034 82.5806C98.5105 82.5806 99.655 83.2039 100.437 84.4503V82.7846ZM94.7088 89.4305C95.3547 90.0764 96.1479 90.3993 97.0884 90.3993C98.0289 90.3993 98.8221 90.0764 99.468 89.4305C100.114 88.7733 100.437 87.9744 100.437 87.0339C100.437 86.0934 100.114 85.3002 99.468 84.6543C98.8221 83.9971 98.0289 83.6685 97.0884 83.6685C96.1479 83.6685 95.3547 83.9971 94.7088 84.6543C94.0629 85.3002 93.74 86.0934 93.74 87.0339C93.74 87.9744 94.0629 88.7733 94.7088 89.4305ZM105.634 92.9829C104.387 90.49 103.764 87.9404 103.764 85.3342C103.764 82.7279 104.387 80.1784 105.634 77.6854H106.755C105.509 80.1784 104.886 82.7279 104.886 85.3342C104.886 87.9404 105.509 90.49 106.755 92.9829H105.634ZM115.571 90.2124C114.709 91.0622 113.656 91.4872 112.409 91.4872C111.163 91.4872 110.103 91.0622 109.231 90.2124C108.369 89.3512 107.939 88.2917 107.939 87.0339C107.939 85.7761 108.369 84.7223 109.231 83.8724C110.103 83.0112 111.163 82.5806 112.409 82.5806C113.656 82.5806 114.709 83.0112 115.571 83.8724C116.443 84.7223 116.879 85.7761 116.879 87.0339C116.879 88.2917 116.443 89.3512 115.571 90.2124ZM110.03 89.4305C110.675 90.0764 111.469 90.3993 112.409 90.3993C113.35 90.3993 114.143 90.0764 114.789 89.4305C115.435 88.7733 115.758 87.9744 115.758 87.0339C115.758 86.0934 115.435 85.3002 114.789 84.6543C114.143 83.9971 113.35 83.6685 112.409 83.6685C111.469 83.6685 110.675 83.9971 110.03 84.6543C109.384 85.3002 109.061 86.0934 109.061 87.0339C109.061 87.9744 109.384 88.7733 110.03 89.4305ZM119.199 92.9829H118.077C119.323 90.49 119.946 87.9404 119.946 85.3342C119.946 82.7279 119.323 80.1784 118.077 77.6854H119.199C120.445 80.1784 121.068 82.7279 121.068 85.3342C121.068 87.9404 120.445 90.49 119.199 92.9829Z" fill="black"/>
</svg>
