<svg width="486" height="301" viewBox="0 0 486 301" fill="none" xmlns="http://www.w3.org/2000/svg">
<path d="M242.602 44.5293C281.109 44.5293 317.289 62.9641 339.923 94.1173C362.558 125.271 368.91 165.377 357.01 201.999L299.806 183.413C305.756 165.101 302.58 145.048 291.263 129.472C279.945 113.895 261.855 104.678 242.602 104.678V44.5293Z" fill="#193E3E"/>
<path d="M357.012 202.006C342.612 246.324 303.912 278.34 257.68 284.18L250.142 224.506C273.257 221.586 292.607 205.578 299.807 183.419L357.012 202.006Z" fill="#78C1B2"/>
<path d="M171.893 67.5039C192.445 52.5717 217.197 44.5293 242.602 44.5293V104.678C229.9 104.678 217.524 108.699 207.247 116.165L171.893 67.5039Z" fill="#FF7A00"/>
<path d="M171.893 262.148C140.74 239.514 122.305 203.333 122.305 164.826C122.305 126.318 140.74 90.1381 171.893 67.5039L207.247 116.165C191.671 127.482 182.453 145.572 182.453 164.826C182.453 184.08 191.671 202.17 207.247 213.487L171.893 262.148Z" fill="#3A8071"/>
<path d="M257.679 284.173C227.323 288.008 196.647 280.131 171.893 262.147L207.247 213.486C219.624 222.478 234.962 226.416 250.14 224.499L257.679 284.173Z" fill="#F9F1E6"/>
<path d="M18.6299 67.1747H17.7833V61.7417C17.5728 61.9354 17.299 62.1334 16.9621 62.3355C16.6336 62.5293 16.3388 62.6725 16.0776 62.7651V61.9439C16.5493 61.7164 16.9621 61.4469 17.3158 61.1352C17.678 60.8152 17.9349 60.5035 18.0866 60.2003H18.6299V67.1747ZM21.081 63.7506C21.081 62.9252 21.1652 62.2639 21.3337 61.767C21.5022 61.2616 21.7506 60.8741 22.0792 60.6046C22.4161 60.335 22.8372 60.2003 23.3426 60.2003C23.7133 60.2003 24.0375 60.2761 24.3155 60.4277C24.6019 60.5793 24.8377 60.7983 25.0231 61.0847C25.2084 61.3627 25.3516 61.7038 25.4526 62.1081C25.5537 62.5124 25.6043 63.0599 25.6043 63.7506C25.6043 64.5677 25.52 65.2247 25.3516 65.7217C25.1915 66.2186 24.943 66.6061 24.6061 66.8841C24.2776 67.1536 23.8564 67.2884 23.3426 67.2884C22.6772 67.2884 22.1508 67.0483 21.7633 66.5682C21.3084 65.9954 21.081 65.0562 21.081 63.7506ZM21.9528 63.7506C21.9528 64.8878 22.0876 65.6458 22.3571 66.0249C22.6267 66.4039 22.9552 66.5935 23.3426 66.5935C23.7385 66.5935 24.067 66.4039 24.3281 66.0249C24.5977 65.6458 24.7325 64.8878 24.7325 63.7506C24.7325 62.6051 24.5977 61.847 24.3281 61.4764C24.067 61.0973 23.7343 60.9078 23.33 60.9078C22.9425 60.9078 22.6309 61.0721 22.395 61.4006C22.1002 61.8217 21.9528 62.6051 21.9528 63.7506ZM27.1962 67.1747V66.2018H28.1691V67.1747C28.1691 67.5284 28.1059 67.8148 27.9796 68.0338C27.8532 68.2612 27.6553 68.4339 27.3858 68.5518L27.1457 68.1854C27.3226 68.1096 27.4531 67.9917 27.5374 67.8317C27.6216 67.68 27.6721 67.461 27.689 67.1747H27.1962ZM29.1673 63.7506C29.1673 62.9252 29.2515 62.2639 29.42 61.767C29.5884 61.2616 29.8369 60.8741 30.1654 60.6046C30.5023 60.335 30.9235 60.2003 31.4289 60.2003C31.7995 60.2003 32.1238 60.2761 32.4018 60.4277C32.6882 60.5793 32.924 60.7983 33.1093 61.0847C33.2946 61.3627 33.4378 61.7038 33.5389 62.1081C33.64 62.5124 33.6905 63.0599 33.6905 63.7506C33.6905 64.5677 33.6063 65.2247 33.4378 65.7217C33.2778 66.2186 33.0293 66.6061 32.6924 66.8841C32.3639 67.1536 31.9427 67.2884 31.4289 67.2884C30.7635 67.2884 30.237 67.0483 29.8495 66.5682C29.3947 65.9954 29.1673 65.0562 29.1673 63.7506ZM30.0391 63.7506C30.0391 64.8878 30.1738 65.6458 30.4434 66.0249C30.7129 66.4039 31.0414 66.5935 31.4289 66.5935C31.8248 66.5935 32.1533 66.4039 32.4144 66.0249C32.6839 65.6458 32.8187 64.8878 32.8187 63.7506C32.8187 62.6051 32.6839 61.847 32.4144 61.4764C32.1533 61.0973 31.8206 60.9078 31.4162 60.9078C31.0288 60.9078 30.7171 61.0721 30.4813 61.4006C30.1865 61.8217 30.0391 62.6051 30.0391 63.7506ZM34.9919 61.8933C34.9919 61.3964 35.114 60.9752 35.3583 60.6298C35.611 60.2845 35.9732 60.1118 36.4449 60.1118C36.8829 60.1118 37.2451 60.2676 37.5315 60.5793C37.8179 60.891 37.9611 61.3458 37.9611 61.9439C37.9611 62.5335 37.8137 62.9883 37.5188 63.3084C37.2325 63.6201 36.8787 63.7759 36.4575 63.7759C36.0364 63.7759 35.6868 63.6201 35.4088 63.3084C35.1309 62.9968 34.9919 62.5251 34.9919 61.8933ZM36.4702 60.693C36.2596 60.693 36.0827 60.7857 35.9395 60.971C35.8047 61.1563 35.7373 61.4932 35.7373 61.9818C35.7373 62.4282 35.8047 62.7441 35.9395 62.9294C36.0827 63.1063 36.2596 63.1947 36.4702 63.1947C36.6892 63.1947 36.866 63.102 37.0008 62.9167C37.144 62.7314 37.2156 62.3987 37.2156 61.9186C37.2156 61.4637 37.144 61.1479 37.0008 60.971C36.8576 60.7857 36.6807 60.693 36.4702 60.693ZM36.4702 67.4273L40.2732 60.1118H40.9681L37.1777 67.4273H36.4702ZM39.4772 65.5448C39.4772 65.0478 39.5994 64.6266 39.8436 64.2813C40.0963 63.9359 40.4627 63.7633 40.9429 63.7633C41.3809 63.7633 41.7431 63.9191 42.0295 64.2308C42.3158 64.534 42.459 64.9888 42.459 65.5953C42.459 66.1849 42.3116 66.6398 42.0168 66.9599C41.7304 67.2715 41.3724 67.4273 40.9429 67.4273C40.5301 67.4273 40.1806 67.2715 39.8942 66.9599C39.6162 66.6482 39.4772 66.1765 39.4772 65.5448ZM40.9681 64.3445C40.7491 64.3445 40.568 64.4371 40.4248 64.6224C40.2901 64.8077 40.2227 65.1447 40.2227 65.6332C40.2227 66.0712 40.2943 66.3829 40.4375 66.5682C40.5807 66.7535 40.7576 66.8462 40.9681 66.8462C41.1787 66.8462 41.3556 66.7535 41.4988 66.5682C41.642 66.3829 41.7136 66.0459 41.7136 65.5574C41.7136 65.111 41.642 64.7993 41.4988 64.6224C41.3556 64.4371 41.1787 64.3445 40.9681 64.3445Z" fill="#9E9E9E"/>
<path d="M15.0127 57.0603H117.452L207.285 56.1348" stroke="#757575" stroke-width="0.570794" stroke-miterlimit="10"/>
<path d="M208.905 56.1348C208.905 55.2416 208.181 54.5176 207.288 54.5176C206.394 54.5176 205.67 55.2416 205.67 56.1348C205.67 57.028 206.394 57.7521 207.288 57.7521C208.181 57.7521 208.905 57.028 208.905 56.1348Z" fill="#9E9E9E"/>
<path d="M15.4185 173.098L16.2776 172.985C16.3703 173.465 16.5345 173.814 16.7704 174.033C17.0062 174.244 17.2926 174.349 17.6295 174.349C18.0339 174.349 18.375 174.21 18.653 173.932C18.9309 173.654 19.0699 173.309 19.0699 172.896C19.0699 172.509 18.9393 172.189 18.6782 171.936C18.4255 171.675 18.1012 171.544 17.7054 171.544C17.5453 171.544 17.3432 171.578 17.0989 171.645L17.2 170.887C17.2589 170.896 17.3052 170.9 17.3389 170.9C17.7011 170.9 18.0254 170.807 18.3118 170.622C18.6066 170.428 18.754 170.134 18.754 169.738C18.754 169.426 18.6487 169.169 18.4382 168.967C18.2276 168.756 17.9538 168.651 17.6169 168.651C17.2884 168.651 17.0104 168.756 16.783 168.967C16.564 169.177 16.425 169.489 16.3661 169.902L15.5069 169.75C15.608 169.186 15.8438 168.748 16.2144 168.436C16.5851 168.116 17.0441 167.956 17.5916 167.956C17.9707 167.956 18.3202 168.04 18.6403 168.209C18.9604 168.369 19.2047 168.588 19.3731 168.866C19.5416 169.144 19.6258 169.443 19.6258 169.763C19.6258 170.058 19.5458 170.331 19.3858 170.584C19.2257 170.828 18.9899 171.022 18.6782 171.165C19.0825 171.258 19.3984 171.456 19.6258 171.759C19.8533 172.054 19.967 172.429 19.967 172.884C19.967 173.49 19.7438 174.004 19.2973 174.425C18.8593 174.846 18.3034 175.057 17.6295 175.057C17.0231 175.057 16.5177 174.876 16.1134 174.514C15.7091 174.143 15.4774 173.671 15.4185 173.098ZM21.0788 171.506C21.0788 170.681 21.1631 170.02 21.3315 169.523C21.5 169.017 21.7485 168.63 22.077 168.36C22.4139 168.091 22.8351 167.956 23.3405 167.956C23.7111 167.956 24.0354 168.032 24.3133 168.184C24.5997 168.335 24.8356 168.554 25.0209 168.841C25.2062 169.119 25.3494 169.46 25.4505 169.864C25.5515 170.268 25.6021 170.816 25.6021 171.506C25.6021 172.324 25.5179 172.981 25.3494 173.478C25.1893 173.974 24.9409 174.362 24.6039 174.64C24.2754 174.909 23.8543 175.044 23.3405 175.044C22.675 175.044 22.1486 174.804 21.7611 174.324C21.3063 173.751 21.0788 172.812 21.0788 171.506ZM21.9506 171.506C21.9506 172.644 22.0854 173.402 22.3549 173.781C22.6245 174.16 22.953 174.349 23.3405 174.349C23.7363 174.349 24.0649 174.16 24.326 173.781C24.5955 173.402 24.7303 172.644 24.7303 171.506C24.7303 170.361 24.5955 169.603 24.326 169.232C24.0649 168.853 23.7321 168.664 23.3278 168.664C22.9404 168.664 22.6287 168.828 22.3929 169.156C22.098 169.578 21.9506 170.361 21.9506 171.506ZM27.1941 174.931V173.958H28.1669V174.931C28.1669 175.284 28.1038 175.571 27.9774 175.79C27.8511 176.017 27.6531 176.19 27.3836 176.308L27.1435 175.941C27.3204 175.865 27.451 175.748 27.5352 175.588C27.6194 175.436 27.67 175.217 27.6868 174.931H27.1941ZM29.1651 171.506C29.1651 170.681 29.2493 170.02 29.4178 169.523C29.5862 169.017 29.8347 168.63 30.1632 168.36C30.5002 168.091 30.9213 167.956 31.4267 167.956C31.7973 167.956 32.1216 168.032 32.3996 168.184C32.686 168.335 32.9218 168.554 33.1071 168.841C33.2924 169.119 33.4356 169.46 33.5367 169.864C33.6378 170.268 33.6883 170.816 33.6883 171.506C33.6883 172.324 33.6041 172.981 33.4356 173.478C33.2756 173.974 33.0271 174.362 32.6902 174.64C32.3617 174.909 31.9405 175.044 31.4267 175.044C30.7613 175.044 30.2348 174.804 29.8474 174.324C29.3925 173.751 29.1651 172.812 29.1651 171.506ZM30.0369 171.506C30.0369 172.644 30.1717 173.402 30.4412 173.781C30.7107 174.16 31.0392 174.349 31.4267 174.349C31.8226 174.349 32.1511 174.16 32.4122 173.781C32.6818 173.402 32.8165 172.644 32.8165 171.506C32.8165 170.361 32.6818 169.603 32.4122 169.232C32.1511 168.853 31.8184 168.664 31.4141 168.664C31.0266 168.664 30.715 168.828 30.4791 169.156C30.1843 169.578 30.0369 170.361 30.0369 171.506ZM34.9897 169.649C34.9897 169.152 35.1119 168.731 35.3561 168.386C35.6088 168.04 35.971 167.868 36.4427 167.868C36.8807 167.868 37.2429 168.024 37.5293 168.335C37.8157 168.647 37.9589 169.102 37.9589 169.7C37.9589 170.289 37.8115 170.744 37.5167 171.064C37.2303 171.376 36.8765 171.532 36.4554 171.532C36.0342 171.532 35.6846 171.376 35.4067 171.064C35.1287 170.753 34.9897 170.281 34.9897 169.649ZM36.468 168.449C36.2574 168.449 36.0805 168.542 35.9373 168.727C35.8026 168.912 35.7352 169.249 35.7352 169.738C35.7352 170.184 35.8026 170.5 35.9373 170.685C36.0805 170.862 36.2574 170.951 36.468 170.951C36.687 170.951 36.8639 170.858 36.9986 170.673C37.1418 170.487 37.2134 170.155 37.2134 169.674C37.2134 169.22 37.1418 168.904 36.9986 168.727C36.8555 168.542 36.6786 168.449 36.468 168.449ZM36.468 175.183L40.2711 167.868H40.966L37.1755 175.183H36.468ZM39.4751 173.301C39.4751 172.804 39.5972 172.382 39.8415 172.037C40.0942 171.692 40.4606 171.519 40.9407 171.519C41.3787 171.519 41.7409 171.675 42.0273 171.987C42.3137 172.29 42.4569 172.745 42.4569 173.351C42.4569 173.941 42.3095 174.396 42.0147 174.716C41.7283 175.027 41.3703 175.183 40.9407 175.183C40.528 175.183 40.1784 175.027 39.892 174.716C39.614 174.404 39.4751 173.932 39.4751 173.301ZM40.966 172.1C40.747 172.1 40.5659 172.193 40.4227 172.378C40.2879 172.564 40.2205 172.901 40.2205 173.389C40.2205 173.827 40.2921 174.139 40.4353 174.324C40.5785 174.509 40.7554 174.602 40.966 174.602C41.1765 174.602 41.3534 174.509 41.4966 174.324C41.6398 174.139 41.7114 173.802 41.7114 173.313C41.7114 172.867 41.6398 172.555 41.4966 172.378C41.3534 172.193 41.1765 172.1 40.966 172.1Z" fill="#9E9E9E"/>
<path d="M15.0127 164.822H117.452H128.319" stroke="#757575" stroke-width="0.570794" stroke-miterlimit="10"/>
<path d="M129.937 164.825C129.937 163.932 129.213 163.208 128.319 163.208C127.426 163.208 126.702 163.932 126.702 164.825C126.702 165.718 127.426 166.443 128.319 166.443C129.213 166.443 129.937 165.718 129.937 164.825Z" fill="#9E9E9E"/>
<path d="M18.6299 282.697H17.7833V277.264C17.5728 277.458 17.299 277.656 16.9621 277.858C16.6336 278.052 16.3388 278.195 16.0776 278.288V277.466C16.5493 277.239 16.9621 276.969 17.3158 276.658C17.678 276.338 17.9349 276.026 18.0866 275.723H18.6299V282.697ZM25.5664 281.876V282.697H20.9673C20.9673 282.495 21.001 282.297 21.0684 282.103C21.1863 281.792 21.3716 281.484 21.6243 281.181C21.8854 280.878 22.2603 280.528 22.7488 280.132C23.5069 279.509 24.0165 279.016 24.2776 278.654C24.5471 278.292 24.6819 277.951 24.6819 277.631C24.6819 277.294 24.5598 277.011 24.3155 276.784C24.0712 276.548 23.7554 276.43 23.3679 276.43C22.9552 276.43 22.6267 276.552 22.3824 276.797C22.1381 277.041 22.0118 277.382 22.0033 277.82L21.1315 277.732C21.1905 277.075 21.4137 276.578 21.8012 276.241C22.1971 275.895 22.7277 275.723 23.3932 275.723C24.0586 275.723 24.585 275.908 24.9725 276.279C25.36 276.649 25.5537 277.108 25.5537 277.656C25.5537 277.934 25.4948 278.208 25.3768 278.477C25.2673 278.738 25.0778 279.02 24.8083 279.324C24.5471 279.618 24.1134 280.023 23.5069 280.537C22.9931 280.966 22.6604 281.261 22.5087 281.421C22.3655 281.573 22.2476 281.724 22.155 281.876H25.5664ZM27.1962 282.697V281.724H28.1691V282.697C28.1691 283.051 28.1059 283.337 27.9796 283.556C27.8532 283.784 27.6553 283.956 27.3858 284.074L27.1457 283.708C27.3226 283.632 27.4531 283.514 27.5374 283.354C27.6216 283.203 27.6721 282.984 27.689 282.697H27.1962ZM29.1673 279.273C29.1673 278.448 29.2515 277.786 29.42 277.289C29.5884 276.784 29.8369 276.397 30.1654 276.127C30.5023 275.857 30.9235 275.723 31.4289 275.723C31.7995 275.723 32.1238 275.799 32.4018 275.95C32.6882 276.102 32.924 276.321 33.1093 276.607C33.2946 276.885 33.4378 277.226 33.5389 277.631C33.64 278.035 33.6905 278.582 33.6905 279.273C33.6905 280.09 33.6063 280.747 33.4378 281.244C33.2778 281.741 33.0293 282.129 32.6924 282.407C32.3639 282.676 31.9427 282.811 31.4289 282.811C30.7635 282.811 30.237 282.571 29.8495 282.091C29.3947 281.518 29.1673 280.579 29.1673 279.273ZM30.0391 279.273C30.0391 280.41 30.1738 281.168 30.4434 281.547C30.7129 281.926 31.0414 282.116 31.4289 282.116C31.8248 282.116 32.1533 281.926 32.4144 281.547C32.6839 281.168 32.8187 280.41 32.8187 279.273C32.8187 278.128 32.6839 277.369 32.4144 276.999C32.1533 276.62 31.8206 276.43 31.4162 276.43C31.0288 276.43 30.7171 276.595 30.4813 276.923C30.1865 277.344 30.0391 278.128 30.0391 279.273ZM34.9919 277.416C34.9919 276.919 35.114 276.498 35.3583 276.152C35.611 275.807 35.9732 275.634 36.4449 275.634C36.8829 275.634 37.2451 275.79 37.5315 276.102C37.8179 276.413 37.9611 276.868 37.9611 277.466C37.9611 278.056 37.8137 278.511 37.5188 278.831C37.2325 279.143 36.8787 279.298 36.4575 279.298C36.0364 279.298 35.6868 279.143 35.4088 278.831C35.1309 278.519 34.9919 278.048 34.9919 277.416ZM36.4702 276.215C36.2596 276.215 36.0827 276.308 35.9395 276.493C35.8047 276.679 35.7373 277.016 35.7373 277.504C35.7373 277.951 35.8047 278.267 35.9395 278.452C36.0827 278.629 36.2596 278.717 36.4702 278.717C36.6892 278.717 36.866 278.625 37.0008 278.439C37.144 278.254 37.2156 277.921 37.2156 277.441C37.2156 276.986 37.144 276.67 37.0008 276.493C36.8576 276.308 36.6807 276.215 36.4702 276.215ZM36.4702 282.95L40.2732 275.634H40.9681L37.1777 282.95H36.4702ZM39.4772 281.067C39.4772 280.57 39.5994 280.149 39.8436 279.804C40.0963 279.458 40.4627 279.286 40.9429 279.286C41.3809 279.286 41.7431 279.442 42.0295 279.753C42.3158 280.056 42.459 280.511 42.459 281.118C42.459 281.707 42.3116 282.162 42.0168 282.482C41.7304 282.794 41.3724 282.95 40.9429 282.95C40.5301 282.95 40.1806 282.794 39.8942 282.482C39.6162 282.171 39.4772 281.699 39.4772 281.067ZM40.9681 279.867C40.7491 279.867 40.568 279.96 40.4248 280.145C40.2901 280.33 40.2227 280.667 40.2227 281.156C40.2227 281.594 40.2943 281.905 40.4375 282.091C40.5807 282.276 40.7576 282.369 40.9681 282.369C41.1787 282.369 41.3556 282.276 41.4988 282.091C41.642 281.905 41.7136 281.568 41.7136 281.08C41.7136 280.633 41.642 280.322 41.4988 280.145C41.3556 279.96 41.1787 279.867 40.9681 279.867Z" fill="#9E9E9E"/>
<path d="M15.0127 272.588H117.452L214.18 275.517" stroke="#757575" stroke-width="0.570794" stroke-miterlimit="10"/>
<path d="M215.798 275.52C215.798 274.626 215.074 273.902 214.181 273.902C213.288 273.902 212.564 274.626 212.564 275.52C212.564 276.413 213.288 277.137 214.181 277.137C215.074 277.137 215.798 276.413 215.798 275.52Z" fill="#9E9E9E"/>
<path d="M442.292 105.924L443.152 105.81C443.244 106.291 443.409 106.64 443.644 106.859C443.88 107.07 444.167 107.175 444.504 107.175C444.908 107.175 445.249 107.036 445.527 106.758C445.805 106.48 445.944 106.135 445.944 105.722C445.944 105.335 445.813 105.014 445.552 104.762C445.3 104.501 444.975 104.37 444.579 104.37C444.419 104.37 444.217 104.404 443.973 104.471L444.074 103.713C444.133 103.721 444.179 103.726 444.213 103.726C444.575 103.726 444.899 103.633 445.186 103.448C445.481 103.254 445.628 102.959 445.628 102.563C445.628 102.252 445.523 101.995 445.312 101.793C445.102 101.582 444.828 101.477 444.491 101.477C444.162 101.477 443.884 101.582 443.657 101.793C443.438 102.003 443.299 102.315 443.24 102.728L442.381 102.576C442.482 102.012 442.718 101.574 443.088 101.262C443.459 100.942 443.918 100.782 444.466 100.782C444.845 100.782 445.194 100.866 445.514 101.034C445.834 101.195 446.079 101.414 446.247 101.692C446.416 101.969 446.5 102.268 446.5 102.589C446.5 102.883 446.42 103.157 446.26 103.41C446.1 103.654 445.864 103.848 445.552 103.991C445.957 104.084 446.272 104.282 446.5 104.585C446.727 104.88 446.841 105.255 446.841 105.709C446.841 106.316 446.618 106.83 446.171 107.251C445.733 107.672 445.177 107.883 444.504 107.883C443.897 107.883 443.392 107.701 442.987 107.339C442.583 106.969 442.351 106.497 442.292 105.924ZM447.953 104.332C447.953 103.507 448.037 102.845 448.206 102.349C448.374 101.843 448.622 101.456 448.951 101.186C449.288 100.917 449.709 100.782 450.214 100.782C450.585 100.782 450.909 100.858 451.187 101.009C451.474 101.161 451.71 101.38 451.895 101.666C452.08 101.944 452.223 102.285 452.324 102.69C452.426 103.094 452.476 103.641 452.476 104.332C452.476 105.149 452.392 105.806 452.223 106.303C452.063 106.8 451.815 107.188 451.478 107.466C451.149 107.735 450.728 107.87 450.214 107.87C449.549 107.87 449.023 107.63 448.635 107.15C448.18 106.577 447.953 105.638 447.953 104.332ZM448.825 104.332C448.825 105.469 448.959 106.227 449.229 106.606C449.499 106.985 449.827 107.175 450.214 107.175C450.61 107.175 450.939 106.985 451.2 106.606C451.47 106.227 451.604 105.469 451.604 104.332C451.604 103.187 451.47 102.429 451.2 102.058C450.939 101.679 450.606 101.489 450.202 101.489C449.814 101.489 449.503 101.654 449.267 101.982C448.972 102.403 448.825 103.187 448.825 104.332ZM454.068 107.756V106.783H455.041V107.756C455.041 108.11 454.978 108.396 454.851 108.615C454.725 108.843 454.527 109.015 454.258 109.133L454.018 108.767C454.194 108.691 454.325 108.573 454.409 108.413C454.493 108.262 454.544 108.043 454.561 107.756H454.068ZM456.039 104.332C456.039 103.507 456.123 102.845 456.292 102.349C456.46 101.843 456.709 101.456 457.037 101.186C457.374 100.917 457.795 100.782 458.301 100.782C458.671 100.782 458.996 100.858 459.274 101.009C459.56 101.161 459.796 101.38 459.981 101.666C460.166 101.944 460.31 102.285 460.411 102.69C460.512 103.094 460.562 103.641 460.562 104.332C460.562 105.149 460.478 105.806 460.31 106.303C460.15 106.8 459.901 107.188 459.564 107.466C459.236 107.735 458.815 107.87 458.301 107.87C457.635 107.87 457.109 107.63 456.721 107.15C456.267 106.577 456.039 105.638 456.039 104.332ZM456.911 104.332C456.911 105.469 457.046 106.227 457.315 106.606C457.585 106.985 457.913 107.175 458.301 107.175C458.697 107.175 459.025 106.985 459.286 106.606C459.556 106.227 459.691 105.469 459.691 104.332C459.691 103.187 459.556 102.429 459.286 102.058C459.025 101.679 458.692 101.489 458.288 101.489C457.901 101.489 457.589 101.654 457.353 101.982C457.058 102.403 456.911 103.187 456.911 104.332ZM461.864 102.475C461.864 101.978 461.986 101.557 462.23 101.211C462.483 100.866 462.845 100.693 463.317 100.693C463.755 100.693 464.117 100.849 464.403 101.161C464.69 101.473 464.833 101.927 464.833 102.525C464.833 103.115 464.685 103.57 464.391 103.89C464.104 104.202 463.751 104.357 463.329 104.357C462.908 104.357 462.559 104.202 462.281 103.89C462.003 103.578 461.864 103.107 461.864 102.475ZM463.342 101.275C463.131 101.275 462.955 101.367 462.811 101.553C462.677 101.738 462.609 102.075 462.609 102.563C462.609 103.01 462.677 103.326 462.811 103.511C462.955 103.688 463.131 103.776 463.342 103.776C463.561 103.776 463.738 103.684 463.873 103.498C464.016 103.313 464.087 102.98 464.087 102.5C464.087 102.045 464.016 101.729 463.873 101.553C463.729 101.367 463.553 101.275 463.342 101.275ZM463.342 108.009L467.145 100.693H467.84L464.05 108.009H463.342ZM466.349 106.126C466.349 105.629 466.471 105.208 466.715 104.863C466.968 104.517 467.335 104.345 467.815 104.345C468.253 104.345 468.615 104.501 468.901 104.812C469.188 105.116 469.331 105.57 469.331 106.177C469.331 106.766 469.183 107.221 468.889 107.541C468.602 107.853 468.244 108.009 467.815 108.009C467.402 108.009 467.052 107.853 466.766 107.541C466.488 107.23 466.349 106.758 466.349 106.126ZM467.84 104.926C467.621 104.926 467.44 105.019 467.297 105.204C467.162 105.389 467.095 105.726 467.095 106.215C467.095 106.653 467.166 106.964 467.309 107.15C467.453 107.335 467.629 107.428 467.84 107.428C468.051 107.428 468.227 107.335 468.371 107.15C468.514 106.964 468.585 106.627 468.585 106.139C468.585 105.693 468.514 105.381 468.371 105.204C468.227 105.019 468.051 104.926 467.84 104.926Z" fill="#9E9E9E"/>
<path d="M470.191 97.6509H367.752H335.059" stroke="#757575" stroke-width="0.570794" stroke-miterlimit="10"/>
<path d="M336.675 97.6544C336.675 96.7612 335.951 96.0371 335.058 96.0371C334.164 96.0371 333.44 96.7612 333.44 97.6544C333.44 98.5475 334.164 99.2716 335.058 99.2716C335.951 99.2716 336.675 98.5475 336.675 97.6544Z" fill="#9E9E9E"/>
<path d="M445.502 262.988H444.655V257.555C444.445 257.749 444.171 257.947 443.834 258.149C443.506 258.343 443.211 258.486 442.95 258.579V257.757C443.421 257.53 443.834 257.26 444.188 256.949C444.55 256.629 444.807 256.317 444.959 256.014H445.502V262.988ZM449.267 259.223C448.913 259.088 448.648 258.903 448.471 258.667C448.303 258.423 448.218 258.136 448.218 257.808C448.218 257.302 448.4 256.877 448.762 256.532C449.132 256.186 449.617 256.014 450.215 256.014C450.821 256.014 451.31 256.191 451.68 256.544C452.051 256.898 452.236 257.328 452.236 257.833C452.236 258.153 452.152 258.431 451.984 258.667C451.815 258.903 451.558 259.088 451.213 259.223C451.642 259.358 451.967 259.581 452.186 259.893C452.405 260.204 452.514 260.575 452.514 261.004C452.514 261.594 452.304 262.091 451.882 262.495C451.47 262.9 450.918 263.102 450.227 263.102C449.545 263.102 448.993 262.9 448.572 262.495C448.151 262.091 447.94 261.586 447.94 260.979C447.94 260.524 448.054 260.145 448.282 259.842C448.517 259.539 448.846 259.332 449.267 259.223ZM449.09 257.77C449.09 258.098 449.195 258.368 449.406 258.579C449.625 258.789 449.903 258.894 450.24 258.894C450.568 258.894 450.838 258.793 451.049 258.591C451.259 258.381 451.364 258.124 451.364 257.821C451.364 257.509 451.255 257.248 451.036 257.037C450.817 256.818 450.547 256.709 450.227 256.709C449.899 256.709 449.625 256.814 449.406 257.025C449.195 257.235 449.09 257.484 449.09 257.77ZM448.825 260.979C448.825 261.223 448.88 261.459 448.989 261.687C449.107 261.914 449.28 262.091 449.507 262.217C449.735 262.344 449.979 262.407 450.24 262.407C450.644 262.407 450.977 262.276 451.238 262.015C451.508 261.754 451.642 261.421 451.642 261.017C451.642 260.604 451.508 260.263 451.238 259.994C450.969 259.724 450.627 259.589 450.215 259.589C449.81 259.589 449.478 259.724 449.217 259.994C448.955 260.255 448.825 260.583 448.825 260.979ZM454.068 262.988V262.015H455.041V262.988C455.041 263.342 454.978 263.628 454.852 263.847C454.725 264.075 454.527 264.247 454.258 264.365L454.018 263.999C454.195 263.923 454.325 263.805 454.409 263.645C454.494 263.494 454.544 263.275 454.561 262.988H454.068ZM456.039 259.564C456.039 258.739 456.124 258.077 456.292 257.58C456.46 257.075 456.709 256.688 457.037 256.418C457.374 256.149 457.796 256.014 458.301 256.014C458.672 256.014 458.996 256.09 459.274 256.241C459.56 256.393 459.796 256.612 459.981 256.898C460.167 257.176 460.31 257.517 460.411 257.922C460.512 258.326 460.563 258.873 460.563 259.564C460.563 260.381 460.478 261.038 460.31 261.535C460.15 262.032 459.901 262.42 459.564 262.698C459.236 262.967 458.815 263.102 458.301 263.102C457.636 263.102 457.109 262.862 456.722 262.382C456.267 261.809 456.039 260.87 456.039 259.564ZM456.911 259.564C456.911 260.701 457.046 261.459 457.315 261.838C457.585 262.217 457.913 262.407 458.301 262.407C458.697 262.407 459.025 262.217 459.286 261.838C459.556 261.459 459.691 260.701 459.691 259.564C459.691 258.419 459.556 257.66 459.286 257.29C459.025 256.911 458.693 256.721 458.288 256.721C457.901 256.721 457.589 256.886 457.353 257.214C457.059 257.635 456.911 258.419 456.911 259.564ZM461.864 257.707C461.864 257.21 461.986 256.789 462.23 256.443C462.483 256.098 462.845 255.925 463.317 255.925C463.755 255.925 464.117 256.081 464.404 256.393C464.69 256.704 464.833 257.159 464.833 257.757C464.833 258.347 464.686 258.802 464.391 259.122C464.105 259.434 463.751 259.589 463.33 259.589C462.908 259.589 462.559 259.434 462.281 259.122C462.003 258.81 461.864 258.339 461.864 257.707ZM463.342 256.506C463.132 256.506 462.955 256.599 462.812 256.784C462.677 256.97 462.609 257.307 462.609 257.795C462.609 258.242 462.677 258.558 462.812 258.743C462.955 258.92 463.132 259.008 463.342 259.008C463.561 259.008 463.738 258.916 463.873 258.73C464.016 258.545 464.088 258.212 464.088 257.732C464.088 257.277 464.016 256.961 463.873 256.784C463.73 256.599 463.553 256.506 463.342 256.506ZM463.342 263.241L467.145 255.925H467.84L464.05 263.241H463.342ZM466.349 261.358C466.349 260.861 466.471 260.44 466.716 260.095C466.968 259.749 467.335 259.577 467.815 259.577C468.253 259.577 468.615 259.733 468.902 260.044C469.188 260.347 469.331 260.802 469.331 261.409C469.331 261.998 469.184 262.453 468.889 262.773C468.603 263.085 468.245 263.241 467.815 263.241C467.402 263.241 467.053 263.085 466.766 262.773C466.488 262.462 466.349 261.99 466.349 261.358ZM467.84 260.158C467.621 260.158 467.44 260.251 467.297 260.436C467.162 260.621 467.095 260.958 467.095 261.447C467.095 261.885 467.166 262.196 467.31 262.382C467.453 262.567 467.63 262.66 467.84 262.66C468.051 262.66 468.228 262.567 468.371 262.382C468.514 262.196 468.586 261.859 468.586 261.371C468.586 260.924 468.514 260.613 468.371 260.436C468.228 260.251 468.051 260.158 467.84 260.158Z" fill="#9E9E9E"/>
<path d="M470.191 252.883H367.752H315.45" stroke="#757575" stroke-width="0.570794" stroke-miterlimit="10"/>
<path d="M317.064 252.879C317.064 251.986 316.34 251.262 315.446 251.262C314.553 251.262 313.829 251.986 313.829 252.879C313.829 253.773 314.553 254.497 315.446 254.497C316.34 254.497 317.064 253.773 317.064 252.879Z" fill="#9E9E9E"/>
<path d="M22.9925 155.507H21.7938V152.938H19.0197V155.507H16.5197L20.3383 147.972H17.393L13.5744 155.507V158.041H19.0197V159.959H21.7938V158.041H22.9925V155.507Z" fill="black"/>
<path d="M468.355 86.627L470.427 83.9899V81.7638H462.721V84.3324H467.105L464.93 87.0893L465.975 88.6476H466.54C467.67 88.6476 468.166 89.2469 468.166 89.9832C468.166 90.7196 467.67 91.3189 466.54 91.3189C465.495 91.3189 464.981 90.8394 464.707 90.0517L462.344 91.4216C463.081 93.1854 464.724 93.9902 466.54 93.9902C468.851 93.9902 470.906 92.6203 470.906 89.9832C470.906 88.3222 469.827 87.1407 468.355 86.627Z" fill="black"/>
<path d="M13.3068 268.409H21.4577V265.772H17.4336L19.42 263.768C20.5159 262.672 21.2865 261.439 21.2865 260.001C21.2865 257.586 19.3686 256.182 17.2282 256.182C15.5671 256.182 13.9575 257.021 13.1869 258.802L15.4986 260.155C15.824 259.402 16.4233 258.854 17.2624 258.854C18.0672 258.854 18.5467 259.367 18.5467 260.121C18.5467 260.823 18.033 261.525 17.3309 262.244L13.3068 266.422V268.409Z" fill="black"/>
<path d="M340.748 274.557C341.681 274.557 342.471 274.833 343.118 275.385C343.775 275.928 344.103 276.675 344.103 277.626C344.103 278.578 343.775 279.33 343.118 279.882C342.471 280.424 341.681 280.696 340.748 280.696C339.997 280.696 339.326 280.515 338.736 280.153C338.146 279.782 337.746 279.254 337.536 278.569L338.379 278.083C338.521 278.616 338.802 279.025 339.221 279.311C339.649 279.587 340.158 279.725 340.748 279.725C341.434 279.725 341.995 279.544 342.433 279.183C342.88 278.811 343.104 278.293 343.104 277.626C343.104 276.96 342.88 276.446 342.433 276.085C341.995 275.714 341.434 275.528 340.748 275.528H338.036L338.393 270.532H343.746V271.474H339.278L339.064 274.557H340.748ZM349.386 276.57V275.656H354.525V276.57H349.386ZM369.507 270.532V280.524H368.508V272.045L365.011 277.898H364.868L361.37 272.045V280.524H360.371V270.532H361.613L364.939 276.099L368.265 270.532H369.507ZM376.671 273.387H377.613V280.524H376.671V279.411C376.138 280.267 375.339 280.696 374.273 280.696C373.407 280.696 372.721 280.434 372.217 279.911C371.722 279.378 371.475 278.664 371.475 277.769V273.387H372.417V277.769C372.417 278.407 372.583 278.902 372.916 279.254C373.259 279.606 373.74 279.782 374.358 279.782C375.043 279.782 375.6 279.568 376.028 279.14C376.457 278.702 376.671 278.031 376.671 277.127V273.387ZM380.563 271.674C380.429 271.807 380.268 271.873 380.077 271.873C379.887 271.873 379.725 271.807 379.592 271.674C379.459 271.54 379.392 271.379 379.392 271.188C379.392 270.998 379.459 270.836 379.592 270.703C379.725 270.57 379.887 270.503 380.077 270.503C380.268 270.503 380.429 270.57 380.563 270.703C380.696 270.836 380.762 270.998 380.762 271.188C380.762 271.379 380.696 271.54 380.563 271.674ZM379.606 280.524V273.387H380.548V280.524H379.606ZM386.331 274.3H384.275V278.626C384.275 279.016 384.351 279.297 384.503 279.468C384.656 279.63 384.884 279.715 385.189 279.725C385.493 279.725 385.874 279.715 386.331 279.696V280.524C385.331 280.677 384.58 280.605 384.075 280.31C383.58 280.015 383.333 279.454 383.333 278.626V274.3H381.834V273.387H383.333V271.674L384.275 271.388V273.387H386.331V274.3ZM393.45 279.625C392.727 280.339 391.842 280.696 390.795 280.696C389.748 280.696 388.858 280.339 388.126 279.625C387.402 278.902 387.041 278.012 387.041 276.956C387.041 275.899 387.402 275.014 388.126 274.3C388.858 273.577 389.748 273.215 390.795 273.215C391.842 273.215 392.727 273.577 393.45 274.3C394.183 275.014 394.549 275.899 394.549 276.956C394.549 278.012 394.183 278.902 393.45 279.625ZM388.796 278.968C389.339 279.511 390.005 279.782 390.795 279.782C391.585 279.782 392.251 279.511 392.794 278.968C393.336 278.416 393.607 277.745 393.607 276.956C393.607 276.166 393.336 275.499 392.794 274.957C392.251 274.405 391.585 274.129 390.795 274.129C390.005 274.129 389.339 274.405 388.796 274.957C388.254 275.499 387.983 276.166 387.983 276.956C387.983 277.745 388.254 278.416 388.796 278.968ZM400.651 271.674C400.518 271.807 400.356 271.873 400.166 271.873C399.976 271.873 399.814 271.807 399.681 271.674C399.547 271.54 399.481 271.379 399.481 271.188C399.481 270.998 399.547 270.836 399.681 270.703C399.814 270.57 399.976 270.503 400.166 270.503C400.356 270.503 400.518 270.57 400.651 270.703C400.785 270.836 400.851 270.998 400.851 271.188C400.851 271.379 400.785 271.54 400.651 271.674ZM399.695 280.524V273.387H400.637V280.524H399.695ZM410.245 273.215C411.045 273.215 411.687 273.472 412.173 273.986C412.667 274.5 412.915 275.195 412.915 276.07V280.524H411.973V276.07C411.973 275.452 411.811 274.976 411.487 274.643C411.173 274.3 410.755 274.129 410.231 274.129C409.641 274.129 409.16 274.329 408.789 274.729C408.428 275.119 408.247 275.733 408.247 276.57V280.524H407.305V276.07C407.305 275.442 407.152 274.962 406.848 274.629C406.553 274.296 406.148 274.129 405.634 274.129C405.063 274.129 404.578 274.329 404.178 274.729C403.779 275.128 403.579 275.742 403.579 276.57V280.524H402.637V273.387H403.579V274.429C404.093 273.62 404.821 273.215 405.763 273.215C406.791 273.215 407.514 273.648 407.933 274.514C408.447 273.648 409.218 273.215 410.245 273.215ZM418.563 273.215C419.581 273.215 420.447 273.577 421.161 274.3C421.885 275.024 422.246 275.909 422.246 276.956C422.246 278.002 421.885 278.887 421.161 279.611C420.447 280.334 419.581 280.696 418.563 280.696C417.297 280.696 416.336 280.172 415.679 279.125V283.38H414.737V273.387H415.679V274.786C416.336 273.739 417.297 273.215 418.563 273.215ZM416.493 278.968C417.036 279.511 417.702 279.782 418.492 279.782C419.282 279.782 419.948 279.511 420.49 278.968C421.033 278.416 421.304 277.745 421.304 276.956C421.304 276.166 421.033 275.499 420.49 274.957C419.948 274.405 419.282 274.129 418.492 274.129C417.702 274.129 417.036 274.405 416.493 274.957C415.951 275.499 415.679 276.166 415.679 276.956C415.679 277.745 415.951 278.416 416.493 278.968ZM429.794 279.625C429.071 280.339 428.186 280.696 427.139 280.696C426.092 280.696 425.202 280.339 424.469 279.625C423.746 278.902 423.385 278.012 423.385 276.956C423.385 275.899 423.746 275.014 424.469 274.3C425.202 273.577 426.092 273.215 427.139 273.215C428.186 273.215 429.071 273.577 429.794 274.3C430.527 275.014 430.893 275.899 430.893 276.956C430.893 278.012 430.527 278.902 429.794 279.625ZM425.14 278.968C425.683 279.511 426.349 279.782 427.139 279.782C427.929 279.782 428.595 279.511 429.138 278.968C429.68 278.416 429.951 277.745 429.951 276.956C429.951 276.166 429.68 275.499 429.138 274.957C428.595 274.405 427.929 274.129 427.139 274.129C426.349 274.129 425.683 274.405 425.14 274.957C424.598 275.499 424.327 276.166 424.327 276.956C424.327 277.745 424.598 278.416 425.14 278.968ZM433.412 274.572C433.85 273.705 434.602 273.272 435.668 273.272V274.186C435.021 274.186 434.483 274.376 434.055 274.757C433.626 275.138 433.412 275.737 433.412 276.556V280.524H432.47V273.387H433.412V274.572ZM440.881 274.3H438.826V278.626C438.826 279.016 438.902 279.297 439.054 279.468C439.206 279.63 439.435 279.715 439.739 279.725C440.044 279.725 440.425 279.715 440.881 279.696V280.524C439.882 280.677 439.13 280.605 438.626 280.31C438.131 280.015 437.884 279.454 437.884 278.626V274.3H436.385V273.387H437.884V271.674L438.826 271.388V273.387H440.881V274.3ZM448.158 273.387H449.1V280.524H448.158V279.125C447.501 280.172 446.54 280.696 445.274 280.696C444.256 280.696 443.385 280.334 442.662 279.611C441.948 278.887 441.591 278.002 441.591 276.956C441.591 275.909 441.948 275.024 442.662 274.3C443.385 273.577 444.256 273.215 445.274 273.215C446.54 273.215 447.501 273.739 448.158 274.786V273.387ZM443.347 278.968C443.89 279.511 444.556 279.782 445.346 279.782C446.136 279.782 446.802 279.511 447.344 278.968C447.887 278.416 448.158 277.745 448.158 276.956C448.158 276.166 447.887 275.499 447.344 274.957C446.802 274.405 446.136 274.129 445.346 274.129C444.556 274.129 443.89 274.405 443.347 274.957C442.805 275.499 442.534 276.166 442.534 276.956C442.534 277.745 442.805 278.416 443.347 278.968ZM454.436 273.215C455.302 273.215 455.982 273.482 456.477 274.015C456.981 274.538 457.234 275.247 457.234 276.142V280.524H456.291V276.142C456.291 275.504 456.12 275.009 455.777 274.657C455.444 274.305 454.969 274.129 454.35 274.129C453.665 274.129 453.108 274.348 452.68 274.786C452.251 275.214 452.037 275.88 452.037 276.784V280.524H451.095V273.387H452.037V274.5C452.57 273.644 453.37 273.215 454.436 273.215ZM462.838 274.3H460.783V278.626C460.783 279.016 460.859 279.297 461.011 279.468C461.163 279.63 461.392 279.715 461.696 279.725C462.001 279.725 462.382 279.715 462.838 279.696V280.524C461.839 280.677 461.087 280.605 460.583 280.31C460.088 280.015 459.841 279.454 459.841 278.626V274.3H458.342V273.387H459.841V271.674L460.783 271.388V273.387H462.838V274.3ZM467.274 273.215C468.331 273.215 469.182 273.591 469.829 274.343C470.486 275.085 470.814 275.966 470.814 276.984C470.814 277.089 470.805 277.236 470.786 277.427H464.519C464.614 278.15 464.919 278.726 465.433 279.154C465.956 279.573 466.598 279.782 467.36 279.782C467.902 279.782 468.369 279.673 468.759 279.454C469.159 279.225 469.458 278.93 469.658 278.569L470.486 279.054C470.172 279.558 469.744 279.958 469.201 280.253C468.659 280.548 468.04 280.696 467.346 280.696C466.223 280.696 465.309 280.344 464.605 279.639C463.9 278.935 463.548 278.04 463.548 276.956C463.548 275.89 463.896 275 464.59 274.286C465.285 273.572 466.18 273.215 467.274 273.215ZM467.274 274.129C466.532 274.129 465.908 274.353 465.404 274.8C464.909 275.238 464.614 275.809 464.519 276.513H469.844C469.749 275.761 469.458 275.176 468.973 274.757C468.488 274.338 467.921 274.129 467.274 274.129Z" fill="black"/>
<path d="M18.2965 34.0941H19.153V44.0869H18.1537V35.1933L15.9125 35.8642L15.6555 35.0077L18.2965 34.0941ZM25.0038 40.1326V39.219H30.1429V40.1326H25.0038ZM39.5581 34.0941C40.4527 34.0941 41.1997 34.3939 41.7993 34.9934C42.3989 35.593 42.6987 36.3401 42.6987 37.2347C42.6987 38.1293 42.3989 38.8764 41.7993 39.4759C41.1997 40.0755 40.4527 40.3753 39.5581 40.3753H36.9885V44.0869H35.9892V34.0941H39.5581ZM39.5581 39.4331C40.1767 39.4331 40.6858 39.2285 41.0855 38.8193C41.4948 38.4005 41.6994 37.8723 41.6994 37.2347C41.6994 36.597 41.4948 36.0736 41.0855 35.6644C40.6858 35.2456 40.1767 35.0363 39.5581 35.0363H36.9885V39.4331H39.5581ZM49.6766 43.1876C48.9533 43.9013 48.0682 44.2582 47.0213 44.2582C45.9745 44.2582 45.0846 43.9013 44.3518 43.1876C43.6285 42.4643 43.2669 41.5744 43.2669 40.518C43.2669 39.4617 43.6285 38.5766 44.3518 37.8628C45.0846 37.1395 45.9745 36.7779 47.0213 36.7779C48.0682 36.7779 48.9533 37.1395 49.6766 37.8628C50.4094 38.5766 50.7758 39.4617 50.7758 40.518C50.7758 41.5744 50.4094 42.4643 49.6766 43.1876ZM45.0228 42.5309C45.5652 43.0734 46.2314 43.3446 47.0213 43.3446C47.8113 43.3446 48.4774 43.0734 49.0199 42.5309C49.5624 41.9789 49.8336 41.308 49.8336 40.518C49.8336 39.7281 49.5624 39.0619 49.0199 38.5195C48.4774 37.9675 47.8113 37.6915 47.0213 37.6915C46.2314 37.6915 45.5652 37.9675 45.0228 38.5195C44.4803 39.0619 44.2091 39.7281 44.2091 40.518C44.2091 41.308 44.4803 41.9789 45.0228 42.5309ZM57.3774 36.9492H58.3196V44.0869H57.3774V42.9734C56.8445 43.83 56.045 44.2582 54.9791 44.2582C54.1131 44.2582 53.4279 43.9965 52.9235 43.4731C52.4286 42.9401 52.1812 42.2263 52.1812 41.3317V36.9492H53.1233V41.3317C53.1233 41.9694 53.2899 42.4643 53.623 42.8164C53.9656 43.1685 54.4462 43.3446 55.0648 43.3446C55.75 43.3446 56.3068 43.1305 56.735 42.7022C57.1633 42.2644 57.3774 41.5935 57.3774 40.6893V36.9492ZM63.6389 44.2582C62.5635 44.2582 61.6689 43.9013 60.9551 43.1876C60.2413 42.4643 59.8844 41.5744 59.8844 40.518C59.8844 39.4617 60.2413 38.5766 60.9551 37.8628C61.6689 37.1395 62.5635 36.7779 63.6389 36.7779C64.3432 36.7779 64.976 36.9492 65.5375 37.2918C66.099 37.6249 66.5083 38.0769 66.7652 38.648L65.9944 39.0905C65.804 38.6622 65.4947 38.3244 65.0664 38.0769C64.6477 37.82 64.1719 37.6915 63.6389 37.6915C62.849 37.6915 62.1828 37.9675 61.6403 38.5195C61.0979 39.0619 60.8266 39.7281 60.8266 40.518C60.8266 41.308 61.0979 41.9789 61.6403 42.5309C62.1828 43.0734 62.849 43.3446 63.6389 43.3446C64.1719 43.3446 64.6477 43.2209 65.0664 42.9734C65.4852 42.7165 65.8135 42.3739 66.0515 41.9456L66.8366 42.4024C66.5416 42.9734 66.1086 43.4255 65.5375 43.7586C64.9665 44.0917 64.3336 44.2582 63.6389 44.2582ZM74.101 43.1876C73.3778 43.9013 72.4927 44.2582 71.4458 44.2582C70.3989 44.2582 69.5091 43.9013 68.7763 43.1876C68.053 42.4643 67.6914 41.5744 67.6914 40.518C67.6914 39.4617 68.053 38.5766 68.7763 37.8628C69.5091 37.1395 70.3989 36.7779 71.4458 36.7779C72.4927 36.7779 73.3778 37.1395 74.101 37.8628C74.8339 38.5766 75.2003 39.4617 75.2003 40.518C75.2003 41.5744 74.8339 42.4643 74.101 43.1876ZM69.4472 42.5309C69.9897 43.0734 70.6559 43.3446 71.4458 43.3446C72.2357 43.3446 72.9019 43.0734 73.4444 42.5309C73.9868 41.9789 74.2581 41.308 74.2581 40.518C74.2581 39.7281 73.9868 39.0619 73.4444 38.5195C72.9019 37.9675 72.2357 37.6915 71.4458 37.6915C70.6559 37.6915 69.9897 37.9675 69.4472 38.5195C68.9048 39.0619 68.6335 39.7281 68.6335 40.518C68.6335 41.308 68.9048 41.9789 69.4472 42.5309ZM81.3022 35.2361C81.169 35.3694 81.0072 35.436 80.8169 35.436C80.6265 35.436 80.4648 35.3694 80.3315 35.2361C80.1983 35.1029 80.1317 34.9411 80.1317 34.7507C80.1317 34.5604 80.1983 34.3986 80.3315 34.2654C80.4648 34.1321 80.6265 34.0655 80.8169 34.0655C81.0072 34.0655 81.169 34.1321 81.3022 34.2654C81.4355 34.3986 81.5021 34.5604 81.5021 34.7507C81.5021 34.9411 81.4355 35.1029 81.3022 35.2361ZM80.3458 44.0869V36.9492H81.288V44.0869H80.3458ZM90.8962 36.7779C91.6956 36.7779 92.338 37.0348 92.8233 37.5487C93.3182 38.0627 93.5657 38.7574 93.5657 39.633V44.0869H92.6235V39.633C92.6235 39.0144 92.4617 38.5385 92.1381 38.2054C91.8241 37.8628 91.4053 37.6915 90.8819 37.6915C90.2918 37.6915 89.8112 37.8914 89.4401 38.2911C89.0784 38.6813 88.8976 39.2951 88.8976 40.1326V44.0869H87.9554V39.633C87.9554 39.0048 87.8031 38.5242 87.4986 38.1911C87.2036 37.858 86.7991 37.6915 86.2852 37.6915C85.7141 37.6915 85.2288 37.8914 84.8291 38.2911C84.4294 38.6908 84.2295 39.3046 84.2295 40.1326V44.0869H83.2873V36.9492H84.2295V37.9913C84.7434 37.1823 85.4715 36.7779 86.4136 36.7779C87.4415 36.7779 88.1648 37.2109 88.5835 38.0769C89.0974 37.2109 89.8683 36.7779 90.8962 36.7779ZM99.2138 36.7779C100.232 36.7779 101.098 37.1395 101.812 37.8628C102.535 38.5861 102.897 39.4712 102.897 40.518C102.897 41.5649 102.535 42.45 101.812 43.1733C101.098 43.8966 100.232 44.2582 99.2138 44.2582C97.9481 44.2582 96.9869 43.7348 96.3302 42.6879V46.942H95.388V36.9492H96.3302V38.3482C96.9869 37.3013 97.9481 36.7779 99.2138 36.7779ZM97.1439 42.5309C97.6864 43.0734 98.3526 43.3446 99.1425 43.3446C99.9324 43.3446 100.599 43.0734 101.141 42.5309C101.684 41.9789 101.955 41.308 101.955 40.518C101.955 39.7281 101.684 39.0619 101.141 38.5195C100.599 37.9675 99.9324 37.6915 99.1425 37.6915C98.3526 37.6915 97.6864 37.9675 97.1439 38.5195C96.6014 39.0619 96.3302 39.7281 96.3302 40.518C96.3302 41.308 96.6014 41.9789 97.1439 42.5309ZM110.445 43.1876C109.722 43.9013 108.837 44.2582 107.79 44.2582C106.743 44.2582 105.853 43.9013 105.12 43.1876C104.397 42.4643 104.035 41.5744 104.035 40.518C104.035 39.4617 104.397 38.5766 105.12 37.8628C105.853 37.1395 106.743 36.7779 107.79 36.7779C108.837 36.7779 109.722 37.1395 110.445 37.8628C111.178 38.5766 111.544 39.4617 111.544 40.518C111.544 41.5744 111.178 42.4643 110.445 43.1876ZM105.791 42.5309C106.334 43.0734 107 43.3446 107.79 43.3446C108.58 43.3446 109.246 43.0734 109.788 42.5309C110.331 41.9789 110.602 41.308 110.602 40.518C110.602 39.7281 110.331 39.0619 109.788 38.5195C109.246 37.9675 108.58 37.6915 107.79 37.6915C107 37.6915 106.334 37.9675 105.791 38.5195C105.249 39.0619 104.977 39.7281 104.977 40.518C104.977 41.308 105.249 41.9789 105.791 42.5309ZM114.063 38.134C114.501 37.268 115.253 36.835 116.319 36.835V37.7486C115.671 37.7486 115.134 37.9389 114.705 38.3196C114.277 38.7003 114.063 39.2999 114.063 40.1183V44.0869H113.121V36.9492H114.063V38.134ZM121.532 37.8628H119.477V42.1883C119.477 42.5785 119.553 42.8592 119.705 43.0305C119.857 43.1923 120.086 43.278 120.39 43.2875C120.695 43.2875 121.075 43.278 121.532 43.2589V44.0869C120.533 44.2392 119.781 44.1678 119.277 43.8728C118.782 43.5778 118.534 43.0163 118.534 42.1883V37.8628H117.035V36.9492H118.534V35.2361L119.477 34.9506V36.9492H121.532V37.8628ZM128.809 36.9492H129.751V44.0869H128.809V42.6879C128.152 43.7348 127.191 44.2582 125.925 44.2582C124.907 44.2582 124.036 43.8966 123.313 43.1733C122.599 42.45 122.242 41.5649 122.242 40.518C122.242 39.4712 122.599 38.5861 123.313 37.8628C124.036 37.1395 124.907 36.7779 125.925 36.7779C127.191 36.7779 128.152 37.3013 128.809 38.3482V36.9492ZM123.998 42.5309C124.54 43.0734 125.207 43.3446 125.997 43.3446C126.786 43.3446 127.453 43.0734 127.995 42.5309C128.538 41.9789 128.809 41.308 128.809 40.518C128.809 39.7281 128.538 39.0619 127.995 38.5195C127.453 37.9675 126.786 37.6915 125.997 37.6915C125.207 37.6915 124.54 37.9675 123.998 38.5195C123.456 39.0619 123.184 39.7281 123.184 40.518C123.184 41.308 123.456 41.9789 123.998 42.5309ZM135.086 36.7779C135.952 36.7779 136.633 37.0443 137.128 37.5773C137.632 38.1007 137.884 38.8097 137.884 39.7043V44.0869H136.942V39.7043C136.942 39.0667 136.771 38.5718 136.428 38.2197C136.095 37.8676 135.619 37.6915 135.001 37.6915C134.315 37.6915 133.759 37.9104 133.33 38.3482C132.902 38.7764 132.688 39.4426 132.688 40.3467V44.0869H131.746V36.9492H132.688V38.0627C133.221 37.2061 134.02 36.7779 135.086 36.7779ZM143.489 37.8628H141.433V42.1883C141.433 42.5785 141.51 42.8592 141.662 43.0305C141.814 43.1923 142.043 43.278 142.347 43.2875C142.652 43.2875 143.032 43.278 143.489 43.2589V44.0869C142.49 44.2392 141.738 44.1678 141.234 43.8728C140.739 43.5778 140.491 43.0163 140.491 42.1883V37.8628H138.992V36.9492H140.491V35.2361L141.433 34.9506V36.9492H143.489V37.8628ZM147.925 36.7779C148.981 36.7779 149.833 37.1538 150.48 37.9056C151.137 38.648 151.465 39.5283 151.465 40.5466C151.465 40.6513 151.456 40.7988 151.437 40.9891H145.17C145.265 41.7124 145.569 42.2882 146.083 42.7165C146.607 43.1352 147.249 43.3446 148.011 43.3446C148.553 43.3446 149.019 43.2351 149.41 43.0163C149.809 42.7878 150.109 42.4928 150.309 42.1312L151.137 42.6165C150.823 43.1209 150.395 43.5207 149.852 43.8157C149.31 44.1107 148.691 44.2582 147.996 44.2582C146.873 44.2582 145.96 43.9061 145.255 43.2018C144.551 42.4976 144.199 41.603 144.199 40.518C144.199 39.4521 144.546 38.5623 145.241 37.8485C145.936 37.1348 146.83 36.7779 147.925 36.7779ZM147.925 37.6915C147.183 37.6915 146.559 37.9151 146.055 38.3624C145.56 38.8002 145.265 39.3712 145.17 40.0755H150.495C150.399 39.3237 150.109 38.7384 149.624 38.3196C149.138 37.9009 148.572 37.6915 147.925 37.6915Z" fill="black"/>
</svg>
