<svg width="582" height="297" viewBox="0 0 582 297" fill="none" xmlns="http://www.w3.org/2000/svg">
<path d="M315.793 14.8223C381.397 14.8223 437.26 62.5331 447.522 127.33C457.785 192.127 419.401 254.765 357.007 275.038L315.793 148.194V14.8223Z" fill="#193E3E"/>
<path d="M299.076 15.8739C304.621 15.1735 310.204 14.8223 315.792 14.8223V148.194L299.076 15.8739Z" fill="#FF6D01"/>
<path d="M237.396 40.2911C255.571 27.0865 276.787 18.6867 299.074 15.8711L315.79 148.191L237.396 40.2911Z" fill="#F9F1E6"/>
<path d="M183.471 131.475C188.086 94.9388 207.603 61.9371 237.397 40.291L315.791 148.191L183.471 131.475Z" fill="#78C1B2"/>
<path d="M357.007 275.032C313.583 289.142 265.96 280.057 230.779 250.953C195.598 221.849 177.751 176.771 183.473 131.473L315.793 148.189L357.007 275.032Z" fill="#3A8071"/>
<path d="M95.7799 36.3792V37.1905H91.2363C91.2363 36.9908 91.2696 36.7953 91.3362 36.6039C91.4527 36.296 91.6358 35.9922 91.8854 35.6926C92.1434 35.3931 92.5137 35.0477 92.9963 34.6566C93.7453 34.0408 94.2487 33.554 94.5067 33.1962C94.773 32.8383 94.9061 32.5013 94.9061 32.1851C94.9061 31.8522 94.7855 31.5735 94.5442 31.3488C94.3028 31.1158 93.9908 30.9993 93.608 30.9993C93.2002 30.9993 92.8757 31.1199 92.6344 31.3613C92.393 31.6026 92.2682 31.9396 92.2599 32.3723L91.3986 32.285C91.4568 31.6359 91.6774 31.1449 92.0602 30.812C92.4513 30.4709 92.9755 30.3003 93.6329 30.3003C94.2903 30.3003 94.8104 30.4833 95.1932 30.8495C95.576 31.2156 95.7674 31.6692 95.7674 32.2101C95.7674 32.4847 95.7092 32.7551 95.5927 33.0214C95.4845 33.2794 95.2973 33.5582 95.031 33.8577C94.773 34.149 94.3444 34.5484 93.7453 35.056C93.2377 35.4804 92.909 35.7717 92.7592 35.9298C92.6177 36.0796 92.5012 36.2294 92.4097 36.3792H95.7799ZM97.3901 37.1905V36.2294H98.3513V37.1905C98.3513 37.54 98.2889 37.823 98.164 38.0393C98.0392 38.264 97.8437 38.4346 97.5774 38.5511L97.3402 38.1891C97.515 38.1142 97.6439 37.9977 97.7272 37.8396C97.8104 37.6898 97.8603 37.4735 97.8769 37.1905H97.3901ZM99.3374 33.8078C99.3374 32.9923 99.4206 32.3391 99.587 31.8481C99.7535 31.3488 99.9989 30.966 100.323 30.6997C100.656 30.4334 101.072 30.3003 101.572 30.3003C101.938 30.3003 102.258 30.3752 102.533 30.5249C102.816 30.6747 103.049 30.8911 103.232 31.174C103.415 31.4486 103.556 31.7857 103.656 32.1851C103.756 32.5845 103.806 33.1254 103.806 33.8078C103.806 34.615 103.723 35.2641 103.556 35.7551C103.398 36.246 103.153 36.6288 102.82 36.9034C102.495 37.1697 102.079 37.3029 101.572 37.3029C100.914 37.3029 100.394 37.0657 100.011 36.5914C99.5621 36.0255 99.3374 35.0977 99.3374 33.8078ZM100.199 33.8078C100.199 34.9312 100.332 35.6802 100.598 36.0546C100.864 36.4291 101.189 36.6163 101.572 36.6163C101.963 36.6163 102.287 36.4291 102.545 36.0546C102.812 35.6802 102.945 34.9312 102.945 33.8078C102.945 32.6761 102.812 31.9271 102.545 31.561C102.287 31.1865 101.959 30.9993 101.559 30.9993C101.176 30.9993 100.869 31.1616 100.636 31.4861C100.344 31.9022 100.199 32.6761 100.199 33.8078ZM105.092 31.9729C105.092 31.4819 105.212 31.0659 105.454 30.7247C105.703 30.3835 106.061 30.2129 106.527 30.2129C106.96 30.2129 107.318 30.3668 107.601 30.6747C107.884 30.9826 108.025 31.432 108.025 32.0228C108.025 32.6053 107.879 33.0547 107.588 33.3709C107.305 33.6788 106.956 33.8328 106.54 33.8328C106.124 33.8328 105.778 33.6788 105.504 33.3709C105.229 33.063 105.092 32.597 105.092 31.9729ZM106.552 30.7871C106.344 30.7871 106.169 30.8786 106.028 31.0617C105.895 31.2448 105.828 31.5776 105.828 32.0603C105.828 32.5013 105.895 32.8134 106.028 32.9965C106.169 33.1712 106.344 33.2586 106.552 33.2586C106.769 33.2586 106.943 33.167 107.076 32.984C107.218 32.8009 107.289 32.4722 107.289 31.9979C107.289 31.5485 107.218 31.2364 107.076 31.0617C106.935 30.8786 106.76 30.7871 106.552 30.7871ZM106.552 37.4402L110.309 30.2129H110.996L107.251 37.4402H106.552ZM109.523 35.5803C109.523 35.0893 109.644 34.6733 109.885 34.3321C110.135 33.9909 110.497 33.8203 110.971 33.8203C111.404 33.8203 111.761 33.9742 112.044 34.2821C112.327 34.5817 112.469 35.0311 112.469 35.6302C112.469 36.2127 112.323 36.6621 112.032 36.9783C111.749 37.2862 111.395 37.4402 110.971 37.4402C110.563 37.4402 110.218 37.2862 109.935 36.9783C109.66 36.6704 109.523 36.2044 109.523 35.5803ZM110.996 34.3945C110.78 34.3945 110.601 34.486 110.459 34.6691C110.326 34.8522 110.259 35.185 110.259 35.6677C110.259 36.1004 110.33 36.4083 110.472 36.5914C110.613 36.7745 110.788 36.866 110.996 36.866C111.204 36.866 111.379 36.7745 111.52 36.5914C111.662 36.4083 111.732 36.0754 111.732 35.5928C111.732 35.1517 111.662 34.8438 111.52 34.6691C111.379 34.486 111.204 34.3945 110.996 34.3945Z" fill="#9E9E9E"/>
<path d="M90.9492 27.2002H177.627L307.836 21.7363" stroke="#757575" stroke-width="0.563909" stroke-miterlimit="10"/>
<path d="M309.434 21.7364C309.434 20.854 308.718 20.1387 307.836 20.1387C306.954 20.1387 306.238 20.854 306.238 21.7364C306.238 22.6188 306.954 23.3342 307.836 23.3342C308.718 23.3342 309.434 22.6188 309.434 21.7364Z" fill="#9E9E9E"/>
<path d="M92.6466 58.2306C92.2971 58.0974 92.035 57.9143 91.8602 57.6813C91.6938 57.44 91.6105 57.1571 91.6105 56.8325C91.6105 56.3332 91.7895 55.913 92.1473 55.5718C92.5134 55.2306 92.9919 55.06 93.5828 55.06C94.1819 55.06 94.6646 55.2348 95.0307 55.5843C95.3969 55.9338 95.5799 56.3582 95.5799 56.8575C95.5799 57.1737 95.4967 57.4483 95.3303 57.6813C95.1639 57.9143 94.9101 58.0974 94.5689 58.2306C94.9933 58.3637 95.3137 58.5842 95.53 58.8921C95.7464 59.2 95.8546 59.5662 95.8546 59.9906C95.8546 60.5731 95.6465 61.064 95.2304 61.4635C94.8227 61.8629 94.2776 62.0626 93.5952 62.0626C92.9212 62.0626 92.3761 61.8629 91.9601 61.4635C91.544 61.064 91.3359 60.5648 91.3359 59.9656C91.3359 59.5162 91.4483 59.1418 91.673 58.8422C91.906 58.5426 92.2305 58.3387 92.6466 58.2306ZM92.4718 56.7951C92.4718 57.1196 92.5759 57.3859 92.7839 57.594C93.0003 57.802 93.2749 57.906 93.6077 57.906C93.9323 57.906 94.1986 57.8062 94.4066 57.6064C94.6146 57.3984 94.7187 57.1446 94.7187 56.845C94.7187 56.5371 94.6105 56.2791 94.3941 56.0711C94.1778 55.8547 93.9115 55.7466 93.5952 55.7466C93.2707 55.7466 93.0003 55.8506 92.7839 56.0586C92.5759 56.2667 92.4718 56.5121 92.4718 56.7951ZM92.2097 59.9656C92.2097 60.2069 92.2638 60.4399 92.372 60.6646C92.4885 60.8893 92.6591 61.064 92.8838 61.1889C93.1084 61.3137 93.3498 61.3761 93.6077 61.3761C94.0072 61.3761 94.3359 61.2471 94.5938 60.9892C94.8601 60.7312 94.9933 60.4025 94.9933 60.003C94.9933 59.5953 94.8601 59.2583 94.5938 58.992C94.3275 58.7257 93.9905 58.5925 93.5828 58.5925C93.1833 58.5925 92.8546 58.7257 92.5967 58.992C92.3387 59.2499 92.2097 59.5745 92.2097 59.9656ZM97.3899 61.9503V60.9892H98.351V61.9503C98.351 62.2998 98.2886 62.5827 98.1638 62.7991C98.039 63.0238 97.8434 63.1944 97.5771 63.3109L97.34 62.9489C97.5147 62.874 97.6437 62.7575 97.7269 62.5994C97.8101 62.4496 97.8601 62.2332 97.8767 61.9503H97.3899ZM99.3371 58.5676C99.3371 57.7521 99.4204 57.0988 99.5868 56.6078C99.7532 56.1086 99.9987 55.7258 100.323 55.4595C100.656 55.1932 101.072 55.06 101.571 55.06C101.938 55.06 102.258 55.1349 102.533 55.2847C102.816 55.4345 103.049 55.6509 103.232 55.9338C103.415 56.2084 103.556 56.5454 103.656 56.9449C103.756 57.3443 103.806 57.8852 103.806 58.5676C103.806 59.3748 103.723 60.0238 103.556 60.5148C103.398 61.0058 103.153 61.3886 102.82 61.6632C102.495 61.9295 102.079 62.0626 101.571 62.0626C100.914 62.0626 100.394 61.8255 100.011 61.3511C99.5618 60.7853 99.3371 59.8574 99.3371 58.5676ZM100.198 58.5676C100.198 59.691 100.332 60.4399 100.598 60.8144C100.864 61.1889 101.189 61.3761 101.571 61.3761C101.963 61.3761 102.287 61.1889 102.545 60.8144C102.811 60.4399 102.945 59.691 102.945 58.5676C102.945 57.4358 102.811 56.6869 102.545 56.3208C102.287 55.9463 101.958 55.759 101.559 55.759C101.176 55.759 100.868 55.9213 100.635 56.2459C100.344 56.6619 100.198 57.4358 100.198 58.5676ZM105.092 56.7327C105.092 56.2417 105.212 55.8256 105.453 55.4844C105.703 55.1433 106.061 54.9727 106.527 54.9727C106.96 54.9727 107.318 55.1266 107.6 55.4345C107.883 55.7424 108.025 56.1918 108.025 56.7826C108.025 57.3651 107.879 57.8145 107.588 58.1307C107.305 58.4386 106.956 58.5925 106.539 58.5925C106.123 58.5925 105.778 58.4386 105.503 58.1307C105.229 57.8228 105.092 57.3568 105.092 56.7327ZM106.552 55.5468C106.344 55.5468 106.169 55.6384 106.028 55.8215C105.895 56.0045 105.828 56.3374 105.828 56.82C105.828 57.2611 105.895 57.5731 106.028 57.7562C106.169 57.931 106.344 58.0184 106.552 58.0184C106.768 58.0184 106.943 57.9268 107.076 57.7437C107.218 57.5607 107.288 57.232 107.288 56.7576C107.288 56.3083 107.218 55.9962 107.076 55.8215C106.935 55.6384 106.76 55.5468 106.552 55.5468ZM106.552 62.1999L110.309 54.9727H110.996L107.251 62.1999H106.552ZM109.523 60.3401C109.523 59.8491 109.643 59.433 109.885 59.0918C110.134 58.7506 110.496 58.5801 110.971 58.5801C111.403 58.5801 111.761 58.734 112.044 59.0419C112.327 59.3415 112.469 59.7908 112.469 60.39C112.469 60.9725 112.323 61.4219 112.032 61.7381C111.749 62.046 111.395 62.1999 110.971 62.1999C110.563 62.1999 110.218 62.046 109.935 61.7381C109.66 61.4302 109.523 60.9642 109.523 60.3401ZM110.996 59.1542C110.779 59.1542 110.6 59.2458 110.459 59.4289C110.326 59.6119 110.259 59.9448 110.259 60.4274C110.259 60.8602 110.33 61.1681 110.471 61.3511C110.613 61.5342 110.788 61.6258 110.996 61.6258C111.204 61.6258 111.378 61.5342 111.52 61.3511C111.661 61.1681 111.732 60.8352 111.732 60.3526C111.732 59.9115 111.661 59.6036 111.52 59.4289C111.378 59.2458 111.204 59.1542 110.996 59.1542Z" fill="#9E9E9E"/>
<path d="M90.9492 51.9662H177.627L269.149 30.3848" stroke="#757575" stroke-width="0.563909" stroke-miterlimit="10"/>
<path d="M270.748 30.3868C270.748 29.5044 270.033 28.7891 269.15 28.7891C268.268 28.7891 267.553 29.5044 267.553 30.3868C267.553 31.2692 268.268 31.9845 269.15 31.9845C270.033 31.9845 270.748 31.2692 270.748 30.3868Z" fill="#9E9E9E"/>
<path d="M94.5195 93.6788H93.6832V88.3114C93.4751 88.5028 93.2047 88.6983 92.8718 88.8981C92.5473 89.0895 92.256 89.2309 91.998 89.3225V88.5111C92.4641 88.2864 92.8718 88.0201 93.2213 87.7122C93.5791 87.396 93.833 87.0881 93.9827 86.7885H94.5195V93.6788ZM96.9411 91.8689L97.7899 91.7565C97.8814 92.2309 98.0437 92.5762 98.2767 92.7926C98.5097 93.0006 98.7926 93.1046 99.1255 93.1046C99.5249 93.1046 99.8619 92.9673 100.137 92.6927C100.411 92.4181 100.548 92.0769 100.548 91.6692C100.548 91.2864 100.419 90.9701 100.162 90.7205C99.9119 90.4625 99.5915 90.3335 99.2004 90.3335C99.0423 90.3335 98.8425 90.3668 98.6012 90.4334L98.7011 89.6845C98.7593 89.6928 98.8051 89.6969 98.8384 89.6969C99.1962 89.6969 99.5166 89.6054 99.7995 89.4223C100.091 89.2309 100.236 88.9397 100.236 88.5486C100.236 88.2407 100.132 87.9869 99.9243 87.7871C99.7163 87.5791 99.4459 87.4751 99.113 87.4751C98.7885 87.4751 98.5138 87.5791 98.2892 87.7871C98.0728 87.9952 97.9355 88.3031 97.8772 88.7108L97.0284 88.561C97.1283 88.0035 97.3613 87.5708 97.7275 87.2629C98.0936 86.9467 98.5471 86.7885 99.088 86.7885C99.4625 86.7885 99.8078 86.8718 100.124 87.0382C100.44 87.1963 100.682 87.4127 100.848 87.6873C101.014 87.9619 101.098 88.2573 101.098 88.5735C101.098 88.8648 101.019 89.1352 100.861 89.3849C100.702 89.6262 100.469 89.8176 100.162 89.9591C100.561 90.0506 100.873 90.2462 101.098 90.5457C101.322 90.837 101.435 91.2073 101.435 91.6567C101.435 92.2558 101.214 92.7634 100.773 93.1795C100.34 93.5956 99.7912 93.8036 99.1255 93.8036C98.5263 93.8036 98.027 93.6247 97.6276 93.2669C97.2282 92.9007 96.9993 92.4347 96.9411 91.8689ZM102.983 93.6788V92.7177H103.944V93.6788C103.944 94.0283 103.881 94.3113 103.756 94.5276C103.632 94.7523 103.436 94.9229 103.17 95.0394L102.933 94.6774C103.107 94.6025 103.236 94.486 103.32 94.3279C103.403 94.1781 103.453 93.9617 103.469 93.6788H102.983ZM104.93 90.2961C104.93 89.4806 105.013 88.8273 105.179 88.3364C105.346 87.8371 105.591 87.4543 105.916 87.188C106.249 86.9217 106.665 86.7885 107.164 86.7885C107.53 86.7885 107.851 86.8634 108.125 87.0132C108.408 87.163 108.641 87.3794 108.824 87.6623C109.007 87.9369 109.149 88.2739 109.249 88.6734C109.349 89.0728 109.398 89.6137 109.398 90.2961C109.398 91.1033 109.315 91.7524 109.149 92.2433C108.991 92.7343 108.745 93.1171 108.412 93.3917C108.088 93.658 107.672 93.7912 107.164 93.7912C106.507 93.7912 105.987 93.554 105.604 93.0797C105.154 92.5138 104.93 91.5859 104.93 90.2961ZM105.791 90.2961C105.791 91.4195 105.924 92.1684 106.19 92.5429C106.457 92.9174 106.781 93.1046 107.164 93.1046C107.555 93.1046 107.88 92.9174 108.138 92.5429C108.404 92.1684 108.537 91.4195 108.537 90.2961C108.537 89.1644 108.404 88.4154 108.138 88.0493C107.88 87.6748 107.551 87.4876 107.152 87.4876C106.769 87.4876 106.461 87.6498 106.228 87.9744C105.937 88.3905 105.791 89.1644 105.791 90.2961ZM110.684 88.4612C110.684 87.9702 110.805 87.5541 111.046 87.2129C111.296 86.8718 111.654 86.7012 112.12 86.7012C112.552 86.7012 112.91 86.8551 113.193 87.163C113.476 87.4709 113.618 87.9203 113.618 88.5111C113.618 89.0936 113.472 89.543 113.181 89.8592C112.898 90.1671 112.548 90.3211 112.132 90.3211C111.716 90.3211 111.371 90.1671 111.096 89.8592C110.821 89.5513 110.684 89.0853 110.684 88.4612ZM112.145 87.2754C111.937 87.2754 111.762 87.3669 111.62 87.55C111.487 87.733 111.421 88.0659 111.421 88.5486C111.421 88.9896 111.487 89.3017 111.62 89.4847C111.762 89.6595 111.937 89.7469 112.145 89.7469C112.361 89.7469 112.536 89.6553 112.669 89.4723C112.81 89.2892 112.881 88.9605 112.881 88.4861C112.881 88.0368 112.81 87.7247 112.669 87.55C112.527 87.3669 112.353 87.2754 112.145 87.2754ZM112.145 93.9285L115.902 86.7012H116.588L112.844 93.9285H112.145ZM115.115 92.0686C115.115 91.5776 115.236 91.1615 115.477 90.8204C115.727 90.4792 116.089 90.3086 116.563 90.3086C116.996 90.3086 117.354 90.4625 117.637 90.7704C117.92 91.07 118.061 91.5194 118.061 92.1185C118.061 92.701 117.916 93.1504 117.624 93.4666C117.341 93.7745 116.988 93.9285 116.563 93.9285C116.156 93.9285 115.81 93.7745 115.527 93.4666C115.253 93.1587 115.115 92.6927 115.115 92.0686ZM116.588 90.8828C116.372 90.8828 116.193 90.9743 116.052 91.1574C115.918 91.3404 115.852 91.6733 115.852 92.156C115.852 92.5887 115.923 92.8966 116.064 93.0797C116.206 93.2627 116.38 93.3543 116.588 93.3543C116.796 93.3543 116.971 93.2627 117.113 93.0797C117.254 92.8966 117.325 92.5637 117.325 92.0811C117.325 91.64 117.254 91.3321 117.113 91.1574C116.971 90.9743 116.796 90.8828 116.588 90.8828Z" fill="#9E9E9E"/>
<path d="M90.9492 83.6934H177.627H206.733" stroke="#757575" stroke-width="0.563909" stroke-miterlimit="10"/>
<path d="M208.33 83.6954C208.33 82.813 207.615 82.0977 206.733 82.0977C205.85 82.0977 205.135 82.813 205.135 83.6954C205.135 84.5778 205.85 85.2931 206.733 85.2931C207.615 85.2931 208.33 84.5778 208.33 83.6954Z" fill="#9E9E9E"/>
<path d="M91.3477 253.996L92.1965 253.883C92.288 254.358 92.4503 254.703 92.6833 254.92C92.9163 255.128 93.1992 255.232 93.5321 255.232C93.9315 255.232 94.2685 255.094 94.5431 254.82C94.8178 254.545 94.9551 254.204 94.9551 253.796C94.9551 253.413 94.8261 253.097 94.5681 252.847C94.3185 252.589 93.9981 252.46 93.607 252.46C93.4489 252.46 93.2491 252.494 93.0078 252.56L93.1077 251.811C93.1659 251.82 93.2117 251.824 93.245 251.824C93.6028 251.824 93.9232 251.732 94.2061 251.549C94.4974 251.358 94.643 251.067 94.643 250.676C94.643 250.368 94.539 250.114 94.3309 249.914C94.1229 249.706 93.8525 249.602 93.5196 249.602C93.195 249.602 92.9204 249.706 92.6958 249.914C92.4794 250.122 92.3421 250.43 92.2838 250.838L91.435 250.688C91.5349 250.13 91.7679 249.698 92.134 249.39C92.5002 249.074 92.9537 248.916 93.4946 248.916C93.8691 248.916 94.2144 248.999 94.5307 249.165C94.8469 249.323 95.0882 249.54 95.2546 249.814C95.4211 250.089 95.5043 250.384 95.5043 250.7C95.5043 250.992 95.4252 251.262 95.2671 251.512C95.109 251.753 94.876 251.945 94.5681 252.086C94.9675 252.178 95.2796 252.373 95.5043 252.673C95.729 252.964 95.8413 253.334 95.8413 253.784C95.8413 254.383 95.6208 254.89 95.1797 255.306C94.747 255.723 94.1978 255.931 93.5321 255.931C92.9329 255.931 92.4336 255.752 92.0342 255.394C91.6348 255.028 91.4059 254.562 91.3477 253.996ZM101.371 254.994V255.806H96.8274C96.8274 255.606 96.8607 255.41 96.9273 255.219C97.0438 254.911 97.2269 254.607 97.4765 254.308C97.7345 254.008 98.1048 253.663 98.5874 253.272C99.3364 252.656 99.8398 252.169 100.098 251.811C100.364 251.454 100.497 251.117 100.497 250.8C100.497 250.467 100.377 250.189 100.135 249.964C99.8939 249.731 99.5819 249.615 99.1991 249.615C98.7913 249.615 98.4668 249.735 98.2254 249.977C97.9841 250.218 97.8593 250.555 97.851 250.988L96.9897 250.9C97.0479 250.251 97.2685 249.76 97.6513 249.427C98.0424 249.086 98.5666 248.916 99.224 248.916C99.8814 248.916 100.402 249.099 100.784 249.465C101.167 249.831 101.359 250.284 101.359 250.825C101.359 251.1 101.3 251.37 101.184 251.637C101.076 251.895 100.888 252.173 100.622 252.473C100.364 252.764 99.9355 253.164 99.3364 253.671C98.8288 254.096 98.5001 254.387 98.3503 254.545C98.2088 254.695 98.0923 254.845 98.0008 254.994H101.371ZM102.981 255.806V254.845H103.942V255.806C103.942 256.155 103.88 256.438 103.755 256.655C103.63 256.879 103.435 257.05 103.168 257.166L102.931 256.804C103.106 256.729 103.235 256.613 103.318 256.455C103.401 256.305 103.451 256.089 103.468 255.806H102.981ZM104.928 252.423C104.928 251.608 105.012 250.954 105.178 250.463C105.345 249.964 105.59 249.581 105.915 249.315C106.247 249.049 106.664 248.916 107.163 248.916C107.529 248.916 107.849 248.99 108.124 249.14C108.407 249.29 108.64 249.506 108.823 249.789C109.006 250.064 109.148 250.401 109.247 250.8C109.347 251.2 109.397 251.741 109.397 252.423C109.397 253.23 109.314 253.879 109.148 254.37C108.989 254.861 108.744 255.244 108.411 255.519C108.087 255.785 107.67 255.918 107.163 255.918C106.505 255.918 105.985 255.681 105.603 255.207C105.153 254.641 104.928 253.713 104.928 252.423ZM105.79 252.423C105.79 253.546 105.923 254.295 106.189 254.67C106.455 255.044 106.78 255.232 107.163 255.232C107.554 255.232 107.878 255.044 108.136 254.67C108.403 254.295 108.536 253.546 108.536 252.423C108.536 251.291 108.403 250.542 108.136 250.176C107.878 249.802 107.55 249.615 107.15 249.615C106.768 249.615 106.46 249.777 106.227 250.101C105.935 250.517 105.79 251.291 105.79 252.423ZM110.683 250.588C110.683 250.097 110.804 249.681 111.045 249.34C111.294 248.999 111.652 248.828 112.118 248.828C112.551 248.828 112.909 248.982 113.192 249.29C113.475 249.598 113.616 250.047 113.616 250.638C113.616 251.221 113.471 251.67 113.179 251.986C112.896 252.294 112.547 252.448 112.131 252.448C111.715 252.448 111.369 252.294 111.095 251.986C110.82 251.678 110.683 251.212 110.683 250.588ZM112.143 249.402C111.935 249.402 111.76 249.494 111.619 249.677C111.486 249.86 111.419 250.193 111.419 250.676C111.419 251.117 111.486 251.429 111.619 251.612C111.76 251.786 111.935 251.874 112.143 251.874C112.36 251.874 112.534 251.782 112.668 251.599C112.809 251.416 112.88 251.087 112.88 250.613C112.88 250.164 112.809 249.852 112.668 249.677C112.526 249.494 112.351 249.402 112.143 249.402ZM112.143 256.055L115.9 248.828H116.587L112.842 256.055H112.143ZM115.114 254.196C115.114 253.705 115.235 253.288 115.476 252.947C115.726 252.606 116.088 252.436 116.562 252.436C116.995 252.436 117.353 252.589 117.636 252.897C117.918 253.197 118.06 253.646 118.06 254.245C118.06 254.828 117.914 255.277 117.623 255.594C117.34 255.901 116.986 256.055 116.562 256.055C116.154 256.055 115.809 255.901 115.526 255.594C115.251 255.286 115.114 254.82 115.114 254.196ZM116.587 253.01C116.371 253.01 116.192 253.101 116.05 253.284C115.917 253.467 115.851 253.8 115.851 254.283C115.851 254.716 115.921 255.024 116.063 255.207C116.204 255.39 116.379 255.481 116.587 255.481C116.795 255.481 116.97 255.39 117.111 255.207C117.253 255.024 117.323 254.691 117.323 254.208C117.323 253.767 117.253 253.459 117.111 253.284C116.97 253.101 116.795 253.01 116.587 253.01Z" fill="#9E9E9E"/>
<path d="M90.9492 245.82H177.627H235.028" stroke="#757575" stroke-width="0.563909" stroke-miterlimit="10"/>
<path d="M236.625 245.816C236.625 244.934 235.91 244.219 235.027 244.219C234.145 244.219 233.43 244.934 233.43 245.816C233.43 246.699 234.145 247.414 235.027 247.414C235.91 247.414 236.625 246.699 236.625 245.816Z" fill="#9E9E9E"/>
<path d="M515.77 138.357V136.709H512.799V135.935L515.932 131.491H516.618V135.935H517.542V136.709H516.618V138.357H515.77ZM515.77 135.935V132.852L513.623 135.935H515.77ZM518.666 136.559L519.552 136.484C519.618 136.917 519.768 137.241 520.001 137.458C520.242 137.674 520.534 137.782 520.875 137.782C521.274 137.782 521.616 137.628 521.898 137.321C522.181 137.013 522.323 136.609 522.323 136.11C522.323 135.627 522.186 135.248 521.911 134.974C521.645 134.691 521.291 134.549 520.85 134.549C520.584 134.549 520.338 134.612 520.113 134.737C519.897 134.861 519.727 135.02 519.602 135.211L518.815 135.111L519.477 131.591H522.897V132.39H520.151L519.789 134.237C520.197 133.946 520.625 133.8 521.075 133.8C521.674 133.8 522.177 134.009 522.585 134.425C523.001 134.841 523.209 135.377 523.209 136.035C523.209 136.651 523.03 137.187 522.672 137.645C522.231 138.194 521.632 138.469 520.875 138.469C520.251 138.469 519.739 138.294 519.34 137.945C518.948 137.595 518.724 137.133 518.666 136.559ZM524.707 138.357V137.395H525.668V138.357C525.668 138.706 525.606 138.989 525.481 139.205C525.356 139.43 525.161 139.601 524.894 139.717L524.657 139.355C524.832 139.28 524.961 139.164 525.044 139.006C525.127 138.856 525.177 138.639 525.194 138.357H524.707ZM526.654 134.974C526.654 134.158 526.737 133.505 526.904 133.014C527.07 132.515 527.316 132.132 527.64 131.866C527.973 131.599 528.389 131.466 528.889 131.466C529.255 131.466 529.575 131.541 529.85 131.691C530.133 131.841 530.366 132.057 530.549 132.34C530.732 132.615 530.873 132.952 530.973 133.351C531.073 133.751 531.123 134.291 531.123 134.974C531.123 135.781 531.04 136.43 530.873 136.921C530.715 137.412 530.47 137.795 530.137 138.069C529.812 138.336 529.396 138.469 528.889 138.469C528.231 138.469 527.711 138.232 527.328 137.757C526.879 137.192 526.654 136.264 526.654 134.974ZM527.516 134.974C527.516 136.097 527.649 136.846 527.915 137.221C528.181 137.595 528.506 137.782 528.889 137.782C529.28 137.782 529.604 137.595 529.862 137.221C530.129 136.846 530.262 136.097 530.262 134.974C530.262 133.842 530.129 133.093 529.862 132.727C529.604 132.353 529.276 132.165 528.876 132.165C528.493 132.165 528.185 132.328 527.952 132.652C527.661 133.068 527.516 133.842 527.516 134.974ZM532.409 133.139C532.409 132.648 532.529 132.232 532.771 131.891C533.02 131.55 533.378 131.379 533.844 131.379C534.277 131.379 534.635 131.533 534.918 131.841C535.201 132.149 535.342 132.598 535.342 133.189C535.342 133.771 535.196 134.221 534.905 134.537C534.622 134.845 534.273 134.999 533.857 134.999C533.441 134.999 533.095 134.845 532.821 134.537C532.546 134.229 532.409 133.763 532.409 133.139ZM533.869 131.953C533.661 131.953 533.486 132.045 533.345 132.228C533.212 132.411 533.145 132.744 533.145 133.226C533.145 133.667 533.212 133.979 533.345 134.162C533.486 134.337 533.661 134.425 533.869 134.425C534.085 134.425 534.26 134.333 534.393 134.15C534.535 133.967 534.606 133.638 534.606 133.164C534.606 132.715 534.535 132.402 534.393 132.228C534.252 132.045 534.077 131.953 533.869 131.953ZM533.869 138.606L537.626 131.379H538.313L534.568 138.606H533.869ZM536.84 136.746C536.84 136.255 536.961 135.839 537.202 135.498C537.452 135.157 537.813 134.986 538.288 134.986C538.721 134.986 539.078 135.14 539.361 135.448C539.644 135.748 539.786 136.197 539.786 136.796C539.786 137.379 539.64 137.828 539.349 138.144C539.066 138.452 538.712 138.606 538.288 138.606C537.88 138.606 537.535 138.452 537.252 138.144C536.977 137.836 536.84 137.37 536.84 136.746ZM538.313 135.56C538.096 135.56 537.917 135.652 537.776 135.835C537.643 136.018 537.576 136.351 537.576 136.834C537.576 137.266 537.647 137.574 537.789 137.757C537.93 137.94 538.105 138.032 538.313 138.032C538.521 138.032 538.696 137.94 538.837 137.757C538.979 137.574 539.049 137.241 539.049 136.759C539.049 136.318 538.979 136.01 538.837 135.835C538.696 135.652 538.521 135.56 538.313 135.56Z" fill="#9E9E9E"/>
<path d="M540.631 128.371H453.953H440.932" stroke="#757575" stroke-width="0.563909" stroke-miterlimit="10"/>
<path d="M442.531 128.371C442.531 127.489 441.816 126.773 440.934 126.773C440.051 126.773 439.336 127.489 439.336 128.371C439.336 129.254 440.051 129.969 440.934 129.969C441.816 129.969 442.531 129.254 442.531 128.371Z" fill="#9E9E9E"/>
<path d="M21.9561 11.3802V11.9892C21.9561 13.4554 21.4316 14.696 20.3827 15.711C19.3339 16.7148 17.9297 17.2167 16.1703 17.2167C14.3771 17.2167 12.894 16.6246 11.7211 15.4404C10.5482 14.2562 9.9617 12.8069 9.9617 11.0926C9.9617 9.37834 10.5482 7.92909 11.7211 6.74488C12.894 5.56067 14.3771 4.96857 16.1703 4.96857C17.2643 4.96857 18.2681 5.23361 19.1816 5.76368C20.0952 6.29376 20.8 6.99864 21.2963 7.87834L20.2474 8.48736C19.8752 7.76556 19.3226 7.19037 18.5895 6.7618C17.8564 6.33323 17.05 6.11894 16.1703 6.11894C14.6929 6.11894 13.4861 6.59827 12.55 7.55691C11.614 8.51556 11.1459 9.69413 11.1459 11.0926C11.1459 12.4911 11.614 13.6697 12.55 14.6283C13.4861 15.587 14.6929 16.0663 16.1703 16.0663C17.5012 16.0663 18.567 15.7336 19.3677 15.0682C20.1685 14.3915 20.6252 13.5344 20.738 12.4968H16.035V11.3802H21.9561ZM24.9346 9.95917C25.4533 8.93285 26.3443 8.41969 27.6075 8.41969V9.5024C26.8406 9.5024 26.2033 9.72796 25.6958 10.1791C25.1883 10.6302 24.9346 11.3407 24.9346 12.3107V17.0137H23.818V8.55503H24.9346V9.95917ZM35.0926 8.55503H36.2091V17.0137H35.0926V15.6941C34.461 16.7092 33.5136 17.2167 32.2505 17.2167C31.2242 17.2167 30.4121 16.9065 29.8144 16.2862C29.2279 15.6547 28.9347 14.8088 28.9347 13.7486V8.55503H30.0512V13.7486C30.0512 14.5043 30.2486 15.0907 30.6433 15.508C31.0494 15.9253 31.6189 16.134 32.352 16.134C33.164 16.134 33.8238 15.8802 34.3313 15.3727C34.8388 14.8539 35.0926 14.0588 35.0926 12.9874V8.55503ZM43.1049 8.35202C44.3117 8.35202 45.338 8.7806 46.1838 9.63774C47.041 10.4949 47.4696 11.5438 47.4696 12.7844C47.4696 14.025 47.041 15.0738 46.1838 15.931C45.338 16.7881 44.3117 17.2167 43.1049 17.2167C41.6049 17.2167 40.4658 16.5964 39.6876 15.3558V20.3971H38.5711V8.55503H39.6876V10.2129C40.4658 8.97233 41.6049 8.35202 43.1049 8.35202ZM40.6519 15.1697C41.2947 15.8125 42.0842 16.134 43.0203 16.134C43.9564 16.134 44.7459 15.8125 45.3887 15.1697C46.0316 14.5156 46.353 13.7204 46.353 12.7844C46.353 11.8483 46.0316 11.0588 45.3887 10.4159C44.7459 9.7618 43.9564 9.43473 43.0203 9.43473C42.0842 9.43473 41.2947 9.7618 40.6519 10.4159C40.009 11.0588 39.6876 11.8483 39.6876 12.7844C39.6876 13.7204 40.009 14.5156 40.6519 15.1697ZM56.4144 15.9479C55.5573 16.7937 54.5084 17.2167 53.2678 17.2167C52.0272 17.2167 50.9727 16.7937 50.1043 15.9479C49.2471 15.0907 48.8186 14.0362 48.8186 12.7844C48.8186 11.5325 49.2471 10.4836 50.1043 9.63774C50.9727 8.7806 52.0272 8.35202 53.2678 8.35202C54.5084 8.35202 55.5573 8.7806 56.4144 9.63774C57.2829 10.4836 57.7171 11.5325 57.7171 12.7844C57.7171 14.0362 57.2829 15.0907 56.4144 15.9479ZM50.8994 15.1697C51.5423 15.8125 52.3317 16.134 53.2678 16.134C54.2039 16.134 54.9934 15.8125 55.6362 15.1697C56.2791 14.5156 56.6005 13.7204 56.6005 12.7844C56.6005 11.8483 56.2791 11.0588 55.6362 10.4159C54.9934 9.7618 54.2039 9.43473 53.2678 9.43473C52.3317 9.43473 51.5423 9.7618 50.8994 10.4159C50.2565 11.0588 49.9351 11.8483 49.9351 12.7844C49.9351 13.7204 50.2565 14.5156 50.8994 15.1697ZM60.3 10.7712C60.3 11.1547 60.4692 11.4592 60.8075 11.6847C61.1459 11.9103 61.5575 12.0851 62.0425 12.2092C62.5274 12.3332 63.0124 12.4742 63.4974 12.6321C63.9823 12.7787 64.394 13.0325 64.7323 13.3934C65.0707 13.743 65.2398 14.2054 65.2398 14.7806C65.2398 15.5024 64.9522 16.0889 64.3771 16.54C63.8131 16.9911 63.0801 17.2167 62.1778 17.2167C61.3658 17.2167 60.6722 17.0362 60.097 16.6753C59.5331 16.3144 59.1383 15.8464 58.9128 15.2712L59.8601 14.7129C60.018 15.1528 60.3 15.5024 60.706 15.7618C61.1233 16.0099 61.6139 16.134 62.1778 16.134C62.7304 16.134 63.1928 16.0268 63.565 15.8125C63.9372 15.587 64.1233 15.243 64.1233 14.7806C64.1233 14.3971 63.9541 14.0926 63.6158 13.8671C63.2774 13.6415 62.8658 13.4667 62.3808 13.3426C61.8959 13.2186 61.4109 13.0832 60.9259 12.9366C60.441 12.7787 60.0293 12.525 59.691 12.1753C59.3526 11.8144 59.1834 11.3464 59.1834 10.7712C59.1834 10.0832 59.4541 9.50804 59.9955 9.04563C60.5481 8.58323 61.2417 8.35202 62.0763 8.35202C62.7643 8.35202 63.3677 8.50992 63.8865 8.82571C64.4052 9.13022 64.7887 9.54751 65.0368 10.0776L64.1064 10.6189C63.7793 9.82947 63.1026 9.43473 62.0763 9.43473C61.5913 9.43473 61.174 9.55315 60.8244 9.78999C60.4748 10.0156 60.3 10.3426 60.3 10.7712ZM75.2904 8.35202C76.3167 8.35202 77.1231 8.66781 77.7096 9.29939C78.3073 9.91969 78.6062 10.7599 78.6062 11.8201V17.0137H77.4897V11.8201C77.4897 11.0644 77.2867 10.478 76.8806 10.0607C76.4859 9.64338 75.922 9.43473 75.1889 9.43473C74.3769 9.43473 73.7171 9.69413 73.2096 10.2129C72.7021 10.7204 72.4483 11.5099 72.4483 12.5813V17.0137H71.3318V8.55503H72.4483V9.87458C73.0799 8.85954 74.0273 8.35202 75.2904 8.35202ZM87.8535 15.9479C86.9963 16.7937 85.9475 17.2167 84.7069 17.2167C83.4663 17.2167 82.4117 16.7937 81.5433 15.9479C80.6862 15.0907 80.2576 14.0362 80.2576 12.7844C80.2576 11.5325 80.6862 10.4836 81.5433 9.63774C82.4117 8.7806 83.4663 8.35202 84.7069 8.35202C85.9475 8.35202 86.9963 8.7806 87.8535 9.63774C88.7219 10.4836 89.1561 11.5325 89.1561 12.7844C89.1561 14.0362 88.7219 15.0907 87.8535 15.9479ZM82.3384 15.1697C82.9813 15.8125 83.7708 16.134 84.7069 16.134C85.6429 16.134 86.4324 15.8125 87.0753 15.1697C87.7181 14.5156 88.0396 13.7204 88.0396 12.7844C88.0396 11.8483 87.7181 11.0588 87.0753 10.4159C86.4324 9.7618 85.6429 9.43473 84.7069 9.43473C83.7708 9.43473 82.9813 9.7618 82.3384 10.4159C81.6956 11.0588 81.3742 11.8483 81.3742 12.7844C81.3742 13.7204 81.6956 14.5156 82.3384 15.1697ZM102.105 6.28812H96.6072V10.6528H101.852V11.7693H96.6072V17.0137H95.423V5.17158H102.105V6.28812ZM111.235 8.55503H112.351V17.0137H111.235V15.3558C110.457 16.5964 109.317 17.2167 107.817 17.2167C106.611 17.2167 105.579 16.7881 104.722 15.931C103.876 15.0738 103.453 14.025 103.453 12.7844C103.453 11.5438 103.876 10.4949 104.722 9.63774C105.579 8.7806 106.611 8.35202 107.817 8.35202C109.317 8.35202 110.457 8.97233 111.235 10.2129V8.55503ZM105.534 15.1697C106.176 15.8125 106.966 16.134 107.902 16.134C108.838 16.134 109.628 15.8125 110.27 15.1697C110.913 14.5156 111.235 13.7204 111.235 12.7844C111.235 11.8483 110.913 11.0588 110.27 10.4159C109.628 9.7618 108.838 9.43473 107.902 9.43473C106.966 9.43473 106.176 9.7618 105.534 10.4159C104.891 11.0588 104.569 11.8483 104.569 12.7844C104.569 13.7204 104.891 14.5156 105.534 15.1697ZM118.657 17.2167C117.383 17.2167 116.322 16.7937 115.477 15.9479C114.631 15.0907 114.208 14.0362 114.208 12.7844C114.208 11.5325 114.631 10.4836 115.477 9.63774C116.322 8.7806 117.383 8.35202 118.657 8.35202C119.492 8.35202 120.242 8.55503 120.907 8.96105C121.572 9.35578 122.057 9.8915 122.362 10.5682L121.448 11.0926C121.223 10.5851 120.856 10.1847 120.349 9.8915C119.853 9.58699 119.289 9.43473 118.657 9.43473C117.721 9.43473 116.932 9.7618 116.289 10.4159C115.646 11.0588 115.324 11.8483 115.324 12.7844C115.324 13.7204 115.646 14.5156 116.289 15.1697C116.932 15.8125 117.721 16.134 118.657 16.134C119.289 16.134 119.853 15.9874 120.349 15.6941C120.845 15.3896 121.234 14.9836 121.516 14.4761L122.447 15.0174C122.097 15.6941 121.584 16.2298 120.907 16.6246C120.23 17.0193 119.48 17.2167 118.657 17.2167ZM127.875 8.35202C129.127 8.35202 130.136 8.79751 130.903 9.68849C131.681 10.5682 132.07 11.6114 132.07 12.8182C132.07 12.9422 132.059 13.1171 132.037 13.3426H124.61C124.723 14.1998 125.084 14.8821 125.693 15.3896C126.313 15.8859 127.074 16.134 127.976 16.134C128.619 16.134 129.172 16.0043 129.634 15.7449C130.108 15.4742 130.463 15.1246 130.7 14.696L131.681 15.2712C131.309 15.8689 130.802 16.3426 130.159 16.6922C129.516 17.0419 128.783 17.2167 127.959 17.2167C126.629 17.2167 125.546 16.7994 124.711 15.9648C123.877 15.1302 123.459 14.0701 123.459 12.7844C123.459 11.5212 123.871 10.4667 124.694 9.62082C125.518 8.77496 126.578 8.35202 127.875 8.35202ZM127.875 9.43473C126.995 9.43473 126.256 9.69977 125.659 10.2298C125.072 10.7486 124.723 11.4253 124.61 12.2599H130.92C130.807 11.3689 130.463 10.6753 129.888 10.1791C129.313 9.68285 128.642 9.43473 127.875 9.43473ZM138.38 8.35202C139.587 8.35202 140.613 8.7806 141.459 9.63774C142.316 10.4949 142.745 11.5438 142.745 12.7844C142.745 14.025 142.316 15.0738 141.459 15.931C140.613 16.7881 139.587 17.2167 138.38 17.2167C136.88 17.2167 135.741 16.5964 134.963 15.3558V17.0137H133.846V5.17158H134.963V10.2129C135.741 8.97233 136.88 8.35202 138.38 8.35202ZM135.927 15.1697C136.57 15.8125 137.36 16.134 138.296 16.134C139.232 16.134 140.021 15.8125 140.664 15.1697C141.307 14.5156 141.628 13.7204 141.628 12.7844C141.628 11.8483 141.307 11.0588 140.664 10.4159C140.021 9.7618 139.232 9.43473 138.296 9.43473C137.36 9.43473 136.57 9.7618 135.927 10.4159C135.284 11.0588 134.963 11.8483 134.963 12.7844C134.963 13.7204 135.284 14.5156 135.927 15.1697ZM151.69 15.9479C150.833 16.7937 149.784 17.2167 148.543 17.2167C147.303 17.2167 146.248 16.7937 145.38 15.9479C144.522 15.0907 144.094 14.0362 144.094 12.7844C144.094 11.5325 144.522 10.4836 145.38 9.63774C146.248 8.7806 147.303 8.35202 148.543 8.35202C149.784 8.35202 150.833 8.7806 151.69 9.63774C152.558 10.4836 152.992 11.5325 152.992 12.7844C152.992 14.0362 152.558 15.0907 151.69 15.9479ZM146.175 15.1697C146.818 15.8125 147.607 16.134 148.543 16.134C149.479 16.134 150.269 15.8125 150.912 15.1697C151.554 14.5156 151.876 13.7204 151.876 12.7844C151.876 11.8483 151.554 11.0588 150.912 10.4159C150.269 9.7618 149.479 9.43473 148.543 9.43473C147.607 9.43473 146.818 9.7618 146.175 10.4159C145.532 11.0588 145.21 11.8483 145.21 12.7844C145.21 13.7204 145.532 14.5156 146.175 15.1697ZM161.949 15.9479C161.092 16.7937 160.043 17.2167 158.803 17.2167C157.562 17.2167 156.507 16.7937 155.639 15.9479C154.782 15.0907 154.353 14.0362 154.353 12.7844C154.353 11.5325 154.782 10.4836 155.639 9.63774C156.507 8.7806 157.562 8.35202 158.803 8.35202C160.043 8.35202 161.092 8.7806 161.949 9.63774C162.818 10.4836 163.252 11.5325 163.252 12.7844C163.252 14.0362 162.818 15.0907 161.949 15.9479ZM156.434 15.1697C157.077 15.8125 157.866 16.134 158.803 16.134C159.739 16.134 160.528 15.8125 161.171 15.1697C161.814 14.5156 162.135 13.7204 162.135 12.7844C162.135 11.8483 161.814 11.0588 161.171 10.4159C160.528 9.7618 159.739 9.43473 158.803 9.43473C157.866 9.43473 157.077 9.7618 156.434 10.4159C155.791 11.0588 155.47 11.8483 155.47 12.7844C155.47 13.7204 155.791 14.5156 156.434 15.1697ZM171.955 17.0137H170.466L166.237 12.9366V17.0137H165.12V5.17158H166.237V12.2938L170.263 8.55503H171.786L167.421 12.6152L171.955 17.0137Z" fill="black"/>
<path d="M5.70863 42.1579H6.89284V54H5.70863V42.1579ZM13.397 45.3384C14.4233 45.3384 15.2297 45.6541 15.8162 46.2857C16.4139 46.906 16.7128 47.7462 16.7128 48.8064V54H15.5963V48.8064C15.5963 48.0508 15.3932 47.4643 14.9872 47.047C14.5925 46.6297 14.0286 46.4211 13.2955 46.4211C12.4835 46.4211 11.8237 46.6805 11.3162 47.1993C10.8087 47.7068 10.5549 48.4962 10.5549 49.5677V54H9.43836V45.5414H10.5549V46.8609C11.1865 45.8459 12.1339 45.3384 13.397 45.3384ZM19.7514 47.7575C19.7514 48.141 19.9206 48.4455 20.2589 48.6711C20.5973 48.8966 21.0089 49.0714 21.4939 49.1955C21.9789 49.3196 22.4638 49.4605 22.9488 49.6184C23.4338 49.765 23.8454 50.0188 24.1838 50.3797C24.5221 50.7293 24.6913 51.1917 24.6913 51.7669C24.6913 52.4887 24.4037 53.0752 23.8285 53.5263C23.2646 53.9774 22.5315 54.203 21.6292 54.203C20.8172 54.203 20.1236 54.0226 19.5484 53.6617C18.9845 53.3008 18.5898 52.8327 18.3642 52.2575L19.3116 51.6993C19.4695 52.1391 19.7514 52.4887 20.1574 52.7481C20.5747 52.9962 21.0653 53.1203 21.6292 53.1203C22.1819 53.1203 22.6443 53.0132 23.0165 52.7989C23.3886 52.5733 23.5747 52.2293 23.5747 51.7669C23.5747 51.3835 23.4056 51.0789 23.0672 50.8534C22.7289 50.6278 22.3172 50.453 21.8323 50.329C21.3473 50.2049 20.8623 50.0696 20.3774 49.9229C19.8924 49.765 19.4808 49.5113 19.1424 49.1617C18.8041 48.8008 18.6349 48.3327 18.6349 47.7575C18.6349 47.0696 18.9056 46.4944 19.4469 46.032C19.9995 45.5696 20.6932 45.3384 21.5277 45.3384C22.2157 45.3384 22.8191 45.4962 23.3379 45.812C23.8567 46.1165 24.2401 46.5338 24.4883 47.0639L23.5578 47.6053C23.2307 46.8158 22.5541 46.4211 21.5277 46.4211C21.0428 46.4211 20.6255 46.5395 20.2759 46.7763C19.9262 47.0019 19.7514 47.329 19.7514 47.7575ZM30.7066 46.6241H28.2705V51.75C28.2705 52.2124 28.3607 52.5451 28.5411 52.7481C28.7216 52.9399 28.9923 53.0414 29.3532 53.0526C29.7141 53.0526 30.1652 53.0414 30.7066 53.0188V54C29.5223 54.1805 28.6314 54.0959 28.0336 53.7462C27.4472 53.3966 27.1539 52.7312 27.1539 51.75V46.6241H25.3776V45.5414H27.1539V43.5113L28.2705 43.1729V45.5414H30.7066V46.6241ZM39.3297 45.5414H40.4463V54H39.3297V52.3421C38.5515 53.5827 37.4125 54.203 35.9125 54.203C34.7057 54.203 33.6737 53.7744 32.8166 52.9173C31.9707 52.0602 31.5478 51.0113 31.5478 49.7707C31.5478 48.5301 31.9707 47.4812 32.8166 46.6241C33.6737 45.7669 34.7057 45.3384 35.9125 45.3384C37.4125 45.3384 38.5515 45.9587 39.3297 47.1993V45.5414ZM33.6286 52.156C34.2715 52.7989 35.0609 53.1203 35.997 53.1203C36.9331 53.1203 37.7226 52.7989 38.3655 52.156C39.0083 51.5019 39.3297 50.7068 39.3297 49.7707C39.3297 48.8346 39.0083 48.0451 38.3655 47.4023C37.7226 46.7481 36.9331 46.4211 35.997 46.4211C35.0609 46.4211 34.2715 46.7481 33.6286 47.4023C32.9858 48.0451 32.6643 48.8346 32.6643 49.7707C32.6643 50.7068 32.9858 51.5019 33.6286 52.156ZM50.0848 45.5414H51.2013V53.6617C51.2013 54.8797 50.784 55.8383 49.9494 56.5376C49.1148 57.2368 48.1167 57.5865 46.9551 57.5865C44.9701 57.5865 43.6336 56.8985 42.9457 55.5226L43.9269 54.9643C44.4344 55.9906 45.4438 56.5038 46.9551 56.5038C47.925 56.5038 48.6863 56.2444 49.2389 55.7256C49.8028 55.218 50.0848 54.5301 50.0848 53.6617V52.3421C49.3066 53.5827 48.1675 54.203 46.6675 54.203C45.4607 54.203 44.4288 53.7744 43.5716 52.9173C42.7258 52.0602 42.3028 51.0113 42.3028 49.7707C42.3028 48.5301 42.7258 47.4812 43.5716 46.6241C44.4288 45.7669 45.4607 45.3384 46.6675 45.3384C48.1675 45.3384 49.3066 45.9587 50.0848 47.1993V45.5414ZM44.3836 52.156C45.0265 52.7989 45.816 53.1203 46.7521 53.1203C47.6882 53.1203 48.4776 52.7989 49.1205 52.156C49.7633 51.5019 50.0848 50.7068 50.0848 49.7707C50.0848 48.8346 49.7633 48.0451 49.1205 47.4023C48.4776 46.7481 47.6882 46.4211 46.7521 46.4211C45.816 46.4211 45.0265 46.7481 44.3836 47.4023C43.7408 48.0451 43.4194 48.8346 43.4194 49.7707C43.4194 50.7068 43.7408 51.5019 44.3836 52.156ZM54.6819 46.9455C55.2007 45.9192 56.0917 45.406 57.3548 45.406V46.4887C56.5879 46.4887 55.9507 46.7143 55.4432 47.1654C54.9357 47.6165 54.6819 48.3271 54.6819 49.297V54H53.5654V45.5414H54.6819V46.9455ZM65.6473 45.5414H66.7639V54H65.6473V52.3421C64.8692 53.5827 63.7301 54.203 62.2301 54.203C61.0233 54.203 59.9913 53.7744 59.1342 52.9173C58.2883 52.0602 57.8654 51.0113 57.8654 49.7707C57.8654 48.5301 58.2883 47.4812 59.1342 46.6241C59.9913 45.7669 61.0233 45.3384 62.2301 45.3384C63.7301 45.3384 64.8692 45.9587 65.6473 47.1993V45.5414ZM59.9462 52.156C60.5891 52.7989 61.3786 53.1203 62.3146 53.1203C63.2507 53.1203 64.0402 52.7989 64.6831 52.156C65.3259 51.5019 65.6473 50.7068 65.6473 49.7707C65.6473 48.8346 65.3259 48.0451 64.6831 47.4023C64.0402 46.7481 63.2507 46.4211 62.3146 46.4211C61.3786 46.4211 60.5891 46.7481 59.9462 47.4023C59.3034 48.0451 58.9819 48.8346 58.9819 49.7707C58.9819 50.7068 59.3034 51.5019 59.9462 52.156ZM78.1449 45.3384C79.0922 45.3384 79.8535 45.6429 80.4287 46.2519C81.0152 46.8609 81.3084 47.6842 81.3084 48.7218V54H80.1918V48.7218C80.1918 47.9887 80.0001 47.4248 79.6167 47.0301C79.2445 46.6241 78.7482 46.4211 78.1279 46.4211C77.4287 46.4211 76.8591 46.6579 76.4193 47.1316C75.9907 47.594 75.7764 48.3214 75.7764 49.3139V54H74.6599V48.7218C74.6599 47.9774 74.4794 47.4079 74.1185 47.0132C73.7689 46.6184 73.2896 46.4211 72.6806 46.4211C72.0039 46.4211 71.4287 46.6579 70.955 47.1316C70.4813 47.6053 70.2445 48.3327 70.2445 49.3139V54H69.1279V45.5414H70.2445V46.7763C70.8535 45.8177 71.7163 45.3384 72.8328 45.3384C74.0509 45.3384 74.908 45.8515 75.4043 46.8778C76.0133 45.8515 76.9268 45.3384 78.1449 45.3384Z" fill="black"/>
<path d="M8.56108 87.203C6.76785 87.203 5.28477 86.6109 4.11184 85.4267C2.93891 84.2425 2.35244 82.7932 2.35244 81.079C2.35244 79.3647 2.93891 77.9154 4.11184 76.7312C5.28477 75.547 6.76785 74.9549 8.56108 74.9549C9.65507 74.9549 10.6588 75.2199 11.5724 75.75C12.4859 76.2688 13.1908 76.9737 13.687 77.8647L12.6381 78.4737C12.266 77.7519 11.7133 77.1767 10.9803 76.7481C10.2472 76.3196 9.44078 76.1053 8.56108 76.1053C7.08364 76.1053 5.87688 76.5846 4.94079 77.5432C4.0047 78.5019 3.53665 79.6805 3.53665 81.079C3.53665 82.4774 4.0047 83.656 4.94079 84.6147C5.87688 85.5733 7.08364 86.0526 8.56108 86.0526C9.44078 86.0526 10.2472 85.8383 10.9803 85.4098C11.7133 84.9812 12.266 84.406 12.6381 83.6842L13.687 84.2763C13.2021 85.1673 12.4972 85.8778 11.5724 86.4079C10.6588 86.938 9.65507 87.203 8.56108 87.203ZM22.4711 85.9342C21.6139 86.7801 20.565 87.203 19.3244 87.203C18.0838 87.203 17.0293 86.7801 16.1609 85.9342C15.3038 85.0771 14.8752 84.0226 14.8752 82.7707C14.8752 81.5188 15.3038 80.4699 16.1609 79.6241C17.0293 78.7669 18.0838 78.3384 19.3244 78.3384C20.565 78.3384 21.6139 78.7669 22.4711 79.6241C23.3395 80.4699 23.7737 81.5188 23.7737 82.7707C23.7737 84.0226 23.3395 85.0771 22.4711 85.9342ZM16.956 85.156C17.5989 85.7989 18.3883 86.1203 19.3244 86.1203C20.2605 86.1203 21.05 85.7989 21.6929 85.156C22.3357 84.5019 22.6571 83.7068 22.6571 82.7707C22.6571 81.8346 22.3357 81.0451 21.6929 80.4023C21.05 79.7481 20.2605 79.4211 19.3244 79.4211C18.3883 79.4211 17.5989 79.7481 16.956 80.4023C16.3132 81.0451 15.9917 81.8346 15.9917 82.7707C15.9917 83.7068 16.3132 84.5019 16.956 85.156ZM26.7587 79.9455C27.2775 78.9192 28.1684 78.406 29.4316 78.406V79.4887C28.6647 79.4887 28.0275 79.7143 27.5199 80.1654C27.0124 80.6165 26.7587 81.3271 26.7587 82.297V87H25.6421V78.5414H26.7587V79.9455ZM32.0783 79.9455C32.5971 78.9192 33.4881 78.406 34.7513 78.406V79.4887C33.9844 79.4887 33.3471 79.7143 32.8396 80.1654C32.3321 80.6165 32.0783 81.3271 32.0783 82.297V87H30.9618V78.5414H32.0783V79.9455ZM39.6772 78.3384C40.9291 78.3384 41.9385 78.7838 42.7054 79.6748C43.4836 80.5545 43.8727 81.5977 43.8727 82.8045C43.8727 82.9286 43.8615 83.1034 43.8389 83.329H36.4122C36.525 84.1861 36.8859 84.8684 37.4949 85.3759C38.1152 85.8722 38.8765 86.1203 39.7787 86.1203C40.4216 86.1203 40.9742 85.9906 41.4366 85.7312C41.9103 85.4605 42.2656 85.1109 42.5024 84.6823L43.4836 85.2575C43.1115 85.8553 42.6039 86.3289 41.9611 86.6786C41.3182 87.0282 40.5851 87.203 39.7618 87.203C38.431 87.203 37.3483 86.7857 36.5137 85.9511C35.6791 85.1165 35.2618 84.0564 35.2618 82.7707C35.2618 81.5075 35.6735 80.453 36.4968 79.6071C37.3201 78.7613 38.3803 78.3384 39.6772 78.3384ZM39.6772 79.4211C38.7975 79.4211 38.0588 79.6861 37.4611 80.2162C36.8746 80.735 36.525 81.4117 36.4122 82.2462H42.7224C42.6096 81.3553 42.2656 80.6617 41.6904 80.1654C41.1152 79.6692 40.4442 79.4211 39.6772 79.4211ZM49.884 79.6241H47.448V84.75C47.448 85.2124 47.5382 85.5451 47.7186 85.7481C47.8991 85.9399 48.1698 86.0414 48.5307 86.0526C48.8916 86.0526 49.3427 86.0414 49.884 86.0188V87C48.6998 87.1805 47.8089 87.0959 47.2111 86.7462C46.6247 86.3966 46.3314 85.7312 46.3314 84.75V79.6241H44.5551V78.5414H46.3314V76.5113L47.448 76.1729V78.5414H49.884V79.6241ZM58.3211 85.9342C57.464 86.7801 56.4151 87.203 55.1745 87.203C53.9339 87.203 52.8794 86.7801 52.011 85.9342C51.1539 85.0771 50.7253 84.0226 50.7253 82.7707C50.7253 81.5188 51.1539 80.4699 52.011 79.6241C52.8794 78.7669 53.9339 78.3384 55.1745 78.3384C56.4151 78.3384 57.464 78.7669 58.3211 79.6241C59.1896 80.4699 59.6238 81.5188 59.6238 82.7707C59.6238 84.0226 59.1896 85.0771 58.3211 85.9342ZM52.8061 85.156C53.449 85.7989 54.2384 86.1203 55.1745 86.1203C56.1106 86.1203 56.9001 85.7989 57.543 85.156C58.1858 84.5019 58.5072 83.7068 58.5072 82.7707C58.5072 81.8346 58.1858 81.0451 57.543 80.4023C56.9001 79.7481 56.1106 79.4211 55.1745 79.4211C54.2384 79.4211 53.449 79.7481 52.8061 80.4023C52.1633 81.0451 51.8418 81.8346 51.8418 82.7707C51.8418 83.7068 52.1633 84.5019 52.8061 85.156ZM62.6087 79.9455C63.1275 78.9192 64.0185 78.406 65.2817 78.406V79.4887C64.5148 79.4887 63.8775 79.7143 63.37 80.1654C62.8625 80.6165 62.6087 81.3271 62.6087 82.297V87H61.4922V78.5414H62.6087V79.9455ZM70.2076 78.3384C71.4595 78.3384 72.4689 78.7838 73.2358 79.6748C74.014 80.5545 74.4031 81.5977 74.4031 82.8045C74.4031 82.9286 74.3919 83.1034 74.3693 83.329H66.9426C67.0554 84.1861 67.4163 84.8684 68.0253 85.3759C68.6456 85.8722 69.4069 86.1203 70.3092 86.1203C70.952 86.1203 71.5046 85.9906 71.967 85.7312C72.4407 85.4605 72.796 85.1109 73.0328 84.6823L74.014 85.2575C73.6419 85.8553 73.1343 86.3289 72.4915 86.6786C71.8486 87.0282 71.1155 87.203 70.2922 87.203C68.9614 87.203 67.8787 86.7857 67.0441 85.9511C66.2095 85.1165 65.7922 84.0564 65.7922 82.7707C65.7922 81.5075 66.2039 80.453 67.0272 79.6071C67.8505 78.7613 68.9107 78.3384 70.2076 78.3384ZM70.2076 79.4211C69.3279 79.4211 68.5892 79.6861 67.9915 80.2162C67.405 80.735 67.0554 81.4117 66.9426 82.2462H73.2528C73.14 81.3553 72.796 80.6617 72.2208 80.1654C71.6456 79.6692 70.9746 79.4211 70.2076 79.4211ZM76.7285 80.7575C76.7285 81.141 76.8976 81.4455 77.236 81.6711C77.5743 81.8966 77.986 82.0714 78.4709 82.1955C78.9559 82.3196 79.4409 82.4605 79.9258 82.6184C80.4108 82.765 80.8224 83.0188 81.1608 83.3797C81.4991 83.7293 81.6683 84.1917 81.6683 84.7669C81.6683 85.4887 81.3807 86.0752 80.8055 86.5263C80.2416 86.9774 79.5085 87.203 78.6063 87.203C77.7943 87.203 77.1006 87.0226 76.5255 86.6617C75.9615 86.3008 75.5668 85.8327 75.3412 85.2575L76.2886 84.6993C76.4465 85.1391 76.7285 85.4887 77.1345 85.7481C77.5518 85.9962 78.0424 86.1203 78.6063 86.1203C79.1589 86.1203 79.6213 86.0132 79.9935 85.7989C80.3657 85.5733 80.5518 85.2293 80.5518 84.7669C80.5518 84.3835 80.3826 84.0789 80.0443 83.8534C79.7059 83.6278 79.2943 83.453 78.8093 83.329C78.3243 83.2049 77.8394 83.0696 77.3544 82.9229C76.8694 82.765 76.4578 82.5113 76.1194 82.1617C75.7811 81.8008 75.6119 81.3327 75.6119 80.7575C75.6119 80.0696 75.8826 79.4944 76.424 79.032C76.9766 78.5696 77.6702 78.3384 78.5048 78.3384C79.1928 78.3384 79.7961 78.4962 80.3149 78.812C80.8337 79.1165 81.2172 79.5338 81.4653 80.0639L80.5349 80.6053C80.2078 79.8158 79.5311 79.4211 78.5048 79.4211C78.0198 79.4211 77.6025 79.5395 77.2529 79.7763C76.9033 80.0019 76.7285 80.329 76.7285 80.7575Z" fill="black"/>
<path d="M58.0772 234L56.9776 231.09H51.3611L50.2615 234H49.0096L53.5603 222.158H54.7784L59.3291 234H58.0772ZM51.784 229.974H56.5547L54.1694 223.63L51.784 229.974ZM65.2144 225.338C66.4211 225.338 67.4474 225.767 68.2933 226.624C69.1504 227.481 69.579 228.53 69.579 229.771C69.579 231.011 69.1504 232.06 68.2933 232.917C67.4474 233.774 66.4211 234.203 65.2144 234.203C63.7144 234.203 62.5753 233.583 61.7971 232.342V237.383H60.6805V225.541H61.7971V227.199C62.5753 225.959 63.7144 225.338 65.2144 225.338ZM62.7613 232.156C63.4042 232.799 64.1937 233.12 65.1298 233.12C66.0659 233.12 66.8553 232.799 67.4982 232.156C68.141 231.502 68.4625 230.707 68.4625 229.771C68.4625 228.835 68.141 228.045 67.4982 227.402C66.8553 226.748 66.0659 226.421 65.1298 226.421C64.1937 226.421 63.4042 226.748 62.7613 227.402C62.1185 228.045 61.7971 228.835 61.7971 229.771C61.7971 230.707 62.1185 231.502 62.7613 232.156ZM71.4356 234V221.65H72.5521V234H71.4356ZM76.0549 223.511C75.897 223.669 75.7053 223.748 75.4797 223.748C75.2541 223.748 75.0624 223.669 74.9045 223.511C74.7466 223.353 74.6677 223.162 74.6677 222.936C74.6677 222.711 74.7466 222.519 74.9045 222.361C75.0624 222.203 75.2541 222.124 75.4797 222.124C75.7053 222.124 75.897 222.203 76.0549 222.361C76.2128 222.519 76.2917 222.711 76.2917 222.936C76.2917 223.162 76.2128 223.353 76.0549 223.511ZM74.9214 234V225.541H76.038V234H74.9214ZM82.349 234.203C81.0746 234.203 80.0145 233.78 79.1686 232.934C78.3227 232.077 77.8998 231.023 77.8998 229.771C77.8998 228.519 78.3227 227.47 79.1686 226.624C80.0145 225.767 81.0746 225.338 82.349 225.338C83.1836 225.338 83.9336 225.541 84.599 225.947C85.2645 226.342 85.7494 226.878 86.0539 227.555L85.1404 228.079C84.9148 227.571 84.5483 227.171 84.0408 226.878C83.5445 226.573 82.9806 226.421 82.349 226.421C81.413 226.421 80.6235 226.748 79.9806 227.402C79.3378 228.045 79.0163 228.835 79.0163 229.771C79.0163 230.707 79.3378 231.502 79.9806 232.156C80.6235 232.799 81.413 233.12 82.349 233.12C82.9806 233.12 83.5445 232.974 84.0408 232.68C84.537 232.376 84.9261 231.97 85.2081 231.462L86.1385 232.004C85.7889 232.68 85.2757 233.216 84.599 233.611C83.9224 234.006 83.1724 234.203 82.349 234.203ZM94.9334 225.541H96.0499V234H94.9334V232.342C94.1552 233.583 93.0161 234.203 91.5161 234.203C90.3093 234.203 89.2774 233.774 88.4202 232.917C87.5744 232.06 87.1514 231.011 87.1514 229.771C87.1514 228.53 87.5744 227.481 88.4202 226.624C89.2774 225.767 90.3093 225.338 91.5161 225.338C93.0161 225.338 94.1552 225.959 94.9334 227.199V225.541ZM89.2323 232.156C89.8751 232.799 90.6646 233.12 91.6007 233.12C92.5368 233.12 93.3262 232.799 93.9691 232.156C94.612 231.502 94.9334 230.707 94.9334 229.771C94.9334 228.835 94.612 228.045 93.9691 227.402C93.3262 226.748 92.5368 226.421 91.6007 226.421C90.6646 226.421 89.8751 226.748 89.2323 227.402C88.5894 228.045 88.268 228.835 88.268 229.771C88.268 230.707 88.5894 231.502 89.2323 232.156ZM102.897 226.624H100.461V231.75C100.461 232.212 100.551 232.545 100.732 232.748C100.912 232.94 101.183 233.041 101.544 233.053C101.905 233.053 102.356 233.041 102.897 233.019V234C101.713 234.18 100.822 234.096 100.224 233.746C99.6377 233.397 99.3444 232.731 99.3444 231.75V226.624H97.5681V225.541H99.3444V223.511L100.461 223.173V225.541H102.897V226.624ZM105.891 223.511C105.734 223.669 105.542 223.748 105.316 223.748C105.091 223.748 104.899 223.669 104.741 223.511C104.583 223.353 104.504 223.162 104.504 222.936C104.504 222.711 104.583 222.519 104.741 222.361C104.899 222.203 105.091 222.124 105.316 222.124C105.542 222.124 105.734 222.203 105.891 222.361C106.049 222.519 106.128 222.711 106.128 222.936C106.128 223.162 106.049 223.353 105.891 223.511ZM104.758 234V225.541H105.875V234H104.758ZM114.334 225.541H115.518L112.05 234H110.697L107.229 225.541H108.413L111.374 232.833L114.334 225.541ZM123.626 232.934C122.768 233.78 121.72 234.203 120.479 234.203C119.238 234.203 118.184 233.78 117.315 232.934C116.458 232.077 116.03 231.023 116.03 229.771C116.03 228.519 116.458 227.47 117.315 226.624C118.184 225.767 119.238 225.338 120.479 225.338C121.72 225.338 122.768 225.767 123.626 226.624C124.494 227.47 124.928 228.519 124.928 229.771C124.928 231.023 124.494 232.077 123.626 232.934ZM118.111 232.156C118.753 232.799 119.543 233.12 120.479 233.12C121.415 233.12 122.205 232.799 122.847 232.156C123.49 231.502 123.812 230.707 123.812 229.771C123.812 228.835 123.49 228.045 122.847 227.402C122.205 226.748 121.415 226.421 120.479 226.421C119.543 226.421 118.753 226.748 118.111 227.402C117.468 228.045 117.146 228.835 117.146 229.771C117.146 230.707 117.468 231.502 118.111 232.156ZM127.511 227.758C127.511 228.141 127.68 228.445 128.019 228.671C128.357 228.897 128.769 229.071 129.254 229.195C129.739 229.32 130.224 229.461 130.709 229.618C131.194 229.765 131.605 230.019 131.944 230.38C132.282 230.729 132.451 231.192 132.451 231.767C132.451 232.489 132.163 233.075 131.588 233.526C131.024 233.977 130.291 234.203 129.389 234.203C128.577 234.203 127.883 234.023 127.308 233.662C126.744 233.301 126.35 232.833 126.124 232.258L127.071 231.699C127.229 232.139 127.511 232.489 127.917 232.748C128.334 232.996 128.825 233.12 129.389 233.12C129.942 233.12 130.404 233.013 130.776 232.799C131.148 232.573 131.334 232.229 131.334 231.767C131.334 231.383 131.165 231.079 130.827 230.853C130.489 230.628 130.077 230.453 129.592 230.329C129.107 230.205 128.622 230.07 128.137 229.923C127.652 229.765 127.24 229.511 126.902 229.162C126.564 228.801 126.395 228.333 126.395 227.758C126.395 227.07 126.665 226.494 127.207 226.032C127.759 225.57 128.453 225.338 129.287 225.338C129.975 225.338 130.579 225.496 131.098 225.812C131.616 226.117 132 226.534 132.248 227.064L131.318 227.605C130.99 226.816 130.314 226.421 129.287 226.421C128.803 226.421 128.385 226.539 128.036 226.776C127.686 227.002 127.511 227.329 127.511 227.758Z" fill="black"/>
<path d="M469.794 155.203C468.712 155.203 467.781 154.949 467.003 154.442C466.236 153.923 465.7 153.212 465.396 152.31L466.411 151.718C466.625 152.451 467.02 153.026 467.595 153.444C468.17 153.85 468.909 154.053 469.811 154.053C470.691 154.053 471.373 153.861 471.858 153.477C472.355 153.083 472.603 152.564 472.603 151.921C472.603 151.301 472.377 150.833 471.926 150.517C471.475 150.201 470.731 149.874 469.693 149.536C468.464 149.13 467.652 148.803 467.257 148.555C466.355 148.013 465.903 147.229 465.903 146.203C465.903 145.199 466.253 144.41 466.952 143.835C467.652 143.248 468.514 142.955 469.541 142.955C470.465 142.955 471.266 143.197 471.943 143.682C472.62 144.156 473.122 144.765 473.449 145.509L472.45 146.068C471.909 144.759 470.939 144.105 469.541 144.105C468.808 144.105 468.215 144.286 467.764 144.647C467.313 145.008 467.088 145.509 467.088 146.152C467.088 146.739 467.291 147.179 467.697 147.472C468.103 147.765 468.774 148.064 469.71 148.368C470.138 148.515 470.443 148.622 470.623 148.69C470.815 148.746 471.086 148.848 471.435 148.994C471.796 149.13 472.061 149.254 472.231 149.367C472.4 149.468 472.603 149.615 472.84 149.806C473.088 149.987 473.262 150.173 473.364 150.365C473.477 150.545 473.573 150.771 473.652 151.041C473.742 151.301 473.787 151.583 473.787 151.887C473.787 152.891 473.42 153.697 472.687 154.306C471.954 154.904 470.99 155.203 469.794 155.203ZM476.784 144.511C476.626 144.669 476.435 144.748 476.209 144.748C475.983 144.748 475.792 144.669 475.634 144.511C475.476 144.353 475.397 144.162 475.397 143.936C475.397 143.711 475.476 143.519 475.634 143.361C475.792 143.203 475.983 143.124 476.209 143.124C476.435 143.124 476.626 143.203 476.784 143.361C476.942 143.519 477.021 143.711 477.021 143.936C477.021 144.162 476.942 144.353 476.784 144.511ZM475.651 155V146.541H476.767V155H475.651ZM483.62 147.624H481.184V152.75C481.184 153.212 481.274 153.545 481.454 153.748C481.635 153.94 481.905 154.041 482.266 154.053C482.627 154.053 483.078 154.041 483.62 154.019V155C482.435 155.18 481.545 155.096 480.947 154.746C480.36 154.397 480.067 153.731 480.067 152.75V147.624H478.291V146.541H480.067V144.511L481.184 144.173V146.541H483.62V147.624ZM488.876 146.338C490.128 146.338 491.138 146.784 491.905 147.675C492.683 148.555 493.072 149.598 493.072 150.805C493.072 150.929 493.061 151.103 493.038 151.329H485.611C485.724 152.186 486.085 152.868 486.694 153.376C487.314 153.872 488.076 154.12 488.978 154.12C489.621 154.12 490.173 153.991 490.636 153.731C491.109 153.461 491.465 153.111 491.702 152.682L492.683 153.258C492.311 153.855 491.803 154.329 491.16 154.679C490.517 155.028 489.784 155.203 488.961 155.203C487.63 155.203 486.547 154.786 485.713 153.951C484.878 153.117 484.461 152.056 484.461 150.771C484.461 149.508 484.873 148.453 485.696 147.607C486.519 146.761 487.579 146.338 488.876 146.338ZM488.876 147.421C487.997 147.421 487.258 147.686 486.66 148.216C486.074 148.735 485.724 149.412 485.611 150.246H491.921C491.809 149.355 491.465 148.662 490.889 148.165C490.314 147.669 489.643 147.421 488.876 147.421ZM506.352 143.158H507.468V155H506.352V153.342C505.573 154.583 504.434 155.203 502.934 155.203C501.728 155.203 500.696 154.774 499.838 153.917C498.993 153.06 498.57 152.011 498.57 150.771C498.57 149.53 498.993 148.481 499.838 147.624C500.696 146.767 501.728 146.338 502.934 146.338C504.434 146.338 505.573 146.959 506.352 148.199V143.158ZM500.65 153.156C501.293 153.799 502.083 154.12 503.019 154.12C503.955 154.12 504.744 153.799 505.387 153.156C506.03 152.502 506.352 151.707 506.352 150.771C506.352 149.835 506.03 149.045 505.387 148.402C504.744 147.748 503.955 147.421 503.019 147.421C502.083 147.421 501.293 147.748 500.65 148.402C500.008 149.045 499.686 149.835 499.686 150.771C499.686 151.707 500.008 152.502 500.65 153.156ZM513.74 146.338C514.992 146.338 516.001 146.784 516.768 147.675C517.546 148.555 517.936 149.598 517.936 150.805C517.936 150.929 517.924 151.103 517.902 151.329H510.475C510.588 152.186 510.949 152.868 511.558 153.376C512.178 153.872 512.939 154.12 513.842 154.12C514.484 154.12 515.037 153.991 515.5 153.731C515.973 153.461 516.328 153.111 516.565 152.682L517.546 153.258C517.174 153.855 516.667 154.329 516.024 154.679C515.381 155.028 514.648 155.203 513.825 155.203C512.494 155.203 511.411 154.786 510.577 153.951C509.742 153.117 509.325 152.056 509.325 150.771C509.325 149.508 509.736 148.453 510.56 147.607C511.383 146.761 512.443 146.338 513.74 146.338ZM513.74 147.421C512.86 147.421 512.122 147.686 511.524 148.216C510.937 148.735 510.588 149.412 510.475 150.246H516.785C516.672 149.355 516.328 148.662 515.753 148.165C515.178 147.669 514.507 147.421 513.74 147.421ZM524.11 143.158H525.294V155H524.11V143.158ZM536.857 146.338C537.804 146.338 538.565 146.643 539.141 147.252C539.727 147.861 540.02 148.684 540.02 149.722V155H538.904V149.722C538.904 148.989 538.712 148.425 538.329 148.03C537.956 147.624 537.46 147.421 536.84 147.421C536.141 147.421 535.571 147.658 535.131 148.132C534.703 148.594 534.488 149.321 534.488 150.314V155H533.372V149.722C533.372 148.977 533.191 148.408 532.83 148.013C532.481 147.618 532.002 147.421 531.392 147.421C530.716 147.421 530.141 147.658 529.667 148.132C529.193 148.605 528.956 149.333 528.956 150.314V155H527.84V146.541H528.956V147.776C529.565 146.818 530.428 146.338 531.545 146.338C532.763 146.338 533.62 146.852 534.116 147.878C534.725 146.852 535.639 146.338 536.857 146.338ZM545.276 145.357H546.358L547.983 143.158H546.629L545.276 145.357ZM549.268 153.934C548.411 154.78 547.362 155.203 546.122 155.203C544.881 155.203 543.827 154.78 542.958 153.934C542.101 153.077 541.672 152.023 541.672 150.771C541.672 149.519 542.101 148.47 542.958 147.624C543.827 146.767 544.881 146.338 546.122 146.338C547.362 146.338 548.411 146.767 549.268 147.624C550.137 148.47 550.571 149.519 550.571 150.771C550.571 152.023 550.137 153.077 549.268 153.934ZM543.753 153.156C544.396 153.799 545.186 154.12 546.122 154.12C547.058 154.12 547.847 153.799 548.49 153.156C549.133 152.502 549.454 151.707 549.454 150.771C549.454 149.835 549.133 149.045 548.49 148.402C547.847 147.748 547.058 147.421 546.122 147.421C545.186 147.421 544.396 147.748 543.753 148.402C543.11 149.045 542.789 149.835 542.789 150.771C542.789 151.707 543.11 152.502 543.753 153.156ZM558.199 146.541H559.383L555.915 155H554.562L551.094 146.541H552.278L555.239 153.833L558.199 146.541ZM564.31 146.338C565.562 146.338 566.571 146.784 567.338 147.675C568.117 148.555 568.506 149.598 568.506 150.805C568.506 150.929 568.494 151.103 568.472 151.329H561.045C561.158 152.186 561.519 152.868 562.128 153.376C562.748 153.872 563.509 154.12 564.412 154.12C565.055 154.12 565.607 153.991 566.07 153.731C566.543 153.461 566.899 153.111 567.135 152.682L568.117 153.258C567.744 153.855 567.237 154.329 566.594 154.679C565.951 155.028 565.218 155.203 564.395 155.203C563.064 155.203 561.981 154.786 561.147 153.951C560.312 153.117 559.895 152.056 559.895 150.771C559.895 149.508 560.306 148.453 561.13 147.607C561.953 146.761 563.013 146.338 564.31 146.338ZM564.31 147.421C563.431 147.421 562.692 147.686 562.094 148.216C561.508 148.735 561.158 149.412 561.045 150.246H567.355C567.243 149.355 566.899 148.662 566.323 148.165C565.748 147.669 565.077 147.421 564.31 147.421ZM571.415 144.511C571.257 144.669 571.066 144.748 570.84 144.748C570.614 144.748 570.423 144.669 570.265 144.511C570.107 144.353 570.028 144.162 570.028 143.936C570.028 143.711 570.107 143.519 570.265 143.361C570.423 143.203 570.614 143.124 570.84 143.124C571.066 143.124 571.257 143.203 571.415 143.361C571.573 143.519 571.652 143.711 571.652 143.936C571.652 144.162 571.573 144.353 571.415 144.511ZM570.282 155V146.541H571.398V155H570.282ZM574.647 148.758C574.647 149.141 574.817 149.445 575.155 149.671C575.493 149.897 575.905 150.071 576.39 150.195C576.875 150.32 577.36 150.461 577.845 150.618C578.33 150.765 578.741 151.019 579.08 151.38C579.418 151.729 579.587 152.192 579.587 152.767C579.587 153.489 579.3 154.075 578.724 154.526C578.16 154.977 577.427 155.203 576.525 155.203C575.713 155.203 575.02 155.023 574.444 154.662C573.88 154.301 573.486 153.833 573.26 153.258L574.207 152.699C574.365 153.139 574.647 153.489 575.053 153.748C575.471 153.996 575.961 154.12 576.525 154.12C577.078 154.12 577.54 154.013 577.912 153.799C578.285 153.573 578.471 153.229 578.471 152.767C578.471 152.383 578.301 152.079 577.963 151.853C577.625 151.628 577.213 151.453 576.728 151.329C576.243 151.205 575.758 151.07 575.273 150.923C574.788 150.765 574.377 150.511 574.038 150.162C573.7 149.801 573.531 149.333 573.531 148.758C573.531 148.07 573.801 147.494 574.343 147.032C574.895 146.57 575.589 146.338 576.424 146.338C577.112 146.338 577.715 146.496 578.234 146.812C578.753 147.117 579.136 147.534 579.384 148.064L578.454 148.605C578.127 147.816 577.45 147.421 576.424 147.421C575.939 147.421 575.521 147.539 575.172 147.776C574.822 148.002 574.647 148.329 574.647 148.758Z" fill="black"/>
</svg>
